# MagicaVoxel @ Ephtracy

# group
o 

# material
mtllib Inimigo1.mtl
usemtl palette

# normals
vn -1 0 0
vn 1 0 0
vn 0 0 1
vn 0 0 -1
vn 0 -1 0
vn 0 1 0

# texcoords
vt 0.294922 0.5
vt 0.298828 0.5
vt 0.302734 0.5
vt 0.306641 0.5
vt 0.310547 0.5

# verts
v -0.7 0.8 0.3
v -0.7 0.8 -0.3
v -0.7 1.4 0.3
v -0.7 1.4 -0.3
v -0.6 0.5 0.6
v -0.6 0.5 -0.6
v -0.6 0.8 0.3
v -0.6 0.8 -0.3
v -0.6 1.4 0.3
v -0.6 1.4 -0.3
v -0.6 1.7 0.6
v -0.6 1.7 -0.6
v -0.3 0.1 0.2
v -0.3 0.1 -0.2
v -0.3 0.2 0.2
v -0.3 0.2 -0.2
v -0.3 0.4 0.3
v -0.3 0.4 -0.3
v -0.3 0.5 0.3
v -0.3 0.5 -0.3
v -0.3 1.7 0.3
v -0.3 1.7 -0.3
v -0.3 1.8 0.3
v -0.3 1.8 -0.3
v -0.3 2 0.2
v -0.3 2 -0.2
v -0.3 2.1 0.2
v -0.3 2.1 -0.2
v -0.2 0.1 0.3
v -0.2 0.1 0.2
v -0.2 0.1 -0.2
v -0.2 0.1 -0.3
v -0.2 0.2 0.3
v -0.2 0.2 0.2
v -0.2 0.2 -0.2
v -0.2 0.2 -0.3
v -0.2 0.8 0.7
v -0.2 0.8 0.6
v -0.2 0.8 -0.6
v -0.2 0.8 -0.7
v -0.2 0.9 0.7
v -0.2 0.9 0.6
v -0.2 0.9 -0.6
v -0.2 0.9 -0.7
v -0.2 1.3 0.7
v -0.2 1.3 0.6
v -0.2 1.3 -0.6
v -0.2 1.3 -0.7
v -0.2 1.4 0.7
v -0.2 1.4 0.6
v -0.2 1.4 -0.6
v -0.2 1.4 -0.7
v -0.2 2 0.3
v -0.2 2 0.2
v -0.2 2 -0.2
v -0.2 2 -0.3
v -0.2 2.1 0.3
v -0.2 2.1 0.2
v -0.2 2.1 -0.2
v -0.2 2.1 -0.3
v -0.1 0 0.1
v -0.1 0 -0.1
v -0.1 0.4 0.1
v -0.1 0.4 -0.1
v -0.1 1.8 0.1
v -0.1 1.8 -0.1
v -0.1 2.2 0.1
v -0.1 2.2 -0.1
v 0.2 0.1 0.2
v 0.2 0.1 -0.2
v 0.2 0.2 0.2
v 0.2 0.2 -0.2
v 0.2 2 0.2
v 0.2 2 -0.2
v 0.2 2.1 0.2
v 0.2 2.1 -0.2
v -0.2 0.1 0.2
v -0.2 0.1 -0.2
v -0.2 0.2 0.2
v -0.2 0.2 -0.2
v -0.2 2 0.2
v -0.2 2 -0.2
v -0.2 2.1 0.2
v -0.2 2.1 -0.2
v 0.1 0 0.1
v 0.1 0 -0.1
v 0.1 0.4 0.1
v 0.1 0.4 -0.1
v 0.1 1.8 0.1
v 0.1 1.8 -0.1
v 0.1 2.2 0.1
v 0.1 2.2 -0.1
v 0.2 0.1 0.3
v 0.2 0.1 0.2
v 0.2 0.1 -0.2
v 0.2 0.1 -0.3
v 0.2 0.2 0.3
v 0.2 0.2 0.2
v 0.2 0.2 -0.2
v 0.2 0.2 -0.3
v 0.2 0.8 0.7
v 0.2 0.8 0.6
v 0.2 0.8 -0.6
v 0.2 0.8 -0.7
v 0.2 0.9 0.7
v 0.2 0.9 0.6
v 0.2 0.9 -0.6
v 0.2 0.9 -0.7
v 0.2 1.3 0.7
v 0.2 1.3 0.6
v 0.2 1.3 -0.6
v 0.2 1.3 -0.7
v 0.2 1.4 0.7
v 0.2 1.4 0.6
v 0.2 1.4 -0.6
v 0.2 1.4 -0.7
v 0.2 2 0.3
v 0.2 2 0.2
v 0.2 2 -0.2
v 0.2 2 -0.3
v 0.2 2.1 0.3
v 0.2 2.1 0.2
v 0.2 2.1 -0.2
v 0.2 2.1 -0.3
v 0.3 0.1 0.2
v 0.3 0.1 -0.2
v 0.3 0.2 0.2
v 0.3 0.2 -0.2
v 0.3 0.4 0.3
v 0.3 0.4 -0.3
v 0.3 0.5 0.3
v 0.3 0.5 -0.3
v 0.3 1.7 0.3
v 0.3 1.7 -0.3
v 0.3 1.8 0.3
v 0.3 1.8 -0.3
v 0.3 2 0.2
v 0.3 2 -0.2
v 0.3 2.1 0.2
v 0.3 2.1 -0.2
v 0.6 0.5 0.6
v 0.6 0.5 -0.6
v 0.6 0.6 0.5
v 0.6 0.6 -0.5
v 0.6 1.6 0.5
v 0.6 1.6 -0.5
v 0.6 1.7 0.6
v 0.6 1.7 -0.6
v 0.7 0.6 0.5
v 0.7 0.6 -0.5
v 0.7 1 0.4
v 0.7 1 0.3
v 0.7 1 0.2
v 0.7 1 -0.2
v 0.7 1 -0.3
v 0.7 1 -0.4
v 0.7 1.1 0.2
v 0.7 1.1 -0.2
v 0.7 1.2 0.4
v 0.7 1.2 0.3
v 0.7 1.2 -0.3
v 0.7 1.2 -0.4
v 0.7 1.6 0.5
v 0.7 1.6 -0.5
v -0.2 0.8 0.7
v -0.2 0.9 0.7
v -0.2 1.3 0.7
v -0.2 1.4 0.7
v 0.2 0.8 0.7
v 0.2 0.9 0.7
v 0.2 1.3 0.7
v 0.2 1.4 0.7
v -0.6 0.5 0.6
v -0.6 1.7 0.6
v -0.2 0.8 0.6
v -0.2 0.9 0.6
v -0.2 1.3 0.6
v -0.2 1.4 0.6
v 0.2 0.8 0.6
v 0.2 0.9 0.6
v 0.2 1.3 0.6
v 0.2 1.4 0.6
v 0.6 0.5 0.6
v 0.6 1.7 0.6
v 0.6 0.6 0.5
v 0.6 1.6 0.5
v 0.7 0.6 0.5
v 0.7 1.6 0.5
v -0.7 0.8 0.3
v -0.7 1.4 0.3
v -0.6 0.8 0.3
v -0.6 1.4 0.3
v -0.3 0.4 0.3
v -0.3 0.5 0.3
v -0.3 1.7 0.3
v -0.3 1.8 0.3
v -0.2 0.1 0.3
v -0.2 0.2 0.3
v -0.2 2 0.3
v -0.2 2.1 0.3
v 0.2 0.1 0.3
v 0.2 0.2 0.3
v 0.2 2 0.3
v 0.2 2.1 0.3
v 0.3 0.4 0.3
v 0.3 0.5 0.3
v 0.3 1.7 0.3
v 0.3 1.8 0.3
v -0.3 0.1 0.2
v -0.3 0.2 0.2
v -0.3 2 0.2
v -0.3 2.1 0.2
v -0.2 0.1 0.2
v -0.2 0.2 0.2
v -0.2 2 0.2
v -0.2 2.1 0.2
v 0.2 0.1 0.2
v 0.2 0.2 0.2
v 0.2 2 0.2
v 0.2 2.1 0.2
v 0.3 0.1 0.2
v 0.3 0.2 0.2
v 0.3 2 0.2
v 0.3 2.1 0.2
v -0.1 0 0.1
v -0.1 0.4 0.1
v -0.1 1.8 0.1
v -0.1 2.2 0.1
v 0.1 0 0.1
v 0.1 0.4 0.1
v 0.1 1.8 0.1
v 0.1 2.2 0.1
v -0.2 0.1 -0.2
v -0.2 0.2 -0.2
v -0.2 2 -0.2
v -0.2 2.1 -0.2
v 0.2 0.1 -0.2
v 0.2 0.2 -0.2
v 0.2 2 -0.2
v 0.2 2.1 -0.2
v -0.2 0.1 0.2
v -0.2 0.2 0.2
v -0.2 2 0.2
v -0.2 2.1 0.2
v 0.2 0.1 0.2
v 0.2 0.2 0.2
v 0.2 2 0.2
v 0.2 2.1 0.2
v -0.1 0 -0.1
v -0.1 0.4 -0.1
v -0.1 1.8 -0.1
v -0.1 2.2 -0.1
v 0.1 0 -0.1
v 0.1 0.4 -0.1
v 0.1 1.8 -0.1
v 0.1 2.2 -0.1
v -0.3 0.1 -0.2
v -0.3 0.2 -0.2
v -0.3 2 -0.2
v -0.3 2.1 -0.2
v -0.2 0.1 -0.2
v -0.2 0.2 -0.2
v -0.2 2 -0.2
v -0.2 2.1 -0.2
v 0.2 0.1 -0.2
v 0.2 0.2 -0.2
v 0.2 2 -0.2
v 0.2 2.1 -0.2
v 0.3 0.1 -0.2
v 0.3 0.2 -0.2
v 0.3 2 -0.2
v 0.3 2.1 -0.2
v -0.7 0.8 -0.3
v -0.7 1.4 -0.3
v -0.6 0.8 -0.3
v -0.6 1.4 -0.3
v -0.3 0.4 -0.3
v -0.3 0.5 -0.3
v -0.3 1.7 -0.3
v -0.3 1.8 -0.3
v -0.2 0.1 -0.3
v -0.2 0.2 -0.3
v -0.2 2 -0.3
v -0.2 2.1 -0.3
v 0.2 0.1 -0.3
v 0.2 0.2 -0.3
v 0.2 2 -0.3
v 0.2 2.1 -0.3
v 0.3 0.4 -0.3
v 0.3 0.5 -0.3
v 0.3 1.7 -0.3
v 0.3 1.8 -0.3
v 0.6 0.6 -0.5
v 0.6 1.6 -0.5
v 0.7 0.6 -0.5
v 0.7 1.6 -0.5
v -0.6 0.5 -0.6
v -0.6 1.7 -0.6
v -0.2 0.8 -0.6
v -0.2 0.9 -0.6
v -0.2 1.3 -0.6
v -0.2 1.4 -0.6
v 0.2 0.8 -0.6
v 0.2 0.9 -0.6
v 0.2 1.3 -0.6
v 0.2 1.4 -0.6
v 0.6 0.5 -0.6
v 0.6 1.7 -0.6
v -0.2 0.8 -0.7
v -0.2 0.9 -0.7
v -0.2 1.3 -0.7
v -0.2 1.4 -0.7
v 0.2 0.8 -0.7
v 0.2 0.9 -0.7
v 0.2 1.3 -0.7
v 0.2 1.4 -0.7
v -0.1 0 0.1
v 0.1 0 0.1
v -0.1 0 -0.1
v 0.1 0 -0.1
v -0.2 0.1 0.3
v 0.2 0.1 0.3
v -0.3 0.1 0.2
v -0.2 0.1 0.2
v 0.2 0.1 0.2
v 0.3 0.1 0.2
v -0.3 0.1 -0.2
v -0.2 0.1 -0.2
v 0.2 0.1 -0.2
v 0.3 0.1 -0.2
v -0.2 0.1 -0.3
v 0.2 0.1 -0.3
v -0.3 0.4 0.3
v 0.3 0.4 0.3
v -0.1 0.4 0.1
v 0.1 0.4 0.1
v -0.1 0.4 -0.1
v 0.1 0.4 -0.1
v -0.3 0.4 -0.3
v 0.3 0.4 -0.3
v -0.6 0.5 0.6
v 0.6 0.5 0.6
v -0.3 0.5 0.3
v 0.3 0.5 0.3
v -0.3 0.5 -0.3
v 0.3 0.5 -0.3
v -0.6 0.5 -0.6
v 0.6 0.5 -0.6
v 0.6 0.6 0.5
v 0.7 0.6 0.5
v 0.6 0.6 -0.5
v 0.7 0.6 -0.5
v -0.2 0.8 0.7
v 0.2 0.8 0.7
v -0.2 0.8 0.6
v 0.2 0.8 0.6
v -0.7 0.8 0.3
v -0.6 0.8 0.3
v -0.7 0.8 -0.3
v -0.6 0.8 -0.3
v -0.2 0.8 -0.6
v 0.2 0.8 -0.6
v -0.2 0.8 -0.7
v 0.2 0.8 -0.7
v -0.2 1.3 0.7
v 0.2 1.3 0.7
v -0.2 1.3 0.6
v 0.2 1.3 0.6
v -0.2 1.3 -0.6
v 0.2 1.3 -0.6
v -0.2 1.3 -0.7
v 0.2 1.3 -0.7
v -0.2 2 0.3
v 0.2 2 0.3
v -0.3 2 0.2
v -0.2 2 0.2
v 0.2 2 0.2
v 0.3 2 0.2
v -0.3 2 -0.2
v -0.2 2 -0.2
v 0.2 2 -0.2
v 0.3 2 -0.2
v -0.2 2 -0.3
v 0.2 2 -0.3
v -0.2 0.2 0.3
v 0.2 0.2 0.3
v -0.3 0.2 0.2
v -0.2 0.2 0.2
v 0.2 0.2 0.2
v 0.3 0.2 0.2
v -0.3 0.2 -0.2
v -0.2 0.2 -0.2
v 0.2 0.2 -0.2
v 0.3 0.2 -0.2
v -0.2 0.2 -0.3
v 0.2 0.2 -0.3
v -0.2 0.9 0.7
v 0.2 0.9 0.7
v -0.2 0.9 0.6
v 0.2 0.9 0.6
v -0.2 0.9 -0.6
v 0.2 0.9 -0.6
v -0.2 0.9 -0.7
v 0.2 0.9 -0.7
v -0.2 1.4 0.7
v 0.2 1.4 0.7
v -0.2 1.4 0.6
v 0.2 1.4 0.6
v -0.7 1.4 0.3
v -0.6 1.4 0.3
v -0.7 1.4 -0.3
v -0.6 1.4 -0.3
v -0.2 1.4 -0.6
v 0.2 1.4 -0.6
v -0.2 1.4 -0.7
v 0.2 1.4 -0.7
v 0.6 1.6 0.5
v 0.7 1.6 0.5
v 0.6 1.6 -0.5
v 0.7 1.6 -0.5
v -0.6 1.7 0.6
v 0.6 1.7 0.6
v -0.3 1.7 0.3
v 0.3 1.7 0.3
v -0.3 1.7 -0.3
v 0.3 1.7 -0.3
v -0.6 1.7 -0.6
v 0.6 1.7 -0.6
v -0.3 1.8 0.3
v 0.3 1.8 0.3
v -0.1 1.8 0.1
v 0.1 1.8 0.1
v -0.1 1.8 -0.1
v 0.1 1.8 -0.1
v -0.3 1.8 -0.3
v 0.3 1.8 -0.3
v -0.2 2.1 0.3
v 0.2 2.1 0.3
v -0.3 2.1 0.2
v -0.2 2.1 0.2
v 0.2 2.1 0.2
v 0.3 2.1 0.2
v -0.3 2.1 -0.2
v -0.2 2.1 -0.2
v 0.2 2.1 -0.2
v 0.3 2.1 -0.2
v -0.2 2.1 -0.3
v 0.2 2.1 -0.3
v -0.1 2.2 0.1
v 0.1 2.2 0.1
v -0.1 2.2 -0.1
v 0.1 2.2 -0.1

# faces
f 3/2/1 2/2/1 1/2/1
f 4/2/1 2/2/1 3/2/1
f 7/4/1 6/4/1 5/4/1
f 8/4/1 6/4/1 7/4/1
f 9/4/1 7/4/1 5/4/1
f 10/4/1 6/4/1 8/4/1
f 11/4/1 9/4/1 5/4/1
f 11/4/1 10/4/1 9/4/1
f 12/4/1 6/4/1 10/4/1
f 12/4/1 10/4/1 11/4/1
f 15/1/1 14/1/1 13/1/1
f 16/1/1 14/1/1 15/1/1
f 19/2/1 18/2/1 17/2/1
f 20/2/1 18/2/1 19/2/1
f 23/2/1 22/2/1 21/2/1
f 24/2/1 22/2/1 23/2/1
f 27/1/1 26/1/1 25/1/1
f 28/1/1 26/1/1 27/1/1
f 33/1/1 30/1/1 29/1/1
f 34/1/1 30/1/1 33/1/1
f 35/1/1 32/1/1 31/1/1
f 36/1/1 32/1/1 35/1/1
f 41/3/1 38/3/1 37/3/1
f 42/3/1 38/3/1 41/3/1
f 43/3/1 40/3/1 39/3/1
f 44/3/1 40/3/1 43/3/1
f 49/3/1 46/3/1 45/3/1
f 50/3/1 46/3/1 49/3/1
f 51/3/1 48/3/1 47/3/1
f 52/3/1 48/3/1 51/3/1
f 57/1/1 54/1/1 53/1/1
f 58/1/1 54/1/1 57/1/1
f 59/1/1 56/1/1 55/1/1
f 60/1/1 56/1/1 59/1/1
f 63/2/1 62/2/1 61/2/1
f 64/2/1 62/2/1 63/2/1
f 67/2/1 66/2/1 65/2/1
f 68/2/1 66/2/1 67/2/1
f 71/1/1 70/1/1 69/1/1
f 72/1/1 70/1/1 71/1/1
f 75/1/1 74/1/1 73/1/1
f 76/1/1 74/1/1 75/1/1
f 77/1/2 78/1/2 79/1/2
f 79/1/2 78/1/2 80/1/2
f 81/1/2 82/1/2 83/1/2
f 83/1/2 82/1/2 84/1/2
f 85/2/2 86/2/2 87/2/2
f 87/2/2 86/2/2 88/2/2
f 89/2/2 90/2/2 91/2/2
f 91/2/2 90/2/2 92/2/2
f 93/1/2 94/1/2 97/1/2
f 97/1/2 94/1/2 98/1/2
f 95/1/2 96/1/2 99/1/2
f 99/1/2 96/1/2 100/1/2
f 101/3/2 102/3/2 105/3/2
f 105/3/2 102/3/2 106/3/2
f 103/3/2 104/3/2 107/3/2
f 107/3/2 104/3/2 108/3/2
f 109/3/2 110/3/2 113/3/2
f 113/3/2 110/3/2 114/3/2
f 111/3/2 112/3/2 115/3/2
f 115/3/2 112/3/2 116/3/2
f 117/1/2 118/1/2 121/1/2
f 121/1/2 118/1/2 122/1/2
f 119/1/2 120/1/2 123/1/2
f 123/1/2 120/1/2 124/1/2
f 125/1/2 126/1/2 127/1/2
f 127/1/2 126/1/2 128/1/2
f 129/2/2 130/2/2 131/2/2
f 131/2/2 130/2/2 132/2/2
f 133/2/2 134/2/2 135/2/2
f 135/2/2 134/2/2 136/2/2
f 137/1/2 138/1/2 139/1/2
f 139/1/2 138/1/2 140/1/2
f 141/4/2 142/4/2 143/4/2
f 143/4/2 142/4/2 144/4/2
f 141/4/2 143/4/2 145/4/2
f 144/4/2 142/4/2 146/4/2
f 141/4/2 145/4/2 147/4/2
f 145/4/2 146/4/2 147/4/2
f 146/4/2 142/4/2 148/4/2
f 147/4/2 146/4/2 148/4/2
f 149/5/2 150/5/2 151/5/2
f 151/5/2 150/5/2 152/5/2
f 152/5/2 150/5/2 153/5/2
f 153/5/2 150/5/2 154/5/2
f 154/5/2 150/5/2 155/5/2
f 155/5/2 150/5/2 156/5/2
f 152/5/2 153/5/2 157/5/2
f 153/3/2 154/3/2 157/3/2
f 154/5/2 155/5/2 158/5/2
f 157/3/2 154/3/2 158/3/2
f 149/5/2 151/5/2 159/5/2
f 151/3/2 152/3/2 159/3/2
f 157/5/2 158/5/2 160/5/2
f 159/3/2 152/3/2 160/3/2
f 152/5/2 157/5/2 160/5/2
f 158/5/2 155/5/2 161/5/2
f 160/5/2 158/5/2 161/5/2
f 155/3/2 156/3/2 161/3/2
f 156/5/2 150/5/2 162/5/2
f 161/3/2 156/3/2 162/3/2
f 159/5/2 160/5/2 163/5/2
f 149/5/2 159/5/2 163/5/2
f 161/5/2 162/5/2 163/5/2
f 160/5/2 161/5/2 163/5/2
f 162/5/2 150/5/2 164/5/2
f 163/5/2 162/5/2 164/5/2
f 169/3/3 166/3/3 165/3/3
f 170/3/3 166/3/3 169/3/3
f 171/3/3 168/3/3 167/3/3
f 172/3/3 168/3/3 171/3/3
f 175/4/3 174/4/3 173/4/3
f 176/4/3 174/4/3 175/4/3
f 177/4/3 174/4/3 176/4/3
f 178/4/3 174/4/3 177/4/3
f 179/4/3 175/4/3 173/4/3
f 180/4/3 177/4/3 176/4/3
f 181/4/3 177/4/3 180/4/3
f 182/4/3 174/4/3 178/4/3
f 183/4/3 181/4/3 180/4/3
f 183/4/3 182/4/3 181/4/3
f 183/4/3 179/4/3 173/4/3
f 183/4/3 180/4/3 179/4/3
f 184/4/3 174/4/3 182/4/3
f 184/4/3 182/4/3 183/4/3
f 187/5/3 186/5/3 185/5/3
f 188/5/3 186/5/3 187/5/3
f 191/2/3 190/2/3 189/2/3
f 192/2/3 190/2/3 191/2/3
f 201/1/3 198/1/3 197/1/3
f 202/1/3 198/1/3 201/1/3
f 203/1/3 200/1/3 199/1/3
f 204/1/3 200/1/3 203/1/3
f 205/2/3 194/2/3 193/2/3
f 206/2/3 194/2/3 205/2/3
f 207/2/3 196/2/3 195/2/3
f 208/2/3 196/2/3 207/2/3
f 213/1/3 210/1/3 209/1/3
f 214/1/3 210/1/3 213/1/3
f 215/1/3 212/1/3 211/1/3
f 216/1/3 212/1/3 215/1/3
f 221/1/3 218/1/3 217/1/3
f 222/1/3 218/1/3 221/1/3
f 223/1/3 220/1/3 219/1/3
f 224/1/3 220/1/3 223/1/3
f 229/2/3 226/2/3 225/2/3
f 230/2/3 226/2/3 229/2/3
f 231/2/3 228/2/3 227/2/3
f 232/2/3 228/2/3 231/2/3
f 237/1/3 234/1/3 233/1/3
f 238/1/3 234/1/3 237/1/3
f 239/1/3 236/1/3 235/1/3
f 240/1/3 236/1/3 239/1/3
f 241/1/4 242/1/4 245/1/4
f 245/1/4 242/1/4 246/1/4
f 243/1/4 244/1/4 247/1/4
f 247/1/4 244/1/4 248/1/4
f 249/2/4 250/2/4 253/2/4
f 253/2/4 250/2/4 254/2/4
f 251/2/4 252/2/4 255/2/4
f 255/2/4 252/2/4 256/2/4
f 257/1/4 258/1/4 261/1/4
f 261/1/4 258/1/4 262/1/4
f 259/1/4 260/1/4 263/1/4
f 263/1/4 260/1/4 264/1/4
f 265/1/4 266/1/4 269/1/4
f 269/1/4 266/1/4 270/1/4
f 267/1/4 268/1/4 271/1/4
f 271/1/4 268/1/4 272/1/4
f 273/2/4 274/2/4 275/2/4
f 275/2/4 274/2/4 276/2/4
f 281/1/4 282/1/4 285/1/4
f 285/1/4 282/1/4 286/1/4
f 283/1/4 284/1/4 287/1/4
f 287/1/4 284/1/4 288/1/4
f 277/2/4 278/2/4 289/2/4
f 289/2/4 278/2/4 290/2/4
f 279/2/4 280/2/4 291/2/4
f 291/2/4 280/2/4 292/2/4
f 293/5/4 294/5/4 295/5/4
f 295/5/4 294/5/4 296/5/4
f 297/4/4 298/4/4 299/4/4
f 299/4/4 298/4/4 300/4/4
f 300/4/4 298/4/4 301/4/4
f 301/4/4 298/4/4 302/4/4
f 297/4/4 299/4/4 303/4/4
f 300/4/4 301/4/4 304/4/4
f 304/4/4 301/4/4 305/4/4
f 302/4/4 298/4/4 306/4/4
f 304/4/4 305/4/4 307/4/4
f 305/4/4 306/4/4 307/4/4
f 297/4/4 303/4/4 307/4/4
f 303/4/4 304/4/4 307/4/4
f 306/4/4 298/4/4 308/4/4
f 307/4/4 306/4/4 308/4/4
f 309/3/4 310/3/4 313/3/4
f 313/3/4 310/3/4 314/3/4
f 311/3/4 312/3/4 315/3/4
f 315/3/4 312/3/4 316/3/4
f 319/2/5 318/2/5 317/2/5
f 320/2/5 318/2/5 319/2/5
f 324/1/5 322/1/5 321/1/5
f 325/1/5 322/1/5 324/1/5
f 327/1/5 324/1/5 323/1/5
f 328/1/5 324/1/5 327/1/5
f 329/1/5 326/1/5 325/1/5
f 330/1/5 326/1/5 329/1/5
f 331/1/5 329/1/5 328/1/5
f 332/1/5 329/1/5 331/1/5
f 335/2/5 334/2/5 333/2/5
f 336/2/5 334/2/5 335/2/5
f 337/2/5 335/2/5 333/2/5
f 338/2/5 334/2/5 336/2/5
f 339/2/5 337/2/5 333/2/5
f 339/2/5 338/2/5 337/2/5
f 340/2/5 334/2/5 338/2/5
f 340/2/5 338/2/5 339/2/5
f 343/4/5 342/4/5 341/4/5
f 344/4/5 342/4/5 343/4/5
f 345/4/5 343/4/5 341/4/5
f 346/4/5 342/4/5 344/4/5
f 347/4/5 345/4/5 341/4/5
f 347/4/5 346/4/5 345/4/5
f 348/4/5 342/4/5 346/4/5
f 348/4/5 346/4/5 347/4/5
f 351/5/5 350/5/5 349/5/5
f 352/5/5 350/5/5 351/5/5
f 355/3/5 354/3/5 353/3/5
f 356/3/5 354/3/5 355/3/5
f 359/2/5 358/2/5 357/2/5
f 360/2/5 358/2/5 359/2/5
f 363/3/5 362/3/5 361/3/5
f 364/3/5 362/3/5 363/3/5
f 367/3/5 366/3/5 365/3/5
f 368/3/5 366/3/5 367/3/5
f 371/3/5 370/3/5 369/3/5
f 372/3/5 370/3/5 371/3/5
f 376/1/5 374/1/5 373/1/5
f 377/1/5 374/1/5 376/1/5
f 379/1/5 376/1/5 375/1/5
f 380/1/5 376/1/5 379/1/5
f 381/1/5 378/1/5 377/1/5
f 382/1/5 378/1/5 381/1/5
f 383/1/5 381/1/5 380/1/5
f 384/1/5 381/1/5 383/1/5
f 385/1/6 386/1/6 388/1/6
f 388/1/6 386/1/6 389/1/6
f 387/1/6 388/1/6 391/1/6
f 391/1/6 388/1/6 392/1/6
f 389/1/6 390/1/6 393/1/6
f 393/1/6 390/1/6 394/1/6
f 392/1/6 393/1/6 395/1/6
f 395/1/6 393/1/6 396/1/6
f 397/3/6 398/3/6 399/3/6
f 399/3/6 398/3/6 400/3/6
f 401/3/6 402/3/6 403/3/6
f 403/3/6 402/3/6 404/3/6
f 405/3/6 406/3/6 407/3/6
f 407/3/6 406/3/6 408/3/6
f 409/2/6 410/2/6 411/2/6
f 411/2/6 410/2/6 412/2/6
f 413/3/6 414/3/6 415/3/6
f 415/3/6 414/3/6 416/3/6
f 417/5/6 418/5/6 419/5/6
f 419/5/6 418/5/6 420/5/6
f 421/4/6 422/4/6 423/4/6
f 423/4/6 422/4/6 424/4/6
f 421/4/6 423/4/6 425/4/6
f 424/4/6 422/4/6 426/4/6
f 421/4/6 425/4/6 427/4/6
f 425/4/6 426/4/6 427/4/6
f 426/4/6 422/4/6 428/4/6
f 427/4/6 426/4/6 428/4/6
f 429/2/6 430/2/6 431/2/6
f 431/2/6 430/2/6 432/2/6
f 429/2/6 431/2/6 433/2/6
f 432/2/6 430/2/6 434/2/6
f 429/2/6 433/2/6 435/2/6
f 433/2/6 434/2/6 435/2/6
f 434/2/6 430/2/6 436/2/6
f 435/2/6 434/2/6 436/2/6
f 437/1/6 438/1/6 440/1/6
f 440/1/6 438/1/6 441/1/6
f 439/1/6 440/1/6 443/1/6
f 443/1/6 440/1/6 444/1/6
f 441/1/6 442/1/6 445/1/6
f 445/1/6 442/1/6 446/1/6
f 444/1/6 445/1/6 447/1/6
f 447/1/6 445/1/6 448/1/6
f 449/2/6 450/2/6 451/2/6
f 451/2/6 450/2/6 452/2/6
