# MagicaVoxel @ Ephtracy

# group
o 

# material
mtllib robozinho3.mtl
usemtl palette

# normals
vn -1 0 0
vn 1 0 0
vn 0 0 1
vn 0 0 -1
vn 0 -1 0
vn 0 1 0

# texcoords
vt 0.298828 0.5
vt 0.302734 0.5
vt 0.306641 0.5
vt 0.310547 0.5

# verts
v -1.8 1.5 0.3
v -1.8 1.5 -0.3
v -1.8 2.1 0.3
v -1.8 2.1 -0.3
v -1.6 1.2 0.6
v -1.6 1.2 -0.6
v -1.6 1.5 0.3
v -1.6 1.5 -0.3
v -1.6 2.1 0.3
v -1.6 2.1 -0.3
v -1.6 2.4 0.6
v -1.6 2.4 -0.6
v -1.3 0.5 1.3
v -1.3 0.5 -1.3
v -1.3 1.2 0.6
v -1.3 1.2 -0.6
v -1.3 2.4 0.6
v -1.3 2.4 -0.6
v -1.3 3.1 1.3
v -1.3 3.1 -1.3
v -1.1 0 0.6
v -1.1 0 -0.5
v -1.1 0.2 0.6
v -1.1 0.2 0.3
v -1.1 0.2 -0.5
v -1.1 0.5 0.3
v -1.1 0.5 -0.5
v -1.1 3.1 0.4
v -1.1 3.1 -0.4
v -1.1 3.4 0.4
v -1.1 3.4 -0.4
v -1.1 3.6 0.4
v -1.1 3.6 -0.4
v -0.8 1.3 -1.3
v -0.8 1.3 -1.5
v -0.8 1.6 -1.3
v -0.8 1.6 -1.5
v -0.8 1.9 -1.3
v -0.8 1.9 -1.5
v -0.8 2.2 -1.3
v -0.8 2.2 -1.5
v 0.2 1.3 -1.3
v 0.2 1.3 -1.5
v 0.2 1.6 -1.3
v 0.2 1.6 -1.5
v 0.2 1.9 -1.3
v 0.2 1.9 -1.5
v 0.2 2.2 -1.3
v 0.2 2.2 -1.5
v 0.3 0 0.6
v 0.3 0 -0.5
v 0.3 0.2 0.6
v 0.3 0.2 0.3
v 0.3 0.2 -0.5
v 0.3 0.5 0.3
v 0.3 0.5 -0.5
v 0.3 3.1 0.4
v 0.3 3.1 -0.4
v 0.3 3.4 0.4
v 0.3 3.4 -0.4
v 0.3 3.6 0.4
v 0.3 3.6 -0.4
v 0.9 1 1.3
v 0.9 1 1.2
v 0.9 2.7 1.3
v 0.9 2.7 1.2
v -0.9 1 1.3
v -0.9 1 1.2
v -0.9 2.7 1.3
v -0.9 2.7 1.2
v -0.3 0 0.6
v -0.3 0 -0.5
v -0.3 0.2 0.6
v -0.3 0.2 0.3
v -0.3 0.2 -0.5
v -0.3 0.5 0.3
v -0.3 0.5 -0.5
v -0.3 3.1 0.4
v -0.3 3.1 -0.4
v -0.3 3.4 0.4
v -0.3 3.4 -0.4
v -0.3 3.6 0.4
v -0.3 3.6 -0.4
v -0.2 1.3 -1.3
v -0.2 1.3 -1.5
v -0.2 1.6 -1.3
v -0.2 1.6 -1.5
v -0.2 1.9 -1.3
v -0.2 1.9 -1.5
v -0.2 2.2 -1.3
v -0.2 2.2 -1.5
v 0.8 1.3 -1.3
v 0.8 1.3 -1.5
v 0.8 1.6 -1.3
v 0.8 1.6 -1.5
v 0.8 1.9 -1.3
v 0.8 1.9 -1.5
v 0.8 2.2 -1.3
v 0.8 2.2 -1.5
v 1.1 0 0.6
v 1.1 0 -0.5
v 1.1 0.2 0.6
v 1.1 0.2 0.3
v 1.1 0.2 -0.5
v 1.1 0.5 0.3
v 1.1 0.5 -0.5
v 1.1 3.1 0.4
v 1.1 3.1 -0.4
v 1.1 3.4 0.4
v 1.1 3.4 -0.4
v 1.1 3.6 0.4
v 1.1 3.6 -0.4
v 1.3 0.5 1.3
v 1.3 0.5 -1.3
v 1.3 1.2 0.6
v 1.3 1.2 -0.6
v 1.3 2.4 0.6
v 1.3 2.4 -0.6
v 1.3 3.1 1.3
v 1.3 3.1 -1.3
v 1.6 1.2 0.6
v 1.6 1.2 -0.6
v 1.6 1.5 0.3
v 1.6 1.5 -0.3
v 1.6 2.1 0.3
v 1.6 2.1 -0.3
v 1.6 2.4 0.6
v 1.6 2.4 -0.6
v 1.8 1.5 0.3
v 1.8 1.5 -0.3
v 1.8 2.1 0.3
v 1.8 2.1 -0.3
v -1.3 0.5 1.3
v -1.3 3.1 1.3
v -1 1 1.3
v -1 2.7 1.3
v -0.9 0.9 1.3
v -0.9 1 1.3
v -0.9 2.7 1.3
v -0.9 2.8 1.3
v 0.9 0.9 1.3
v 0.9 1 1.3
v 0.9 2.7 1.3
v 0.9 2.8 1.3
v 1 1 1.3
v 1 2.7 1.3
v 1.3 0.5 1.3
v 1.3 3.1 1.3
v -0.9 1 1.2
v -0.9 2.7 1.2
v -0.7 1.7 1.2
v -0.7 2.1 1.2
v -0.5 1.7 1.2
v -0.5 2.1 1.2
v -0.3 1.6 1.2
v -0.3 1.9 1.2
v -0.2 1.7 1.2
v -0.2 1.9 1.2
v 0.2 1.7 1.2
v 0.2 1.9 1.2
v 0.3 1.6 1.2
v 0.3 1.9 1.2
v 0.5 1.7 1.2
v 0.5 2.1 1.2
v 0.7 1.7 1.2
v 0.7 2.1 1.2
v 0.9 1 1.2
v 0.9 2.7 1.2
v -1.6 1.2 0.6
v -1.6 2.4 0.6
v -1.3 1.2 0.6
v -1.3 2.4 0.6
v -1.1 0 0.6
v -1.1 0.2 0.6
v -0.3 0 0.6
v -0.3 0.2 0.6
v 0.3 0 0.6
v 0.3 0.2 0.6
v 1.1 0 0.6
v 1.1 0.2 0.6
v 1.3 1.2 0.6
v 1.3 2.4 0.6
v 1.6 1.2 0.6
v 1.6 2.4 0.6
v -1.1 3.1 0.4
v -1.1 3.4 0.4
v -1.1 3.6 0.4
v -0.3 3.1 0.4
v -0.3 3.4 0.4
v -0.3 3.6 0.4
v 0.3 3.1 0.4
v 0.3 3.4 0.4
v 0.3 3.6 0.4
v 1.1 3.1 0.4
v 1.1 3.4 0.4
v 1.1 3.6 0.4
v -1.8 1.5 0.3
v -1.8 2.1 0.3
v -1.6 1.5 0.3
v -1.6 2.1 0.3
v -1.1 0.2 0.3
v -1.1 0.5 0.3
v -0.3 0.2 0.3
v -0.3 0.5 0.3
v 0.3 0.2 0.3
v 0.3 0.5 0.3
v 1.1 0.2 0.3
v 1.1 0.5 0.3
v 1.6 1.5 0.3
v 1.6 2.1 0.3
v 1.8 1.5 0.3
v 1.8 2.1 0.3
v -1.8 1.5 -0.3
v -1.8 2.1 -0.3
v -1.6 1.5 -0.3
v -1.6 2.1 -0.3
v 1.6 1.5 -0.3
v 1.6 2.1 -0.3
v 1.8 1.5 -0.3
v 1.8 2.1 -0.3
v -1.1 3.1 -0.4
v -1.1 3.4 -0.4
v -1.1 3.6 -0.4
v -0.3 3.1 -0.4
v -0.3 3.4 -0.4
v -0.3 3.6 -0.4
v 0.3 3.1 -0.4
v 0.3 3.4 -0.4
v 0.3 3.6 -0.4
v 1.1 3.1 -0.4
v 1.1 3.4 -0.4
v 1.1 3.6 -0.4
v -1.1 0 -0.5
v -1.1 0.2 -0.5
v -1.1 0.5 -0.5
v -0.3 0 -0.5
v -0.3 0.2 -0.5
v -0.3 0.5 -0.5
v 0.3 0 -0.5
v 0.3 0.2 -0.5
v 0.3 0.5 -0.5
v 1.1 0 -0.5
v 1.1 0.2 -0.5
v 1.1 0.5 -0.5
v -1.6 1.2 -0.6
v -1.6 2.4 -0.6
v -1.3 1.2 -0.6
v -1.3 2.4 -0.6
v 1.3 1.2 -0.6
v 1.3 2.4 -0.6
v 1.6 1.2 -0.6
v 1.6 2.4 -0.6
v -1.3 0.5 -1.3
v -1.3 3.1 -1.3
v -0.8 1.3 -1.3
v -0.8 1.6 -1.3
v -0.8 1.9 -1.3
v -0.8 2.2 -1.3
v -0.2 1.3 -1.3
v -0.2 1.6 -1.3
v -0.2 1.9 -1.3
v -0.2 2.2 -1.3
v 0.2 1.3 -1.3
v 0.2 1.6 -1.3
v 0.2 1.9 -1.3
v 0.2 2.2 -1.3
v 0.8 1.3 -1.3
v 0.8 1.6 -1.3
v 0.8 1.9 -1.3
v 0.8 2.2 -1.3
v 1.3 0.5 -1.3
v 1.3 3.1 -1.3
v -0.8 1.3 -1.5
v -0.8 1.6 -1.5
v -0.8 1.9 -1.5
v -0.8 2.2 -1.5
v -0.2 1.3 -1.5
v -0.2 1.6 -1.5
v -0.2 1.9 -1.5
v -0.2 2.2 -1.5
v 0.2 1.3 -1.5
v 0.2 1.6 -1.5
v 0.2 1.9 -1.5
v 0.2 2.2 -1.5
v 0.8 1.3 -1.5
v 0.8 1.6 -1.5
v 0.8 1.9 -1.5
v 0.8 2.2 -1.5
v -1.1 0 0.6
v -0.3 0 0.6
v 0.3 0 0.6
v 1.1 0 0.6
v -1.1 0 -0.5
v -0.3 0 -0.5
v 0.3 0 -0.5
v 1.1 0 -0.5
v -1.3 0.5 1.3
v 1.3 0.5 1.3
v -1.1 0.5 0.3
v -0.3 0.5 0.3
v 0.3 0.5 0.3
v 1.1 0.5 0.3
v -1.1 0.5 -0.5
v -0.3 0.5 -0.5
v 0.3 0.5 -0.5
v 1.1 0.5 -0.5
v -1.3 0.5 -1.3
v 1.3 0.5 -1.3
v -1.6 1.2 0.6
v -1.3 1.2 0.6
v 1.3 1.2 0.6
v 1.6 1.2 0.6
v -1.6 1.2 -0.6
v -1.3 1.2 -0.6
v 1.3 1.2 -0.6
v 1.6 1.2 -0.6
v -0.8 1.3 -1.3
v -0.2 1.3 -1.3
v 0.2 1.3 -1.3
v 0.8 1.3 -1.3
v -0.8 1.3 -1.5
v -0.2 1.3 -1.5
v 0.2 1.3 -1.5
v 0.8 1.3 -1.5
v -1.8 1.5 0.3
v -1.6 1.5 0.3
v 1.6 1.5 0.3
v 1.8 1.5 0.3
v -1.8 1.5 -0.3
v -1.6 1.5 -0.3
v 1.6 1.5 -0.3
v 1.8 1.5 -0.3
v -0.9 2.7 1.3
v 0.9 2.7 1.3
v -0.9 2.7 1.2
v 0.9 2.7 1.2
v -1.1 0.2 0.6
v -0.3 0.2 0.6
v 0.3 0.2 0.6
v 1.1 0.2 0.6
v -1.1 0.2 0.3
v -0.3 0.2 0.3
v 0.3 0.2 0.3
v 1.1 0.2 0.3
v -0.9 1 1.3
v 0.9 1 1.3
v -0.9 1 1.2
v 0.9 1 1.2
v -1.8 2.1 0.3
v -1.6 2.1 0.3
v 1.6 2.1 0.3
v 1.8 2.1 0.3
v -1.8 2.1 -0.3
v -1.6 2.1 -0.3
v 1.6 2.1 -0.3
v 1.8 2.1 -0.3
v -0.8 2.2 -1.3
v -0.2 2.2 -1.3
v 0.2 2.2 -1.3
v 0.8 2.2 -1.3
v -0.8 2.2 -1.5
v -0.2 2.2 -1.5
v 0.2 2.2 -1.5
v 0.8 2.2 -1.5
v -1.6 2.4 0.6
v -1.3 2.4 0.6
v 1.3 2.4 0.6
v 1.6 2.4 0.6
v -1.6 2.4 -0.6
v -1.3 2.4 -0.6
v 1.3 2.4 -0.6
v 1.6 2.4 -0.6
v -1.3 3.1 1.3
v 1.3 3.1 1.3
v -1.1 3.1 0.4
v -0.3 3.1 0.4
v 0.3 3.1 0.4
v 1.1 3.1 0.4
v -1.1 3.1 -0.4
v -0.3 3.1 -0.4
v 0.3 3.1 -0.4
v 1.1 3.1 -0.4
v -1.3 3.1 -1.3
v 1.3 3.1 -1.3
v -1.1 3.6 0.4
v -0.3 3.6 0.4
v 0.3 3.6 0.4
v 1.1 3.6 0.4
v -1.1 3.6 -0.4
v -0.3 3.6 -0.4
v 0.3 3.6 -0.4
v 1.1 3.6 -0.4

# faces
f 3/1/1 2/1/1 1/1/1
f 4/1/1 2/1/1 3/1/1
f 7/4/1 6/4/1 5/4/1
f 8/4/1 6/4/1 7/4/1
f 9/4/1 7/4/1 5/4/1
f 10/4/1 6/4/1 8/4/1
f 11/4/1 9/4/1 5/4/1
f 11/4/1 10/4/1 9/4/1
f 12/4/1 6/4/1 10/4/1
f 12/4/1 10/4/1 11/4/1
f 15/3/1 14/3/1 13/3/1
f 16/3/1 14/3/1 15/3/1
f 17/3/1 15/3/1 13/3/1
f 18/3/1 14/3/1 16/3/1
f 19/3/1 17/3/1 13/3/1
f 19/3/1 18/3/1 17/3/1
f 20/3/1 14/3/1 18/3/1
f 20/3/1 18/3/1 19/3/1
f 23/4/1 22/4/1 21/4/1
f 24/4/1 22/4/1 23/4/1
f 25/4/1 22/4/1 24/4/1
f 26/1/1 25/1/1 24/1/1
f 27/1/1 25/1/1 26/1/1
f 30/1/1 29/1/1 28/1/1
f 31/1/1 29/1/1 30/1/1
f 32/4/1 31/4/1 30/4/1
f 33/4/1 31/4/1 32/4/1
f 36/1/1 35/1/1 34/1/1
f 37/1/1 35/1/1 36/1/1
f 38/4/1 37/4/1 36/4/1
f 39/4/1 37/4/1 38/4/1
f 40/1/1 39/1/1 38/1/1
f 41/1/1 39/1/1 40/1/1
f 44/4/1 43/4/1 42/4/1
f 45/4/1 43/4/1 44/4/1
f 46/1/1 45/1/1 44/1/1
f 47/1/1 45/1/1 46/1/1
f 48/4/1 47/4/1 46/4/1
f 49/4/1 47/4/1 48/4/1
f 52/4/1 51/4/1 50/4/1
f 53/4/1 51/4/1 52/4/1
f 54/4/1 51/4/1 53/4/1
f 55/1/1 54/1/1 53/1/1
f 56/1/1 54/1/1 55/1/1
f 59/1/1 58/1/1 57/1/1
f 60/1/1 58/1/1 59/1/1
f 61/4/1 60/4/1 59/4/1
f 62/4/1 60/4/1 61/4/1
f 65/4/1 64/4/1 63/4/1
f 66/4/1 64/4/1 65/4/1
f 67/4/2 68/4/2 69/4/2
f 69/4/2 68/4/2 70/4/2
f 71/4/2 72/4/2 73/4/2
f 73/4/2 72/4/2 74/4/2
f 74/4/2 72/4/2 75/4/2
f 74/1/2 75/1/2 76/1/2
f 76/1/2 75/1/2 77/1/2
f 78/1/2 79/1/2 80/1/2
f 80/1/2 79/1/2 81/1/2
f 80/4/2 81/4/2 82/4/2
f 82/4/2 81/4/2 83/4/2
f 84/1/2 85/1/2 86/1/2
f 86/1/2 85/1/2 87/1/2
f 86/4/2 87/4/2 88/4/2
f 88/4/2 87/4/2 89/4/2
f 88/1/2 89/1/2 90/1/2
f 90/1/2 89/1/2 91/1/2
f 92/4/2 93/4/2 94/4/2
f 94/4/2 93/4/2 95/4/2
f 94/1/2 95/1/2 96/1/2
f 96/1/2 95/1/2 97/1/2
f 96/4/2 97/4/2 98/4/2
f 98/4/2 97/4/2 99/4/2
f 100/4/2 101/4/2 102/4/2
f 102/4/2 101/4/2 103/4/2
f 103/4/2 101/4/2 104/4/2
f 103/1/2 104/1/2 105/1/2
f 105/1/2 104/1/2 106/1/2
f 107/1/2 108/1/2 109/1/2
f 109/1/2 108/1/2 110/1/2
f 109/4/2 110/4/2 111/4/2
f 111/4/2 110/4/2 112/4/2
f 113/3/2 114/3/2 115/3/2
f 115/3/2 114/3/2 116/3/2
f 113/3/2 115/3/2 117/3/2
f 116/3/2 114/3/2 118/3/2
f 113/3/2 117/3/2 119/3/2
f 117/3/2 118/3/2 119/3/2
f 118/3/2 114/3/2 120/3/2
f 119/3/2 118/3/2 120/3/2
f 121/4/2 122/4/2 123/4/2
f 123/4/2 122/4/2 124/4/2
f 121/4/2 123/4/2 125/4/2
f 124/4/2 122/4/2 126/4/2
f 121/4/2 125/4/2 127/4/2
f 125/4/2 126/4/2 127/4/2
f 126/4/2 122/4/2 128/4/2
f 127/4/2 126/4/2 128/4/2
f 129/1/2 130/1/2 131/1/2
f 131/1/2 130/1/2 132/1/2
f 135/3/3 134/3/3 133/3/3
f 136/3/3 134/3/3 135/3/3
f 137/3/3 135/3/3 133/3/3
f 138/4/3 136/4/3 135/4/3
f 138/3/3 135/3/3 137/3/3
f 139/3/3 134/3/3 136/3/3
f 139/4/3 136/4/3 138/4/3
f 140/3/3 134/3/3 139/3/3
f 141/4/3 138/4/3 137/4/3
f 141/3/3 137/3/3 133/3/3
f 142/4/3 138/4/3 141/4/3
f 143/4/3 140/4/3 139/4/3
f 144/3/3 134/3/3 140/3/3
f 144/4/3 140/4/3 143/4/3
f 145/4/3 143/4/3 142/4/3
f 145/3/3 142/3/3 141/3/3
f 146/3/3 144/3/3 143/3/3
f 146/4/3 143/4/3 145/4/3
f 147/3/3 145/3/3 141/3/3
f 147/3/3 141/3/3 133/3/3
f 147/3/3 146/3/3 145/3/3
f 148/3/3 134/3/3 144/3/3
f 148/3/3 146/3/3 147/3/3
f 148/3/3 144/3/3 146/3/3
f 151/2/3 150/2/3 149/2/3
f 152/2/3 150/2/3 151/2/3
f 153/2/3 151/2/3 149/2/3
f 153/1/3 152/1/3 151/1/3
f 154/2/3 150/2/3 152/2/3
f 154/1/3 152/1/3 153/1/3
f 155/2/3 153/2/3 149/2/3
f 155/2/3 154/2/3 153/2/3
f 156/2/3 154/2/3 155/2/3
f 157/1/3 156/1/3 155/1/3
f 158/2/3 154/2/3 156/2/3
f 158/1/3 156/1/3 157/1/3
f 159/1/3 157/1/3 155/1/3
f 159/2/3 158/2/3 157/2/3
f 160/2/3 154/2/3 158/2/3
f 160/2/3 158/2/3 159/2/3
f 161/2/3 155/2/3 149/2/3
f 161/1/3 159/1/3 155/1/3
f 161/1/3 160/1/3 159/1/3
f 162/2/3 154/2/3 160/2/3
f 162/1/3 160/1/3 161/1/3
f 163/2/3 162/2/3 161/2/3
f 164/2/3 150/2/3 154/2/3
f 164/2/3 162/2/3 163/2/3
f 164/2/3 154/2/3 162/2/3
f 165/2/3 163/2/3 161/2/3
f 165/1/3 164/1/3 163/1/3
f 166/2/3 150/2/3 164/2/3
f 166/1/3 164/1/3 165/1/3
f 167/2/3 165/2/3 161/2/3
f 167/2/3 161/2/3 149/2/3
f 167/2/3 166/2/3 165/2/3
f 168/2/3 150/2/3 166/2/3
f 168/2/3 166/2/3 167/2/3
f 171/4/3 170/4/3 169/4/3
f 172/4/3 170/4/3 171/4/3
f 175/4/3 174/4/3 173/4/3
f 176/4/3 174/4/3 175/4/3
f 179/4/3 178/4/3 177/4/3
f 180/4/3 178/4/3 179/4/3
f 183/4/3 182/4/3 181/4/3
f 184/4/3 182/4/3 183/4/3
f 188/1/3 186/1/3 185/1/3
f 189/4/3 187/4/3 186/4/3
f 189/1/3 186/1/3 188/1/3
f 190/4/3 187/4/3 189/4/3
f 194/1/3 192/1/3 191/1/3
f 195/4/3 193/4/3 192/4/3
f 195/1/3 192/1/3 194/1/3
f 196/4/3 193/4/3 195/4/3
f 199/1/3 198/1/3 197/1/3
f 200/1/3 198/1/3 199/1/3
f 203/1/3 202/1/3 201/1/3
f 204/1/3 202/1/3 203/1/3
f 207/1/3 206/1/3 205/1/3
f 208/1/3 206/1/3 207/1/3
f 211/1/3 210/1/3 209/1/3
f 212/1/3 210/1/3 211/1/3
f 213/1/4 214/1/4 215/1/4
f 215/1/4 214/1/4 216/1/4
f 217/1/4 218/1/4 219/1/4
f 219/1/4 218/1/4 220/1/4
f 221/1/4 222/1/4 224/1/4
f 222/4/4 223/4/4 225/4/4
f 224/1/4 222/1/4 225/1/4
f 225/4/4 223/4/4 226/4/4
f 227/1/4 228/1/4 230/1/4
f 228/4/4 229/4/4 231/4/4
f 230/1/4 228/1/4 231/1/4
f 231/4/4 229/4/4 232/4/4
f 233/4/4 234/4/4 236/4/4
f 234/1/4 235/1/4 237/1/4
f 236/4/4 234/4/4 237/4/4
f 237/1/4 235/1/4 238/1/4
f 239/4/4 240/4/4 242/4/4
f 240/1/4 241/1/4 243/1/4
f 242/4/4 240/4/4 243/4/4
f 243/1/4 241/1/4 244/1/4
f 245/4/4 246/4/4 247/4/4
f 247/4/4 246/4/4 248/4/4
f 249/4/4 250/4/4 251/4/4
f 251/4/4 250/4/4 252/4/4
f 253/3/4 254/3/4 255/3/4
f 255/3/4 254/3/4 256/3/4
f 256/3/4 254/3/4 257/3/4
f 257/3/4 254/3/4 258/3/4
f 253/3/4 255/3/4 259/3/4
f 258/3/4 254/3/4 262/3/4
f 260/3/4 261/3/4 263/3/4
f 261/3/4 262/3/4 263/3/4
f 253/3/4 259/3/4 263/3/4
f 259/3/4 260/3/4 263/3/4
f 263/3/4 262/3/4 264/3/4
f 264/3/4 262/3/4 265/3/4
f 262/3/4 254/3/4 266/3/4
f 265/3/4 262/3/4 266/3/4
f 253/3/4 263/3/4 267/3/4
f 266/3/4 254/3/4 270/3/4
f 268/3/4 269/3/4 271/3/4
f 269/3/4 270/3/4 271/3/4
f 253/3/4 267/3/4 271/3/4
f 267/3/4 268/3/4 271/3/4
f 270/3/4 254/3/4 272/3/4
f 271/3/4 270/3/4 272/3/4
f 273/1/4 274/1/4 277/1/4
f 274/4/4 275/4/4 278/4/4
f 277/1/4 274/1/4 278/1/4
f 275/1/4 276/1/4 279/1/4
f 278/4/4 275/4/4 279/4/4
f 279/1/4 276/1/4 280/1/4
f 281/4/4 282/4/4 285/4/4
f 282/1/4 283/1/4 286/1/4
f 285/4/4 282/4/4 286/4/4
f 283/4/4 284/4/4 287/4/4
f 286/1/4 283/1/4 287/1/4
f 287/4/4 284/4/4 288/4/4
f 293/4/5 290/4/5 289/4/5
f 294/4/5 290/4/5 293/4/5
f 295/4/5 292/4/5 291/4/5
f 296/4/5 292/4/5 295/4/5
f 299/3/5 298/3/5 297/3/5
f 300/3/5 298/3/5 299/3/5
f 301/3/5 298/3/5 300/3/5
f 302/3/5 298/3/5 301/3/5
f 303/3/5 299/3/5 297/3/5
f 304/3/5 301/3/5 300/3/5
f 305/3/5 301/3/5 304/3/5
f 306/3/5 298/3/5 302/3/5
f 307/3/5 305/3/5 304/3/5
f 307/3/5 306/3/5 305/3/5
f 307/3/5 303/3/5 297/3/5
f 307/3/5 304/3/5 303/3/5
f 308/3/5 298/3/5 306/3/5
f 308/3/5 306/3/5 307/3/5
f 313/4/5 310/4/5 309/4/5
f 314/4/5 310/4/5 313/4/5
f 315/4/5 312/4/5 311/4/5
f 316/4/5 312/4/5 315/4/5
f 321/1/5 318/1/5 317/1/5
f 322/1/5 318/1/5 321/1/5
f 323/4/5 320/4/5 319/4/5
f 324/4/5 320/4/5 323/4/5
f 329/1/5 326/1/5 325/1/5
f 330/1/5 326/1/5 329/1/5
f 331/1/5 328/1/5 327/1/5
f 332/1/5 328/1/5 331/1/5
f 335/4/5 334/4/5 333/4/5
f 336/4/5 334/4/5 335/4/5
f 337/4/6 338/4/6 341/4/6
f 341/4/6 338/4/6 342/4/6
f 339/4/6 340/4/6 343/4/6
f 343/4/6 340/4/6 344/4/6
f 345/4/6 346/4/6 347/4/6
f 347/4/6 346/4/6 348/4/6
f 349/1/6 350/1/6 353/1/6
f 353/1/6 350/1/6 354/1/6
f 351/1/6 352/1/6 355/1/6
f 355/1/6 352/1/6 356/1/6
f 357/1/6 358/1/6 361/1/6
f 361/1/6 358/1/6 362/1/6
f 359/4/6 360/4/6 363/4/6
f 363/4/6 360/4/6 364/4/6
f 365/4/6 366/4/6 369/4/6
f 369/4/6 366/4/6 370/4/6
f 367/4/6 368/4/6 371/4/6
f 371/4/6 368/4/6 372/4/6
f 373/3/6 374/3/6 375/3/6
f 375/3/6 374/3/6 376/3/6
f 376/3/6 374/3/6 377/3/6
f 377/3/6 374/3/6 378/3/6
f 373/3/6 375/3/6 379/3/6
f 376/3/6 377/3/6 380/3/6
f 380/3/6 377/3/6 381/3/6
f 378/3/6 374/3/6 382/3/6
f 380/3/6 381/3/6 383/3/6
f 381/3/6 382/3/6 383/3/6
f 373/3/6 379/3/6 383/3/6
f 379/3/6 380/3/6 383/3/6
f 382/3/6 374/3/6 384/3/6
f 383/3/6 382/3/6 384/3/6
f 385/4/6 386/4/6 389/4/6
f 389/4/6 386/4/6 390/4/6
f 387/4/6 388/4/6 391/4/6
f 391/4/6 388/4/6 392/4/6
