# MagicaVoxel @ Ephtracy

# group
o 

# material
mtllib wall_2x1_2.mtl
usemtl palette

# normals
vn -1 0 0
vn 1 0 0
vn 0 0 1
vn 0 0 -1
vn 0 -1 0
vn 0 1 0

# texcoords
vt 0.291016 0.5
vt 0.298828 0.5
vt 0.302734 0.5
vt 0.306641 0.5
vt 0.310547 0.5
vt 0.474609 0.5

# verts
v -1.8 0.9 0.8
v -1.8 0.9 -0.8
v -1.8 1 0.8
v -1.8 1 -0.8
v -1.8 1.1 0.8
v -1.8 1.1 -0.8
v -1.8 1.2 0.8
v -1.8 1.2 -0.8
v -1.7 0 0.7
v -1.7 0 -0.7
v -1.7 0.1 0.5
v -1.7 0.1 -0.5
v -1.7 0.2 0.6
v -1.7 0.2 0.5
v -1.7 0.2 -0.5
v -1.7 0.2 -0.6
v -1.7 0.7 0.6
v -1.7 0.7 0.5
v -1.7 0.7 -0.5
v -1.7 0.7 -0.6
v -1.7 0.8 0.5
v -1.7 0.8 -0.5
v -1.7 0.9 0.7
v -1.7 0.9 -0.7
v 1.7 0 0.7
v 1.7 0 -0.7
v 1.7 0.1 0.5
v 1.7 0.1 -0.5
v 1.7 0.2 0.6
v 1.7 0.2 0.5
v 1.7 0.2 -0.5
v 1.7 0.2 -0.6
v 1.7 0.7 0.6
v 1.7 0.7 0.5
v 1.7 0.7 -0.5
v 1.7 0.7 -0.6
v 1.7 0.8 0.5
v 1.7 0.8 -0.5
v 1.7 0.9 0.7
v 1.7 0.9 -0.7
v 1.8 0.9 0.8
v 1.8 0.9 -0.8
v 1.8 1 0.8
v 1.8 1 -0.8
v 1.8 1.1 0.8
v 1.8 1.1 -0.8
v 1.8 1.2 0.8
v 1.8 1.2 -0.8
v -1.8 0.9 0.8
v -1.8 1 0.8
v -1.8 1.1 0.8
v -1.8 1.2 0.8
v 1.8 0.9 0.8
v 1.8 1 0.8
v 1.8 1.1 0.8
v 1.8 1.2 0.8
v -1.7 0 0.7
v -1.7 0.9 0.7
v -1.6 0.2 0.7
v -1.6 0.7 0.7
v -1.5 0.1 0.7
v -1.5 0.2 0.7
v -1.5 0.7 0.7
v -1.5 0.8 0.7
v 1.5 0.1 0.7
v 1.5 0.2 0.7
v 1.5 0.7 0.7
v 1.5 0.8 0.7
v 1.6 0.2 0.7
v 1.6 0.7 0.7
v 1.7 0 0.7
v 1.7 0.9 0.7
v -1.7 0 -0.7
v -1.7 0.9 -0.7
v -1.6 0.2 -0.7
v -1.6 0.7 -0.7
v -1.5 0.1 -0.7
v -1.5 0.2 -0.7
v -1.5 0.7 -0.7
v -1.5 0.8 -0.7
v 1.5 0.1 -0.7
v 1.5 0.2 -0.7
v 1.5 0.7 -0.7
v 1.5 0.8 -0.7
v 1.6 0.2 -0.7
v 1.6 0.7 -0.7
v 1.7 0 -0.7
v 1.7 0.9 -0.7
v -1.8 0.9 -0.8
v -1.8 1 -0.8
v -1.8 1.1 -0.8
v -1.8 1.2 -0.8
v 1.8 0.9 -0.8
v 1.8 1 -0.8
v 1.8 1.1 -0.8
v 1.8 1.2 -0.8
v -1.7 0 0.7
v 1.7 0 0.7
v -1.6 0 0.6
v 1.6 0 0.6
v -1.6 0 -0.6
v 1.6 0 -0.6
v -1.7 0 -0.7
v 1.7 0 -0.7
v -1.8 0.9 0.8
v 1.8 0.9 0.8
v -1.7 0.9 0.7
v 1.7 0.9 0.7
v -1.7 0.9 -0.7
v 1.7 0.9 -0.7
v -1.8 0.9 -0.8
v 1.8 0.9 -0.8
v -1.8 1.2 0.8
v 1.8 1.2 0.8
v -1.8 1.2 -0.8
v 1.8 1.2 -0.8

# faces
f 3/2/1 2/2/1 1/2/1
f 4/2/1 2/2/1 3/2/1
f 5/3/1 4/3/1 3/3/1
f 6/3/1 4/3/1 5/3/1
f 7/2/1 6/2/1 5/2/1
f 8/2/1 6/2/1 7/2/1
f 11/5/1 10/5/1 9/5/1
f 12/5/1 10/5/1 11/5/1
f 13/5/1 11/5/1 9/5/1
f 14/4/1 12/4/1 11/4/1
f 14/5/1 11/5/1 13/5/1
f 15/5/1 10/5/1 12/5/1
f 15/4/1 12/4/1 14/4/1
f 16/5/1 10/5/1 15/5/1
f 17/4/1 14/4/1 13/4/1
f 17/5/1 13/5/1 9/5/1
f 17/4/1 16/4/1 15/4/1
f 17/4/1 15/4/1 14/4/1
f 18/4/1 16/4/1 17/4/1
f 19/4/1 16/4/1 18/4/1
f 20/5/1 10/5/1 16/5/1
f 20/4/1 16/4/1 19/4/1
f 21/4/1 19/4/1 18/4/1
f 21/5/1 18/5/1 17/5/1
f 22/5/1 20/5/1 19/5/1
f 22/4/1 19/4/1 21/4/1
f 23/5/1 17/5/1 9/5/1
f 23/5/1 21/5/1 17/5/1
f 23/5/1 22/5/1 21/5/1
f 24/5/1 10/5/1 20/5/1
f 24/5/1 22/5/1 23/5/1
f 24/5/1 20/5/1 22/5/1
f 25/5/2 26/5/2 27/5/2
f 27/5/2 26/5/2 28/5/2
f 25/5/2 27/5/2 29/5/2
f 27/4/2 28/4/2 30/4/2
f 29/5/2 27/5/2 30/5/2
f 28/5/2 26/5/2 31/5/2
f 30/4/2 28/4/2 31/4/2
f 31/5/2 26/5/2 32/5/2
f 29/4/2 30/4/2 33/4/2
f 25/5/2 29/5/2 33/5/2
f 31/4/2 32/4/2 33/4/2
f 30/4/2 31/4/2 33/4/2
f 33/4/2 32/4/2 34/4/2
f 34/4/2 32/4/2 35/4/2
f 32/5/2 26/5/2 36/5/2
f 35/4/2 32/4/2 36/4/2
f 34/4/2 35/4/2 37/4/2
f 33/5/2 34/5/2 37/5/2
f 35/5/2 36/5/2 38/5/2
f 37/4/2 35/4/2 38/4/2
f 25/5/2 33/5/2 39/5/2
f 33/5/2 37/5/2 39/5/2
f 37/5/2 38/5/2 39/5/2
f 36/5/2 26/5/2 40/5/2
f 39/5/2 38/5/2 40/5/2
f 38/5/2 36/5/2 40/5/2
f 41/2/2 42/2/2 43/2/2
f 43/2/2 42/2/2 44/2/2
f 43/3/2 44/3/2 45/3/2
f 45/3/2 44/3/2 46/3/2
f 45/2/2 46/2/2 47/2/2
f 47/2/2 46/2/2 48/2/2
f 53/2/3 50/2/3 49/2/3
f 54/3/3 51/3/3 50/3/3
f 54/2/3 50/2/3 53/2/3
f 55/2/3 52/2/3 51/2/3
f 55/3/3 51/3/3 54/3/3
f 56/2/3 52/2/3 55/2/3
f 59/5/3 58/5/3 57/5/3
f 60/5/3 58/5/3 59/5/3
f 61/5/3 59/5/3 57/5/3
f 62/4/3 60/4/3 59/4/3
f 62/5/3 59/5/3 61/5/3
f 63/5/3 58/5/3 60/5/3
f 63/4/3 60/4/3 62/4/3
f 64/5/3 58/5/3 63/5/3
f 65/4/3 62/4/3 61/4/3
f 65/5/3 61/5/3 57/5/3
f 65/4/3 64/4/3 63/4/3
f 65/4/3 63/4/3 62/4/3
f 66/4/3 64/4/3 65/4/3
f 67/4/3 64/4/3 66/4/3
f 68/5/3 58/5/3 64/5/3
f 68/4/3 64/4/3 67/4/3
f 69/4/3 67/4/3 66/4/3
f 69/5/3 66/5/3 65/5/3
f 70/5/3 68/5/3 67/5/3
f 70/4/3 67/4/3 69/4/3
f 71/5/3 65/5/3 57/5/3
f 71/5/3 69/5/3 65/5/3
f 71/5/3 70/5/3 69/5/3
f 72/5/3 58/5/3 68/5/3
f 72/5/3 70/5/3 71/5/3
f 72/5/3 68/5/3 70/5/3
f 73/5/4 74/5/4 75/5/4
f 75/5/4 74/5/4 76/5/4
f 73/5/4 75/5/4 77/5/4
f 75/4/4 76/4/4 78/4/4
f 77/5/4 75/5/4 78/5/4
f 76/5/4 74/5/4 79/5/4
f 78/4/4 76/4/4 79/4/4
f 79/5/4 74/5/4 80/5/4
f 77/4/4 78/4/4 81/4/4
f 73/5/4 77/5/4 81/5/4
f 79/4/4 80/4/4 81/4/4
f 78/4/4 79/4/4 81/4/4
f 81/4/4 80/4/4 82/4/4
f 82/4/4 80/4/4 83/4/4
f 80/5/4 74/5/4 84/5/4
f 83/4/4 80/4/4 84/4/4
f 82/4/4 83/4/4 85/4/4
f 81/5/4 82/5/4 85/5/4
f 83/5/4 84/5/4 86/5/4
f 85/4/4 83/4/4 86/4/4
f 73/5/4 81/5/4 87/5/4
f 81/5/4 85/5/4 87/5/4
f 85/5/4 86/5/4 87/5/4
f 84/5/4 74/5/4 88/5/4
f 87/5/4 86/5/4 88/5/4
f 86/5/4 84/5/4 88/5/4
f 89/2/4 90/2/4 93/2/4
f 90/3/4 91/3/4 94/3/4
f 93/2/4 90/2/4 94/2/4
f 91/2/4 92/2/4 95/2/4
f 94/3/4 91/3/4 95/3/4
f 95/2/4 92/2/4 96/2/4
f 99/5/5 98/5/5 97/5/5
f 100/5/5 98/5/5 99/5/5
f 101/5/5 99/5/5 97/5/5
f 101/4/5 100/4/5 99/4/5
f 102/5/5 98/5/5 100/5/5
f 102/4/5 100/4/5 101/4/5
f 103/5/5 101/5/5 97/5/5
f 103/5/5 102/5/5 101/5/5
f 104/5/5 98/5/5 102/5/5
f 104/5/5 102/5/5 103/5/5
f 107/2/5 106/2/5 105/2/5
f 108/2/5 106/2/5 107/2/5
f 109/2/5 107/2/5 105/2/5
f 110/2/5 106/2/5 108/2/5
f 111/2/5 109/2/5 105/2/5
f 111/2/5 110/2/5 109/2/5
f 112/2/5 106/2/5 110/2/5
f 112/2/5 110/2/5 111/2/5
f 113/2/6 114/2/6 115/2/6
f 115/2/6 114/2/6 116/2/6
