# MagicaVoxel @ Ephtracy

# group
o 

# material
mtllib floor_agua.mtl
usemtl palette

# normals
vn -1 0 0
vn 1 0 0
vn 0 0 1
vn 0 0 -1
vn 0 -1 0
vn 0 1 0

# texcoords
vt 0.517578 0.5
vt 0.521484 0.5
vt 0.525391 0.5

# verts
v -0.8 1.7 0.3
v -0.8 1.7 0.1
v -0.8 1.8 0.3
v -0.8 1.8 0.1
v -0.7 1.7 0.6
v -0.7 1.7 0.5
v -0.7 1.7 0.4
v -0.7 1.7 0.3
v -0.7 1.7 0.1
v -0.7 1.7 -0.2
v -0.7 1.7 -0.5
v -0.7 1.7 -0.6
v -0.7 1.8 0.6
v -0.7 1.8 0.5
v -0.7 1.8 0.4
v -0.7 1.8 0.3
v -0.7 1.8 0.1
v -0.7 1.8 -0.2
v -0.7 1.8 -0.5
v -0.7 1.8 -0.6
v -0.6 1.7 -0.2
v -0.6 1.7 -0.3
v -0.6 1.8 -0.2
v -0.6 1.8 -0.3
v -0.5 1.7 0.5
v -0.5 1.7 0.4
v -0.5 1.7 -0.3
v -0.5 1.7 -0.5
v -0.5 1.8 0.5
v -0.5 1.8 0.4
v -0.5 1.8 -0.3
v -0.5 1.8 -0.5
v -0.4 1.7 0.6
v -0.4 1.7 0.5
v -0.4 1.7 -0.5
v -0.4 1.7 -0.6
v -0.4 1.8 0.6
v -0.4 1.8 0.5
v -0.4 1.8 -0.5
v -0.4 1.8 -0.6
v -0.3 1.7 0.7
v -0.3 1.7 0.6
v -0.3 1.7 -0.6
v -0.3 1.7 -0.7
v -0.3 1.8 0.7
v -0.3 1.8 0.6
v -0.3 1.8 -0.6
v -0.3 1.8 -0.7
v 0 1.7 0.8
v 0 1.7 0.7
v 0 1.8 0.8
v 0 1.8 0.7
v 0.6 1.7 0.7
v 0.6 1.7 0.6
v 0.6 1.7 -0.5
v 0.6 1.7 -0.6
v 0.6 1.7 -0.7
v 0.6 1.8 0.7
v 0.6 1.8 0.6
v 0.6 1.8 -0.5
v 0.6 1.8 -0.6
v 0.6 1.8 -0.7
v -0.6 1.7 -0.5
v -0.6 1.7 -0.6
v -0.6 1.8 -0.5
v -0.6 1.8 -0.6
v -0.5 1.7 0.6
v -0.5 1.7 0.5
v -0.5 1.8 0.6
v -0.5 1.8 0.5
v 0 1.7 -0.6
v 0 1.7 -0.7
v 0 1.8 -0.6
v 0 1.8 -0.7
v 0.1 1.7 -0.5
v 0.1 1.7 -0.6
v 0.1 1.8 -0.5
v 0.1 1.8 -0.6
v 0.4 1.7 0.8
v 0.4 1.7 0.7
v 0.4 1.8 0.8
v 0.4 1.8 0.7
v 0.5 1.7 0.7
v 0.5 1.7 0.6
v 0.5 1.8 0.7
v 0.5 1.8 0.6
v 0.6 1.7 0.6
v 0.6 1.7 0.2
v 0.6 1.7 -0.4
v 0.6 1.7 -0.5
v 0.6 1.8 0.6
v 0.6 1.8 0.2
v 0.6 1.8 -0.4
v 0.6 1.8 -0.5
v 0.7 1.7 0.7
v 0.7 1.7 0.6
v 0.7 1.7 0.2
v 0.7 1.7 -0.3
v 0.7 1.7 -0.5
v 0.7 1.7 -0.6
v 0.7 1.8 0.7
v 0.7 1.8 0.6
v 0.7 1.8 0.2
v 0.7 1.8 -0.3
v 0.7 1.8 -0.5
v 0.7 1.8 -0.6
v 0.8 1.7 -0.3
v 0.8 1.7 -0.4
v 0.8 1.7 -0.6
v 0.8 1.7 -0.7
v 0.8 1.8 -0.3
v 0.8 1.8 -0.4
v 0.8 1.8 -0.6
v 0.8 1.8 -0.7
v 0 1.7 0.8
v 0 1.8 0.8
v 0.4 1.7 0.8
v 0.4 1.8 0.8
v -0.3 1.7 0.7
v -0.3 1.8 0.7
v 0 1.7 0.7
v 0 1.8 0.7
v 0.4 1.7 0.7
v 0.4 1.8 0.7
v 0.5 1.7 0.7
v 0.5 1.8 0.7
v 0.6 1.7 0.7
v 0.6 1.8 0.7
v 0.7 1.7 0.7
v 0.7 1.8 0.7
v -0.7 1.7 0.6
v -0.7 1.8 0.6
v -0.6 1.7 0.6
v -0.6 1.8 0.6
v -0.5 1.7 0.6
v -0.5 1.8 0.6
v -0.4 1.7 0.6
v -0.4 1.8 0.6
v -0.3 1.7 0.6
v -0.3 1.8 0.6
v 0.5 1.7 0.6
v 0.5 1.8 0.6
v 0.6 1.7 0.6
v 0.6 1.8 0.6
v -0.5 1.7 0.5
v -0.5 1.8 0.5
v -0.4 1.7 0.5
v -0.4 1.8 0.5
v -0.7 1.7 0.4
v -0.7 1.8 0.4
v -0.5 1.7 0.4
v -0.5 1.8 0.4
v -0.8 1.7 0.3
v -0.8 1.8 0.3
v -0.7 1.7 0.3
v -0.7 1.8 0.3
v 0.6 1.7 0.2
v 0.6 1.8 0.2
v 0.7 1.7 0.2
v 0.7 1.8 0.2
v 0.7 1.7 -0.3
v 0.7 1.8 -0.3
v 0.8 1.7 -0.3
v 0.8 1.8 -0.3
v -0.7 1.7 -0.5
v -0.7 1.8 -0.5
v -0.6 1.7 -0.5
v -0.6 1.8 -0.5
v 0.6 1.7 -0.5
v 0.6 1.8 -0.5
v 0.7 1.7 -0.5
v 0.7 1.8 -0.5
v 0.7 1.7 -0.6
v 0.7 1.8 -0.6
v 0.8 1.7 -0.6
v 0.8 1.8 -0.6
v 0.6 1.7 0.6
v 0.6 1.8 0.6
v 0.7 1.7 0.6
v 0.7 1.8 0.6
v -0.7 1.7 0.5
v -0.7 1.8 0.5
v -0.6 1.7 0.5
v -0.6 1.8 0.5
v -0.5 1.7 0.5
v -0.5 1.8 0.5
v -0.8 1.7 0.1
v -0.8 1.8 0.1
v -0.7 1.7 0.1
v -0.7 1.8 0.1
v -0.7 1.7 -0.2
v -0.7 1.8 -0.2
v -0.6 1.7 -0.2
v -0.6 1.8 -0.2
v -0.6 1.7 -0.3
v -0.6 1.8 -0.3
v -0.5 1.7 -0.3
v -0.5 1.8 -0.3
v 0.6 1.7 -0.4
v 0.6 1.8 -0.4
v 0.8 1.7 -0.4
v 0.8 1.8 -0.4
v -0.5 1.7 -0.5
v -0.5 1.8 -0.5
v -0.4 1.7 -0.5
v -0.4 1.8 -0.5
v 0.1 1.7 -0.5
v 0.1 1.8 -0.5
v 0.6 1.7 -0.5
v 0.6 1.8 -0.5
v -0.7 1.7 -0.6
v -0.7 1.8 -0.6
v -0.6 1.7 -0.6
v -0.6 1.8 -0.6
v -0.4 1.7 -0.6
v -0.4 1.8 -0.6
v -0.3 1.7 -0.6
v -0.3 1.8 -0.6
v 0 1.7 -0.6
v 0 1.8 -0.6
v 0.1 1.7 -0.6
v 0.1 1.8 -0.6
v -0.3 1.7 -0.7
v -0.3 1.8 -0.7
v 0 1.7 -0.7
v 0 1.8 -0.7
v 0.6 1.7 -0.7
v 0.6 1.8 -0.7
v 0.7 1.7 -0.7
v 0.7 1.8 -0.7
v 0.8 1.7 -0.7
v 0.8 1.8 -0.7
v 0 1.7 0.8
v 0.4 1.7 0.8
v -0.3 1.7 0.7
v 0 1.7 0.7
v 0.1 1.7 0.7
v 0.3 1.7 0.7
v 0.4 1.7 0.7
v 0.5 1.7 0.7
v 0.6 1.7 0.7
v 0.7 1.7 0.7
v -0.7 1.7 0.6
v -0.6 1.7 0.6
v -0.5 1.7 0.6
v -0.4 1.7 0.6
v -0.3 1.7 0.6
v -0.1 1.7 0.6
v 0.1 1.7 0.6
v 0.3 1.7 0.6
v 0.4 1.7 0.6
v 0.5 1.7 0.6
v 0.6 1.7 0.6
v 0.7 1.7 0.6
v -0.7 1.7 0.5
v -0.6 1.7 0.5
v -0.5 1.7 0.5
v -0.4 1.7 0.5
v -0.2 1.7 0.5
v -0.1 1.7 0.5
v 0 1.7 0.5
v 0.1 1.7 0.5
v 0.3 1.7 0.5
v 0.4 1.7 0.5
v -0.7 1.7 0.4
v -0.5 1.7 0.4
v -0.4 1.7 0.4
v -0.3 1.7 0.4
v -0.2 1.7 0.4
v 0 1.7 0.4
v 0.4 1.7 0.4
v 0.5 1.7 0.4
v -0.8 1.7 0.3
v -0.7 1.7 0.3
v -0.5 1.7 0.3
v -0.4 1.7 0.3
v -0.3 1.7 0.3
v -0.7 1.7 0.2
v -0.5 1.7 0.2
v 0.4 1.7 0.2
v 0.5 1.7 0.2
v 0.6 1.7 0.2
v 0.7 1.7 0.2
v -0.8 1.7 0.1
v -0.7 1.7 0.1
v -0.6 1.7 0.1
v -0.5 1.7 0.1
v -0.4 1.7 0.1
v 0.4 1.7 0.1
v 0.5 1.7 0.1
v -0.6 1.7 0
v -0.4 1.7 0
v 0.4 1.7 0
v 0.5 1.7 0
v 0.6 1.7 0
v 0.4 1.7 -0.1
v 0.5 1.7 -0.1
v -0.7 1.7 -0.2
v -0.6 1.7 -0.2
v -0.4 1.7 -0.2
v -0.3 1.7 -0.2
v 0 1.7 -0.2
v 0.4 1.7 -0.2
v 0.5 1.7 -0.2
v 0.6 1.7 -0.2
v -0.6 1.7 -0.3
v -0.5 1.7 -0.3
v -0.3 1.7 -0.3
v -0.2 1.7 -0.3
v 0 1.7 -0.3
v 0.6 1.7 -0.3
v 0.7 1.7 -0.3
v 0.8 1.7 -0.3
v -0.4 1.7 -0.4
v -0.3 1.7 -0.4
v -0.2 1.7 -0.4
v -0.1 1.7 -0.4
v 0 1.7 -0.4
v 0.6 1.7 -0.4
v 0.8 1.7 -0.4
v -0.7 1.7 -0.5
v -0.6 1.7 -0.5
v -0.5 1.7 -0.5
v -0.4 1.7 -0.5
v -0.2 1.7 -0.5
v -0.1 1.7 -0.5
v 0.1 1.7 -0.5
v 0.6 1.7 -0.5
v 0.7 1.7 -0.5
v -0.7 1.7 -0.6
v -0.6 1.7 -0.6
v -0.4 1.7 -0.6
v -0.3 1.7 -0.6
v -0.2 1.7 -0.6
v 0 1.7 -0.6
v 0.1 1.7 -0.6
v 0.6 1.7 -0.6
v 0.7 1.7 -0.6
v 0.8 1.7 -0.6
v -0.3 1.7 -0.7
v 0 1.7 -0.7
v 0.6 1.7 -0.7
v 0.7 1.7 -0.7
v 0.8 1.7 -0.7
v 0 1.8 0.8
v 0.4 1.8 0.8
v -0.3 1.8 0.7
v 0 1.8 0.7
v 0.1 1.8 0.7
v 0.3 1.8 0.7
v 0.4 1.8 0.7
v 0.5 1.8 0.7
v 0.6 1.8 0.7
v 0.7 1.8 0.7
v -0.7 1.8 0.6
v -0.6 1.8 0.6
v -0.5 1.8 0.6
v -0.4 1.8 0.6
v -0.3 1.8 0.6
v -0.1 1.8 0.6
v 0.1 1.8 0.6
v 0.3 1.8 0.6
v 0.4 1.8 0.6
v 0.5 1.8 0.6
v 0.6 1.8 0.6
v 0.7 1.8 0.6
v -0.7 1.8 0.5
v -0.6 1.8 0.5
v -0.5 1.8 0.5
v -0.4 1.8 0.5
v -0.2 1.8 0.5
v -0.1 1.8 0.5
v 0 1.8 0.5
v 0.1 1.8 0.5
v 0.3 1.8 0.5
v 0.4 1.8 0.5
v -0.7 1.8 0.4
v -0.5 1.8 0.4
v -0.4 1.8 0.4
v -0.3 1.8 0.4
v -0.2 1.8 0.4
v 0 1.8 0.4
v 0.4 1.8 0.4
v 0.5 1.8 0.4
v -0.8 1.8 0.3
v -0.7 1.8 0.3
v -0.5 1.8 0.3
v -0.4 1.8 0.3
v -0.3 1.8 0.3
v -0.7 1.8 0.2
v -0.5 1.8 0.2
v 0.4 1.8 0.2
v 0.5 1.8 0.2
v 0.6 1.8 0.2
v 0.7 1.8 0.2
v -0.8 1.8 0.1
v -0.7 1.8 0.1
v -0.6 1.8 0.1
v -0.5 1.8 0.1
v -0.4 1.8 0.1
v 0.4 1.8 0.1
v 0.5 1.8 0.1
v -0.6 1.8 0
v -0.4 1.8 0
v 0.4 1.8 0
v 0.5 1.8 0
v 0.6 1.8 0
v 0.4 1.8 -0.1
v 0.5 1.8 -0.1
v -0.7 1.8 -0.2
v -0.6 1.8 -0.2
v -0.4 1.8 -0.2
v -0.3 1.8 -0.2
v 0 1.8 -0.2
v 0.4 1.8 -0.2
v 0.5 1.8 -0.2
v 0.6 1.8 -0.2
v -0.6 1.8 -0.3
v -0.5 1.8 -0.3
v -0.3 1.8 -0.3
v -0.2 1.8 -0.3
v 0 1.8 -0.3
v 0.6 1.8 -0.3
v 0.7 1.8 -0.3
v 0.8 1.8 -0.3
v -0.4 1.8 -0.4
v -0.3 1.8 -0.4
v -0.2 1.8 -0.4
v -0.1 1.8 -0.4
v 0 1.8 -0.4
v 0.6 1.8 -0.4
v 0.8 1.8 -0.4
v -0.7 1.8 -0.5
v -0.6 1.8 -0.5
v -0.5 1.8 -0.5
v -0.4 1.8 -0.5
v -0.2 1.8 -0.5
v -0.1 1.8 -0.5
v 0.1 1.8 -0.5
v 0.6 1.8 -0.5
v 0.7 1.8 -0.5
v -0.7 1.8 -0.6
v -0.6 1.8 -0.6
v -0.4 1.8 -0.6
v -0.3 1.8 -0.6
v -0.2 1.8 -0.6
v 0 1.8 -0.6
v 0.1 1.8 -0.6
v 0.6 1.8 -0.6
v 0.7 1.8 -0.6
v 0.8 1.8 -0.6
v -0.3 1.8 -0.7
v 0 1.8 -0.7
v 0.6 1.8 -0.7
v 0.7 1.8 -0.7
v 0.8 1.8 -0.7

# faces
f 3/3/1 2/3/1 1/3/1
f 4/3/1 2/3/1 3/3/1
f 13/1/1 6/1/1 5/1/1
f 14/1/1 6/1/1 13/1/1
f 15/3/1 8/3/1 7/3/1
f 16/3/1 8/3/1 15/3/1
f 17/3/1 10/3/1 9/3/1
f 18/3/1 10/3/1 17/3/1
f 19/1/1 12/1/1 11/1/1
f 20/1/1 12/1/1 19/1/1
f 23/3/1 22/3/1 21/3/1
f 24/3/1 22/3/1 23/3/1
f 29/3/1 26/3/1 25/3/1
f 30/3/1 26/3/1 29/3/1
f 31/3/1 28/3/1 27/3/1
f 32/3/1 28/3/1 31/3/1
f 37/3/1 34/3/1 33/3/1
f 38/3/1 34/3/1 37/3/1
f 39/3/1 36/3/1 35/3/1
f 40/3/1 36/3/1 39/3/1
f 45/3/1 42/3/1 41/3/1
f 46/3/1 42/3/1 45/3/1
f 47/3/1 44/3/1 43/3/1
f 48/3/1 44/3/1 47/3/1
f 51/3/1 50/3/1 49/3/1
f 52/3/1 50/3/1 51/3/1
f 58/3/1 54/3/1 53/3/1
f 59/3/1 54/3/1 58/3/1
f 60/3/1 56/3/1 55/3/1
f 61/2/1 57/2/1 56/2/1
f 61/3/1 56/3/1 60/3/1
f 62/2/1 57/2/1 61/2/1
f 63/1/2 64/1/2 65/1/2
f 65/1/2 64/1/2 66/1/2
f 67/3/2 68/3/2 69/3/2
f 69/3/2 68/3/2 70/3/2
f 71/3/2 72/3/2 73/3/2
f 73/3/2 72/3/2 74/3/2
f 75/3/2 76/3/2 77/3/2
f 77/3/2 76/3/2 78/3/2
f 79/3/2 80/3/2 81/3/2
f 81/3/2 80/3/2 82/3/2
f 83/3/2 84/3/2 85/3/2
f 85/3/2 84/3/2 86/3/2
f 87/3/2 88/3/2 91/3/2
f 91/3/2 88/3/2 92/3/2
f 89/3/2 90/3/2 93/3/2
f 93/3/2 90/3/2 94/3/2
f 95/3/2 96/3/2 101/3/2
f 101/3/2 96/3/2 102/3/2
f 97/3/2 98/3/2 103/3/2
f 103/3/2 98/3/2 104/3/2
f 99/3/2 100/3/2 105/3/2
f 105/3/2 100/3/2 106/3/2
f 107/3/2 108/3/2 111/3/2
f 111/3/2 108/3/2 112/3/2
f 109/1/2 110/1/2 113/1/2
f 113/1/2 110/1/2 114/1/2
f 117/3/3 116/3/3 115/3/3
f 118/3/3 116/3/3 117/3/3
f 121/3/3 120/3/3 119/3/3
f 122/3/3 120/3/3 121/3/3
f 125/3/3 124/3/3 123/3/3
f 126/3/3 124/3/3 125/3/3
f 129/3/3 128/3/3 127/3/3
f 130/3/3 128/3/3 129/3/3
f 133/1/3 132/1/3 131/1/3
f 134/1/3 132/1/3 133/1/3
f 135/3/3 134/3/3 133/3/3
f 136/3/3 134/3/3 135/3/3
f 139/3/3 138/3/3 137/3/3
f 140/3/3 138/3/3 139/3/3
f 143/3/3 142/3/3 141/3/3
f 144/3/3 142/3/3 143/3/3
f 147/3/3 146/3/3 145/3/3
f 148/3/3 146/3/3 147/3/3
f 151/3/3 150/3/3 149/3/3
f 152/3/3 150/3/3 151/3/3
f 155/3/3 154/3/3 153/3/3
f 156/3/3 154/3/3 155/3/3
f 159/3/3 158/3/3 157/3/3
f 160/3/3 158/3/3 159/3/3
f 163/3/3 162/3/3 161/3/3
f 164/3/3 162/3/3 163/3/3
f 167/1/3 166/1/3 165/1/3
f 168/1/3 166/1/3 167/1/3
f 171/3/3 170/3/3 169/3/3
f 172/3/3 170/3/3 171/3/3
f 175/1/3 174/1/3 173/1/3
f 176/1/3 174/1/3 175/1/3
f 177/3/4 178/3/4 179/3/4
f 179/3/4 178/3/4 180/3/4
f 181/1/4 182/1/4 183/1/4
f 183/1/4 182/1/4 184/1/4
f 183/3/4 184/3/4 185/3/4
f 185/3/4 184/3/4 186/3/4
f 187/3/4 188/3/4 189/3/4
f 189/3/4 188/3/4 190/3/4
f 191/3/4 192/3/4 193/3/4
f 193/3/4 192/3/4 194/3/4
f 195/3/4 196/3/4 197/3/4
f 197/3/4 196/3/4 198/3/4
f 199/3/4 200/3/4 201/3/4
f 201/3/4 200/3/4 202/3/4
f 203/3/4 204/3/4 205/3/4
f 205/3/4 204/3/4 206/3/4
f 207/3/4 208/3/4 209/3/4
f 209/3/4 208/3/4 210/3/4
f 211/1/4 212/1/4 213/1/4
f 213/1/4 212/1/4 214/1/4
f 215/3/4 216/3/4 217/3/4
f 217/3/4 216/3/4 218/3/4
f 219/3/4 220/3/4 221/3/4
f 221/3/4 220/3/4 222/3/4
f 223/3/4 224/3/4 225/3/4
f 225/3/4 224/3/4 226/3/4
f 227/2/4 228/2/4 229/2/4
f 229/2/4 228/2/4 230/2/4
f 229/1/4 230/1/4 231/1/4
f 231/1/4 230/1/4 232/1/4
f 236/3/5 234/3/5 233/3/5
f 237/3/5 234/3/5 236/3/5
f 238/3/5 234/3/5 237/3/5
f 239/3/5 234/3/5 238/3/5
f 247/3/5 236/3/5 235/3/5
f 247/3/5 237/3/5 236/3/5
f 248/3/5 237/3/5 247/3/5
f 249/2/5 238/2/5 237/2/5
f 249/3/5 237/3/5 248/3/5
f 250/3/5 239/3/5 238/3/5
f 250/2/5 238/2/5 249/2/5
f 250/3/5 240/3/5 239/3/5
f 251/3/5 240/3/5 250/3/5
f 252/3/5 240/3/5 251/3/5
f 253/3/5 242/3/5 241/3/5
f 254/3/5 242/3/5 253/3/5
f 255/1/5 244/1/5 243/1/5
f 256/3/5 245/3/5 244/3/5
f 256/1/5 244/1/5 255/1/5
f 257/3/5 245/3/5 256/3/5
f 258/3/5 248/3/5 247/3/5
f 258/3/5 247/3/5 246/3/5
f 259/3/5 248/3/5 258/3/5
f 260/2/5 249/2/5 248/2/5
f 260/3/5 248/3/5 259/3/5
f 261/2/5 249/2/5 260/2/5
f 262/1/5 250/1/5 249/1/5
f 262/2/5 249/2/5 261/2/5
f 263/2/5 251/2/5 250/2/5
f 263/1/5 250/1/5 262/1/5
f 264/3/5 252/3/5 251/3/5
f 264/2/5 251/2/5 263/2/5
f 264/3/5 253/3/5 252/3/5
f 266/3/5 259/3/5 258/3/5
f 266/3/5 258/3/5 257/3/5
f 267/3/5 259/3/5 266/3/5
f 268/3/5 259/3/5 267/3/5
f 269/2/5 261/2/5 260/2/5
f 269/3/5 259/3/5 268/3/5
f 269/2/5 260/2/5 259/2/5
f 270/1/5 264/1/5 263/1/5
f 270/2/5 261/2/5 269/2/5
f 270/1/5 263/1/5 262/1/5
f 270/1/5 262/1/5 261/1/5
f 271/3/5 253/3/5 264/3/5
f 271/1/5 264/1/5 270/1/5
f 272/3/5 253/3/5 271/3/5
f 274/3/5 266/3/5 265/3/5
f 274/3/5 267/3/5 266/3/5
f 275/3/5 267/3/5 274/3/5
f 276/2/5 268/2/5 267/2/5
f 276/3/5 267/3/5 275/3/5
f 277/1/5 270/1/5 269/1/5
f 277/2/5 268/2/5 276/2/5
f 277/1/5 269/1/5 268/1/5
f 277/1/5 271/1/5 270/1/5
f 278/3/5 274/3/5 273/3/5
f 278/3/5 275/3/5 274/3/5
f 279/1/5 276/1/5 275/1/5
f 279/3/5 275/3/5 278/3/5
f 279/1/5 277/1/5 276/1/5
f 280/1/5 271/1/5 277/1/5
f 280/1/5 277/1/5 279/1/5
f 280/2/5 272/2/5 271/2/5
f 281/3/5 253/3/5 272/3/5
f 281/2/5 272/2/5 280/2/5
f 282/3/5 253/3/5 281/3/5
f 284/3/5 278/3/5 273/3/5
f 285/2/5 279/2/5 278/2/5
f 285/3/5 278/3/5 284/3/5
f 286/2/5 279/2/5 285/2/5
f 287/1/5 280/1/5 279/1/5
f 287/2/5 279/2/5 286/2/5
f 287/1/5 281/1/5 280/1/5
f 288/1/5 281/1/5 287/1/5
f 289/1/5 281/1/5 288/1/5
f 290/2/5 282/2/5 281/2/5
f 290/1/5 281/1/5 289/1/5
f 291/3/5 286/3/5 285/3/5
f 291/2/5 287/2/5 286/2/5
f 291/2/5 288/2/5 287/2/5
f 292/1/5 289/1/5 288/1/5
f 292/2/5 288/2/5 291/2/5
f 293/2/5 290/2/5 289/2/5
f 293/1/5 289/1/5 292/1/5
f 294/2/5 282/2/5 290/2/5
f 294/2/5 290/2/5 293/2/5
f 295/3/5 283/3/5 282/3/5
f 295/2/5 282/2/5 294/2/5
f 296/1/5 294/1/5 293/1/5
f 296/1/5 293/1/5 292/1/5
f 297/3/5 295/3/5 294/3/5
f 297/1/5 294/1/5 296/1/5
f 298/3/5 292/3/5 291/3/5
f 298/3/5 291/3/5 285/3/5
f 299/3/5 292/3/5 298/3/5
f 300/1/5 296/1/5 292/1/5
f 300/3/5 292/3/5 299/3/5
f 301/1/5 296/1/5 300/1/5
f 302/1/5 296/1/5 301/1/5
f 303/2/5 297/2/5 296/2/5
f 303/1/5 296/1/5 302/1/5
f 304/3/5 295/3/5 297/3/5
f 304/2/5 297/2/5 303/2/5
f 305/3/5 283/3/5 295/3/5
f 305/3/5 295/3/5 304/3/5
f 306/3/5 300/3/5 299/3/5
f 307/3/5 300/3/5 306/3/5
f 308/1/5 302/1/5 301/1/5
f 308/2/5 301/2/5 300/2/5
f 309/1/5 302/1/5 308/1/5
f 310/2/5 304/2/5 303/2/5
f 310/1/5 302/1/5 309/1/5
f 310/2/5 303/2/5 302/2/5
f 310/2/5 305/2/5 304/2/5
f 311/3/5 283/3/5 305/3/5
f 311/2/5 305/2/5 310/2/5
f 312/3/5 283/3/5 311/3/5
f 314/2/5 309/2/5 308/2/5
f 314/2/5 308/2/5 300/2/5
f 314/3/5 300/3/5 307/3/5
f 315/2/5 309/2/5 314/2/5
f 316/1/5 310/1/5 309/1/5
f 316/2/5 309/2/5 315/2/5
f 317/1/5 310/1/5 316/1/5
f 318/3/5 312/3/5 311/3/5
f 318/1/5 310/1/5 317/1/5
f 318/3/5 313/3/5 312/3/5
f 318/3/5 311/3/5 310/3/5
f 319/3/5 313/3/5 318/3/5
f 320/3/5 313/3/5 319/3/5
f 323/3/5 315/3/5 314/3/5
f 323/3/5 314/3/5 307/3/5
f 324/3/5 315/3/5 323/3/5
f 325/2/5 317/2/5 316/2/5
f 325/2/5 316/2/5 315/2/5
f 326/3/5 318/3/5 317/3/5
f 326/2/5 317/2/5 325/2/5
f 326/3/5 319/3/5 318/3/5
f 327/3/5 319/3/5 326/3/5
f 328/3/5 319/3/5 327/3/5
f 330/1/5 322/1/5 321/1/5
f 331/1/5 322/1/5 330/1/5
f 332/3/5 315/3/5 324/3/5
f 333/2/5 325/2/5 315/2/5
f 333/3/5 315/3/5 332/3/5
f 334/3/5 327/3/5 326/3/5
f 334/2/5 325/2/5 333/2/5
f 334/3/5 326/3/5 325/3/5
f 335/3/5 327/3/5 334/3/5
f 336/3/5 327/3/5 335/3/5
f 337/3/5 329/3/5 328/3/5
f 338/3/5 329/3/5 337/3/5
f 340/3/5 334/3/5 333/3/5
f 340/3/5 335/3/5 334/3/5
f 341/3/5 335/3/5 340/3/5
f 342/2/5 338/2/5 337/2/5
f 343/1/5 339/1/5 338/1/5
f 343/2/5 338/2/5 342/2/5
f 344/1/5 339/1/5 343/1/5
f 345/3/6 346/3/6 348/3/6
f 348/3/6 346/3/6 349/3/6
f 349/3/6 346/3/6 350/3/6
f 350/3/6 346/3/6 351/3/6
f 347/3/6 348/3/6 359/3/6
f 348/3/6 349/3/6 359/3/6
f 359/3/6 349/3/6 360/3/6
f 349/2/6 350/2/6 361/2/6
f 360/3/6 349/3/6 361/3/6
f 350/3/6 351/3/6 362/3/6
f 361/2/6 350/2/6 362/2/6
f 351/3/6 352/3/6 362/3/6
f 362/3/6 352/3/6 363/3/6
f 363/3/6 352/3/6 364/3/6
f 353/3/6 354/3/6 365/3/6
f 365/3/6 354/3/6 366/3/6
f 355/1/6 356/1/6 367/1/6
f 356/3/6 357/3/6 368/3/6
f 367/1/6 356/1/6 368/1/6
f 368/3/6 357/3/6 369/3/6
f 359/3/6 360/3/6 370/3/6
f 358/3/6 359/3/6 370/3/6
f 370/3/6 360/3/6 371/3/6
f 360/2/6 361/2/6 372/2/6
f 371/3/6 360/3/6 372/3/6
f 372/2/6 361/2/6 373/2/6
f 361/1/6 362/1/6 374/1/6
f 373/2/6 361/2/6 374/2/6
f 362/2/6 363/2/6 375/2/6
f 374/1/6 362/1/6 375/1/6
f 363/3/6 364/3/6 376/3/6
f 375/2/6 363/2/6 376/2/6
f 364/3/6 365/3/6 376/3/6
f 370/3/6 371/3/6 378/3/6
f 369/3/6 370/3/6 378/3/6
f 378/3/6 371/3/6 379/3/6
f 379/3/6 371/3/6 380/3/6
f 372/2/6 373/2/6 381/2/6
f 380/3/6 371/3/6 381/3/6
f 371/2/6 372/2/6 381/2/6
f 375/1/6 376/1/6 382/1/6
f 381/2/6 373/2/6 382/2/6
f 374/1/6 375/1/6 382/1/6
f 373/1/6 374/1/6 382/1/6
f 376/3/6 365/3/6 383/3/6
f 382/1/6 376/1/6 383/1/6
f 383/3/6 365/3/6 384/3/6
f 377/3/6 378/3/6 386/3/6
f 378/3/6 379/3/6 386/3/6
f 386/3/6 379/3/6 387/3/6
f 379/2/6 380/2/6 388/2/6
f 387/3/6 379/3/6 388/3/6
f 381/1/6 382/1/6 389/1/6
f 388/2/6 380/2/6 389/2/6
f 380/1/6 381/1/6 389/1/6
f 382/1/6 383/1/6 389/1/6
f 385/3/6 386/3/6 390/3/6
f 386/3/6 387/3/6 390/3/6
f 387/1/6 388/1/6 391/1/6
f 390/3/6 387/3/6 391/3/6
f 388/1/6 389/1/6 391/1/6
f 389/1/6 383/1/6 392/1/6
f 391/1/6 389/1/6 392/1/6
f 383/2/6 384/2/6 392/2/6
f 384/3/6 365/3/6 393/3/6
f 392/2/6 384/2/6 393/2/6
f 393/3/6 365/3/6 394/3/6
f 385/3/6 390/3/6 396/3/6
f 390/2/6 391/2/6 397/2/6
f 396/3/6 390/3/6 397/3/6
f 397/2/6 391/2/6 398/2/6
f 391/1/6 392/1/6 399/1/6
f 398/2/6 391/2/6 399/2/6
f 392/1/6 393/1/6 399/1/6
f 399/1/6 393/1/6 400/1/6
f 400/1/6 393/1/6 401/1/6
f 393/2/6 394/2/6 402/2/6
f 401/1/6 393/1/6 402/1/6
f 397/3/6 398/3/6 403/3/6
f 398/2/6 399/2/6 403/2/6
f 399/2/6 400/2/6 403/2/6
f 400/1/6 401/1/6 404/1/6
f 403/2/6 400/2/6 404/2/6
f 401/2/6 402/2/6 405/2/6
f 404/1/6 401/1/6 405/1/6
f 402/2/6 394/2/6 406/2/6
f 405/2/6 402/2/6 406/2/6
f 394/3/6 395/3/6 407/3/6
f 406/2/6 394/2/6 407/2/6
f 405/1/6 406/1/6 408/1/6
f 404/1/6 405/1/6 408/1/6
f 406/3/6 407/3/6 409/3/6
f 408/1/6 406/1/6 409/1/6
f 403/3/6 404/3/6 410/3/6
f 397/3/6 403/3/6 410/3/6
f 410/3/6 404/3/6 411/3/6
f 404/1/6 408/1/6 412/1/6
f 411/3/6 404/3/6 412/3/6
f 412/1/6 408/1/6 413/1/6
f 413/1/6 408/1/6 414/1/6
f 408/2/6 409/2/6 415/2/6
f 414/1/6 408/1/6 415/1/6
f 409/3/6 407/3/6 416/3/6
f 415/2/6 409/2/6 416/2/6
f 407/3/6 395/3/6 417/3/6
f 416/3/6 407/3/6 417/3/6
f 411/3/6 412/3/6 418/3/6
f 418/3/6 412/3/6 419/3/6
f 413/1/6 414/1/6 420/1/6
f 412/2/6 413/2/6 420/2/6
f 420/1/6 414/1/6 421/1/6
f 415/2/6 416/2/6 422/2/6
f 421/1/6 414/1/6 422/1/6
f 414/2/6 415/2/6 422/2/6
f 416/2/6 417/2/6 422/2/6
f 417/3/6 395/3/6 423/3/6
f 422/2/6 417/2/6 423/2/6
f 423/3/6 395/3/6 424/3/6
f 420/2/6 421/2/6 426/2/6
f 412/2/6 420/2/6 426/2/6
f 419/3/6 412/3/6 426/3/6
f 426/2/6 421/2/6 427/2/6
f 421/1/6 422/1/6 428/1/6
f 427/2/6 421/2/6 428/2/6
f 428/1/6 422/1/6 429/1/6
f 423/3/6 424/3/6 430/3/6
f 429/1/6 422/1/6 430/1/6
f 424/3/6 425/3/6 430/3/6
f 422/3/6 423/3/6 430/3/6
f 430/3/6 425/3/6 431/3/6
f 431/3/6 425/3/6 432/3/6
f 426/3/6 427/3/6 435/3/6
f 419/3/6 426/3/6 435/3/6
f 435/3/6 427/3/6 436/3/6
f 428/2/6 429/2/6 437/2/6
f 427/2/6 428/2/6 437/2/6
f 429/3/6 430/3/6 438/3/6
f 437/2/6 429/2/6 438/2/6
f 430/3/6 431/3/6 438/3/6
f 438/3/6 431/3/6 439/3/6
f 439/3/6 431/3/6 440/3/6
f 433/1/6 434/1/6 442/1/6
f 442/1/6 434/1/6 443/1/6
f 436/3/6 427/3/6 444/3/6
f 427/2/6 437/2/6 445/2/6
f 444/3/6 427/3/6 445/3/6
f 438/3/6 439/3/6 446/3/6
f 445/2/6 437/2/6 446/2/6
f 437/3/6 438/3/6 446/3/6
f 446/3/6 439/3/6 447/3/6
f 447/3/6 439/3/6 448/3/6
f 440/3/6 441/3/6 449/3/6
f 449/3/6 441/3/6 450/3/6
f 445/3/6 446/3/6 452/3/6
f 446/3/6 447/3/6 452/3/6
f 452/3/6 447/3/6 453/3/6
f 449/2/6 450/2/6 454/2/6
f 450/1/6 451/1/6 455/1/6
f 454/2/6 450/2/6 455/2/6
f 455/1/6 451/1/6 456/1/6
