# MagicaVoxel @ Ephtracy

# group
o 

# material
mtllib door.mtl
usemtl palette

# normals
vn -1 0 0
vn 1 0 0
vn 0 0 1
vn 0 0 -1
vn 0 -1 0
vn 0 1 0

# texcoords
vt 0.291016 0.5
vt 0.298828 0.5
vt 0.302734 0.5
vt 0.306641 0.5
vt 0.310547 0.5
vt 0.841797 0.5

# verts
v -0.9 0 -0.5
v -0.9 0 -0.9
v -0.9 3 -0.5
v -0.9 3 -0.9
v -0.8 0 -0.4
v -0.8 0 -0.5
v -0.8 2.9 -0.4
v -0.8 2.9 -0.5
v -0.8 3 -0.5
v -0.8 3 -0.9
v -0.8 3.1 -0.5
v -0.8 3.1 -0.9
v -0.7 2.9 -0.4
v -0.7 2.9 -0.5
v -0.7 3 -0.4
v -0.7 3 -0.5
v -0.3 3.1 -0.5
v -0.3 3.1 -0.9
v -0.3 3.3 -0.5
v -0.3 3.3 -0.9
v -0.2 0.2 -0.5
v -0.2 0.2 -0.6
v -0.2 0.3 -0.5
v -0.2 0.3 -0.6
v -0.2 1.2 -0.5
v -0.2 1.2 -0.6
v -0.2 1.3 -0.5
v -0.2 1.3 -0.6
v -0.2 1.4 -0.5
v -0.2 1.4 -0.6
v -0.2 1.5 -0.5
v -0.2 1.5 -0.6
v -0.2 2.6 -0.5
v -0.2 2.6 -0.6
v -0.2 2.7 -0.5
v -0.2 2.7 -0.6
v -0.2 3.3 -0.5
v -0.2 3.3 -0.9
v -0.2 3.4 -0.5
v -0.2 3.4 -0.9
v -0.1 0.3 -0.5
v -0.1 0.3 -0.6
v -0.1 1.2 -0.5
v -0.1 1.2 -0.6
v -0.1 1.5 -0.5
v -0.1 1.5 -0.6
v -0.1 2.6 -0.5
v -0.1 2.6 -0.6
v 0.4 1.3 -0.4
v 0.4 1.3 -0.5
v 0.4 1.4 -0.4
v 0.4 1.4 -0.5
v 0.5 0.2 -0.5
v 0.5 0.2 -0.6
v 0.5 0.3 -0.5
v 0.5 0.3 -0.6
v 0.5 1.2 -0.5
v 0.5 1.2 -0.6
v 0.5 1.3 -0.5
v 0.5 1.3 -0.6
v 0.5 1.4 -0.5
v 0.5 1.4 -0.6
v 0.5 1.5 -0.5
v 0.5 1.5 -0.6
v 0.5 2.6 -0.5
v 0.5 2.6 -0.6
v 0.5 2.7 -0.5
v 0.5 2.7 -0.6
v 0.6 0.3 -0.5
v 0.6 0.3 -0.6
v 0.6 1.2 -0.5
v 0.6 1.2 -0.6
v 0.6 1.5 -0.5
v 0.6 1.5 -0.6
v 0.6 2.6 -0.5
v 0.6 2.6 -0.6
v 0.7 0 -0.4
v 0.7 0 -0.5
v 0.7 1.3 -0.4
v 0.7 1.3 -0.5
v 0.7 1.4 -0.4
v 0.7 1.4 -0.5
v 0.7 2.9 -0.4
v 0.7 2.9 -0.5
v -0.7 0 -0.4
v -0.7 0 -0.5
v -0.7 2.9 -0.4
v -0.7 2.9 -0.5
v -0.6 0.3 -0.5
v -0.6 0.3 -0.6
v -0.6 1.2 -0.5
v -0.6 1.2 -0.6
v -0.6 1.5 -0.5
v -0.6 1.5 -0.6
v -0.6 2.6 -0.5
v -0.6 2.6 -0.6
v -0.5 0.2 -0.5
v -0.5 0.2 -0.6
v -0.5 0.3 -0.5
v -0.5 0.3 -0.6
v -0.5 1.2 -0.5
v -0.5 1.2 -0.6
v -0.5 1.3 -0.5
v -0.5 1.3 -0.6
v -0.5 1.4 -0.5
v -0.5 1.4 -0.6
v -0.5 1.5 -0.5
v -0.5 1.5 -0.6
v -0.5 2.6 -0.5
v -0.5 2.6 -0.6
v -0.5 2.7 -0.5
v -0.5 2.7 -0.6
v 0.1 0.3 -0.5
v 0.1 0.3 -0.6
v 0.1 1.2 -0.5
v 0.1 1.2 -0.6
v 0.1 1.5 -0.5
v 0.1 1.5 -0.6
v 0.1 2.6 -0.5
v 0.1 2.6 -0.6
v 0.2 0.2 -0.5
v 0.2 0.2 -0.6
v 0.2 0.3 -0.5
v 0.2 0.3 -0.6
v 0.2 1.2 -0.5
v 0.2 1.2 -0.6
v 0.2 1.3 -0.5
v 0.2 1.3 -0.6
v 0.2 1.4 -0.5
v 0.2 1.4 -0.6
v 0.2 1.5 -0.5
v 0.2 1.5 -0.6
v 0.2 2.6 -0.5
v 0.2 2.6 -0.6
v 0.2 2.7 -0.5
v 0.2 2.7 -0.6
v 0.2 3.3 -0.5
v 0.2 3.3 -0.9
v 0.2 3.4 -0.5
v 0.2 3.4 -0.9
v 0.3 3.1 -0.5
v 0.3 3.1 -0.9
v 0.3 3.3 -0.5
v 0.3 3.3 -0.9
v 0.7 2.9 -0.4
v 0.7 2.9 -0.5
v 0.7 3 -0.4
v 0.7 3 -0.5
v 0.8 0 -0.4
v 0.8 0 -0.5
v 0.8 2.9 -0.4
v 0.8 2.9 -0.5
v 0.8 3 -0.5
v 0.8 3 -0.9
v 0.8 3.1 -0.5
v 0.8 3.1 -0.9
v 0.9 0 -0.5
v 0.9 0 -0.9
v 0.9 3 -0.5
v 0.9 3 -0.9
v -0.8 0 -0.4
v -0.8 2.9 -0.4
v -0.7 0 -0.4
v -0.7 2.9 -0.4
v -0.7 3 -0.4
v 0.4 1.3 -0.4
v 0.4 1.4 -0.4
v 0.7 0 -0.4
v 0.7 1.3 -0.4
v 0.7 1.4 -0.4
v 0.7 2.9 -0.4
v 0.7 3 -0.4
v 0.8 0 -0.4
v 0.8 2.9 -0.4
v -0.9 0 -0.5
v -0.9 3 -0.5
v -0.8 0 -0.5
v -0.8 2.9 -0.5
v -0.8 3 -0.5
v -0.8 3.1 -0.5
v -0.7 0 -0.5
v -0.7 2.9 -0.5
v -0.7 3 -0.5
v -0.6 0.3 -0.5
v -0.6 1.2 -0.5
v -0.6 1.5 -0.5
v -0.6 2.6 -0.5
v -0.5 0.2 -0.5
v -0.5 0.3 -0.5
v -0.5 1.2 -0.5
v -0.5 1.3 -0.5
v -0.5 1.4 -0.5
v -0.5 1.5 -0.5
v -0.5 2.6 -0.5
v -0.5 2.7 -0.5
v -0.3 3.1 -0.5
v -0.3 3.3 -0.5
v -0.2 0.2 -0.5
v -0.2 0.3 -0.5
v -0.2 1.2 -0.5
v -0.2 1.3 -0.5
v -0.2 1.4 -0.5
v -0.2 1.5 -0.5
v -0.2 2.6 -0.5
v -0.2 2.7 -0.5
v -0.2 3.3 -0.5
v -0.2 3.4 -0.5
v -0.1 0.3 -0.5
v -0.1 1.2 -0.5
v -0.1 1.5 -0.5
v -0.1 2.6 -0.5
v -0.1 3.1 -0.5
v -0.1 3.3 -0.5
v 0.1 0.3 -0.5
v 0.1 1.2 -0.5
v 0.1 1.5 -0.5
v 0.1 2.6 -0.5
v 0.1 3.1 -0.5
v 0.1 3.3 -0.5
v 0.2 0.2 -0.5
v 0.2 0.3 -0.5
v 0.2 1.2 -0.5
v 0.2 1.3 -0.5
v 0.2 1.4 -0.5
v 0.2 1.5 -0.5
v 0.2 2.6 -0.5
v 0.2 2.7 -0.5
v 0.2 3.3 -0.5
v 0.2 3.4 -0.5
v 0.3 3.1 -0.5
v 0.3 3.3 -0.5
v 0.4 1.3 -0.5
v 0.4 1.4 -0.5
v 0.5 0.2 -0.5
v 0.5 0.3 -0.5
v 0.5 1.2 -0.5
v 0.5 1.3 -0.5
v 0.5 1.4 -0.5
v 0.5 1.5 -0.5
v 0.5 2.6 -0.5
v 0.5 2.7 -0.5
v 0.6 0.3 -0.5
v 0.6 1.2 -0.5
v 0.6 1.5 -0.5
v 0.6 2.6 -0.5
v 0.7 0 -0.5
v 0.7 1.3 -0.5
v 0.7 1.4 -0.5
v 0.7 2.9 -0.5
v 0.7 3 -0.5
v 0.8 0 -0.5
v 0.8 2.9 -0.5
v 0.8 3 -0.5
v 0.8 3.1 -0.5
v 0.9 0 -0.5
v 0.9 3 -0.5
v -0.6 0.3 -0.6
v -0.6 1.2 -0.6
v -0.6 1.5 -0.6
v -0.6 2.6 -0.6
v -0.5 0.2 -0.6
v -0.5 0.3 -0.6
v -0.5 1.2 -0.6
v -0.5 1.3 -0.6
v -0.5 1.4 -0.6
v -0.5 1.5 -0.6
v -0.5 2.6 -0.6
v -0.5 2.7 -0.6
v -0.2 0.2 -0.6
v -0.2 0.3 -0.6
v -0.2 1.2 -0.6
v -0.2 1.3 -0.6
v -0.2 1.4 -0.6
v -0.2 1.5 -0.6
v -0.2 2.6 -0.6
v -0.2 2.7 -0.6
v -0.1 0.3 -0.6
v -0.1 1.2 -0.6
v -0.1 1.5 -0.6
v -0.1 2.6 -0.6
v 0.1 0.3 -0.6
v 0.1 1.2 -0.6
v 0.1 1.5 -0.6
v 0.1 2.6 -0.6
v 0.2 0.2 -0.6
v 0.2 0.3 -0.6
v 0.2 1.2 -0.6
v 0.2 1.3 -0.6
v 0.2 1.4 -0.6
v 0.2 1.5 -0.6
v 0.2 2.6 -0.6
v 0.2 2.7 -0.6
v 0.5 0.2 -0.6
v 0.5 0.3 -0.6
v 0.5 1.2 -0.6
v 0.5 1.3 -0.6
v 0.5 1.4 -0.6
v 0.5 1.5 -0.6
v 0.5 2.6 -0.6
v 0.5 2.7 -0.6
v 0.6 0.3 -0.6
v 0.6 1.2 -0.6
v 0.6 1.5 -0.6
v 0.6 2.6 -0.6
v -0.9 0 -0.9
v -0.9 3 -0.9
v -0.8 3 -0.9
v -0.8 3.1 -0.9
v -0.7 0 -0.9
v -0.7 2.9 -0.9
v -0.3 3.1 -0.9
v -0.3 3.3 -0.9
v -0.2 3.3 -0.9
v -0.2 3.4 -0.9
v 0.2 3.3 -0.9
v 0.2 3.4 -0.9
v 0.3 3.1 -0.9
v 0.3 3.3 -0.9
v 0.7 0 -0.9
v 0.7 2.9 -0.9
v 0.8 3 -0.9
v 0.8 3.1 -0.9
v 0.9 0 -0.9
v 0.9 3 -0.9
v -0.8 0 -0.4
v -0.7 0 -0.4
v 0.7 0 -0.4
v 0.8 0 -0.4
v -0.9 0 -0.5
v -0.8 0 -0.5
v -0.7 0 -0.5
v 0.7 0 -0.5
v 0.8 0 -0.5
v 0.9 0 -0.5
v -0.9 0 -0.9
v -0.7 0 -0.9
v 0.7 0 -0.9
v 0.9 0 -0.9
v -0.6 1.2 -0.5
v -0.5 1.2 -0.5
v -0.2 1.2 -0.5
v -0.1 1.2 -0.5
v 0.1 1.2 -0.5
v 0.2 1.2 -0.5
v 0.5 1.2 -0.5
v 0.6 1.2 -0.5
v -0.6 1.2 -0.6
v -0.5 1.2 -0.6
v -0.2 1.2 -0.6
v -0.1 1.2 -0.6
v 0.1 1.2 -0.6
v 0.2 1.2 -0.6
v 0.5 1.2 -0.6
v 0.6 1.2 -0.6
v 0.4 1.3 -0.4
v 0.7 1.3 -0.4
v -0.5 1.3 -0.5
v -0.2 1.3 -0.5
v 0.2 1.3 -0.5
v 0.4 1.3 -0.5
v 0.5 1.3 -0.5
v 0.7 1.3 -0.5
v -0.5 1.3 -0.6
v -0.2 1.3 -0.6
v 0.2 1.3 -0.6
v 0.5 1.3 -0.6
v -0.6 2.6 -0.5
v -0.5 2.6 -0.5
v -0.2 2.6 -0.5
v -0.1 2.6 -0.5
v 0.1 2.6 -0.5
v 0.2 2.6 -0.5
v 0.5 2.6 -0.5
v 0.6 2.6 -0.5
v -0.6 2.6 -0.6
v -0.5 2.6 -0.6
v -0.2 2.6 -0.6
v -0.1 2.6 -0.6
v 0.1 2.6 -0.6
v 0.2 2.6 -0.6
v 0.5 2.6 -0.6
v 0.6 2.6 -0.6
v -0.5 2.7 -0.5
v -0.2 2.7 -0.5
v 0.2 2.7 -0.5
v 0.5 2.7 -0.5
v -0.5 2.7 -0.6
v -0.2 2.7 -0.6
v 0.2 2.7 -0.6
v 0.5 2.7 -0.6
v -0.7 2.9 -0.4
v 0.7 2.9 -0.4
v -0.7 2.9 -0.5
v 0.7 2.9 -0.5
v -0.5 0.2 -0.5
v -0.2 0.2 -0.5
v 0.2 0.2 -0.5
v 0.5 0.2 -0.5
v -0.5 0.2 -0.6
v -0.2 0.2 -0.6
v 0.2 0.2 -0.6
v 0.5 0.2 -0.6
v -0.6 0.3 -0.5
v -0.5 0.3 -0.5
v -0.2 0.3 -0.5
v -0.1 0.3 -0.5
v 0.1 0.3 -0.5
v 0.2 0.3 -0.5
v 0.5 0.3 -0.5
v 0.6 0.3 -0.5
v -0.6 0.3 -0.6
v -0.5 0.3 -0.6
v -0.2 0.3 -0.6
v -0.1 0.3 -0.6
v 0.1 0.3 -0.6
v 0.2 0.3 -0.6
v 0.5 0.3 -0.6
v 0.6 0.3 -0.6
v 0.4 1.4 -0.4
v 0.7 1.4 -0.4
v -0.5 1.4 -0.5
v -0.2 1.4 -0.5
v 0.2 1.4 -0.5
v 0.4 1.4 -0.5
v 0.5 1.4 -0.5
v 0.7 1.4 -0.5
v -0.5 1.4 -0.6
v -0.2 1.4 -0.6
v 0.2 1.4 -0.6
v 0.5 1.4 -0.6
v -0.6 1.5 -0.5
v -0.5 1.5 -0.5
v -0.2 1.5 -0.5
v -0.1 1.5 -0.5
v 0.1 1.5 -0.5
v 0.2 1.5 -0.5
v 0.5 1.5 -0.5
v 0.6 1.5 -0.5
v -0.6 1.5 -0.6
v -0.5 1.5 -0.6
v -0.2 1.5 -0.6
v -0.1 1.5 -0.6
v 0.1 1.5 -0.6
v 0.2 1.5 -0.6
v 0.5 1.5 -0.6
v 0.6 1.5 -0.6
v -0.8 2.9 -0.4
v -0.7 2.9 -0.4
v 0.7 2.9 -0.4
v 0.8 2.9 -0.4
v -0.8 2.9 -0.5
v -0.7 2.9 -0.5
v 0.7 2.9 -0.5
v 0.8 2.9 -0.5
v -0.7 3 -0.4
v 0.7 3 -0.4
v -0.9 3 -0.5
v -0.8 3 -0.5
v -0.7 3 -0.5
v 0.7 3 -0.5
v 0.8 3 -0.5
v 0.9 3 -0.5
v -0.9 3 -0.9
v -0.8 3 -0.9
v 0.8 3 -0.9
v 0.9 3 -0.9
v -0.8 3.1 -0.5
v -0.3 3.1 -0.5
v 0.3 3.1 -0.5
v 0.8 3.1 -0.5
v -0.8 3.1 -0.9
v -0.3 3.1 -0.9
v 0.3 3.1 -0.9
v 0.8 3.1 -0.9
v -0.3 3.3 -0.5
v -0.2 3.3 -0.5
v 0.2 3.3 -0.5
v 0.3 3.3 -0.5
v -0.3 3.3 -0.9
v -0.2 3.3 -0.9
v 0.2 3.3 -0.9
v 0.3 3.3 -0.9
v -0.2 3.4 -0.5
v 0.2 3.4 -0.5
v -0.2 3.4 -0.9
v 0.2 3.4 -0.9

# faces
f 3/4/1 2/4/1 1/4/1
f 4/4/1 2/4/1 3/4/1
f 7/5/1 6/5/1 5/5/1
f 8/5/1 6/5/1 7/5/1
f 11/4/1 10/4/1 9/4/1
f 12/4/1 10/4/1 11/4/1
f 15/5/1 14/5/1 13/5/1
f 16/5/1 14/5/1 15/5/1
f 19/4/1 18/4/1 17/4/1
f 20/4/1 18/4/1 19/4/1
f 23/3/1 22/3/1 21/3/1
f 24/3/1 22/3/1 23/3/1
f 27/3/1 26/3/1 25/3/1
f 28/3/1 26/3/1 27/3/1
f 31/3/1 30/3/1 29/3/1
f 32/3/1 30/3/1 31/3/1
f 35/3/1 34/3/1 33/3/1
f 36/3/1 34/3/1 35/3/1
f 39/4/1 38/4/1 37/4/1
f 40/4/1 38/4/1 39/4/1
f 43/3/1 42/3/1 41/3/1
f 44/3/1 42/3/1 43/3/1
f 47/3/1 46/3/1 45/3/1
f 48/3/1 46/3/1 47/3/1
f 51/4/1 50/4/1 49/4/1
f 52/4/1 50/4/1 51/4/1
f 55/3/1 54/3/1 53/3/1
f 56/3/1 54/3/1 55/3/1
f 59/3/1 58/3/1 57/3/1
f 60/3/1 58/3/1 59/3/1
f 63/3/1 62/3/1 61/3/1
f 64/3/1 62/3/1 63/3/1
f 67/3/1 66/3/1 65/3/1
f 68/3/1 66/3/1 67/3/1
f 71/3/1 70/3/1 69/3/1
f 72/3/1 70/3/1 71/3/1
f 75/3/1 74/3/1 73/3/1
f 76/3/1 74/3/1 75/3/1
f 79/5/1 78/5/1 77/5/1
f 80/5/1 78/5/1 79/5/1
f 83/5/1 82/5/1 81/5/1
f 84/5/1 82/5/1 83/5/1
f 85/5/2 86/5/2 87/5/2
f 87/5/2 86/5/2 88/5/2
f 89/3/2 90/3/2 91/3/2
f 91/3/2 90/3/2 92/3/2
f 93/3/2 94/3/2 95/3/2
f 95/3/2 94/3/2 96/3/2
f 97/3/2 98/3/2 99/3/2
f 99/3/2 98/3/2 100/3/2
f 101/3/2 102/3/2 103/3/2
f 103/3/2 102/3/2 104/3/2
f 105/3/2 106/3/2 107/3/2
f 107/3/2 106/3/2 108/3/2
f 109/3/2 110/3/2 111/3/2
f 111/3/2 110/3/2 112/3/2
f 113/3/2 114/3/2 115/3/2
f 115/3/2 114/3/2 116/3/2
f 117/3/2 118/3/2 119/3/2
f 119/3/2 118/3/2 120/3/2
f 121/3/2 122/3/2 123/3/2
f 123/3/2 122/3/2 124/3/2
f 125/3/2 126/3/2 127/3/2
f 127/3/2 126/3/2 128/3/2
f 129/3/2 130/3/2 131/3/2
f 131/3/2 130/3/2 132/3/2
f 133/3/2 134/3/2 135/3/2
f 135/3/2 134/3/2 136/3/2
f 137/4/2 138/4/2 139/4/2
f 139/4/2 138/4/2 140/4/2
f 141/4/2 142/4/2 143/4/2
f 143/4/2 142/4/2 144/4/2
f 145/5/2 146/5/2 147/5/2
f 147/5/2 146/5/2 148/5/2
f 149/5/2 150/5/2 151/5/2
f 151/5/2 150/5/2 152/5/2
f 153/4/2 154/4/2 155/4/2
f 155/4/2 154/4/2 156/4/2
f 157/4/2 158/4/2 159/4/2
f 159/4/2 158/4/2 160/4/2
f 163/5/3 162/5/3 161/5/3
f 164/5/3 162/5/3 163/5/3
f 169/4/3 167/4/3 166/4/3
f 170/4/3 167/4/3 169/4/3
f 171/5/3 165/5/3 164/5/3
f 172/5/3 165/5/3 171/5/3
f 173/5/3 170/5/3 169/5/3
f 173/5/3 169/5/3 168/5/3
f 173/5/3 171/5/3 170/5/3
f 174/5/3 171/5/3 173/5/3
f 177/4/3 176/4/3 175/4/3
f 178/4/3 176/4/3 177/4/3
f 179/4/3 176/4/3 178/4/3
f 182/4/3 180/4/3 179/4/3
f 182/4/3 179/4/3 178/4/3
f 183/4/3 180/4/3 182/4/3
f 184/3/3 182/3/3 181/3/3
f 185/3/3 182/3/3 184/3/3
f 186/3/3 182/3/3 185/3/3
f 187/3/3 182/3/3 186/3/3
f 188/3/3 184/3/3 181/3/3
f 189/3/3 184/3/3 188/3/3
f 190/3/3 186/3/3 185/3/3
f 191/3/3 186/3/3 190/3/3
f 192/3/3 186/3/3 191/3/3
f 193/3/3 186/3/3 192/3/3
f 194/3/3 182/3/3 187/3/3
f 195/3/3 182/3/3 194/3/3
f 196/4/3 180/4/3 183/4/3
f 198/3/3 188/3/3 181/3/3
f 201/3/3 192/3/3 191/3/3
f 202/3/3 192/3/3 201/3/3
f 205/3/3 182/3/3 195/3/3
f 206/4/3 197/4/3 196/4/3
f 208/3/3 199/3/3 198/3/3
f 209/3/3 203/3/3 202/3/3
f 209/3/3 201/3/3 200/3/3
f 209/3/3 202/3/3 201/3/3
f 210/3/3 203/3/3 209/3/3
f 211/3/3 205/3/3 204/3/3
f 212/4/3 207/4/3 206/4/3
f 212/4/3 196/4/3 183/4/3
f 212/4/3 206/4/3 196/4/3
f 213/4/3 207/4/3 212/4/3
f 214/3/3 208/3/3 198/3/3
f 214/3/3 211/3/3 210/3/3
f 214/3/3 210/3/3 209/3/3
f 214/3/3 209/3/3 208/3/3
f 215/3/3 211/3/3 214/3/3
f 216/3/3 211/3/3 215/3/3
f 217/3/3 205/3/3 211/3/3
f 217/3/3 211/3/3 216/3/3
f 218/6/3 213/6/3 212/6/3
f 218/4/3 212/4/3 183/4/3
f 219/4/3 207/4/3 213/4/3
f 219/6/3 213/6/3 218/6/3
f 220/3/3 198/3/3 181/3/3
f 220/3/3 214/3/3 198/3/3
f 221/3/3 214/3/3 220/3/3
f 222/3/3 216/3/3 215/3/3
f 223/3/3 216/3/3 222/3/3
f 224/3/3 216/3/3 223/3/3
f 225/3/3 216/3/3 224/3/3
f 226/3/3 205/3/3 217/3/3
f 227/3/3 182/3/3 205/3/3
f 227/3/3 205/3/3 226/3/3
f 228/4/3 207/4/3 219/4/3
f 228/4/3 219/4/3 218/4/3
f 229/4/3 207/4/3 228/4/3
f 230/4/3 218/4/3 183/4/3
f 230/4/3 228/4/3 218/4/3
f 231/4/3 228/4/3 230/4/3
f 232/3/3 224/3/3 223/3/3
f 233/3/3 224/3/3 232/3/3
f 234/3/3 220/3/3 181/3/3
f 241/3/3 182/3/3 227/3/3
f 242/3/3 235/3/3 234/3/3
f 243/3/3 237/3/3 236/3/3
f 244/3/3 239/3/3 238/3/3
f 245/3/3 241/3/3 240/3/3
f 246/3/3 243/3/3 242/3/3
f 246/3/3 242/3/3 234/3/3
f 246/3/3 234/3/3 181/3/3
f 247/3/3 237/3/3 243/3/3
f 247/3/3 243/3/3 246/3/3
f 248/3/3 245/3/3 244/3/3
f 248/3/3 244/3/3 238/3/3
f 249/3/3 241/3/3 245/3/3
f 249/3/3 245/3/3 248/3/3
f 249/3/3 182/3/3 241/3/3
f 250/4/3 230/4/3 183/4/3
f 252/4/3 250/4/3 249/4/3
f 253/4/3 230/4/3 250/4/3
f 253/4/3 250/4/3 252/4/3
f 254/4/3 230/4/3 253/4/3
f 255/4/3 252/4/3 251/4/3
f 255/4/3 253/4/3 252/4/3
f 256/4/3 253/4/3 255/4/3
f 262/2/3 258/2/3 257/2/3
f 263/2/3 258/2/3 262/2/3
f 266/2/3 260/2/3 259/2/3
f 267/2/3 260/2/3 266/2/3
f 269/2/3 264/2/3 263/2/3
f 269/2/3 262/2/3 261/2/3
f 269/2/3 263/2/3 262/2/3
f 270/2/3 264/2/3 269/2/3
f 271/2/3 264/2/3 270/2/3
f 272/2/3 264/2/3 271/2/3
f 273/2/3 268/2/3 267/2/3
f 273/2/3 267/2/3 266/2/3
f 273/2/3 266/2/3 265/2/3
f 274/2/3 268/2/3 273/2/3
f 275/2/3 268/2/3 274/2/3
f 276/2/3 268/2/3 275/2/3
f 277/2/3 271/2/3 270/2/3
f 278/2/3 271/2/3 277/2/3
f 279/2/3 275/2/3 274/2/3
f 280/2/3 275/2/3 279/2/3
f 286/2/3 282/2/3 281/2/3
f 287/2/3 282/2/3 286/2/3
f 290/2/3 284/2/3 283/2/3
f 291/2/3 284/2/3 290/2/3
f 293/2/3 288/2/3 287/2/3
f 293/2/3 286/2/3 285/2/3
f 293/2/3 287/2/3 286/2/3
f 294/2/3 288/2/3 293/2/3
f 295/2/3 288/2/3 294/2/3
f 296/2/3 288/2/3 295/2/3
f 297/2/3 291/2/3 290/2/3
f 297/2/3 292/2/3 291/2/3
f 297/2/3 290/2/3 289/2/3
f 298/2/3 292/2/3 297/2/3
f 299/2/3 292/2/3 298/2/3
f 300/2/3 292/2/3 299/2/3
f 301/2/3 295/2/3 294/2/3
f 302/2/3 295/2/3 301/2/3
f 303/2/3 299/2/3 298/2/3
f 304/2/3 299/2/3 303/2/3
f 305/4/4 306/4/4 307/4/4
f 305/4/4 307/4/4 309/4/4
f 307/4/4 308/4/4 309/4/4
f 309/4/4 308/4/4 310/4/4
f 310/4/4 308/4/4 311/4/4
f 311/4/4 312/4/4 313/4/4
f 311/4/4 313/4/4 315/4/4
f 313/4/4 314/4/4 315/4/4
f 315/4/4 314/4/4 316/4/4
f 310/4/4 311/4/4 317/4/4
f 311/4/4 315/4/4 317/4/4
f 317/4/4 315/4/4 318/4/4
f 309/3/4 310/3/4 319/3/4
f 310/4/4 317/4/4 320/4/4
f 319/3/4 310/3/4 320/3/4
f 319/4/4 320/4/4 321/4/4
f 320/4/4 317/4/4 321/4/4
f 321/4/4 317/4/4 322/4/4
f 319/4/4 321/4/4 323/4/4
f 323/4/4 321/4/4 324/4/4
f 330/5/5 326/5/5 325/5/5
f 331/5/5 326/5/5 330/5/5
f 332/5/5 328/5/5 327/5/5
f 333/5/5 328/5/5 332/5/5
f 335/4/5 331/4/5 330/4/5
f 335/4/5 330/4/5 329/4/5
f 336/3/5 332/3/5 331/3/5
f 336/4/5 331/4/5 335/4/5
f 337/4/5 334/4/5 333/4/5
f 337/3/5 332/3/5 336/3/5
f 337/4/5 333/4/5 332/4/5
f 338/4/5 334/4/5 337/4/5
f 347/3/5 340/3/5 339/3/5
f 348/3/5 340/3/5 347/3/5
f 349/3/5 342/3/5 341/3/5
f 350/3/5 342/3/5 349/3/5
f 351/3/5 344/3/5 343/3/5
f 352/3/5 344/3/5 351/3/5
f 353/3/5 346/3/5 345/3/5
f 354/3/5 346/3/5 353/3/5
f 360/4/5 356/4/5 355/4/5
f 361/4/5 356/4/5 360/4/5
f 362/4/5 356/4/5 361/4/5
f 363/3/5 358/3/5 357/3/5
f 364/3/5 358/3/5 363/3/5
f 365/3/5 360/3/5 359/3/5
f 365/3/5 361/3/5 360/3/5
f 366/3/5 361/3/5 365/3/5
f 375/3/5 368/3/5 367/3/5
f 376/3/5 368/3/5 375/3/5
f 377/3/5 370/3/5 369/3/5
f 378/3/5 370/3/5 377/3/5
f 379/3/5 372/3/5 371/3/5
f 380/3/5 372/3/5 379/3/5
f 381/3/5 374/3/5 373/3/5
f 382/3/5 374/3/5 381/3/5
f 387/3/5 384/3/5 383/3/5
f 388/3/5 384/3/5 387/3/5
f 389/3/5 386/3/5 385/3/5
f 390/3/5 386/3/5 389/3/5
f 393/5/5 392/5/5 391/5/5
f 394/5/5 392/5/5 393/5/5
f 395/3/6 396/3/6 399/3/6
f 399/3/6 396/3/6 400/3/6
f 397/3/6 398/3/6 401/3/6
f 401/3/6 398/3/6 402/3/6
f 403/3/6 404/3/6 411/3/6
f 411/3/6 404/3/6 412/3/6
f 405/3/6 406/3/6 413/3/6
f 413/3/6 406/3/6 414/3/6
f 407/3/6 408/3/6 415/3/6
f 415/3/6 408/3/6 416/3/6
f 409/3/6 410/3/6 417/3/6
f 417/3/6 410/3/6 418/3/6
f 419/4/6 420/4/6 424/4/6
f 424/4/6 420/4/6 425/4/6
f 425/4/6 420/4/6 426/4/6
f 421/3/6 422/3/6 427/3/6
f 427/3/6 422/3/6 428/3/6
f 423/3/6 424/3/6 429/3/6
f 424/3/6 425/3/6 429/3/6
f 429/3/6 425/3/6 430/3/6
f 431/3/6 432/3/6 439/3/6
f 439/3/6 432/3/6 440/3/6
f 433/3/6 434/3/6 441/3/6
f 441/3/6 434/3/6 442/3/6
f 435/3/6 436/3/6 443/3/6
f 443/3/6 436/3/6 444/3/6
f 437/3/6 438/3/6 445/3/6
f 445/3/6 438/3/6 446/3/6
f 447/5/6 448/5/6 451/5/6
f 451/5/6 448/5/6 452/5/6
f 449/5/6 450/5/6 453/5/6
f 453/5/6 450/5/6 454/5/6
f 455/5/6 456/5/6 459/5/6
f 459/5/6 456/5/6 460/5/6
f 457/4/6 458/4/6 463/4/6
f 463/4/6 458/4/6 464/4/6
f 461/4/6 462/4/6 465/4/6
f 465/4/6 462/4/6 466/4/6
f 467/4/6 468/4/6 471/4/6
f 471/4/6 468/4/6 472/4/6
f 469/4/6 470/4/6 473/4/6
f 473/4/6 470/4/6 474/4/6
f 475/4/6 476/4/6 479/4/6
f 479/4/6 476/4/6 480/4/6
f 477/4/6 478/4/6 481/4/6
f 481/4/6 478/4/6 482/4/6
f 483/4/6 484/4/6 485/4/6
f 485/4/6 484/4/6 486/4/6
