# MagicaVoxel @ Ephtracy

# group
o 

# material
mtllib Robozinho2.mtl
usemtl palette

# normals
vn -1 0 0
vn 1 0 0
vn 0 0 1
vn 0 0 -1
vn 0 -1 0
vn 0 1 0

# texcoords
vt 0.197266 0.5
vt 0.201172 0.5
vt 0.205078 0.5
vt 0.208984 0.5
vt 0.212891 0.5
vt 0.216797 0.5

# verts
v 0.4 3.6 -1.7
v 0.4 3.6 -2.3
v 0.4 4.1 -1.7
v 0.4 4.1 -2.3
v 0.5 3.5 -1.6
v 0.5 3.5 -2.4
v 0.5 3.6 -1.7
v 0.5 3.6 -2.3
v 0.5 4.1 -1.7
v 0.5 4.1 -2.3
v 0.5 4.2 -1.6
v 0.5 4.2 -2.4
v 0.6 3.4 -1.5
v 0.6 3.4 -2.5
v 0.6 3.5 -1.6
v 0.6 3.5 -2.4
v 0.6 4.2 -1.6
v 0.6 4.2 -2.4
v 0.6 4.3 -1.5
v 0.6 4.3 -2.5
v 0.8 2.8 -0.8
v 0.8 2.8 -3.2
v 0.8 3.4 -1.5
v 0.8 3.4 -2.5
v 0.8 4.3 -1.5
v 0.8 4.3 -2.5
v 0.8 5.2 -0.8
v 0.8 5.2 -3.2
v 1 5.2 -1.6
v 1 5.2 -2.3
v 1 5.4 -1.6
v 1 5.4 -2.3
v 1.1 5.4 -1.7
v 1.1 5.4 -2.2
v 1.1 5.5 -1.7
v 1.1 5.5 -2.2
v 1.1 5.8 -1.7
v 1.1 5.8 -2.2
v 1.1 5.9 -1.7
v 1.1 5.9 -2.2
v 1.2 2 -1.5
v 1.2 2 -2.3
v 1.2 2.2 -1.5
v 1.2 2.2 -2.3
v 1.2 2.4 -1.8
v 1.2 2.4 -2.3
v 1.2 2.8 -1.8
v 1.2 2.8 -2.3
v 1.2 5.5 -1.8
v 1.2 5.5 -2.1
v 1.2 5.6 -1.8
v 1.2 5.6 -2.1
v 1.3 2.2 -1.9
v 1.3 2.2 -2.2
v 1.3 2.4 -1.9
v 1.3 2.4 -2.2
v 1.3 5.6 -1.9
v 1.3 5.6 -2
v 1.3 6 -1.9
v 1.3 6 -2
v 1.5 5.8 -1.8
v 1.5 5.8 -2.1
v 1.5 5.9 -1.8
v 1.5 5.9 -2.1
v 1.6 3.3 -3.2
v 1.6 3.3 -3.6
v 1.6 3.4 -3.6
v 1.6 3.4 -3.8
v 1.6 4.1 -3.2
v 1.6 4.1 -3.6
v 1.6 4.2 -3.6
v 1.6 4.2 -3.8
v 2.3 2 -1.5
v 2.3 2 -2.3
v 2.3 2.2 -1.5
v 2.3 2.2 -2.3
v 2.3 2.4 -1.8
v 2.3 2.4 -2.3
v 2.3 2.8 -1.8
v 2.3 2.8 -2.3
v 2.3 5.2 -1.6
v 2.3 5.2 -2.3
v 2.3 5.4 -1.6
v 2.3 5.4 -2.3
v 2.4 2.2 -1.9
v 2.4 2.2 -2.2
v 2.4 2.4 -1.9
v 2.4 2.4 -2.2
v 2.4 5.4 -1.7
v 2.4 5.4 -2.2
v 2.4 5.5 -1.7
v 2.4 5.5 -2.2
v 2.4 5.8 -1.7
v 2.4 5.8 -2.2
v 2.4 5.9 -1.7
v 2.4 5.9 -2.2
v 2.5 5.5 -1.8
v 2.5 5.5 -2.1
v 2.5 5.6 -1.8
v 2.5 5.6 -2.1
v 2.6 5.6 -1.9
v 2.6 5.6 -2
v 2.6 6 -1.9
v 2.6 6 -2
v 2.8 5.8 -1.8
v 2.8 5.8 -2.1
v 2.8 5.9 -1.8
v 2.8 5.9 -2.1
v 2.9 3.3 -0.8
v 2.9 3.3 -0.9
v 2.9 4.7 -0.8
v 2.9 4.7 -0.9
v 1.1 3.3 -0.8
v 1.1 3.3 -0.9
v 1.1 4.7 -0.8
v 1.1 4.7 -0.9
v 1.2 5.8 -1.8
v 1.2 5.8 -2.1
v 1.2 5.9 -1.8
v 1.2 5.9 -2.1
v 1.4 5.6 -1.9
v 1.4 5.6 -2
v 1.4 6 -1.9
v 1.4 6 -2
v 1.5 5.5 -1.8
v 1.5 5.5 -2.1
v 1.5 5.6 -1.8
v 1.5 5.6 -2.1
v 1.6 2.2 -1.9
v 1.6 2.2 -2.2
v 1.6 2.4 -1.9
v 1.6 2.4 -2.2
v 1.6 5.4 -1.7
v 1.6 5.4 -2.2
v 1.6 5.5 -1.7
v 1.6 5.5 -2.2
v 1.6 5.8 -1.7
v 1.6 5.8 -2.2
v 1.6 5.9 -1.7
v 1.6 5.9 -2.2
v 1.7 2 -1.5
v 1.7 2 -2.3
v 1.7 2.2 -1.5
v 1.7 2.2 -2.3
v 1.7 2.4 -1.8
v 1.7 2.4 -2.3
v 1.7 2.8 -1.8
v 1.7 2.8 -2.3
v 1.7 5.2 -1.6
v 1.7 5.2 -2.3
v 1.7 5.4 -1.6
v 1.7 5.4 -2.3
v 2.4 3.3 -3.2
v 2.4 3.3 -3.6
v 2.4 3.4 -3.6
v 2.4 3.4 -3.8
v 2.4 4.1 -3.2
v 2.4 4.1 -3.6
v 2.4 4.2 -3.6
v 2.4 4.2 -3.8
v 2.5 5.8 -1.8
v 2.5 5.8 -2.1
v 2.5 5.9 -1.8
v 2.5 5.9 -2.1
v 2.7 2.2 -1.9
v 2.7 2.2 -2.2
v 2.7 2.4 -1.9
v 2.7 2.4 -2.2
v 2.7 5.6 -1.9
v 2.7 5.6 -2
v 2.7 6 -1.9
v 2.7 6 -2
v 2.8 2 -1.5
v 2.8 2 -2.3
v 2.8 2.2 -1.5
v 2.8 2.2 -2.3
v 2.8 2.4 -1.8
v 2.8 2.4 -2.3
v 2.8 2.8 -1.8
v 2.8 2.8 -2.3
v 2.8 5.5 -1.8
v 2.8 5.5 -2.1
v 2.8 5.6 -1.8
v 2.8 5.6 -2.1
v 2.9 5.4 -1.7
v 2.9 5.4 -2.2
v 2.9 5.5 -1.7
v 2.9 5.5 -2.2
v 2.9 5.8 -1.7
v 2.9 5.8 -2.2
v 2.9 5.9 -1.7
v 2.9 5.9 -2.2
v 3 5.2 -1.6
v 3 5.2 -2.3
v 3 5.4 -1.6
v 3 5.4 -2.3
v 3.2 2.8 -0.8
v 3.2 2.8 -3.2
v 3.2 3.4 -1.5
v 3.2 3.4 -2.5
v 3.2 4.3 -1.5
v 3.2 4.3 -2.5
v 3.2 5.2 -0.8
v 3.2 5.2 -3.2
v 3.4 3.4 -1.5
v 3.4 3.4 -2.5
v 3.4 3.5 -1.6
v 3.4 3.5 -2.4
v 3.4 4.2 -1.6
v 3.4 4.2 -2.4
v 3.4 4.3 -1.5
v 3.4 4.3 -2.5
v 3.5 3.5 -1.6
v 3.5 3.5 -2.4
v 3.5 3.6 -1.7
v 3.5 3.6 -2.3
v 3.5 4.1 -1.7
v 3.5 4.1 -2.3
v 3.5 4.2 -1.6
v 3.5 4.2 -2.4
v 3.6 3.6 -1.7
v 3.6 3.6 -2.3
v 3.6 4.1 -1.7
v 3.6 4.1 -2.3
v 0.8 2.8 -0.8
v 0.8 5.2 -0.8
v 1.1 3.3 -0.8
v 1.1 4.7 -0.8
v 2.9 3.3 -0.8
v 2.9 4.7 -0.8
v 3.2 2.8 -0.8
v 3.2 5.2 -0.8
v 1.1 3.3 -0.9
v 1.1 4.7 -0.9
v 1.3 3.9 -0.9
v 1.3 4.3 -0.9
v 1.5 3.9 -0.9
v 1.5 4.3 -0.9
v 1.6 3.8 -0.9
v 1.6 4.1 -0.9
v 1.7 3.9 -0.9
v 1.7 4.1 -0.9
v 1.9 3.8 -0.9
v 1.9 3.9 -0.9
v 1.9 4 -0.9
v 2.1 3.8 -0.9
v 2.1 3.9 -0.9
v 2.1 4 -0.9
v 2.3 3.9 -0.9
v 2.3 4.1 -0.9
v 2.4 3.8 -0.9
v 2.4 4.1 -0.9
v 2.5 3.9 -0.9
v 2.5 4.3 -0.9
v 2.7 3.9 -0.9
v 2.7 4.3 -0.9
v 2.9 3.3 -0.9
v 2.9 4.7 -0.9
v 0.6 3.4 -1.5
v 0.6 4.3 -1.5
v 0.8 3.4 -1.5
v 0.8 4.3 -1.5
v 1.2 2 -1.5
v 1.2 2.2 -1.5
v 1.7 2 -1.5
v 1.7 2.2 -1.5
v 2.3 2 -1.5
v 2.3 2.2 -1.5
v 2.8 2 -1.5
v 2.8 2.2 -1.5
v 3.2 3.4 -1.5
v 3.2 4.3 -1.5
v 3.4 3.4 -1.5
v 3.4 4.3 -1.5
v 0.5 3.5 -1.6
v 0.5 4.2 -1.6
v 0.6 3.5 -1.6
v 0.6 4.2 -1.6
v 1 5.2 -1.6
v 1 5.4 -1.6
v 1.7 5.2 -1.6
v 1.7 5.4 -1.6
v 2.3 5.2 -1.6
v 2.3 5.4 -1.6
v 3 5.2 -1.6
v 3 5.4 -1.6
v 3.4 3.5 -1.6
v 3.4 4.2 -1.6
v 3.5 3.5 -1.6
v 3.5 4.2 -1.6
v 0.4 3.6 -1.7
v 0.4 4.1 -1.7
v 0.5 3.6 -1.7
v 0.5 4.1 -1.7
v 1.1 5.4 -1.7
v 1.1 5.5 -1.7
v 1.1 5.8 -1.7
v 1.1 5.9 -1.7
v 1.6 5.4 -1.7
v 1.6 5.5 -1.7
v 1.6 5.8 -1.7
v 1.6 5.9 -1.7
v 2.4 5.4 -1.7
v 2.4 5.5 -1.7
v 2.4 5.8 -1.7
v 2.4 5.9 -1.7
v 2.9 5.4 -1.7
v 2.9 5.5 -1.7
v 2.9 5.8 -1.7
v 2.9 5.9 -1.7
v 3.5 3.6 -1.7
v 3.5 4.1 -1.7
v 3.6 3.6 -1.7
v 3.6 4.1 -1.7
v 1.2 2.4 -1.8
v 1.2 2.8 -1.8
v 1.2 5.5 -1.8
v 1.2 5.6 -1.8
v 1.5 5.5 -1.8
v 1.5 5.6 -1.8
v 1.7 2.4 -1.8
v 1.7 2.8 -1.8
v 2.3 2.4 -1.8
v 2.3 2.8 -1.8
v 2.5 5.5 -1.8
v 2.5 5.6 -1.8
v 2.8 2.4 -1.8
v 2.8 2.8 -1.8
v 2.8 5.5 -1.8
v 2.8 5.6 -1.8
v 1.3 2.2 -1.9
v 1.3 2.4 -1.9
v 1.3 5.6 -1.9
v 1.3 6 -1.9
v 1.4 5.6 -1.9
v 1.4 6 -1.9
v 1.6 2.2 -1.9
v 1.6 2.4 -1.9
v 2.4 2.2 -1.9
v 2.4 2.4 -1.9
v 2.6 5.6 -1.9
v 2.6 6 -1.9
v 2.7 2.2 -1.9
v 2.7 2.4 -1.9
v 2.7 5.6 -1.9
v 2.7 6 -1.9
v 1.2 5.8 -2.1
v 1.2 5.9 -2.1
v 1.5 5.8 -2.1
v 1.5 5.9 -2.1
v 2.5 5.8 -2.1
v 2.5 5.9 -2.1
v 2.8 5.8 -2.1
v 2.8 5.9 -2.1
v 1.6 4.1 -3.6
v 1.6 4.2 -3.6
v 2.4 4.1 -3.6
v 2.4 4.2 -3.6
v 1.2 5.8 -1.8
v 1.2 5.9 -1.8
v 1.5 5.8 -1.8
v 1.5 5.9 -1.8
v 2.5 5.8 -1.8
v 2.5 5.9 -1.8
v 2.8 5.8 -1.8
v 2.8 5.9 -1.8
v 1.3 5.6 -2
v 1.3 6 -2
v 1.4 5.6 -2
v 1.4 6 -2
v 2.6 5.6 -2
v 2.6 6 -2
v 2.7 5.6 -2
v 2.7 6 -2
v 1.2 5.5 -2.1
v 1.2 5.6 -2.1
v 1.5 5.5 -2.1
v 1.5 5.6 -2.1
v 2.5 5.5 -2.1
v 2.5 5.6 -2.1
v 2.8 5.5 -2.1
v 2.8 5.6 -2.1
v 1.1 5.4 -2.2
v 1.1 5.5 -2.2
v 1.1 5.8 -2.2
v 1.1 5.9 -2.2
v 1.3 2.2 -2.2
v 1.3 2.4 -2.2
v 1.6 2.2 -2.2
v 1.6 2.4 -2.2
v 1.6 5.4 -2.2
v 1.6 5.5 -2.2
v 1.6 5.8 -2.2
v 1.6 5.9 -2.2
v 2.4 2.2 -2.2
v 2.4 2.4 -2.2
v 2.4 5.4 -2.2
v 2.4 5.5 -2.2
v 2.4 5.8 -2.2
v 2.4 5.9 -2.2
v 2.7 2.2 -2.2
v 2.7 2.4 -2.2
v 2.9 5.4 -2.2
v 2.9 5.5 -2.2
v 2.9 5.8 -2.2
v 2.9 5.9 -2.2
v 0.4 3.6 -2.3
v 0.4 4.1 -2.3
v 0.5 3.6 -2.3
v 0.5 4.1 -2.3
v 1 5.2 -2.3
v 1 5.4 -2.3
v 1.2 2 -2.3
v 1.2 2.2 -2.3
v 1.2 2.4 -2.3
v 1.2 2.8 -2.3
v 1.7 2 -2.3
v 1.7 2.2 -2.3
v 1.7 2.4 -2.3
v 1.7 2.8 -2.3
v 1.7 5.2 -2.3
v 1.7 5.4 -2.3
v 2.3 2 -2.3
v 2.3 2.2 -2.3
v 2.3 2.4 -2.3
v 2.3 2.8 -2.3
v 2.3 5.2 -2.3
v 2.3 5.4 -2.3
v 2.8 2 -2.3
v 2.8 2.2 -2.3
v 2.8 2.4 -2.3
v 2.8 2.8 -2.3
v 3 5.2 -2.3
v 3 5.4 -2.3
v 3.5 3.6 -2.3
v 3.5 4.1 -2.3
v 3.6 3.6 -2.3
v 3.6 4.1 -2.3
v 0.5 3.5 -2.4
v 0.5 4.2 -2.4
v 0.6 3.5 -2.4
v 0.6 4.2 -2.4
v 3.4 3.5 -2.4
v 3.4 4.2 -2.4
v 3.5 3.5 -2.4
v 3.5 4.2 -2.4
v 0.6 3.4 -2.5
v 0.6 4.3 -2.5
v 0.8 3.4 -2.5
v 0.8 4.3 -2.5
v 3.2 3.4 -2.5
v 3.2 4.3 -2.5
v 3.4 3.4 -2.5
v 3.4 4.3 -2.5
v 0.8 2.8 -3.2
v 0.8 5.2 -3.2
v 1.6 3.3 -3.2
v 1.6 4.1 -3.2
v 2.4 3.3 -3.2
v 2.4 4.1 -3.2
v 3.2 2.8 -3.2
v 3.2 5.2 -3.2
v 1.6 3.3 -3.6
v 1.6 3.4 -3.6
v 2.4 3.3 -3.6
v 2.4 3.4 -3.6
v 1.6 3.4 -3.8
v 1.6 4.2 -3.8
v 2.4 3.4 -3.8
v 2.4 4.2 -3.8
v 1.2 2 -1.5
v 1.7 2 -1.5
v 2.3 2 -1.5
v 2.8 2 -1.5
v 1.2 2 -2.3
v 1.7 2 -2.3
v 2.3 2 -2.3
v 2.8 2 -2.3
v 1.2 2.4 -1.8
v 1.7 2.4 -1.8
v 2.3 2.4 -1.8
v 2.8 2.4 -1.8
v 1.3 2.4 -1.9
v 1.6 2.4 -1.9
v 2.4 2.4 -1.9
v 2.7 2.4 -1.9
v 1.3 2.4 -2.2
v 1.6 2.4 -2.2
v 2.4 2.4 -2.2
v 2.7 2.4 -2.2
v 1.2 2.4 -2.3
v 1.7 2.4 -2.3
v 2.3 2.4 -2.3
v 2.8 2.4 -2.3
v 0.8 2.8 -0.8
v 3.2 2.8 -0.8
v 1.2 2.8 -1.8
v 1.7 2.8 -1.8
v 2.3 2.8 -1.8
v 2.8 2.8 -1.8
v 1.2 2.8 -2.3
v 1.7 2.8 -2.3
v 2.3 2.8 -2.3
v 2.8 2.8 -2.3
v 0.8 2.8 -3.2
v 3.2 2.8 -3.2
v 1.6 3.3 -3.2
v 2.4 3.3 -3.2
v 1.6 3.3 -3.6
v 2.4 3.3 -3.6
v 0.6 3.4 -1.5
v 0.8 3.4 -1.5
v 3.2 3.4 -1.5
v 3.4 3.4 -1.5
v 0.6 3.4 -2.5
v 0.8 3.4 -2.5
v 3.2 3.4 -2.5
v 3.4 3.4 -2.5
v 1.6 3.4 -3.6
v 2.4 3.4 -3.6
v 1.6 3.4 -3.8
v 2.4 3.4 -3.8
v 0.5 3.5 -1.6
v 0.6 3.5 -1.6
v 3.4 3.5 -1.6
v 3.5 3.5 -1.6
v 0.5 3.5 -2.4
v 0.6 3.5 -2.4
v 3.4 3.5 -2.4
v 3.5 3.5 -2.4
v 0.4 3.6 -1.7
v 0.5 3.6 -1.7
v 3.5 3.6 -1.7
v 3.6 3.6 -1.7
v 0.4 3.6 -2.3
v 0.5 3.6 -2.3
v 3.5 3.6 -2.3
v 3.6 3.6 -2.3
v 1.1 4.7 -0.8
v 2.9 4.7 -0.8
v 1.1 4.7 -0.9
v 2.9 4.7 -0.9
v 1.1 5.8 -1.7
v 1.6 5.8 -1.7
v 2.4 5.8 -1.7
v 2.9 5.8 -1.7
v 1.2 5.8 -1.8
v 1.5 5.8 -1.8
v 2.5 5.8 -1.8
v 2.8 5.8 -1.8
v 1.2 5.8 -2.1
v 1.5 5.8 -2.1
v 2.5 5.8 -2.1
v 2.8 5.8 -2.1
v 1.1 5.8 -2.2
v 1.6 5.8 -2.2
v 2.4 5.8 -2.2
v 2.9 5.8 -2.2
v 1.2 2.2 -1.5
v 1.7 2.2 -1.5
v 2.3 2.2 -1.5
v 2.8 2.2 -1.5
v 1.3 2.2 -1.9
v 1.6 2.2 -1.9
v 2.4 2.2 -1.9
v 2.7 2.2 -1.9
v 1.3 2.2 -2.2
v 1.6 2.2 -2.2
v 2.4 2.2 -2.2
v 2.7 2.2 -2.2
v 1.2 2.2 -2.3
v 1.7 2.2 -2.3
v 2.3 2.2 -2.3
v 2.8 2.2 -2.3
v 1.1 3.3 -0.8
v 2.9 3.3 -0.8
v 1.1 3.3 -0.9
v 2.9 3.3 -0.9
v 0.4 4.1 -1.7
v 0.5 4.1 -1.7
v 3.5 4.1 -1.7
v 3.6 4.1 -1.7
v 0.4 4.1 -2.3
v 0.5 4.1 -2.3
v 3.5 4.1 -2.3
v 3.6 4.1 -2.3
v 1.6 4.1 -3.2
v 2.4 4.1 -3.2
v 1.6 4.1 -3.6
v 2.4 4.1 -3.6
v 0.5 4.2 -1.6
v 0.6 4.2 -1.6
v 3.4 4.2 -1.6
v 3.5 4.2 -1.6
v 0.5 4.2 -2.4
v 0.6 4.2 -2.4
v 3.4 4.2 -2.4
v 3.5 4.2 -2.4
v 1.6 4.2 -3.6
v 2.4 4.2 -3.6
v 1.6 4.2 -3.8
v 2.4 4.2 -3.8
v 0.6 4.3 -1.5
v 0.8 4.3 -1.5
v 3.2 4.3 -1.5
v 3.4 4.3 -1.5
v 0.6 4.3 -2.5
v 0.8 4.3 -2.5
v 3.2 4.3 -2.5
v 3.4 4.3 -2.5
v 0.8 5.2 -0.8
v 3.2 5.2 -0.8
v 1 5.2 -1.6
v 1.7 5.2 -1.6
v 2.3 5.2 -1.6
v 3 5.2 -1.6
v 1 5.2 -2.3
v 1.7 5.2 -2.3
v 2.3 5.2 -2.3
v 3 5.2 -2.3
v 0.8 5.2 -3.2
v 3.2 5.2 -3.2
v 1 5.4 -1.6
v 1.7 5.4 -1.6
v 2.3 5.4 -1.6
v 3 5.4 -1.6
v 1.1 5.4 -1.7
v 1.6 5.4 -1.7
v 2.4 5.4 -1.7
v 2.9 5.4 -1.7
v 1.1 5.4 -2.2
v 1.6 5.4 -2.2
v 2.4 5.4 -2.2
v 2.9 5.4 -2.2
v 1 5.4 -2.3
v 1.7 5.4 -2.3
v 2.3 5.4 -2.3
v 3 5.4 -2.3
v 1.1 5.5 -1.7
v 1.6 5.5 -1.7
v 2.4 5.5 -1.7
v 2.9 5.5 -1.7
v 1.2 5.5 -1.8
v 1.5 5.5 -1.8
v 2.5 5.5 -1.8
v 2.8 5.5 -1.8
v 1.2 5.5 -2.1
v 1.5 5.5 -2.1
v 2.5 5.5 -2.1
v 2.8 5.5 -2.1
v 1.1 5.5 -2.2
v 1.6 5.5 -2.2
v 2.4 5.5 -2.2
v 2.9 5.5 -2.2
v 1.2 5.6 -1.8
v 1.5 5.6 -1.8
v 2.5 5.6 -1.8
v 2.8 5.6 -1.8
v 1.3 5.6 -1.9
v 1.4 5.6 -1.9
v 2.6 5.6 -1.9
v 2.7 5.6 -1.9
v 1.3 5.6 -2
v 1.4 5.6 -2
v 2.6 5.6 -2
v 2.7 5.6 -2
v 1.2 5.6 -2.1
v 1.5 5.6 -2.1
v 2.5 5.6 -2.1
v 2.8 5.6 -2.1
v 1.1 5.9 -1.7
v 1.6 5.9 -1.7
v 2.4 5.9 -1.7
v 2.9 5.9 -1.7
v 1.2 5.9 -1.8
v 1.5 5.9 -1.8
v 2.5 5.9 -1.8
v 2.8 5.9 -1.8
v 1.2 5.9 -2.1
v 1.5 5.9 -2.1
v 2.5 5.9 -2.1
v 2.8 5.9 -2.1
v 1.1 5.9 -2.2
v 1.6 5.9 -2.2
v 2.4 5.9 -2.2
v 2.9 5.9 -2.2
v 1.3 6 -1.9
v 1.4 6 -1.9
v 2.6 6 -1.9
v 2.7 6 -1.9
v 1.3 6 -2
v 1.4 6 -2
v 2.6 6 -2
v 2.7 6 -2

# faces
f 3/3/1 2/3/1 1/3/1
f 4/3/1 2/3/1 3/3/1
f 7/3/1 6/3/1 5/3/1
f 8/3/1 6/3/1 7/3/1
f 9/3/1 7/3/1 5/3/1
f 10/3/1 6/3/1 8/3/1
f 11/3/1 9/3/1 5/3/1
f 11/3/1 10/3/1 9/3/1
f 12/3/1 6/3/1 10/3/1
f 12/3/1 10/3/1 11/3/1
f 15/1/1 14/1/1 13/1/1
f 16/1/1 14/1/1 15/1/1
f 17/1/1 15/1/1 13/1/1
f 18/1/1 14/1/1 16/1/1
f 19/1/1 17/1/1 13/1/1
f 19/1/1 18/1/1 17/1/1
f 20/1/1 14/1/1 18/1/1
f 20/1/1 18/1/1 19/1/1
f 23/6/1 22/6/1 21/6/1
f 24/6/1 22/6/1 23/6/1
f 25/6/1 23/6/1 21/6/1
f 26/6/1 22/6/1 24/6/1
f 27/6/1 25/6/1 21/6/1
f 27/6/1 26/6/1 25/6/1
f 28/6/1 22/6/1 26/6/1
f 28/6/1 26/6/1 27/6/1
f 31/3/1 30/3/1 29/3/1
f 32/3/1 30/3/1 31/3/1
f 35/2/1 34/2/1 33/2/1
f 36/2/1 34/2/1 35/2/1
f 39/1/1 38/1/1 37/1/1
f 40/1/1 38/1/1 39/1/1
f 43/1/1 42/1/1 41/1/1
f 44/1/1 42/1/1 43/1/1
f 47/2/1 46/2/1 45/2/1
f 48/2/1 46/2/1 47/2/1
f 51/3/1 50/3/1 49/3/1
f 52/3/1 50/3/1 51/3/1
f 55/2/1 54/2/1 53/2/1
f 56/2/1 54/2/1 55/2/1
f 59/3/1 58/3/1 57/3/1
f 60/3/1 58/3/1 59/3/1
f 63/1/1 62/1/1 61/1/1
f 64/1/1 62/1/1 63/1/1
f 67/2/1 66/2/1 65/2/1
f 69/2/1 67/2/1 65/2/1
f 69/2/1 68/2/1 67/2/1
f 70/2/1 68/2/1 69/2/1
f 71/2/1 68/2/1 70/2/1
f 72/2/1 68/2/1 71/2/1
f 75/1/1 74/1/1 73/1/1
f 76/1/1 74/1/1 75/1/1
f 79/2/1 78/2/1 77/2/1
f 80/2/1 78/2/1 79/2/1
f 83/3/1 82/3/1 81/3/1
f 84/3/1 82/3/1 83/3/1
f 87/2/1 86/2/1 85/2/1
f 88/2/1 86/2/1 87/2/1
f 91/2/1 90/2/1 89/2/1
f 92/2/1 90/2/1 91/2/1
f 95/1/1 94/1/1 93/1/1
f 96/1/1 94/1/1 95/1/1
f 99/3/1 98/3/1 97/3/1
f 100/3/1 98/3/1 99/3/1
f 103/3/1 102/3/1 101/3/1
f 104/3/1 102/3/1 103/3/1
f 107/1/1 106/1/1 105/1/1
f 108/1/1 106/1/1 107/1/1
f 111/6/1 110/6/1 109/6/1
f 112/6/1 110/6/1 111/6/1
f 113/6/2 114/6/2 115/6/2
f 115/6/2 114/6/2 116/6/2
f 117/1/2 118/1/2 119/1/2
f 119/1/2 118/1/2 120/1/2
f 121/3/2 122/3/2 123/3/2
f 123/3/2 122/3/2 124/3/2
f 125/3/2 126/3/2 127/3/2
f 127/3/2 126/3/2 128/3/2
f 129/2/2 130/2/2 131/2/2
f 131/2/2 130/2/2 132/2/2
f 133/2/2 134/2/2 135/2/2
f 135/2/2 134/2/2 136/2/2
f 137/1/2 138/1/2 139/1/2
f 139/1/2 138/1/2 140/1/2
f 141/1/2 142/1/2 143/1/2
f 143/1/2 142/1/2 144/1/2
f 145/2/2 146/2/2 147/2/2
f 147/2/2 146/2/2 148/2/2
f 149/3/2 150/3/2 151/3/2
f 151/3/2 150/3/2 152/3/2
f 153/2/2 154/2/2 155/2/2
f 153/2/2 155/2/2 157/2/2
f 155/2/2 156/2/2 157/2/2
f 157/2/2 156/2/2 158/2/2
f 158/2/2 156/2/2 159/2/2
f 159/2/2 156/2/2 160/2/2
f 161/1/2 162/1/2 163/1/2
f 163/1/2 162/1/2 164/1/2
f 165/2/2 166/2/2 167/2/2
f 167/2/2 166/2/2 168/2/2
f 169/3/2 170/3/2 171/3/2
f 171/3/2 170/3/2 172/3/2
f 173/1/2 174/1/2 175/1/2
f 175/1/2 174/1/2 176/1/2
f 177/2/2 178/2/2 179/2/2
f 179/2/2 178/2/2 180/2/2
f 181/3/2 182/3/2 183/3/2
f 183/3/2 182/3/2 184/3/2
f 185/2/2 186/2/2 187/2/2
f 187/2/2 186/2/2 188/2/2
f 189/1/2 190/1/2 191/1/2
f 191/1/2 190/1/2 192/1/2
f 193/3/2 194/3/2 195/3/2
f 195/3/2 194/3/2 196/3/2
f 197/6/2 198/6/2 199/6/2
f 199/6/2 198/6/2 200/6/2
f 197/6/2 199/6/2 201/6/2
f 200/6/2 198/6/2 202/6/2
f 197/6/2 201/6/2 203/6/2
f 201/6/2 202/6/2 203/6/2
f 202/6/2 198/6/2 204/6/2
f 203/6/2 202/6/2 204/6/2
f 205/1/2 206/1/2 207/1/2
f 207/1/2 206/1/2 208/1/2
f 205/1/2 207/1/2 209/1/2
f 208/1/2 206/1/2 210/1/2
f 205/1/2 209/1/2 211/1/2
f 209/1/2 210/1/2 211/1/2
f 210/1/2 206/1/2 212/1/2
f 211/1/2 210/1/2 212/1/2
f 213/3/2 214/3/2 215/3/2
f 215/3/2 214/3/2 216/3/2
f 213/3/2 215/3/2 217/3/2
f 216/3/2 214/3/2 218/3/2
f 213/3/2 217/3/2 219/3/2
f 217/3/2 218/3/2 219/3/2
f 218/3/2 214/3/2 220/3/2
f 219/3/2 218/3/2 220/3/2
f 221/3/2 222/3/2 223/3/2
f 223/3/2 222/3/2 224/3/2
f 227/6/3 226/6/3 225/6/3
f 228/6/3 226/6/3 227/6/3
f 229/6/3 227/6/3 225/6/3
f 230/6/3 226/6/3 228/6/3
f 231/6/3 229/6/3 225/6/3
f 231/6/3 230/6/3 229/6/3
f 232/6/3 226/6/3 230/6/3
f 232/6/3 230/6/3 231/6/3
f 235/5/3 234/5/3 233/5/3
f 236/5/3 234/5/3 235/5/3
f 237/5/3 235/5/3 233/5/3
f 237/4/3 236/4/3 235/4/3
f 238/5/3 234/5/3 236/5/3
f 238/4/3 236/4/3 237/4/3
f 239/5/3 237/5/3 233/5/3
f 239/5/3 238/5/3 237/5/3
f 240/5/3 238/5/3 239/5/3
f 241/4/3 240/4/3 239/4/3
f 242/5/3 238/5/3 240/5/3
f 242/4/3 240/4/3 241/4/3
f 243/5/3 239/5/3 233/5/3
f 243/4/3 241/4/3 239/4/3
f 244/5/3 242/5/3 241/5/3
f 244/4/3 241/4/3 243/4/3
f 245/5/3 242/5/3 244/5/3
f 246/5/3 243/5/3 233/5/3
f 246/5/3 244/5/3 243/5/3
f 247/4/3 245/4/3 244/4/3
f 247/5/3 244/5/3 246/5/3
f 248/5/3 242/5/3 245/5/3
f 248/4/3 245/4/3 247/4/3
f 249/4/3 247/4/3 246/4/3
f 249/5/3 248/5/3 247/5/3
f 250/5/3 238/5/3 242/5/3
f 250/5/3 248/5/3 249/5/3
f 250/5/3 242/5/3 248/5/3
f 251/4/3 249/4/3 246/4/3
f 251/5/3 246/5/3 233/5/3
f 251/4/3 250/4/3 249/4/3
f 252/5/3 238/5/3 250/5/3
f 252/4/3 250/4/3 251/4/3
f 253/5/3 252/5/3 251/5/3
f 254/5/3 234/5/3 238/5/3
f 254/5/3 252/5/3 253/5/3
f 254/5/3 238/5/3 252/5/3
f 255/5/3 253/5/3 251/5/3
f 255/4/3 254/4/3 253/4/3
f 256/5/3 234/5/3 254/5/3
f 256/4/3 254/4/3 255/4/3
f 257/5/3 255/5/3 251/5/3
f 257/5/3 251/5/3 233/5/3
f 257/5/3 256/5/3 255/5/3
f 258/5/3 234/5/3 256/5/3
f 258/5/3 256/5/3 257/5/3
f 261/1/3 260/1/3 259/1/3
f 262/1/3 260/1/3 261/1/3
f 265/1/3 264/1/3 263/1/3
f 266/1/3 264/1/3 265/1/3
f 269/1/3 268/1/3 267/1/3
f 270/1/3 268/1/3 269/1/3
f 273/1/3 272/1/3 271/1/3
f 274/1/3 272/1/3 273/1/3
f 277/3/3 276/3/3 275/3/3
f 278/3/3 276/3/3 277/3/3
f 281/3/3 280/3/3 279/3/3
f 282/3/3 280/3/3 281/3/3
f 285/3/3 284/3/3 283/3/3
f 286/3/3 284/3/3 285/3/3
f 289/3/3 288/3/3 287/3/3
f 290/3/3 288/3/3 289/3/3
f 293/3/3 292/3/3 291/3/3
f 294/3/3 292/3/3 293/3/3
f 299/2/3 296/2/3 295/2/3
f 300/2/3 296/2/3 299/2/3
f 301/1/3 298/1/3 297/1/3
f 302/1/3 298/1/3 301/1/3
f 307/2/3 304/2/3 303/2/3
f 308/2/3 304/2/3 307/2/3
f 309/1/3 306/1/3 305/1/3
f 310/1/3 306/1/3 309/1/3
f 313/3/3 312/3/3 311/3/3
f 314/3/3 312/3/3 313/3/3
f 319/3/3 318/3/3 317/3/3
f 320/3/3 318/3/3 319/3/3
f 321/2/3 316/2/3 315/2/3
f 322/2/3 316/2/3 321/2/3
f 327/2/3 324/2/3 323/2/3
f 328/2/3 324/2/3 327/2/3
f 329/3/3 326/3/3 325/3/3
f 330/3/3 326/3/3 329/3/3
f 335/3/3 334/3/3 333/3/3
f 336/3/3 334/3/3 335/3/3
f 337/2/3 332/2/3 331/2/3
f 338/2/3 332/2/3 337/2/3
f 343/2/3 340/2/3 339/2/3
f 344/2/3 340/2/3 343/2/3
f 345/3/3 342/3/3 341/3/3
f 346/3/3 342/3/3 345/3/3
f 349/1/3 348/1/3 347/1/3
f 350/1/3 348/1/3 349/1/3
f 353/1/3 352/1/3 351/1/3
f 354/1/3 352/1/3 353/1/3
f 357/2/3 356/2/3 355/2/3
f 358/2/3 356/2/3 357/2/3
f 359/1/4 360/1/4 361/1/4
f 361/1/4 360/1/4 362/1/4
f 363/1/4 364/1/4 365/1/4
f 365/1/4 364/1/4 366/1/4
f 367/3/4 368/3/4 369/3/4
f 369/3/4 368/3/4 370/3/4
f 371/3/4 372/3/4 373/3/4
f 373/3/4 372/3/4 374/3/4
f 375/3/4 376/3/4 377/3/4
f 377/3/4 376/3/4 378/3/4
f 379/3/4 380/3/4 381/3/4
f 381/3/4 380/3/4 382/3/4
f 387/2/4 388/2/4 389/2/4
f 389/2/4 388/2/4 390/2/4
f 383/2/4 384/2/4 391/2/4
f 391/2/4 384/2/4 392/2/4
f 385/1/4 386/1/4 393/1/4
f 393/1/4 386/1/4 394/1/4
f 395/2/4 396/2/4 401/2/4
f 401/2/4 396/2/4 402/2/4
f 397/2/4 398/2/4 403/2/4
f 403/2/4 398/2/4 404/2/4
f 399/1/4 400/1/4 405/1/4
f 405/1/4 400/1/4 406/1/4
f 407/3/4 408/3/4 409/3/4
f 409/3/4 408/3/4 410/3/4
f 413/1/4 414/1/4 417/1/4
f 417/1/4 414/1/4 418/1/4
f 415/2/4 416/2/4 419/2/4
f 419/2/4 416/2/4 420/2/4
f 411/3/4 412/3/4 421/3/4
f 421/3/4 412/3/4 422/3/4
f 423/1/4 424/1/4 429/1/4
f 429/1/4 424/1/4 430/1/4
f 425/2/4 426/2/4 431/2/4
f 431/2/4 426/2/4 432/2/4
f 427/3/4 428/3/4 433/3/4
f 433/3/4 428/3/4 434/3/4
f 435/3/4 436/3/4 437/3/4
f 437/3/4 436/3/4 438/3/4
f 439/3/4 440/3/4 441/3/4
f 441/3/4 440/3/4 442/3/4
f 443/3/4 444/3/4 445/3/4
f 445/3/4 444/3/4 446/3/4
f 447/1/4 448/1/4 449/1/4
f 449/1/4 448/1/4 450/1/4
f 451/1/4 452/1/4 453/1/4
f 453/1/4 452/1/4 454/1/4
f 455/6/4 456/6/4 457/6/4
f 457/6/4 456/6/4 458/6/4
f 455/6/4 457/6/4 459/6/4
f 458/6/4 456/6/4 460/6/4
f 455/6/4 459/6/4 461/6/4
f 459/6/4 460/6/4 461/6/4
f 460/6/4 456/6/4 462/6/4
f 461/6/4 460/6/4 462/6/4
f 463/2/4 464/2/4 465/2/4
f 465/2/4 464/2/4 466/2/4
f 467/2/4 468/2/4 469/2/4
f 469/2/4 468/2/4 470/2/4
f 475/1/5 472/1/5 471/1/5
f 476/1/5 472/1/5 475/1/5
f 477/1/5 474/1/5 473/1/5
f 478/1/5 474/1/5 477/1/5
f 483/2/5 480/2/5 479/2/5
f 484/2/5 480/2/5 483/2/5
f 485/2/5 482/2/5 481/2/5
f 486/2/5 482/2/5 485/2/5
f 487/2/5 483/2/5 479/2/5
f 488/2/5 480/2/5 484/2/5
f 489/2/5 485/2/5 481/2/5
f 490/2/5 482/2/5 486/2/5
f 491/2/5 487/2/5 479/2/5
f 491/2/5 488/2/5 487/2/5
f 492/2/5 480/2/5 488/2/5
f 492/2/5 488/2/5 491/2/5
f 493/2/5 490/2/5 489/2/5
f 493/2/5 489/2/5 481/2/5
f 494/2/5 482/2/5 490/2/5
f 494/2/5 490/2/5 493/2/5
f 497/6/5 496/6/5 495/6/5
f 498/6/5 496/6/5 497/6/5
f 499/6/5 496/6/5 498/6/5
f 500/6/5 496/6/5 499/6/5
f 501/6/5 497/6/5 495/6/5
f 502/6/5 499/6/5 498/6/5
f 503/6/5 499/6/5 502/6/5
f 504/6/5 496/6/5 500/6/5
f 505/6/5 503/6/5 502/6/5
f 505/6/5 504/6/5 503/6/5
f 505/6/5 501/6/5 495/6/5
f 505/6/5 502/6/5 501/6/5
f 506/6/5 496/6/5 504/6/5
f 506/6/5 504/6/5 505/6/5
f 509/2/5 508/2/5 507/2/5
f 510/2/5 508/2/5 509/2/5
f 515/1/5 512/1/5 511/1/5
f 516/1/5 512/1/5 515/1/5
f 517/1/5 514/1/5 513/1/5
f 518/1/5 514/1/5 517/1/5
f 521/2/5 520/2/5 519/2/5
f 522/2/5 520/2/5 521/2/5
f 527/3/5 524/3/5 523/3/5
f 528/3/5 524/3/5 527/3/5
f 529/3/5 526/3/5 525/3/5
f 530/3/5 526/3/5 529/3/5
f 535/3/5 532/3/5 531/3/5
f 536/3/5 532/3/5 535/3/5
f 537/3/5 534/3/5 533/3/5
f 538/3/5 534/3/5 537/3/5
f 541/6/5 540/6/5 539/6/5
f 542/6/5 540/6/5 541/6/5
f 547/1/5 544/1/5 543/1/5
f 548/1/5 544/1/5 547/1/5
f 549/1/5 546/1/5 545/1/5
f 550/1/5 546/1/5 549/1/5
f 551/1/5 547/1/5 543/1/5
f 552/1/5 544/1/5 548/1/5
f 553/1/5 549/1/5 545/1/5
f 554/1/5 546/1/5 550/1/5
f 555/1/5 551/1/5 543/1/5
f 555/1/5 552/1/5 551/1/5
f 556/1/5 544/1/5 552/1/5
f 556/1/5 552/1/5 555/1/5
f 557/1/5 554/1/5 553/1/5
f 557/1/5 553/1/5 545/1/5
f 558/1/5 546/1/5 554/1/5
f 558/1/5 554/1/5 557/1/5
f 559/1/6 560/1/6 563/1/6
f 563/1/6 560/1/6 564/1/6
f 561/1/6 562/1/6 565/1/6
f 565/1/6 562/1/6 566/1/6
f 559/1/6 563/1/6 567/1/6
f 564/1/6 560/1/6 568/1/6
f 561/1/6 565/1/6 569/1/6
f 566/1/6 562/1/6 570/1/6
f 559/1/6 567/1/6 571/1/6
f 567/1/6 568/1/6 571/1/6
f 568/1/6 560/1/6 572/1/6
f 571/1/6 568/1/6 572/1/6
f 569/1/6 570/1/6 573/1/6
f 561/1/6 569/1/6 573/1/6
f 570/1/6 562/1/6 574/1/6
f 573/1/6 570/1/6 574/1/6
f 575/6/6 576/6/6 577/6/6
f 577/6/6 576/6/6 578/6/6
f 579/3/6 580/3/6 583/3/6
f 583/3/6 580/3/6 584/3/6
f 581/3/6 582/3/6 585/3/6
f 585/3/6 582/3/6 586/3/6
f 587/2/6 588/2/6 589/2/6
f 589/2/6 588/2/6 590/2/6
f 591/3/6 592/3/6 595/3/6
f 595/3/6 592/3/6 596/3/6
f 593/3/6 594/3/6 597/3/6
f 597/3/6 594/3/6 598/3/6
f 599/2/6 600/2/6 601/2/6
f 601/2/6 600/2/6 602/2/6
f 603/1/6 604/1/6 607/1/6
f 607/1/6 604/1/6 608/1/6
f 605/1/6 606/1/6 609/1/6
f 609/1/6 606/1/6 610/1/6
f 611/6/6 612/6/6 613/6/6
f 613/6/6 612/6/6 614/6/6
f 614/6/6 612/6/6 615/6/6
f 615/6/6 612/6/6 616/6/6
f 611/6/6 613/6/6 617/6/6
f 614/6/6 615/6/6 618/6/6
f 618/6/6 615/6/6 619/6/6
f 616/6/6 612/6/6 620/6/6
f 618/6/6 619/6/6 621/6/6
f 619/6/6 620/6/6 621/6/6
f 611/6/6 617/6/6 621/6/6
f 617/6/6 618/6/6 621/6/6
f 620/6/6 612/6/6 622/6/6
f 621/6/6 620/6/6 622/6/6
f 623/3/6 624/3/6 627/3/6
f 627/3/6 624/3/6 628/3/6
f 625/3/6 626/3/6 629/3/6
f 629/3/6 626/3/6 630/3/6
f 623/3/6 627/3/6 631/3/6
f 628/3/6 624/3/6 632/3/6
f 625/3/6 629/3/6 633/3/6
f 630/3/6 626/3/6 634/3/6
f 623/3/6 631/3/6 635/3/6
f 631/3/6 632/3/6 635/3/6
f 632/3/6 624/3/6 636/3/6
f 635/3/6 632/3/6 636/3/6
f 633/3/6 634/3/6 637/3/6
f 625/3/6 633/3/6 637/3/6
f 634/3/6 626/3/6 638/3/6
f 637/3/6 634/3/6 638/3/6
f 639/2/6 640/2/6 643/2/6
f 643/2/6 640/2/6 644/2/6
f 641/2/6 642/2/6 645/2/6
f 645/2/6 642/2/6 646/2/6
f 639/2/6 643/2/6 647/2/6
f 644/2/6 640/2/6 648/2/6
f 641/2/6 645/2/6 649/2/6
f 646/2/6 642/2/6 650/2/6
f 639/2/6 647/2/6 651/2/6
f 647/2/6 648/2/6 651/2/6
f 648/2/6 640/2/6 652/2/6
f 651/2/6 648/2/6 652/2/6
f 649/2/6 650/2/6 653/2/6
f 641/2/6 649/2/6 653/2/6
f 650/2/6 642/2/6 654/2/6
f 653/2/6 650/2/6 654/2/6
f 655/3/6 656/3/6 659/3/6
f 659/3/6 656/3/6 660/3/6
f 657/3/6 658/3/6 661/3/6
f 661/3/6 658/3/6 662/3/6
f 655/3/6 659/3/6 663/3/6
f 660/3/6 656/3/6 664/3/6
f 657/3/6 661/3/6 665/3/6
f 662/3/6 658/3/6 666/3/6
f 655/3/6 663/3/6 667/3/6
f 663/3/6 664/3/6 667/3/6
f 664/3/6 656/3/6 668/3/6
f 667/3/6 664/3/6 668/3/6
f 665/3/6 666/3/6 669/3/6
f 657/3/6 665/3/6 669/3/6
f 666/3/6 658/3/6 670/3/6
f 669/3/6 666/3/6 670/3/6
f 671/1/6 672/1/6 675/1/6
f 675/1/6 672/1/6 676/1/6
f 673/1/6 674/1/6 677/1/6
f 677/1/6 674/1/6 678/1/6
f 671/1/6 675/1/6 679/1/6
f 676/1/6 672/1/6 680/1/6
f 673/1/6 677/1/6 681/1/6
f 678/1/6 674/1/6 682/1/6
f 671/1/6 679/1/6 683/1/6
f 679/1/6 680/1/6 683/1/6
f 680/1/6 672/1/6 684/1/6
f 683/1/6 680/1/6 684/1/6
f 681/1/6 682/1/6 685/1/6
f 673/1/6 681/1/6 685/1/6
f 682/1/6 674/1/6 686/1/6
f 685/1/6 682/1/6 686/1/6
f 687/3/6 688/3/6 691/3/6
f 691/3/6 688/3/6 692/3/6
f 689/3/6 690/3/6 693/3/6
f 693/3/6 690/3/6 694/3/6
