# MagicaVoxel @ Ephtracy

# group
o 

# material
mtllib porta_contorno.mtl
usemtl palette

# normals
vn -1 0 0
vn 1 0 0
vn 0 0 1
vn 0 0 -1
vn 0 -1 0
vn 0 1 0

# texcoords
vt 0.306641 0.5
vt 0.310547 0.5

# verts
v -0.9 0 -0.5
v -0.9 0 -0.9
v -0.9 3 -0.5
v -0.9 3 -0.9
v -0.8 0 -0.4
v -0.8 0 -0.5
v -0.8 2.9 -0.4
v -0.8 2.9 -0.5
v -0.8 3 -0.5
v -0.8 3 -0.9
v -0.8 3.1 -0.5
v -0.8 3.1 -0.9
v -0.7 2.9 -0.4
v -0.7 2.9 -0.5
v -0.7 3 -0.4
v -0.7 3 -0.5
v -0.3 3.1 -0.5
v -0.3 3.1 -0.9
v -0.3 3.3 -0.5
v -0.3 3.3 -0.9
v -0.2 3.3 -0.5
v -0.2 3.3 -0.9
v -0.2 3.4 -0.5
v -0.2 3.4 -0.9
v 0.1 3.1 -0.5
v 0.1 3.1 -0.6
v 0.1 3.1 -0.8
v 0.1 3.1 -0.9
v 0.1 3.3 -0.5
v 0.1 3.3 -0.6
v 0.1 3.3 -0.8
v 0.1 3.3 -0.9
v 0.7 0 -0.4
v 0.7 0 -0.5
v 0.7 0 -0.9
v 0.7 2.9 -0.4
v 0.7 2.9 -0.5
v 0.7 2.9 -0.9
v -0.7 0 -0.4
v -0.7 0 -0.5
v -0.7 0 -0.9
v -0.7 2.9 -0.4
v -0.7 2.9 -0.5
v -0.7 2.9 -0.9
v -0.1 3.1 -0.5
v -0.1 3.1 -0.6
v -0.1 3.1 -0.8
v -0.1 3.1 -0.9
v -0.1 3.3 -0.5
v -0.1 3.3 -0.6
v -0.1 3.3 -0.8
v -0.1 3.3 -0.9
v 0.2 3.3 -0.5
v 0.2 3.3 -0.9
v 0.2 3.4 -0.5
v 0.2 3.4 -0.9
v 0.3 3.1 -0.5
v 0.3 3.1 -0.9
v 0.3 3.3 -0.5
v 0.3 3.3 -0.9
v 0.7 2.9 -0.4
v 0.7 2.9 -0.5
v 0.7 3 -0.4
v 0.7 3 -0.5
v 0.8 0 -0.4
v 0.8 0 -0.5
v 0.8 2.9 -0.4
v 0.8 2.9 -0.5
v 0.8 3 -0.5
v 0.8 3 -0.9
v 0.8 3.1 -0.5
v 0.8 3.1 -0.9
v 0.9 0 -0.5
v 0.9 0 -0.9
v 0.9 3 -0.5
v 0.9 3 -0.9
v -0.8 0 -0.4
v -0.8 2.9 -0.4
v -0.7 0 -0.4
v -0.7 2.9 -0.4
v -0.7 3 -0.4
v 0.7 0 -0.4
v 0.7 2.9 -0.4
v 0.7 3 -0.4
v 0.8 0 -0.4
v 0.8 2.9 -0.4
v -0.9 0 -0.5
v -0.9 3 -0.5
v -0.8 0 -0.5
v -0.8 2.9 -0.5
v -0.8 3 -0.5
v -0.8 3.1 -0.5
v -0.7 2.9 -0.5
v -0.7 3 -0.5
v -0.3 3.1 -0.5
v -0.3 3.3 -0.5
v -0.2 3.3 -0.5
v -0.2 3.4 -0.5
v -0.1 3.1 -0.5
v -0.1 3.3 -0.5
v 0.1 3.1 -0.5
v 0.1 3.3 -0.5
v 0.2 3.3 -0.5
v 0.2 3.4 -0.5
v 0.3 3.1 -0.5
v 0.3 3.3 -0.5
v 0.7 2.9 -0.5
v 0.7 3 -0.5
v 0.8 0 -0.5
v 0.8 2.9 -0.5
v 0.8 3 -0.5
v 0.8 3.1 -0.5
v 0.9 0 -0.5
v 0.9 3 -0.5
v -0.9 0 -0.9
v -0.9 3 -0.9
v -0.8 3 -0.9
v -0.8 3.1 -0.9
v -0.7 0 -0.9
v -0.7 2.9 -0.9
v -0.3 3.1 -0.9
v -0.3 3.3 -0.9
v -0.2 3.3 -0.9
v -0.2 3.4 -0.9
v -0.1 3.1 -0.9
v -0.1 3.3 -0.9
v 0.1 3.1 -0.9
v 0.1 3.3 -0.9
v 0.2 3.3 -0.9
v 0.2 3.4 -0.9
v 0.3 3.1 -0.9
v 0.3 3.3 -0.9
v 0.7 0 -0.9
v 0.7 2.9 -0.9
v 0.8 3 -0.9
v 0.8 3.1 -0.9
v 0.9 0 -0.9
v 0.9 3 -0.9
v -0.8 0 -0.4
v -0.7 0 -0.4
v 0.7 0 -0.4
v 0.8 0 -0.4
v -0.9 0 -0.5
v -0.8 0 -0.5
v -0.7 0 -0.5
v 0.7 0 -0.5
v 0.8 0 -0.5
v 0.9 0 -0.5
v -0.9 0 -0.9
v -0.7 0 -0.9
v 0.7 0 -0.9
v 0.9 0 -0.9
v -0.7 2.9 -0.4
v 0.7 2.9 -0.4
v -0.7 2.9 -0.5
v -0.6 2.9 -0.5
v 0.5 2.9 -0.5
v 0.7 2.9 -0.5
v -0.6 2.9 -0.8
v 0.5 2.9 -0.8
v -0.7 2.9 -0.9
v 0.7 2.9 -0.9
v -0.1 3.3 -0.5
v 0.1 3.3 -0.5
v -0.1 3.3 -0.6
v 0.1 3.3 -0.6
v -0.1 3.3 -0.8
v 0.1 3.3 -0.8
v -0.1 3.3 -0.9
v 0.1 3.3 -0.9
v -0.8 2.9 -0.4
v -0.7 2.9 -0.4
v 0.7 2.9 -0.4
v 0.8 2.9 -0.4
v -0.8 2.9 -0.5
v -0.7 2.9 -0.5
v 0.7 2.9 -0.5
v 0.8 2.9 -0.5
v -0.7 3 -0.4
v 0.7 3 -0.4
v -0.9 3 -0.5
v -0.8 3 -0.5
v -0.7 3 -0.5
v 0.7 3 -0.5
v 0.8 3 -0.5
v 0.9 3 -0.5
v -0.9 3 -0.9
v -0.8 3 -0.9
v 0.8 3 -0.9
v 0.9 3 -0.9
v -0.8 3.1 -0.5
v -0.3 3.1 -0.5
v -0.1 3.1 -0.5
v 0.1 3.1 -0.5
v 0.3 3.1 -0.5
v 0.8 3.1 -0.5
v -0.1 3.1 -0.6
v 0.1 3.1 -0.6
v -0.1 3.1 -0.8
v 0.1 3.1 -0.8
v -0.8 3.1 -0.9
v -0.3 3.1 -0.9
v -0.1 3.1 -0.9
v 0.1 3.1 -0.9
v 0.3 3.1 -0.9
v 0.8 3.1 -0.9
v -0.3 3.3 -0.5
v -0.2 3.3 -0.5
v 0.2 3.3 -0.5
v 0.3 3.3 -0.5
v -0.3 3.3 -0.9
v -0.2 3.3 -0.9
v 0.2 3.3 -0.9
v 0.3 3.3 -0.9
v -0.2 3.4 -0.5
v 0.2 3.4 -0.5
v -0.2 3.4 -0.9
v 0.2 3.4 -0.9

# faces
f 3/1/1 2/1/1 1/1/1
f 4/1/1 2/1/1 3/1/1
f 7/2/1 6/2/1 5/2/1
f 8/2/1 6/2/1 7/2/1
f 11/1/1 10/1/1 9/1/1
f 12/1/1 10/1/1 11/1/1
f 15/2/1 14/2/1 13/2/1
f 16/2/1 14/2/1 15/2/1
f 19/1/1 18/1/1 17/1/1
f 20/1/1 18/1/1 19/1/1
f 23/1/1 22/1/1 21/1/1
f 24/1/1 22/1/1 23/1/1
f 29/1/1 26/1/1 25/1/1
f 30/2/1 27/2/1 26/2/1
f 30/1/1 26/1/1 29/1/1
f 31/1/1 28/1/1 27/1/1
f 31/2/1 27/2/1 30/2/1
f 32/1/1 28/1/1 31/1/1
f 36/2/1 34/2/1 33/2/1
f 37/1/1 35/1/1 34/1/1
f 37/2/1 34/2/1 36/2/1
f 38/1/1 35/1/1 37/1/1
f 39/2/2 40/2/2 42/2/2
f 40/1/2 41/1/2 43/1/2
f 42/2/2 40/2/2 43/2/2
f 43/1/2 41/1/2 44/1/2
f 45/1/2 46/1/2 49/1/2
f 46/2/2 47/2/2 50/2/2
f 49/1/2 46/1/2 50/1/2
f 47/1/2 48/1/2 51/1/2
f 50/2/2 47/2/2 51/2/2
f 51/1/2 48/1/2 52/1/2
f 53/1/2 54/1/2 55/1/2
f 55/1/2 54/1/2 56/1/2
f 57/1/2 58/1/2 59/1/2
f 59/1/2 58/1/2 60/1/2
f 61/2/2 62/2/2 63/2/2
f 63/2/2 62/2/2 64/2/2
f 65/2/2 66/2/2 67/2/2
f 67/2/2 66/2/2 68/2/2
f 69/1/2 70/1/2 71/1/2
f 71/1/2 70/1/2 72/1/2
f 73/1/2 74/1/2 75/1/2
f 75/1/2 74/1/2 76/1/2
f 79/2/3 78/2/3 77/2/3
f 80/2/3 78/2/3 79/2/3
f 83/2/3 81/2/3 80/2/3
f 84/2/3 81/2/3 83/2/3
f 85/2/3 83/2/3 82/2/3
f 86/2/3 83/2/3 85/2/3
f 89/1/3 88/1/3 87/1/3
f 90/1/3 88/1/3 89/1/3
f 91/1/3 88/1/3 90/1/3
f 93/1/3 92/1/3 91/1/3
f 93/1/3 91/1/3 90/1/3
f 94/1/3 92/1/3 93/1/3
f 95/1/3 92/1/3 94/1/3
f 97/1/3 96/1/3 95/1/3
f 99/1/3 95/1/3 94/1/3
f 99/1/3 98/1/3 97/1/3
f 99/1/3 97/1/3 95/1/3
f 100/1/3 98/1/3 99/1/3
f 101/1/3 99/1/3 94/1/3
f 102/1/3 98/1/3 100/1/3
f 103/1/3 98/1/3 102/1/3
f 103/1/3 102/1/3 101/1/3
f 104/1/3 98/1/3 103/1/3
f 105/1/3 101/1/3 94/1/3
f 105/1/3 103/1/3 101/1/3
f 106/1/3 103/1/3 105/1/3
f 108/1/3 105/1/3 94/1/3
f 110/1/3 108/1/3 107/1/3
f 111/1/3 105/1/3 108/1/3
f 111/1/3 108/1/3 110/1/3
f 112/1/3 105/1/3 111/1/3
f 113/1/3 110/1/3 109/1/3
f 113/1/3 111/1/3 110/1/3
f 114/1/3 111/1/3 113/1/3
f 115/1/4 116/1/4 117/1/4
f 115/1/4 117/1/4 119/1/4
f 117/1/4 118/1/4 119/1/4
f 119/1/4 118/1/4 120/1/4
f 120/1/4 118/1/4 121/1/4
f 121/1/4 122/1/4 123/1/4
f 120/1/4 121/1/4 125/1/4
f 123/1/4 124/1/4 125/1/4
f 121/1/4 123/1/4 125/1/4
f 125/1/4 124/1/4 126/1/4
f 120/1/4 125/1/4 127/1/4
f 126/1/4 124/1/4 128/1/4
f 128/1/4 124/1/4 129/1/4
f 127/1/4 128/1/4 129/1/4
f 129/1/4 124/1/4 130/1/4
f 120/1/4 127/1/4 131/1/4
f 127/1/4 129/1/4 131/1/4
f 131/1/4 129/1/4 132/1/4
f 120/1/4 131/1/4 134/1/4
f 134/1/4 131/1/4 135/1/4
f 133/1/4 134/1/4 135/1/4
f 135/1/4 131/1/4 136/1/4
f 133/1/4 135/1/4 137/1/4
f 137/1/4 135/1/4 138/1/4
f 144/2/5 140/2/5 139/2/5
f 145/2/5 140/2/5 144/2/5
f 146/2/5 142/2/5 141/2/5
f 147/2/5 142/2/5 146/2/5
f 149/1/5 145/1/5 144/1/5
f 149/1/5 144/1/5 143/1/5
f 150/1/5 145/1/5 149/1/5
f 151/1/5 148/1/5 147/1/5
f 151/1/5 147/1/5 146/1/5
f 152/1/5 148/1/5 151/1/5
f 155/2/5 154/2/5 153/2/5
f 156/2/5 154/2/5 155/2/5
f 157/2/5 154/2/5 156/2/5
f 158/2/5 154/2/5 157/2/5
f 159/1/5 156/1/5 155/1/5
f 159/2/5 157/2/5 156/2/5
f 160/1/5 158/1/5 157/1/5
f 160/2/5 157/2/5 159/2/5
f 161/1/5 159/1/5 155/1/5
f 161/1/5 160/1/5 159/1/5
f 162/1/5 158/1/5 160/1/5
f 162/1/5 160/1/5 161/1/5
f 165/1/5 164/1/5 163/1/5
f 166/1/5 164/1/5 165/1/5
f 167/1/5 166/1/5 165/1/5
f 168/1/5 166/1/5 167/1/5
f 169/1/5 168/1/5 167/1/5
f 170/1/5 168/1/5 169/1/5
f 171/2/6 172/2/6 175/2/6
f 175/2/6 172/2/6 176/2/6
f 173/2/6 174/2/6 177/2/6
f 177/2/6 174/2/6 178/2/6
f 179/2/6 180/2/6 183/2/6
f 183/2/6 180/2/6 184/2/6
f 181/1/6 182/1/6 187/1/6
f 187/1/6 182/1/6 188/1/6
f 185/1/6 186/1/6 189/1/6
f 189/1/6 186/1/6 190/1/6
f 193/1/6 194/1/6 197/1/6
f 197/1/6 194/1/6 198/1/6
f 197/1/6 198/1/6 199/1/6
f 199/1/6 198/1/6 200/1/6
f 191/1/6 192/1/6 201/1/6
f 201/1/6 192/1/6 202/1/6
f 199/1/6 200/1/6 203/1/6
f 203/1/6 200/1/6 204/1/6
f 195/1/6 196/1/6 205/1/6
f 205/1/6 196/1/6 206/1/6
f 207/1/6 208/1/6 211/1/6
f 211/1/6 208/1/6 212/1/6
f 209/1/6 210/1/6 213/1/6
f 213/1/6 210/1/6 214/1/6
f 215/1/6 216/1/6 217/1/6
f 217/1/6 216/1/6 218/1/6
