# MagicaVoxel @ Ephtracy

# group
o 

# material
mtllib porta.mtl
usemtl palette

# normals
vn -1 0 0
vn 1 0 0
vn 0 0 1
vn 0 0 -1
vn 0 -1 0
vn 0 1 0

# texcoords
vt 0.291016 0.5
vt 0.298828 0.5
vt 0.302734 0.5
vt 0.306641 0.5

# verts
v -0.7 0 -0.5
v -0.7 0 -0.9
v -0.7 2.9 -0.5
v -0.7 2.9 -0.9
v -0.2 0.2 -0.5
v -0.2 0.2 -0.6
v -0.2 0.3 -0.5
v -0.2 0.3 -0.6
v -0.2 1.2 -0.5
v -0.2 1.2 -0.6
v -0.2 1.3 -0.5
v -0.2 1.3 -0.6
v -0.2 1.4 -0.5
v -0.2 1.4 -0.6
v -0.2 1.5 -0.5
v -0.2 1.5 -0.6
v -0.2 2.6 -0.5
v -0.2 2.6 -0.6
v -0.2 2.7 -0.5
v -0.2 2.7 -0.6
v -0.1 0.3 -0.5
v -0.1 0.3 -0.6
v -0.1 1.2 -0.5
v -0.1 1.2 -0.6
v -0.1 1.5 -0.5
v -0.1 1.5 -0.6
v -0.1 2.6 -0.5
v -0.1 2.6 -0.6
v 0.4 1.3 -0.4
v 0.4 1.3 -0.5
v 0.4 1.4 -0.4
v 0.4 1.4 -0.5
v 0.5 0.2 -0.5
v 0.5 0.2 -0.6
v 0.5 0.3 -0.5
v 0.5 0.3 -0.6
v 0.5 1.2 -0.5
v 0.5 1.2 -0.6
v 0.5 1.3 -0.5
v 0.5 1.3 -0.6
v 0.5 1.4 -0.5
v 0.5 1.4 -0.6
v 0.5 1.5 -0.5
v 0.5 1.5 -0.6
v 0.5 2.6 -0.5
v 0.5 2.6 -0.6
v 0.5 2.7 -0.5
v 0.5 2.7 -0.6
v 0.6 0.3 -0.5
v 0.6 0.3 -0.6
v 0.6 1.2 -0.5
v 0.6 1.2 -0.6
v 0.6 1.5 -0.5
v 0.6 1.5 -0.6
v 0.6 2.6 -0.5
v 0.6 2.6 -0.6
v -0.6 0.3 -0.5
v -0.6 0.3 -0.6
v -0.6 1.2 -0.5
v -0.6 1.2 -0.6
v -0.6 1.5 -0.5
v -0.6 1.5 -0.6
v -0.6 2.6 -0.5
v -0.6 2.6 -0.6
v -0.5 0.2 -0.5
v -0.5 0.2 -0.6
v -0.5 0.3 -0.5
v -0.5 0.3 -0.6
v -0.5 1.2 -0.5
v -0.5 1.2 -0.6
v -0.5 1.3 -0.5
v -0.5 1.3 -0.6
v -0.5 1.4 -0.5
v -0.5 1.4 -0.6
v -0.5 1.5 -0.5
v -0.5 1.5 -0.6
v -0.5 2.6 -0.5
v -0.5 2.6 -0.6
v -0.5 2.7 -0.5
v -0.5 2.7 -0.6
v 0.1 0.3 -0.5
v 0.1 0.3 -0.6
v 0.1 1.2 -0.5
v 0.1 1.2 -0.6
v 0.1 1.5 -0.5
v 0.1 1.5 -0.6
v 0.1 2.6 -0.5
v 0.1 2.6 -0.6
v 0.2 0.2 -0.5
v 0.2 0.2 -0.6
v 0.2 0.3 -0.5
v 0.2 0.3 -0.6
v 0.2 1.2 -0.5
v 0.2 1.2 -0.6
v 0.2 1.3 -0.5
v 0.2 1.3 -0.6
v 0.2 1.4 -0.5
v 0.2 1.4 -0.6
v 0.2 1.5 -0.5
v 0.2 1.5 -0.6
v 0.2 2.6 -0.5
v 0.2 2.6 -0.6
v 0.2 2.7 -0.5
v 0.2 2.7 -0.6
v 0.7 0 -0.5
v 0.7 0 -0.9
v 0.7 1.3 -0.4
v 0.7 1.3 -0.5
v 0.7 1.4 -0.4
v 0.7 1.4 -0.5
v 0.7 2.9 -0.5
v 0.7 2.9 -0.9
v 0.4 1.3 -0.4
v 0.4 1.4 -0.4
v 0.7 1.3 -0.4
v 0.7 1.4 -0.4
v -0.7 0 -0.5
v -0.7 2.9 -0.5
v -0.6 0.3 -0.5
v -0.6 1.2 -0.5
v -0.6 1.5 -0.5
v -0.6 2.6 -0.5
v -0.5 0.2 -0.5
v -0.5 0.3 -0.5
v -0.5 1.2 -0.5
v -0.5 1.3 -0.5
v -0.5 1.4 -0.5
v -0.5 1.5 -0.5
v -0.5 2.6 -0.5
v -0.5 2.7 -0.5
v -0.2 0.2 -0.5
v -0.2 0.3 -0.5
v -0.2 1.2 -0.5
v -0.2 1.3 -0.5
v -0.2 1.4 -0.5
v -0.2 1.5 -0.5
v -0.2 2.6 -0.5
v -0.2 2.7 -0.5
v -0.1 0.3 -0.5
v -0.1 1.2 -0.5
v -0.1 1.5 -0.5
v -0.1 2.6 -0.5
v 0.1 0.3 -0.5
v 0.1 1.2 -0.5
v 0.1 1.5 -0.5
v 0.1 2.6 -0.5
v 0.2 0.2 -0.5
v 0.2 0.3 -0.5
v 0.2 1.2 -0.5
v 0.2 1.3 -0.5
v 0.2 1.4 -0.5
v 0.2 1.5 -0.5
v 0.2 2.6 -0.5
v 0.2 2.7 -0.5
v 0.4 1.3 -0.5
v 0.4 1.4 -0.5
v 0.5 0.2 -0.5
v 0.5 0.3 -0.5
v 0.5 1.2 -0.5
v 0.5 1.3 -0.5
v 0.5 1.4 -0.5
v 0.5 1.5 -0.5
v 0.5 2.6 -0.5
v 0.5 2.7 -0.5
v 0.6 0.3 -0.5
v 0.6 1.2 -0.5
v 0.6 1.5 -0.5
v 0.6 2.6 -0.5
v 0.7 0 -0.5
v 0.7 1.3 -0.5
v 0.7 1.4 -0.5
v 0.7 2.9 -0.5
v -0.6 0.3 -0.6
v -0.6 1.2 -0.6
v -0.6 1.5 -0.6
v -0.6 2.6 -0.6
v -0.5 0.2 -0.6
v -0.5 0.3 -0.6
v -0.5 1.2 -0.6
v -0.5 1.3 -0.6
v -0.5 1.4 -0.6
v -0.5 1.5 -0.6
v -0.5 2.6 -0.6
v -0.5 2.7 -0.6
v -0.2 0.2 -0.6
v -0.2 0.3 -0.6
v -0.2 1.2 -0.6
v -0.2 1.3 -0.6
v -0.2 1.4 -0.6
v -0.2 1.5 -0.6
v -0.2 2.6 -0.6
v -0.2 2.7 -0.6
v -0.1 0.3 -0.6
v -0.1 1.2 -0.6
v -0.1 1.5 -0.6
v -0.1 2.6 -0.6
v 0.1 0.3 -0.6
v 0.1 1.2 -0.6
v 0.1 1.5 -0.6
v 0.1 2.6 -0.6
v 0.2 0.2 -0.6
v 0.2 0.3 -0.6
v 0.2 1.2 -0.6
v 0.2 1.3 -0.6
v 0.2 1.4 -0.6
v 0.2 1.5 -0.6
v 0.2 2.6 -0.6
v 0.2 2.7 -0.6
v 0.5 0.2 -0.6
v 0.5 0.3 -0.6
v 0.5 1.2 -0.6
v 0.5 1.3 -0.6
v 0.5 1.4 -0.6
v 0.5 1.5 -0.6
v 0.5 2.6 -0.6
v 0.5 2.7 -0.6
v 0.6 0.3 -0.6
v 0.6 1.2 -0.6
v 0.6 1.5 -0.6
v 0.6 2.6 -0.6
v -0.7 0 -0.9
v -0.7 2.9 -0.9
v 0.7 0 -0.9
v 0.7 2.9 -0.9
v -0.7 0 -0.5
v 0.7 0 -0.5
v -0.7 0 -0.9
v 0.7 0 -0.9
v -0.6 1.2 -0.5
v -0.5 1.2 -0.5
v -0.2 1.2 -0.5
v -0.1 1.2 -0.5
v 0.1 1.2 -0.5
v 0.2 1.2 -0.5
v 0.5 1.2 -0.5
v 0.6 1.2 -0.5
v -0.6 1.2 -0.6
v -0.5 1.2 -0.6
v -0.2 1.2 -0.6
v -0.1 1.2 -0.6
v 0.1 1.2 -0.6
v 0.2 1.2 -0.6
v 0.5 1.2 -0.6
v 0.6 1.2 -0.6
v 0.4 1.3 -0.4
v 0.7 1.3 -0.4
v -0.5 1.3 -0.5
v -0.2 1.3 -0.5
v 0.2 1.3 -0.5
v 0.4 1.3 -0.5
v 0.5 1.3 -0.5
v 0.7 1.3 -0.5
v -0.5 1.3 -0.6
v -0.2 1.3 -0.6
v 0.2 1.3 -0.6
v 0.5 1.3 -0.6
v -0.6 2.6 -0.5
v -0.5 2.6 -0.5
v -0.2 2.6 -0.5
v -0.1 2.6 -0.5
v 0.1 2.6 -0.5
v 0.2 2.6 -0.5
v 0.5 2.6 -0.5
v 0.6 2.6 -0.5
v -0.6 2.6 -0.6
v -0.5 2.6 -0.6
v -0.2 2.6 -0.6
v -0.1 2.6 -0.6
v 0.1 2.6 -0.6
v 0.2 2.6 -0.6
v 0.5 2.6 -0.6
v 0.6 2.6 -0.6
v -0.5 2.7 -0.5
v -0.2 2.7 -0.5
v 0.2 2.7 -0.5
v 0.5 2.7 -0.5
v -0.5 2.7 -0.6
v -0.2 2.7 -0.6
v 0.2 2.7 -0.6
v 0.5 2.7 -0.6
v -0.5 0.2 -0.5
v -0.2 0.2 -0.5
v 0.2 0.2 -0.5
v 0.5 0.2 -0.5
v -0.5 0.2 -0.6
v -0.2 0.2 -0.6
v 0.2 0.2 -0.6
v 0.5 0.2 -0.6
v -0.6 0.3 -0.5
v -0.5 0.3 -0.5
v -0.2 0.3 -0.5
v -0.1 0.3 -0.5
v 0.1 0.3 -0.5
v 0.2 0.3 -0.5
v 0.5 0.3 -0.5
v 0.6 0.3 -0.5
v -0.6 0.3 -0.6
v -0.5 0.3 -0.6
v -0.2 0.3 -0.6
v -0.1 0.3 -0.6
v 0.1 0.3 -0.6
v 0.2 0.3 -0.6
v 0.5 0.3 -0.6
v 0.6 0.3 -0.6
v 0.4 1.4 -0.4
v 0.7 1.4 -0.4
v -0.5 1.4 -0.5
v -0.2 1.4 -0.5
v 0.2 1.4 -0.5
v 0.4 1.4 -0.5
v 0.5 1.4 -0.5
v 0.7 1.4 -0.5
v -0.5 1.4 -0.6
v -0.2 1.4 -0.6
v 0.2 1.4 -0.6
v 0.5 1.4 -0.6
v -0.6 1.5 -0.5
v -0.5 1.5 -0.5
v -0.2 1.5 -0.5
v -0.1 1.5 -0.5
v 0.1 1.5 -0.5
v 0.2 1.5 -0.5
v 0.5 1.5 -0.5
v 0.6 1.5 -0.5
v -0.6 1.5 -0.6
v -0.5 1.5 -0.6
v -0.2 1.5 -0.6
v -0.1 1.5 -0.6
v 0.1 1.5 -0.6
v 0.2 1.5 -0.6
v 0.5 1.5 -0.6
v 0.6 1.5 -0.6
v -0.7 2.9 -0.5
v 0.7 2.9 -0.5
v -0.7 2.9 -0.9
v 0.7 2.9 -0.9

# faces
f 3/3/1 2/3/1 1/3/1
f 4/3/1 2/3/1 3/3/1
f 7/3/1 6/3/1 5/3/1
f 8/3/1 6/3/1 7/3/1
f 11/3/1 10/3/1 9/3/1
f 12/3/1 10/3/1 11/3/1
f 15/3/1 14/3/1 13/3/1
f 16/3/1 14/3/1 15/3/1
f 19/3/1 18/3/1 17/3/1
f 20/3/1 18/3/1 19/3/1
f 23/3/1 22/3/1 21/3/1
f 24/3/1 22/3/1 23/3/1
f 27/3/1 26/3/1 25/3/1
f 28/3/1 26/3/1 27/3/1
f 31/4/1 30/4/1 29/4/1
f 32/4/1 30/4/1 31/4/1
f 35/3/1 34/3/1 33/3/1
f 36/3/1 34/3/1 35/3/1
f 39/3/1 38/3/1 37/3/1
f 40/3/1 38/3/1 39/3/1
f 43/3/1 42/3/1 41/3/1
f 44/3/1 42/3/1 43/3/1
f 47/3/1 46/3/1 45/3/1
f 48/3/1 46/3/1 47/3/1
f 51/3/1 50/3/1 49/3/1
f 52/3/1 50/3/1 51/3/1
f 55/3/1 54/3/1 53/3/1
f 56/3/1 54/3/1 55/3/1
f 57/3/2 58/3/2 59/3/2
f 59/3/2 58/3/2 60/3/2
f 61/3/2 62/3/2 63/3/2
f 63/3/2 62/3/2 64/3/2
f 65/3/2 66/3/2 67/3/2
f 67/3/2 66/3/2 68/3/2
f 69/3/2 70/3/2 71/3/2
f 71/3/2 70/3/2 72/3/2
f 73/3/2 74/3/2 75/3/2
f 75/3/2 74/3/2 76/3/2
f 77/3/2 78/3/2 79/3/2
f 79/3/2 78/3/2 80/3/2
f 81/3/2 82/3/2 83/3/2
f 83/3/2 82/3/2 84/3/2
f 85/3/2 86/3/2 87/3/2
f 87/3/2 86/3/2 88/3/2
f 89/3/2 90/3/2 91/3/2
f 91/3/2 90/3/2 92/3/2
f 93/3/2 94/3/2 95/3/2
f 95/3/2 94/3/2 96/3/2
f 97/3/2 98/3/2 99/3/2
f 99/3/2 98/3/2 100/3/2
f 101/3/2 102/3/2 103/3/2
f 103/3/2 102/3/2 104/3/2
f 105/3/2 106/3/2 108/3/2
f 107/4/2 108/4/2 109/4/2
f 108/3/2 106/3/2 110/3/2
f 109/4/2 108/4/2 110/4/2
f 110/3/2 106/3/2 111/3/2
f 111/3/2 106/3/2 112/3/2
f 115/4/3 114/4/3 113/4/3
f 116/4/3 114/4/3 115/4/3
f 119/3/3 118/3/3 117/3/3
f 120/3/3 118/3/3 119/3/3
f 121/3/3 118/3/3 120/3/3
f 122/3/3 118/3/3 121/3/3
f 123/3/3 119/3/3 117/3/3
f 124/3/3 119/3/3 123/3/3
f 125/3/3 121/3/3 120/3/3
f 126/3/3 121/3/3 125/3/3
f 127/3/3 121/3/3 126/3/3
f 128/3/3 121/3/3 127/3/3
f 129/3/3 118/3/3 122/3/3
f 130/3/3 118/3/3 129/3/3
f 131/3/3 123/3/3 117/3/3
f 134/3/3 127/3/3 126/3/3
f 135/3/3 127/3/3 134/3/3
f 138/3/3 118/3/3 130/3/3
f 139/3/3 132/3/3 131/3/3
f 140/3/3 136/3/3 135/3/3
f 140/3/3 134/3/3 133/3/3
f 140/3/3 135/3/3 134/3/3
f 141/3/3 136/3/3 140/3/3
f 142/3/3 138/3/3 137/3/3
f 143/3/3 139/3/3 131/3/3
f 143/3/3 142/3/3 141/3/3
f 143/3/3 141/3/3 140/3/3
f 143/3/3 140/3/3 139/3/3
f 144/3/3 142/3/3 143/3/3
f 145/3/3 142/3/3 144/3/3
f 146/3/3 138/3/3 142/3/3
f 146/3/3 142/3/3 145/3/3
f 147/3/3 131/3/3 117/3/3
f 147/3/3 143/3/3 131/3/3
f 148/3/3 143/3/3 147/3/3
f 149/3/3 145/3/3 144/3/3
f 150/3/3 145/3/3 149/3/3
f 151/3/3 145/3/3 150/3/3
f 152/3/3 145/3/3 151/3/3
f 153/3/3 138/3/3 146/3/3
f 154/3/3 118/3/3 138/3/3
f 154/3/3 138/3/3 153/3/3
f 155/3/3 151/3/3 150/3/3
f 156/3/3 151/3/3 155/3/3
f 157/3/3 147/3/3 117/3/3
f 164/3/3 118/3/3 154/3/3
f 165/3/3 158/3/3 157/3/3
f 166/3/3 160/3/3 159/3/3
f 167/3/3 162/3/3 161/3/3
f 168/3/3 164/3/3 163/3/3
f 169/3/3 166/3/3 165/3/3
f 169/3/3 165/3/3 157/3/3
f 169/3/3 157/3/3 117/3/3
f 170/3/3 160/3/3 166/3/3
f 170/3/3 166/3/3 169/3/3
f 171/3/3 168/3/3 167/3/3
f 171/3/3 167/3/3 161/3/3
f 172/3/3 164/3/3 168/3/3
f 172/3/3 168/3/3 171/3/3
f 172/3/3 118/3/3 164/3/3
f 178/2/3 174/2/3 173/2/3
f 179/2/3 174/2/3 178/2/3
f 182/2/3 176/2/3 175/2/3
f 183/2/3 176/2/3 182/2/3
f 185/2/3 180/2/3 179/2/3
f 185/2/3 178/2/3 177/2/3
f 185/2/3 179/2/3 178/2/3
f 186/2/3 180/2/3 185/2/3
f 187/2/3 180/2/3 186/2/3
f 188/2/3 180/2/3 187/2/3
f 189/2/3 184/2/3 183/2/3
f 189/2/3 183/2/3 182/2/3
f 189/2/3 182/2/3 181/2/3
f 190/2/3 184/2/3 189/2/3
f 191/2/3 184/2/3 190/2/3
f 192/2/3 184/2/3 191/2/3
f 193/2/3 187/2/3 186/2/3
f 194/2/3 187/2/3 193/2/3
f 195/2/3 191/2/3 190/2/3
f 196/2/3 191/2/3 195/2/3
f 202/2/3 198/2/3 197/2/3
f 203/2/3 198/2/3 202/2/3
f 206/2/3 200/2/3 199/2/3
f 207/2/3 200/2/3 206/2/3
f 209/2/3 204/2/3 203/2/3
f 209/2/3 202/2/3 201/2/3
f 209/2/3 203/2/3 202/2/3
f 210/2/3 204/2/3 209/2/3
f 211/2/3 204/2/3 210/2/3
f 212/2/3 204/2/3 211/2/3
f 213/2/3 207/2/3 206/2/3
f 213/2/3 208/2/3 207/2/3
f 213/2/3 206/2/3 205/2/3
f 214/2/3 208/2/3 213/2/3
f 215/2/3 208/2/3 214/2/3
f 216/2/3 208/2/3 215/2/3
f 217/2/3 211/2/3 210/2/3
f 218/2/3 211/2/3 217/2/3
f 219/2/3 215/2/3 214/2/3
f 220/2/3 215/2/3 219/2/3
f 221/3/4 222/3/4 223/3/4
f 223/3/4 222/3/4 224/3/4
f 227/3/5 226/3/5 225/3/5
f 228/3/5 226/3/5 227/3/5
f 237/3/5 230/3/5 229/3/5
f 238/3/5 230/3/5 237/3/5
f 239/3/5 232/3/5 231/3/5
f 240/3/5 232/3/5 239/3/5
f 241/3/5 234/3/5 233/3/5
f 242/3/5 234/3/5 241/3/5
f 243/3/5 236/3/5 235/3/5
f 244/3/5 236/3/5 243/3/5
f 250/4/5 246/4/5 245/4/5
f 251/4/5 246/4/5 250/4/5
f 252/4/5 246/4/5 251/4/5
f 253/3/5 248/3/5 247/3/5
f 254/3/5 248/3/5 253/3/5
f 255/3/5 250/3/5 249/3/5
f 255/3/5 251/3/5 250/3/5
f 256/3/5 251/3/5 255/3/5
f 265/3/5 258/3/5 257/3/5
f 266/3/5 258/3/5 265/3/5
f 267/3/5 260/3/5 259/3/5
f 268/3/5 260/3/5 267/3/5
f 269/3/5 262/3/5 261/3/5
f 270/3/5 262/3/5 269/3/5
f 271/3/5 264/3/5 263/3/5
f 272/3/5 264/3/5 271/3/5
f 277/3/5 274/3/5 273/3/5
f 278/3/5 274/3/5 277/3/5
f 279/3/5 276/3/5 275/3/5
f 280/3/5 276/3/5 279/3/5
f 281/3/6 282/3/6 285/3/6
f 285/3/6 282/3/6 286/3/6
f 283/3/6 284/3/6 287/3/6
f 287/3/6 284/3/6 288/3/6
f 289/3/6 290/3/6 297/3/6
f 297/3/6 290/3/6 298/3/6
f 291/3/6 292/3/6 299/3/6
f 299/3/6 292/3/6 300/3/6
f 293/3/6 294/3/6 301/3/6
f 301/3/6 294/3/6 302/3/6
f 295/3/6 296/3/6 303/3/6
f 303/3/6 296/3/6 304/3/6
f 305/4/6 306/4/6 310/4/6
f 310/4/6 306/4/6 311/4/6
f 311/4/6 306/4/6 312/4/6
f 307/3/6 308/3/6 313/3/6
f 313/3/6 308/3/6 314/3/6
f 309/3/6 310/3/6 315/3/6
f 310/3/6 311/3/6 315/3/6
f 315/3/6 311/3/6 316/3/6
f 317/3/6 318/3/6 325/3/6
f 325/3/6 318/3/6 326/3/6
f 319/3/6 320/3/6 327/3/6
f 327/3/6 320/3/6 328/3/6
f 321/3/6 322/3/6 329/3/6
f 329/3/6 322/3/6 330/3/6
f 323/3/6 324/3/6 331/3/6
f 331/3/6 324/3/6 332/3/6
f 333/3/6 334/3/6 335/3/6
f 335/3/6 334/3/6 336/3/6
