# MagicaVoxel @ Ephtracy

# group
o 

# material
mtllib cama.mtl
usemtl palette

# normals
vn -1 0 0
vn 1 0 0
vn 0 0 1
vn 0 0 -1
vn 0 -1 0
vn 0 1 0

# texcoords
vt 0.0644531 0.5
vt 0.291016 0.5
vt 0.298828 0.5
vt 0.306641 0.5
vt 0.310547 0.5
vt 0.474609 0.5

# verts
v -0.8 0.4 1.7
v -0.8 0.4 -0.5
v -0.8 0.7 1.7
v -0.8 0.7 -0.5
v -0.8 0.8 1.7
v -0.8 0.8 -0.5
v -0.7 0 1.6
v -0.7 0 1.3
v -0.7 0 -0.0999999
v -0.7 0 -0.4
v -0.7 0.4 1.6
v -0.7 0.4 1.3
v -0.7 0.4 -0.0999999
v -0.7 0.4 -0.4
v -0.7 0.5 1.8
v -0.7 0.5 1.7
v -0.7 0.5 -0.5
v -0.7 0.5 -0.6
v -0.7 0.7 1.8
v -0.7 0.7 1.7
v -0.7 0.7 -0.5
v -0.7 0.7 -0.6
v -0.7 0.7 -0.8
v -0.7 0.7 -1.8
v -0.7 0.8 1.6
v -0.7 0.8 0.4
v -0.7 0.8 0.2
v -0.7 0.8 -0.4
v -0.7 0.8 -0.8
v -0.7 0.8 -1.8
v -0.7 0.9 1.6
v -0.7 0.9 0.4
v -0.7 0.9 0.2
v -0.7 0.9 -0.4
v -0.6 0 -1.4
v -0.6 0 -1.7
v -0.6 0.7 -1.4
v -0.6 0.7 -1.7
v -0.3 0.7 -0.5
v -0.3 0.7 -0.6
v -0.3 0.7 -0.8
v -0.3 0.8 -0.5
v -0.3 0.8 -0.8
v 0.4 0 -1.4
v 0.4 0 -1.7
v 0.4 0.7 -1.4
v 0.4 0.7 -1.7
v 0.5 0 1.6
v 0.5 0 1.3
v 0.5 0 -0.0999999
v 0.5 0 -0.4
v 0.5 0.4 1.6
v 0.5 0.4 1.3
v 0.5 0.4 -0.0999999
v 0.5 0.4 -0.4
v -0.4 0 1.6
v -0.4 0 1.3
v -0.4 0 -0.0999999
v -0.4 0 -0.4
v -0.4 0.4 1.6
v -0.4 0.4 1.3
v -0.4 0.4 -0.0999999
v -0.4 0.4 -0.4
v -0.3 0 -1.4
v -0.3 0 -1.7
v -0.3 0.7 -1.4
v -0.3 0.7 -1.7
v 0.4 0.7 -0.5
v 0.4 0.7 -0.6
v 0.4 0.7 -0.8
v 0.4 0.8 -0.5
v 0.4 0.8 -0.8
v 0.7 0 -1.4
v 0.7 0 -1.7
v 0.7 0.7 -1.4
v 0.7 0.7 -1.7
v 0.8 0 1.6
v 0.8 0 1.3
v 0.8 0 -0.0999999
v 0.8 0 -0.4
v 0.8 0.4 1.6
v 0.8 0.4 1.3
v 0.8 0.4 -0.0999999
v 0.8 0.4 -0.4
v 0.8 0.5 1.8
v 0.8 0.5 1.7
v 0.8 0.5 -0.5
v 0.8 0.5 -0.6
v 0.8 0.7 1.8
v 0.8 0.7 1.7
v 0.8 0.7 -0.5
v 0.8 0.7 -0.6
v 0.8 0.7 -0.8
v 0.8 0.7 -1.8
v 0.8 0.8 1.6
v 0.8 0.8 0.4
v 0.8 0.8 0.2
v 0.8 0.8 -0.4
v 0.8 0.8 -0.8
v 0.8 0.8 -1.8
v 0.8 0.9 1.6
v 0.8 0.9 0.4
v 0.8 0.9 0.2
v 0.8 0.9 -0.4
v 0.9 0.4 1.7
v 0.9 0.4 -0.5
v 0.9 0.7 1.7
v 0.9 0.7 -0.5
v 0.9 0.8 1.7
v 0.9 0.8 -0.5
v -0.7 0.5 1.8
v -0.7 0.7 1.8
v 0.8 0.5 1.8
v 0.8 0.7 1.8
v -0.8 0.4 1.7
v -0.8 0.7 1.7
v -0.8 0.8 1.7
v -0.7 0.5 1.7
v -0.7 0.7 1.7
v 0.8 0.5 1.7
v 0.8 0.7 1.7
v 0.9 0.4 1.7
v 0.9 0.7 1.7
v 0.9 0.8 1.7
v -0.7 0 1.6
v -0.7 0.4 1.6
v -0.7 0.8 1.6
v -0.7 0.9 1.6
v -0.4 0 1.6
v -0.4 0.4 1.6
v 0.5 0 1.6
v 0.5 0.4 1.6
v 0.8 0 1.6
v 0.8 0.4 1.6
v 0.8 0.8 1.6
v 0.8 0.9 1.6
v -0.7 0 -0.0999999
v -0.7 0.4 -0.0999999
v -0.4 0 -0.0999999
v -0.4 0.4 -0.0999999
v 0.5 0 -0.0999999
v 0.5 0.4 -0.0999999
v 0.8 0 -0.0999999
v 0.8 0.4 -0.0999999
v -0.7 0.7 -0.8
v -0.7 0.8 -0.8
v -0.3 0.7 -0.8
v -0.3 0.8 -0.8
v 0.4 0.7 -0.8
v 0.4 0.8 -0.8
v 0.8 0.7 -0.8
v 0.8 0.8 -0.8
v -0.6 0 -1.4
v -0.6 0.7 -1.4
v -0.3 0 -1.4
v -0.3 0.7 -1.4
v 0.4 0 -1.4
v 0.4 0.7 -1.4
v 0.7 0 -1.4
v 0.7 0.7 -1.4
v -0.7 0 1.3
v -0.7 0.4 1.3
v -0.4 0 1.3
v -0.4 0.4 1.3
v 0.5 0 1.3
v 0.5 0.4 1.3
v 0.8 0 1.3
v 0.8 0.4 1.3
v -0.7 0 -0.4
v -0.7 0.4 -0.4
v -0.7 0.8 -0.4
v -0.7 0.9 -0.4
v -0.4 0 -0.4
v -0.4 0.4 -0.4
v 0.5 0 -0.4
v 0.5 0.4 -0.4
v 0.8 0 -0.4
v 0.8 0.4 -0.4
v 0.8 0.8 -0.4
v 0.8 0.9 -0.4
v -0.8 0.4 -0.5
v -0.8 0.7 -0.5
v -0.8 0.8 -0.5
v -0.7 0.5 -0.5
v -0.7 0.7 -0.5
v -0.3 0.7 -0.5
v -0.3 0.8 -0.5
v 0.4 0.7 -0.5
v 0.4 0.8 -0.5
v 0.8 0.5 -0.5
v 0.8 0.7 -0.5
v 0.9 0.4 -0.5
v 0.9 0.7 -0.5
v 0.9 0.8 -0.5
v -0.7 0.5 -0.6
v -0.7 0.7 -0.6
v -0.3 0.7 -0.6
v 0.4 0.7 -0.6
v 0.8 0.5 -0.6
v 0.8 0.7 -0.6
v -0.6 0 -1.7
v -0.6 0.7 -1.7
v -0.3 0 -1.7
v -0.3 0.7 -1.7
v 0.4 0 -1.7
v 0.4 0.7 -1.7
v 0.7 0 -1.7
v 0.7 0.7 -1.7
v -0.7 0.7 -1.8
v -0.7 0.8 -1.8
v 0.8 0.7 -1.8
v 0.8 0.8 -1.8
v -0.7 0 1.6
v -0.4 0 1.6
v 0.5 0 1.6
v 0.8 0 1.6
v -0.7 0 1.3
v -0.4 0 1.3
v 0.5 0 1.3
v 0.8 0 1.3
v -0.7 0 -0.0999999
v -0.4 0 -0.0999999
v 0.5 0 -0.0999999
v 0.8 0 -0.0999999
v -0.7 0 -0.4
v -0.4 0 -0.4
v 0.5 0 -0.4
v 0.8 0 -0.4
v -0.6 0 -1.4
v -0.3 0 -1.4
v 0.4 0 -1.4
v 0.7 0 -1.4
v -0.6 0 -1.7
v -0.3 0 -1.7
v 0.4 0 -1.7
v 0.7 0 -1.7
v -0.8 0.4 1.7
v 0.9 0.4 1.7
v -0.7 0.4 1.6
v -0.4 0.4 1.6
v 0.5 0.4 1.6
v 0.8 0.4 1.6
v -0.7 0.4 1.3
v -0.4 0.4 1.3
v 0.5 0.4 1.3
v 0.8 0.4 1.3
v -0.7 0.4 -0.0999999
v -0.4 0.4 -0.0999999
v 0.5 0.4 -0.0999999
v 0.8 0.4 -0.0999999
v -0.7 0.4 -0.4
v -0.4 0.4 -0.4
v 0.5 0.4 -0.4
v 0.8 0.4 -0.4
v -0.8 0.4 -0.5
v 0.9 0.4 -0.5
v -0.7 0.5 1.8
v 0.8 0.5 1.8
v -0.7 0.5 1.7
v 0.8 0.5 1.7
v -0.7 0.5 -0.5
v 0.8 0.5 -0.5
v -0.7 0.5 -0.6
v 0.8 0.5 -0.6
v -0.3 0.7 -0.6
v 0.4 0.7 -0.6
v -0.7 0.7 -0.8
v -0.3 0.7 -0.8
v 0.4 0.7 -0.8
v 0.8 0.7 -0.8
v -0.6 0.7 -1.4
v -0.3 0.7 -1.4
v 0.4 0.7 -1.4
v 0.7 0.7 -1.4
v -0.6 0.7 -1.7
v -0.3 0.7 -1.7
v 0.4 0.7 -1.7
v 0.7 0.7 -1.7
v -0.7 0.7 -1.8
v 0.8 0.7 -1.8
v -0.7 0.7 1.8
v 0.8 0.7 1.8
v -0.7 0.7 1.7
v 0.8 0.7 1.7
v -0.7 0.7 -0.5
v -0.3 0.7 -0.5
v 0.4 0.7 -0.5
v 0.8 0.7 -0.5
v -0.7 0.7 -0.6
v -0.3 0.7 -0.6
v 0.4 0.7 -0.6
v 0.8 0.7 -0.6
v -0.8 0.8 1.7
v 0.9 0.8 1.7
v -0.7 0.8 1.6
v 0.8 0.8 1.6
v -0.7 0.8 0.4
v 0.8 0.8 0.4
v -0.7 0.8 0.2
v 0.8 0.8 0.2
v -0.7 0.8 -0.4
v 0.8 0.8 -0.4
v -0.8 0.8 -0.5
v -0.3 0.8 -0.5
v 0.4 0.8 -0.5
v 0.9 0.8 -0.5
v -0.7 0.8 -0.8
v -0.3 0.8 -0.8
v 0.4 0.8 -0.8
v 0.8 0.8 -0.8
v -0.7 0.8 -1.8
v 0.8 0.8 -1.8
v -0.7 0.9 1.6
v 0.8 0.9 1.6
v -0.7 0.9 0.4
v 0.8 0.9 0.4
v -0.7 0.9 0.2
v 0.8 0.9 0.2
v -0.7 0.9 -0.4
v 0.8 0.9 -0.4

# faces
f 3/4/1 2/4/1 1/4/1
f 4/4/1 2/4/1 3/4/1
f 5/5/1 4/5/1 3/5/1
f 6/5/1 4/5/1 5/5/1
f 11/3/1 8/3/1 7/3/1
f 12/3/1 8/3/1 11/3/1
f 13/3/1 10/3/1 9/3/1
f 14/3/1 10/3/1 13/3/1
f 19/4/1 16/4/1 15/4/1
f 20/4/1 16/4/1 19/4/1
f 21/4/1 18/4/1 17/4/1
f 22/4/1 18/4/1 21/4/1
f 29/5/1 24/5/1 23/5/1
f 30/5/1 24/5/1 29/5/1
f 31/4/1 26/4/1 25/4/1
f 32/5/1 27/5/1 26/5/1
f 32/4/1 26/4/1 31/4/1
f 33/4/1 28/4/1 27/4/1
f 33/5/1 27/5/1 32/5/1
f 34/4/1 28/4/1 33/4/1
f 37/3/1 36/3/1 35/3/1
f 38/3/1 36/3/1 37/3/1
f 42/5/1 40/5/1 39/5/1
f 42/5/1 41/5/1 40/5/1
f 43/5/1 41/5/1 42/5/1
f 46/3/1 45/3/1 44/3/1
f 47/3/1 45/3/1 46/3/1
f 52/3/1 49/3/1 48/3/1
f 53/3/1 49/3/1 52/3/1
f 54/3/1 51/3/1 50/3/1
f 55/3/1 51/3/1 54/3/1
f 56/3/2 57/3/2 60/3/2
f 60/3/2 57/3/2 61/3/2
f 58/3/2 59/3/2 62/3/2
f 62/3/2 59/3/2 63/3/2
f 64/3/2 65/3/2 66/3/2
f 66/3/2 65/3/2 67/3/2
f 68/5/2 69/5/2 71/5/2
f 69/5/2 70/5/2 71/5/2
f 71/5/2 70/5/2 72/5/2
f 73/3/2 74/3/2 75/3/2
f 75/3/2 74/3/2 76/3/2
f 77/3/2 78/3/2 81/3/2
f 81/3/2 78/3/2 82/3/2
f 79/3/2 80/3/2 83/3/2
f 83/3/2 80/3/2 84/3/2
f 85/4/2 86/4/2 89/4/2
f 89/4/2 86/4/2 90/4/2
f 87/4/2 88/4/2 91/4/2
f 91/4/2 88/4/2 92/4/2
f 93/5/2 94/5/2 99/5/2
f 99/5/2 94/5/2 100/5/2
f 95/4/2 96/4/2 101/4/2
f 96/5/2 97/5/2 102/5/2
f 101/4/2 96/4/2 102/4/2
f 97/4/2 98/4/2 103/4/2
f 102/5/2 97/5/2 103/5/2
f 103/4/2 98/4/2 104/4/2
f 105/4/2 106/4/2 107/4/2
f 107/4/2 106/4/2 108/4/2
f 107/5/2 108/5/2 109/5/2
f 109/5/2 108/5/2 110/5/2
f 113/4/3 112/4/3 111/4/3
f 114/4/3 112/4/3 113/4/3
f 118/4/3 116/4/3 115/4/3
f 119/5/3 117/5/3 116/5/3
f 119/4/3 116/4/3 118/4/3
f 120/4/3 118/4/3 115/4/3
f 121/5/3 117/5/3 119/5/3
f 122/4/3 120/4/3 115/4/3
f 122/4/3 121/4/3 120/4/3
f 123/5/3 117/5/3 121/5/3
f 123/4/3 121/4/3 122/4/3
f 124/5/3 117/5/3 123/5/3
f 129/3/3 126/3/3 125/3/3
f 130/3/3 126/3/3 129/3/3
f 133/3/3 132/3/3 131/3/3
f 134/3/3 132/3/3 133/3/3
f 135/4/3 128/4/3 127/4/3
f 136/4/3 128/4/3 135/4/3
f 139/3/3 138/3/3 137/3/3
f 140/3/3 138/3/3 139/3/3
f 143/3/3 142/3/3 141/3/3
f 144/3/3 142/3/3 143/3/3
f 147/5/3 146/5/3 145/5/3
f 148/5/3 146/5/3 147/5/3
f 151/5/3 150/5/3 149/5/3
f 152/5/3 150/5/3 151/5/3
f 155/3/3 154/3/3 153/3/3
f 156/3/3 154/3/3 155/3/3
f 159/3/3 158/3/3 157/3/3
f 160/3/3 158/3/3 159/3/3
f 161/3/4 162/3/4 163/3/4
f 163/3/4 162/3/4 164/3/4
f 165/3/4 166/3/4 167/3/4
f 167/3/4 166/3/4 168/3/4
f 169/3/4 170/3/4 173/3/4
f 173/3/4 170/3/4 174/3/4
f 175/3/4 176/3/4 177/3/4
f 177/3/4 176/3/4 178/3/4
f 171/4/4 172/4/4 179/4/4
f 179/4/4 172/4/4 180/4/4
f 181/4/4 182/4/4 184/4/4
f 182/5/4 183/5/4 185/5/4
f 184/4/4 182/4/4 185/4/4
f 185/5/4 183/5/4 186/5/4
f 186/5/4 183/5/4 187/5/4
f 181/4/4 184/4/4 190/4/4
f 188/5/4 189/5/4 191/5/4
f 181/4/4 190/4/4 192/4/4
f 190/4/4 191/4/4 192/4/4
f 191/5/4 189/5/4 193/5/4
f 192/4/4 191/4/4 193/4/4
f 193/5/4 189/5/4 194/5/4
f 195/4/4 196/4/4 197/4/4
f 195/4/4 197/4/4 198/4/4
f 195/4/4 198/4/4 199/4/4
f 199/4/4 198/4/4 200/4/4
f 201/3/4 202/3/4 203/3/4
f 203/3/4 202/3/4 204/3/4
f 205/3/4 206/3/4 207/3/4
f 207/3/4 206/3/4 208/3/4
f 209/5/4 210/5/4 211/5/4
f 211/5/4 210/5/4 212/5/4
f 217/3/5 214/3/5 213/3/5
f 218/3/5 214/3/5 217/3/5
f 219/3/5 216/3/5 215/3/5
f 220/3/5 216/3/5 219/3/5
f 225/3/5 222/3/5 221/3/5
f 226/3/5 222/3/5 225/3/5
f 227/3/5 224/3/5 223/3/5
f 228/3/5 224/3/5 227/3/5
f 233/3/5 230/3/5 229/3/5
f 234/3/5 230/3/5 233/3/5
f 235/3/5 232/3/5 231/3/5
f 236/3/5 232/3/5 235/3/5
f 239/4/5 238/4/5 237/4/5
f 240/4/5 238/4/5 239/4/5
f 241/4/5 238/4/5 240/4/5
f 242/4/5 238/4/5 241/4/5
f 243/4/5 239/4/5 237/4/5
f 244/4/5 241/4/5 240/4/5
f 245/4/5 241/4/5 244/4/5
f 246/4/5 238/4/5 242/4/5
f 247/4/5 245/4/5 244/4/5
f 247/4/5 246/4/5 245/4/5
f 247/4/5 243/4/5 237/4/5
f 247/4/5 244/4/5 243/4/5
f 248/4/5 246/4/5 247/4/5
f 249/4/5 246/4/5 248/4/5
f 250/4/5 238/4/5 246/4/5
f 250/4/5 246/4/5 249/4/5
f 251/4/5 247/4/5 237/4/5
f 252/4/5 249/4/5 248/4/5
f 253/4/5 249/4/5 252/4/5
f 254/4/5 238/4/5 250/4/5
f 255/4/5 251/4/5 237/4/5
f 255/4/5 254/4/5 253/4/5
f 255/4/5 253/4/5 252/4/5
f 255/4/5 252/4/5 251/4/5
f 256/4/5 238/4/5 254/4/5
f 256/4/5 254/4/5 255/4/5
f 259/4/5 258/4/5 257/4/5
f 260/4/5 258/4/5 259/4/5
f 263/4/5 262/4/5 261/4/5
f 264/4/5 262/4/5 263/4/5
f 268/5/5 266/5/5 265/5/5
f 269/5/5 266/5/5 268/5/5
f 271/5/5 268/5/5 267/5/5
f 271/5/5 270/5/5 269/5/5
f 271/5/5 269/5/5 268/5/5
f 272/5/5 270/5/5 271/5/5
f 273/5/5 270/5/5 272/5/5
f 274/5/5 270/5/5 273/5/5
f 275/5/5 271/5/5 267/5/5
f 276/5/5 273/5/5 272/5/5
f 277/5/5 273/5/5 276/5/5
f 278/5/5 270/5/5 274/5/5
f 279/5/5 277/5/5 276/5/5
f 279/5/5 278/5/5 277/5/5
f 279/5/5 275/5/5 267/5/5
f 279/5/5 276/5/5 275/5/5
f 280/5/5 270/5/5 278/5/5
f 280/5/5 278/5/5 279/5/5
f 281/4/6 282/4/6 283/4/6
f 283/4/6 282/4/6 284/4/6
f 285/4/6 286/4/6 289/4/6
f 289/4/6 286/4/6 290/4/6
f 287/4/6 288/4/6 291/4/6
f 291/4/6 288/4/6 292/4/6
f 293/5/6 294/5/6 295/5/6
f 295/5/6 294/5/6 296/5/6
f 293/5/6 295/5/6 297/5/6
f 296/5/6 294/5/6 298/5/6
f 293/5/6 297/5/6 299/5/6
f 298/5/6 294/5/6 300/5/6
f 293/5/6 299/5/6 301/5/6
f 300/5/6 294/5/6 302/5/6
f 293/5/6 301/5/6 303/5/6
f 301/5/6 302/5/6 303/5/6
f 303/5/6 302/5/6 304/5/6
f 304/5/6 302/5/6 305/5/6
f 302/5/6 294/5/6 306/5/6
f 305/5/6 302/5/6 306/5/6
f 304/5/6 305/5/6 308/5/6
f 308/5/6 305/5/6 309/5/6
f 307/5/6 308/5/6 311/5/6
f 309/5/6 310/5/6 311/5/6
f 308/5/6 309/5/6 311/5/6
f 311/5/6 310/5/6 312/5/6
f 313/4/6 314/4/6 315/4/6
f 315/4/6 314/4/6 316/4/6
f 315/5/6 316/5/6 317/5/6
f 317/5/6 316/5/6 318/5/6
f 317/4/6 318/4/6 319/4/6
f 319/4/6 318/4/6 320/4/6
