# MagicaVoxel @ Ephtracy

# group
o 

# material
mtllib level_1.2.mtl
usemtl palette

# normals
vn -1 0 0
vn 1 0 0
vn 0 0 1
vn 0 0 -1
vn 0 -1 0
vn 0 1 0

# texcoords
vt 0.291016 0.5
vt 0.298828 0.5
vt 0.302734 0.5
vt 0.306641 0.5
vt 0.310547 0.5
vt 0.474609 0.5

# verts
v -6.3 0 6.1
v -6.3 0 4.7
v -6.3 0 2.5
v -6.3 0 1.1
v -6.3 0 -4.7
v -6.3 0 -6.1
v -6.3 0.1 5.9
v -6.3 0.1 4.9
v -6.3 0.1 2.3
v -6.3 0.1 1.3
v -6.3 0.1 -4.9
v -6.3 0.1 -5.9
v -6.3 0.2 6
v -6.3 0.2 5.9
v -6.3 0.2 4.9
v -6.3 0.2 4.8
v -6.3 0.2 2.4
v -6.3 0.2 2.3
v -6.3 0.2 1.3
v -6.3 0.2 1.2
v -6.3 0.2 -4.8
v -6.3 0.2 -4.9
v -6.3 0.2 -5.9
v -6.3 0.2 -6
v -6.3 0.7 6
v -6.3 0.7 5.9
v -6.3 0.7 4.9
v -6.3 0.7 4.8
v -6.3 0.7 2.4
v -6.3 0.7 2.3
v -6.3 0.7 1.3
v -6.3 0.7 1.2
v -6.3 0.7 -4.8
v -6.3 0.7 -4.9
v -6.3 0.7 -5.9
v -6.3 0.7 -6
v -6.3 0.8 5.9
v -6.3 0.8 4.9
v -6.3 0.8 2.3
v -6.3 0.8 1.3
v -6.3 0.8 -4.9
v -6.3 0.8 -5.9
v -6.3 0.9 6.2
v -6.3 0.9 6.1
v -6.3 0.9 4.7
v -6.3 0.9 4.6
v -6.3 0.9 2.6
v -6.3 0.9 2.5
v -6.3 0.9 1.1
v -6.3 0.9 1
v -6.3 0.9 -4.6
v -6.3 0.9 -4.7
v -6.3 0.9 -6.1
v -6.3 0.9 -6.2
v -6.3 1 6.2
v -6.3 1 4.6
v -6.3 1 2.6
v -6.3 1 1
v -6.3 1 -4.6
v -6.3 1 -6.2
v -6.3 1.1 6.2
v -6.3 1.1 4.6
v -6.3 1.1 2.6
v -6.3 1.1 1
v -6.3 1.1 -4.6
v -6.3 1.1 -6.2
v -6.3 1.2 6.2
v -6.3 1.2 4.6
v -6.3 1.2 2.6
v -6.3 1.2 1
v -6.3 1.2 -4.6
v -6.3 1.2 -6.2
v -4.5 0.9 -1
v -4.5 0.9 -2.6
v -4.5 1 -1
v -4.5 1 -2.6
v -4.5 1.1 -1
v -4.5 1.1 -2.6
v -4.5 1.2 -1
v -4.5 1.2 -2.6
v -4.4 0 -1.1
v -4.4 0 -2.5
v -4.4 0.1 -1.3
v -4.4 0.1 -2.3
v -4.4 0.2 -1.2
v -4.4 0.2 -1.3
v -4.4 0.2 -2.3
v -4.4 0.2 -2.4
v -4.4 0.7 -1.2
v -4.4 0.7 -1.3
v -4.4 0.7 -2.3
v -4.4 0.7 -2.4
v -4.4 0.8 -1.3
v -4.4 0.8 -2.3
v -4.4 0.9 -1.1
v -4.4 0.9 -2.5
v 2.6 0 -4.7
v 2.6 0 -6.1
v 2.6 0.1 -4.9
v 2.6 0.1 -5.9
v 2.6 0.2 -4.8
v 2.6 0.2 -4.9
v 2.6 0.2 -5.9
v 2.6 0.2 -6
v 2.6 0.7 -4.8
v 2.6 0.7 -4.9
v 2.6 0.7 -5.9
v 2.6 0.7 -6
v 2.6 0.8 -4.9
v 2.6 0.8 -5.9
v 2.6 0.9 -4.7
v 2.6 0.9 -6.1
v 2.7 0.9 -4.6
v 2.7 0.9 -6.2
v 2.7 1 -4.6
v 2.7 1 -6.2
v 2.7 1.1 -4.6
v 2.7 1.1 -6.2
v 2.7 1.2 -4.6
v 2.7 1.2 -6.2
v 4.4 0 6.1
v 4.4 0 4.7
v 4.4 0 2.5
v 4.4 0 1.1
v 4.4 0.1 5.9
v 4.4 0.1 4.9
v 4.4 0.1 2.3
v 4.4 0.1 1.3
v 4.4 0.2 6
v 4.4 0.2 5.9
v 4.4 0.2 4.9
v 4.4 0.2 4.8
v 4.4 0.2 2.4
v 4.4 0.2 2.3
v 4.4 0.2 1.3
v 4.4 0.2 1.2
v 4.4 0.7 6
v 4.4 0.7 5.9
v 4.4 0.7 4.9
v 4.4 0.7 4.8
v 4.4 0.7 2.4
v 4.4 0.7 2.3
v 4.4 0.7 1.3
v 4.4 0.7 1.2
v 4.4 0.8 5.9
v 4.4 0.8 4.9
v 4.4 0.8 2.3
v 4.4 0.8 1.3
v 4.4 0.9 6.1
v 4.4 0.9 4.7
v 4.4 0.9 2.5
v 4.4 0.9 1.1
v 4.5 0.9 6.2
v 4.5 0.9 4.6
v 4.5 0.9 2.6
v 4.5 0.9 1
v 4.5 1 6.2
v 4.5 1 4.6
v 4.5 1 2.6
v 4.5 1 1
v 4.5 1.1 6.2
v 4.5 1.1 4.6
v 4.5 1.1 2.6
v 4.5 1.1 1
v 4.5 1.2 6.2
v 4.5 1.2 4.6
v 4.5 1.2 2.6
v 4.5 1.2 1
v 6.3 0 -1.1
v 6.3 0 -2.5
v 6.3 0.1 -1.3
v 6.3 0.1 -2.3
v 6.3 0.2 -1.2
v 6.3 0.2 -1.3
v 6.3 0.2 -2.3
v 6.3 0.2 -2.4
v 6.3 0.7 -1.2
v 6.3 0.7 -1.3
v 6.3 0.7 -2.3
v 6.3 0.7 -2.4
v 6.3 0.8 -1.3
v 6.3 0.8 -2.3
v 6.3 0.9 -1
v 6.3 0.9 -1.1
v 6.3 0.9 -2.5
v 6.3 0.9 -2.6
v 6.3 1 -1
v 6.3 1 -2.6
v 6.3 1.1 -1
v 6.3 1.1 -2.6
v 6.3 1.2 -1
v 6.3 1.2 -2.6
v -6.3 0.9 6.2
v -6.3 1 6.2
v -6.3 1.1 6.2
v -6.3 1.2 6.2
v 4.5 0.9 6.2
v 4.5 1 6.2
v 4.5 1.1 6.2
v 4.5 1.2 6.2
v -6.3 0 6.1
v -6.3 0.9 6.1
v -6.2 0.2 6.1
v -6.2 0.7 6.1
v -6.1 0.1 6.1
v -6.1 0.2 6.1
v -6.1 0.7 6.1
v -6.1 0.8 6.1
v 4.2 0.1 6.1
v 4.2 0.2 6.1
v 4.2 0.7 6.1
v 4.2 0.8 6.1
v 4.3 0.2 6.1
v 4.3 0.7 6.1
v 4.4 0 6.1
v 4.4 0.9 6.1
v -6.3 0.9 2.6
v -6.3 1 2.6
v -6.3 1.1 2.6
v -6.3 1.2 2.6
v 4.5 0.9 2.6
v 4.5 1 2.6
v 4.5 1.1 2.6
v 4.5 1.2 2.6
v -6.3 0 2.5
v -6.3 0.9 2.5
v -6.2 0.2 2.5
v -6.2 0.7 2.5
v -6.1 0.1 2.5
v -6.1 0.2 2.5
v -6.1 0.7 2.5
v -6.1 0.8 2.5
v 4.2 0.1 2.5
v 4.2 0.2 2.5
v 4.2 0.7 2.5
v 4.2 0.8 2.5
v 4.3 0.2 2.5
v 4.3 0.7 2.5
v 4.4 0 2.5
v 4.4 0.9 2.5
v -4.5 0.9 -1
v -4.5 1 -1
v -4.5 1.1 -1
v -4.5 1.2 -1
v 6.3 0.9 -1
v 6.3 1 -1
v 6.3 1.1 -1
v 6.3 1.2 -1
v -4.4 0 -1.1
v -4.4 0.9 -1.1
v -4.3 0.2 -1.1
v -4.3 0.7 -1.1
v -4.2 0.1 -1.1
v -4.2 0.2 -1.1
v -4.2 0.7 -1.1
v -4.2 0.8 -1.1
v 6.1 0.1 -1.1
v 6.1 0.2 -1.1
v 6.1 0.7 -1.1
v 6.1 0.8 -1.1
v 6.2 0.2 -1.1
v 6.2 0.7 -1.1
v 6.3 0 -1.1
v 6.3 0.9 -1.1
v -6.3 0.9 -4.6
v -6.3 1 -4.6
v -6.3 1.1 -4.6
v -6.3 1.2 -4.6
v 2.7 0.9 -4.6
v 2.7 1 -4.6
v 2.7 1.1 -4.6
v 2.7 1.2 -4.6
v -6.3 0 -4.7
v -6.3 0.9 -4.7
v -6.2 0.2 -4.7
v -6.2 0.7 -4.7
v -6.1 0.1 -4.7
v -6.1 0.2 -4.7
v -6.1 0.7 -4.7
v -6.1 0.8 -4.7
v 2.4 0.1 -4.7
v 2.4 0.2 -4.7
v 2.4 0.7 -4.7
v 2.4 0.8 -4.7
v 2.5 0.2 -4.7
v 2.5 0.7 -4.7
v 2.6 0 -4.7
v 2.6 0.9 -4.7
v -6.3 0 4.7
v -6.3 0.9 4.7
v -6.2 0.2 4.7
v -6.2 0.7 4.7
v -6.1 0.1 4.7
v -6.1 0.2 4.7
v -6.1 0.7 4.7
v -6.1 0.8 4.7
v 4.2 0.1 4.7
v 4.2 0.2 4.7
v 4.2 0.7 4.7
v 4.2 0.8 4.7
v 4.3 0.2 4.7
v 4.3 0.7 4.7
v 4.4 0 4.7
v 4.4 0.9 4.7
v -6.3 0.9 4.6
v -6.3 1 4.6
v -6.3 1.1 4.6
v -6.3 1.2 4.6
v 4.5 0.9 4.6
v 4.5 1 4.6
v 4.5 1.1 4.6
v 4.5 1.2 4.6
v -6.3 0 1.1
v -6.3 0.9 1.1
v -6.2 0.2 1.1
v -6.2 0.7 1.1
v -6.1 0.1 1.1
v -6.1 0.2 1.1
v -6.1 0.7 1.1
v -6.1 0.8 1.1
v 4.2 0.1 1.1
v 4.2 0.2 1.1
v 4.2 0.7 1.1
v 4.2 0.8 1.1
v 4.3 0.2 1.1
v 4.3 0.7 1.1
v 4.4 0 1.1
v 4.4 0.9 1.1
v -6.3 0.9 1
v -6.3 1 1
v -6.3 1.1 1
v -6.3 1.2 1
v 4.5 0.9 1
v 4.5 1 1
v 4.5 1.1 1
v 4.5 1.2 1
v -4.4 0 -2.5
v -4.4 0.9 -2.5
v -4.3 0.2 -2.5
v -4.3 0.7 -2.5
v -4.2 0.1 -2.5
v -4.2 0.2 -2.5
v -4.2 0.7 -2.5
v -4.2 0.8 -2.5
v 6.1 0.1 -2.5
v 6.1 0.2 -2.5
v 6.1 0.7 -2.5
v 6.1 0.8 -2.5
v 6.2 0.2 -2.5
v 6.2 0.7 -2.5
v 6.3 0 -2.5
v 6.3 0.9 -2.5
v -4.5 0.9 -2.6
v -4.5 1 -2.6
v -4.5 1.1 -2.6
v -4.5 1.2 -2.6
v 6.3 0.9 -2.6
v 6.3 1 -2.6
v 6.3 1.1 -2.6
v 6.3 1.2 -2.6
v -6.3 0 -6.1
v -6.3 0.9 -6.1
v -6.2 0.2 -6.1
v -6.2 0.7 -6.1
v -6.1 0.1 -6.1
v -6.1 0.2 -6.1
v -6.1 0.7 -6.1
v -6.1 0.8 -6.1
v 2.4 0.1 -6.1
v 2.4 0.2 -6.1
v 2.4 0.7 -6.1
v 2.4 0.8 -6.1
v 2.5 0.2 -6.1
v 2.5 0.7 -6.1
v 2.6 0 -6.1
v 2.6 0.9 -6.1
v -6.3 0.9 -6.2
v -6.3 1 -6.2
v -6.3 1.1 -6.2
v -6.3 1.2 -6.2
v 2.7 0.9 -6.2
v 2.7 1 -6.2
v 2.7 1.1 -6.2
v 2.7 1.2 -6.2
v -6.3 0 6.1
v 4.4 0 6.1
v -6.2 0 6
v 4.3 0 6
v -6.2 0 4.8
v 4.3 0 4.8
v -6.3 0 4.7
v 4.4 0 4.7
v -6.3 0 2.5
v 4.4 0 2.5
v -6.2 0 2.4
v 4.3 0 2.4
v -6.2 0 1.2
v 4.3 0 1.2
v -6.3 0 1.1
v 4.4 0 1.1
v -4.4 0 -1.1
v 6.3 0 -1.1
v -4.3 0 -1.2
v 6.2 0 -1.2
v -4.3 0 -2.4
v 6.2 0 -2.4
v -4.4 0 -2.5
v 6.3 0 -2.5
v -6.3 0 -4.7
v 2.6 0 -4.7
v -6.2 0 -4.8
v 2.5 0 -4.8
v -6.2 0 -6
v 2.5 0 -6
v -6.3 0 -6.1
v 2.6 0 -6.1
v -6.3 0.9 6.2
v 4.5 0.9 6.2
v -6.3 0.9 6.1
v 4.4 0.9 6.1
v -6.3 0.9 4.7
v 4.4 0.9 4.7
v -6.3 0.9 4.6
v 4.5 0.9 4.6
v -6.3 0.9 2.6
v 4.5 0.9 2.6
v -6.3 0.9 2.5
v 4.4 0.9 2.5
v -6.3 0.9 1.1
v 4.4 0.9 1.1
v -6.3 0.9 1
v 4.5 0.9 1
v -4.5 0.9 -1
v 6.3 0.9 -1
v -4.4 0.9 -1.1
v 6.3 0.9 -1.1
v -4.4 0.9 -2.5
v 6.3 0.9 -2.5
v -4.5 0.9 -2.6
v 6.3 0.9 -2.6
v -6.3 0.9 -4.6
v 2.7 0.9 -4.6
v -6.3 0.9 -4.7
v 2.6 0.9 -4.7
v -6.3 0.9 -6.1
v 2.6 0.9 -6.1
v -6.3 0.9 -6.2
v 2.7 0.9 -6.2
v -6.3 1.2 6.2
v 4.5 1.2 6.2
v -6.3 1.2 4.6
v 4.5 1.2 4.6
v -6.3 1.2 2.6
v 4.5 1.2 2.6
v -6.3 1.2 1
v 4.5 1.2 1
v -4.5 1.2 -1
v 6.3 1.2 -1
v -4.5 1.2 -2.6
v 6.3 1.2 -2.6
v -6.3 1.2 -4.6
v 2.7 1.2 -4.6
v -6.3 1.2 -6.2
v 2.7 1.2 -6.2

# faces
f 7/5/1 2/5/1 1/5/1
f 8/5/1 2/5/1 7/5/1
f 9/5/1 4/5/1 3/5/1
f 10/5/1 4/5/1 9/5/1
f 11/5/1 6/5/1 5/5/1
f 12/5/1 6/5/1 11/5/1
f 13/5/1 7/5/1 1/5/1
f 14/4/1 8/4/1 7/4/1
f 14/5/1 7/5/1 13/5/1
f 15/5/1 2/5/1 8/5/1
f 15/4/1 8/4/1 14/4/1
f 16/5/1 2/5/1 15/5/1
f 17/5/1 9/5/1 3/5/1
f 18/4/1 10/4/1 9/4/1
f 18/5/1 9/5/1 17/5/1
f 19/5/1 4/5/1 10/5/1
f 19/4/1 10/4/1 18/4/1
f 20/5/1 4/5/1 19/5/1
f 21/5/1 11/5/1 5/5/1
f 22/4/1 12/4/1 11/4/1
f 22/5/1 11/5/1 21/5/1
f 23/5/1 6/5/1 12/5/1
f 23/4/1 12/4/1 22/4/1
f 24/5/1 6/5/1 23/5/1
f 25/4/1 14/4/1 13/4/1
f 25/5/1 13/5/1 1/5/1
f 25/4/1 15/4/1 14/4/1
f 25/4/1 16/4/1 15/4/1
f 26/4/1 16/4/1 25/4/1
f 27/4/1 16/4/1 26/4/1
f 28/5/1 2/5/1 16/5/1
f 28/4/1 16/4/1 27/4/1
f 29/4/1 18/4/1 17/4/1
f 29/5/1 17/5/1 3/5/1
f 29/4/1 20/4/1 19/4/1
f 29/4/1 19/4/1 18/4/1
f 30/4/1 20/4/1 29/4/1
f 31/4/1 20/4/1 30/4/1
f 32/5/1 4/5/1 20/5/1
f 32/4/1 20/4/1 31/4/1
f 33/4/1 22/4/1 21/4/1
f 33/4/1 24/4/1 23/4/1
f 33/5/1 21/5/1 5/5/1
f 33/4/1 23/4/1 22/4/1
f 34/4/1 24/4/1 33/4/1
f 35/4/1 24/4/1 34/4/1
f 36/5/1 6/5/1 24/5/1
f 36/4/1 24/4/1 35/4/1
f 37/4/1 27/4/1 26/4/1
f 37/5/1 26/5/1 25/5/1
f 38/5/1 28/5/1 27/5/1
f 38/4/1 27/4/1 37/4/1
f 39/4/1 31/4/1 30/4/1
f 39/5/1 30/5/1 29/5/1
f 40/5/1 32/5/1 31/5/1
f 40/4/1 31/4/1 39/4/1
f 41/4/1 35/4/1 34/4/1
f 41/5/1 34/5/1 33/5/1
f 42/5/1 36/5/1 35/5/1
f 42/4/1 35/4/1 41/4/1
f 44/5/1 37/5/1 25/5/1
f 44/5/1 38/5/1 37/5/1
f 44/5/1 25/5/1 1/5/1
f 45/5/1 2/5/1 28/5/1
f 45/5/1 28/5/1 38/5/1
f 45/5/1 38/5/1 44/5/1
f 48/5/1 39/5/1 29/5/1
f 48/5/1 29/5/1 3/5/1
f 48/5/1 40/5/1 39/5/1
f 49/5/1 32/5/1 40/5/1
f 49/5/1 4/5/1 32/5/1
f 49/5/1 40/5/1 48/5/1
f 52/5/1 42/5/1 41/5/1
f 52/5/1 41/5/1 33/5/1
f 52/5/1 33/5/1 5/5/1
f 53/5/1 6/5/1 36/5/1
f 53/5/1 36/5/1 42/5/1
f 53/5/1 42/5/1 52/5/1
f 55/2/1 44/2/1 43/2/1
f 55/2/1 46/2/1 45/2/1
f 55/2/1 45/2/1 44/2/1
f 56/2/1 46/2/1 55/2/1
f 57/2/1 48/2/1 47/2/1
f 57/2/1 50/2/1 49/2/1
f 57/2/1 49/2/1 48/2/1
f 58/2/1 50/2/1 57/2/1
f 59/2/1 54/2/1 53/2/1
f 59/2/1 53/2/1 52/2/1
f 59/2/1 52/2/1 51/2/1
f 60/2/1 54/2/1 59/2/1
f 61/3/1 56/3/1 55/3/1
f 62/3/1 56/3/1 61/3/1
f 63/3/1 58/3/1 57/3/1
f 64/3/1 58/3/1 63/3/1
f 65/3/1 60/3/1 59/3/1
f 66/3/1 60/3/1 65/3/1
f 67/2/1 62/2/1 61/2/1
f 68/2/1 62/2/1 67/2/1
f 69/2/1 64/2/1 63/2/1
f 70/2/1 64/2/1 69/2/1
f 71/2/1 66/2/1 65/2/1
f 72/2/1 66/2/1 71/2/1
f 75/2/1 74/2/1 73/2/1
f 76/2/1 74/2/1 75/2/1
f 77/3/1 76/3/1 75/3/1
f 78/3/1 76/3/1 77/3/1
f 79/2/1 78/2/1 77/2/1
f 80/2/1 78/2/1 79/2/1
f 83/5/1 82/5/1 81/5/1
f 84/5/1 82/5/1 83/5/1
f 85/5/1 83/5/1 81/5/1
f 86/4/1 84/4/1 83/4/1
f 86/5/1 83/5/1 85/5/1
f 87/5/1 82/5/1 84/5/1
f 87/4/1 84/4/1 86/4/1
f 88/5/1 82/5/1 87/5/1
f 89/4/1 86/4/1 85/4/1
f 89/5/1 85/5/1 81/5/1
f 89/4/1 88/4/1 87/4/1
f 89/4/1 87/4/1 86/4/1
f 90/4/1 88/4/1 89/4/1
f 91/4/1 88/4/1 90/4/1
f 92/5/1 82/5/1 88/5/1
f 92/4/1 88/4/1 91/4/1
f 93/4/1 91/4/1 90/4/1
f 93/5/1 90/5/1 89/5/1
f 94/5/1 92/5/1 91/5/1
f 94/4/1 91/4/1 93/4/1
f 95/5/1 89/5/1 81/5/1
f 95/5/1 93/5/1 89/5/1
f 95/5/1 94/5/1 93/5/1
f 96/5/1 82/5/1 92/5/1
f 96/5/1 94/5/1 95/5/1
f 96/5/1 92/5/1 94/5/1
f 97/5/2 98/5/2 99/5/2
f 99/5/2 98/5/2 100/5/2
f 97/5/2 99/5/2 101/5/2
f 99/4/2 100/4/2 102/4/2
f 101/5/2 99/5/2 102/5/2
f 100/5/2 98/5/2 103/5/2
f 102/4/2 100/4/2 103/4/2
f 103/5/2 98/5/2 104/5/2
f 101/4/2 102/4/2 105/4/2
f 97/5/2 101/5/2 105/5/2
f 103/4/2 104/4/2 105/4/2
f 102/4/2 103/4/2 105/4/2
f 105/4/2 104/4/2 106/4/2
f 106/4/2 104/4/2 107/4/2
f 104/5/2 98/5/2 108/5/2
f 107/4/2 104/4/2 108/4/2
f 106/4/2 107/4/2 109/4/2
f 105/5/2 106/5/2 109/5/2
f 107/5/2 108/5/2 110/5/2
f 109/4/2 107/4/2 110/4/2
f 97/5/2 105/5/2 111/5/2
f 105/5/2 109/5/2 111/5/2
f 109/5/2 110/5/2 111/5/2
f 108/5/2 98/5/2 112/5/2
f 111/5/2 110/5/2 112/5/2
f 110/5/2 108/5/2 112/5/2
f 113/2/2 114/2/2 115/2/2
f 115/2/2 114/2/2 116/2/2
f 115/3/2 116/3/2 117/3/2
f 117/3/2 116/3/2 118/3/2
f 117/2/2 118/2/2 119/2/2
f 119/2/2 118/2/2 120/2/2
f 121/5/2 122/5/2 125/5/2
f 125/5/2 122/5/2 126/5/2
f 123/5/2 124/5/2 127/5/2
f 127/5/2 124/5/2 128/5/2
f 121/5/2 125/5/2 129/5/2
f 125/4/2 126/4/2 130/4/2
f 129/5/2 125/5/2 130/5/2
f 126/5/2 122/5/2 131/5/2
f 130/4/2 126/4/2 131/4/2
f 131/5/2 122/5/2 132/5/2
f 123/5/2 127/5/2 133/5/2
f 127/4/2 128/4/2 134/4/2
f 133/5/2 127/5/2 134/5/2
f 128/5/2 124/5/2 135/5/2
f 134/4/2 128/4/2 135/4/2
f 135/5/2 124/5/2 136/5/2
f 129/4/2 130/4/2 137/4/2
f 121/5/2 129/5/2 137/5/2
f 130/4/2 131/4/2 137/4/2
f 131/4/2 132/4/2 137/4/2
f 137/4/2 132/4/2 138/4/2
f 138/4/2 132/4/2 139/4/2
f 132/5/2 122/5/2 140/5/2
f 139/4/2 132/4/2 140/4/2
f 133/4/2 134/4/2 141/4/2
f 135/4/2 136/4/2 141/4/2
f 123/5/2 133/5/2 141/5/2
f 134/4/2 135/4/2 141/4/2
f 141/4/2 136/4/2 142/4/2
f 142/4/2 136/4/2 143/4/2
f 136/5/2 124/5/2 144/5/2
f 143/4/2 136/4/2 144/4/2
f 138/4/2 139/4/2 145/4/2
f 137/5/2 138/5/2 145/5/2
f 139/5/2 140/5/2 146/5/2
f 145/4/2 139/4/2 146/4/2
f 142/4/2 143/4/2 147/4/2
f 141/5/2 142/5/2 147/5/2
f 143/5/2 144/5/2 148/5/2
f 147/4/2 143/4/2 148/4/2
f 137/5/2 145/5/2 149/5/2
f 121/5/2 137/5/2 149/5/2
f 145/5/2 146/5/2 149/5/2
f 146/5/2 140/5/2 150/5/2
f 149/5/2 146/5/2 150/5/2
f 140/5/2 122/5/2 150/5/2
f 123/5/2 141/5/2 151/5/2
f 141/5/2 147/5/2 151/5/2
f 147/5/2 148/5/2 151/5/2
f 148/5/2 144/5/2 152/5/2
f 151/5/2 148/5/2 152/5/2
f 144/5/2 124/5/2 152/5/2
f 153/2/2 154/2/2 157/2/2
f 157/2/2 154/2/2 158/2/2
f 155/2/2 156/2/2 159/2/2
f 159/2/2 156/2/2 160/2/2
f 157/3/2 158/3/2 161/3/2
f 161/3/2 158/3/2 162/3/2
f 159/3/2 160/3/2 163/3/2
f 163/3/2 160/3/2 164/3/2
f 161/2/2 162/2/2 165/2/2
f 165/2/2 162/2/2 166/2/2
f 163/2/2 164/2/2 167/2/2
f 167/2/2 164/2/2 168/2/2
f 169/5/2 170/5/2 171/5/2
f 171/5/2 170/5/2 172/5/2
f 169/5/2 171/5/2 173/5/2
f 171/4/2 172/4/2 174/4/2
f 173/5/2 171/5/2 174/5/2
f 172/5/2 170/5/2 175/5/2
f 174/4/2 172/4/2 175/4/2
f 175/5/2 170/5/2 176/5/2
f 173/4/2 174/4/2 177/4/2
f 169/5/2 173/5/2 177/5/2
f 175/4/2 176/4/2 177/4/2
f 174/4/2 175/4/2 177/4/2
f 177/4/2 176/4/2 178/4/2
f 178/4/2 176/4/2 179/4/2
f 176/5/2 170/5/2 180/5/2
f 179/4/2 176/4/2 180/4/2
f 178/4/2 179/4/2 181/4/2
f 177/5/2 178/5/2 181/5/2
f 179/5/2 180/5/2 182/5/2
f 181/4/2 179/4/2 182/4/2
f 169/5/2 177/5/2 184/5/2
f 177/5/2 181/5/2 184/5/2
f 181/5/2 182/5/2 184/5/2
f 180/5/2 170/5/2 185/5/2
f 182/5/2 180/5/2 185/5/2
f 184/5/2 182/5/2 185/5/2
f 183/2/2 184/2/2 187/2/2
f 185/2/2 186/2/2 187/2/2
f 184/2/2 185/2/2 187/2/2
f 187/2/2 186/2/2 188/2/2
f 187/3/2 188/3/2 189/3/2
f 189/3/2 188/3/2 190/3/2
f 189/2/2 190/2/2 191/2/2
f 191/2/2 190/2/2 192/2/2
f 197/2/3 194/2/3 193/2/3
f 198/3/3 195/3/3 194/3/3
f 198/2/3 194/2/3 197/2/3
f 199/2/3 196/2/3 195/2/3
f 199/3/3 195/3/3 198/3/3
f 200/2/3 196/2/3 199/2/3
f 203/5/3 202/5/3 201/5/3
f 204/5/3 202/5/3 203/5/3
f 205/5/3 203/5/3 201/5/3
f 206/4/3 204/4/3 203/4/3
f 206/5/3 203/5/3 205/5/3
f 207/5/3 202/5/3 204/5/3
f 207/4/3 204/4/3 206/4/3
f 208/5/3 202/5/3 207/5/3
f 209/4/3 206/4/3 205/4/3
f 209/5/3 205/5/3 201/5/3
f 209/4/3 208/4/3 207/4/3
f 209/4/3 207/4/3 206/4/3
f 210/4/3 208/4/3 209/4/3
f 211/4/3 208/4/3 210/4/3
f 212/5/3 202/5/3 208/5/3
f 212/4/3 208/4/3 211/4/3
f 213/4/3 211/4/3 210/4/3
f 213/5/3 210/5/3 209/5/3
f 214/5/3 212/5/3 211/5/3
f 214/4/3 211/4/3 213/4/3
f 215/5/3 209/5/3 201/5/3
f 215/5/3 213/5/3 209/5/3
f 215/5/3 214/5/3 213/5/3
f 216/5/3 202/5/3 212/5/3
f 216/5/3 214/5/3 215/5/3
f 216/5/3 212/5/3 214/5/3
f 221/2/3 218/2/3 217/2/3
f 222/3/3 219/3/3 218/3/3
f 222/2/3 218/2/3 221/2/3
f 223/2/3 220/2/3 219/2/3
f 223/3/3 219/3/3 222/3/3
f 224/2/3 220/2/3 223/2/3
f 227/5/3 226/5/3 225/5/3
f 228/5/3 226/5/3 227/5/3
f 229/5/3 227/5/3 225/5/3
f 230/4/3 228/4/3 227/4/3
f 230/5/3 227/5/3 229/5/3
f 231/5/3 226/5/3 228/5/3
f 231/4/3 228/4/3 230/4/3
f 232/5/3 226/5/3 231/5/3
f 233/4/3 230/4/3 229/4/3
f 233/5/3 229/5/3 225/5/3
f 233/4/3 232/4/3 231/4/3
f 233/4/3 231/4/3 230/4/3
f 234/4/3 232/4/3 233/4/3
f 235/4/3 232/4/3 234/4/3
f 236/5/3 226/5/3 232/5/3
f 236/4/3 232/4/3 235/4/3
f 237/4/3 235/4/3 234/4/3
f 237/5/3 234/5/3 233/5/3
f 238/5/3 236/5/3 235/5/3
f 238/4/3 235/4/3 237/4/3
f 239/5/3 233/5/3 225/5/3
f 239/5/3 237/5/3 233/5/3
f 239/5/3 238/5/3 237/5/3
f 240/5/3 226/5/3 236/5/3
f 240/5/3 238/5/3 239/5/3
f 240/5/3 236/5/3 238/5/3
f 245/2/3 242/2/3 241/2/3
f 246/3/3 243/3/3 242/3/3
f 246/2/3 242/2/3 245/2/3
f 247/2/3 244/2/3 243/2/3
f 247/3/3 243/3/3 246/3/3
f 248/2/3 244/2/3 247/2/3
f 251/5/3 250/5/3 249/5/3
f 252/5/3 250/5/3 251/5/3
f 253/5/3 251/5/3 249/5/3
f 254/4/3 252/4/3 251/4/3
f 254/5/3 251/5/3 253/5/3
f 255/5/3 250/5/3 252/5/3
f 255/4/3 252/4/3 254/4/3
f 256/5/3 250/5/3 255/5/3
f 257/4/3 254/4/3 253/4/3
f 257/5/3 253/5/3 249/5/3
f 257/4/3 256/4/3 255/4/3
f 257/4/3 255/4/3 254/4/3
f 258/4/3 256/4/3 257/4/3
f 259/4/3 256/4/3 258/4/3
f 260/5/3 250/5/3 256/5/3
f 260/4/3 256/4/3 259/4/3
f 261/4/3 259/4/3 258/4/3
f 261/5/3 258/5/3 257/5/3
f 262/5/3 260/5/3 259/5/3
f 262/4/3 259/4/3 261/4/3
f 263/5/3 257/5/3 249/5/3
f 263/5/3 261/5/3 257/5/3
f 263/5/3 262/5/3 261/5/3
f 264/5/3 250/5/3 260/5/3
f 264/5/3 262/5/3 263/5/3
f 264/5/3 260/5/3 262/5/3
f 269/2/3 266/2/3 265/2/3
f 270/3/3 267/3/3 266/3/3
f 270/2/3 266/2/3 269/2/3
f 271/2/3 268/2/3 267/2/3
f 271/3/3 267/3/3 270/3/3
f 272/2/3 268/2/3 271/2/3
f 275/5/3 274/5/3 273/5/3
f 276/5/3 274/5/3 275/5/3
f 277/5/3 275/5/3 273/5/3
f 278/4/3 276/4/3 275/4/3
f 278/5/3 275/5/3 277/5/3
f 279/5/3 274/5/3 276/5/3
f 279/4/3 276/4/3 278/4/3
f 280/5/3 274/5/3 279/5/3
f 281/4/3 278/4/3 277/4/3
f 281/5/3 277/5/3 273/5/3
f 281/4/3 280/4/3 279/4/3
f 281/4/3 279/4/3 278/4/3
f 282/4/3 280/4/3 281/4/3
f 283/4/3 280/4/3 282/4/3
f 284/5/3 274/5/3 280/5/3
f 284/4/3 280/4/3 283/4/3
f 285/4/3 283/4/3 282/4/3
f 285/5/3 282/5/3 281/5/3
f 286/5/3 284/5/3 283/5/3
f 286/4/3 283/4/3 285/4/3
f 287/5/3 281/5/3 273/5/3
f 287/5/3 285/5/3 281/5/3
f 287/5/3 286/5/3 285/5/3
f 288/5/3 274/5/3 284/5/3
f 288/5/3 286/5/3 287/5/3
f 288/5/3 284/5/3 286/5/3
f 289/5/4 290/5/4 291/5/4
f 291/5/4 290/5/4 292/5/4
f 289/5/4 291/5/4 293/5/4
f 291/4/4 292/4/4 294/4/4
f 293/5/4 291/5/4 294/5/4
f 292/5/4 290/5/4 295/5/4
f 294/4/4 292/4/4 295/4/4
f 295/5/4 290/5/4 296/5/4
f 293/4/4 294/4/4 297/4/4
f 289/5/4 293/5/4 297/5/4
f 295/4/4 296/4/4 297/4/4
f 294/4/4 295/4/4 297/4/4
f 297/4/4 296/4/4 298/4/4
f 298/4/4 296/4/4 299/4/4
f 296/5/4 290/5/4 300/5/4
f 299/4/4 296/4/4 300/4/4
f 298/4/4 299/4/4 301/4/4
f 297/5/4 298/5/4 301/5/4
f 299/5/4 300/5/4 302/5/4
f 301/4/4 299/4/4 302/4/4
f 289/5/4 297/5/4 303/5/4
f 297/5/4 301/5/4 303/5/4
f 301/5/4 302/5/4 303/5/4
f 300/5/4 290/5/4 304/5/4
f 303/5/4 302/5/4 304/5/4
f 302/5/4 300/5/4 304/5/4
f 305/2/4 306/2/4 309/2/4
f 306/3/4 307/3/4 310/3/4
f 309/2/4 306/2/4 310/2/4
f 307/2/4 308/2/4 311/2/4
f 310/3/4 307/3/4 311/3/4
f 311/2/4 308/2/4 312/2/4
f 313/5/4 314/5/4 315/5/4
f 315/5/4 314/5/4 316/5/4
f 313/5/4 315/5/4 317/5/4
f 315/4/4 316/4/4 318/4/4
f 317/5/4 315/5/4 318/5/4
f 316/5/4 314/5/4 319/5/4
f 318/4/4 316/4/4 319/4/4
f 319/5/4 314/5/4 320/5/4
f 317/4/4 318/4/4 321/4/4
f 313/5/4 317/5/4 321/5/4
f 319/4/4 320/4/4 321/4/4
f 318/4/4 319/4/4 321/4/4
f 321/4/4 320/4/4 322/4/4
f 322/4/4 320/4/4 323/4/4
f 320/5/4 314/5/4 324/5/4
f 323/4/4 320/4/4 324/4/4
f 322/4/4 323/4/4 325/4/4
f 321/5/4 322/5/4 325/5/4
f 323/5/4 324/5/4 326/5/4
f 325/4/4 323/4/4 326/4/4
f 313/5/4 321/5/4 327/5/4
f 321/5/4 325/5/4 327/5/4
f 325/5/4 326/5/4 327/5/4
f 324/5/4 314/5/4 328/5/4
f 327/5/4 326/5/4 328/5/4
f 326/5/4 324/5/4 328/5/4
f 329/2/4 330/2/4 333/2/4
f 330/3/4 331/3/4 334/3/4
f 333/2/4 330/2/4 334/2/4
f 331/2/4 332/2/4 335/2/4
f 334/3/4 331/3/4 335/3/4
f 335/2/4 332/2/4 336/2/4
f 337/5/4 338/5/4 339/5/4
f 339/5/4 338/5/4 340/5/4
f 337/5/4 339/5/4 341/5/4
f 339/4/4 340/4/4 342/4/4
f 341/5/4 339/5/4 342/5/4
f 340/5/4 338/5/4 343/5/4
f 342/4/4 340/4/4 343/4/4
f 343/5/4 338/5/4 344/5/4
f 341/4/4 342/4/4 345/4/4
f 337/5/4 341/5/4 345/5/4
f 343/4/4 344/4/4 345/4/4
f 342/4/4 343/4/4 345/4/4
f 345/4/4 344/4/4 346/4/4
f 346/4/4 344/4/4 347/4/4
f 344/5/4 338/5/4 348/5/4
f 347/4/4 344/4/4 348/4/4
f 346/4/4 347/4/4 349/4/4
f 345/5/4 346/5/4 349/5/4
f 347/5/4 348/5/4 350/5/4
f 349/4/4 347/4/4 350/4/4
f 337/5/4 345/5/4 351/5/4
f 345/5/4 349/5/4 351/5/4
f 349/5/4 350/5/4 351/5/4
f 348/5/4 338/5/4 352/5/4
f 351/5/4 350/5/4 352/5/4
f 350/5/4 348/5/4 352/5/4
f 353/2/4 354/2/4 357/2/4
f 354/3/4 355/3/4 358/3/4
f 357/2/4 354/2/4 358/2/4
f 355/2/4 356/2/4 359/2/4
f 358/3/4 355/3/4 359/3/4
f 359/2/4 356/2/4 360/2/4
f 361/5/4 362/5/4 363/5/4
f 363/5/4 362/5/4 364/5/4
f 361/5/4 363/5/4 365/5/4
f 363/4/4 364/4/4 366/4/4
f 365/5/4 363/5/4 366/5/4
f 364/5/4 362/5/4 367/5/4
f 366/4/4 364/4/4 367/4/4
f 367/5/4 362/5/4 368/5/4
f 365/4/4 366/4/4 369/4/4
f 361/5/4 365/5/4 369/5/4
f 367/4/4 368/4/4 369/4/4
f 366/4/4 367/4/4 369/4/4
f 369/4/4 368/4/4 370/4/4
f 370/4/4 368/4/4 371/4/4
f 368/5/4 362/5/4 372/5/4
f 371/4/4 368/4/4 372/4/4
f 370/4/4 371/4/4 373/4/4
f 369/5/4 370/5/4 373/5/4
f 371/5/4 372/5/4 374/5/4
f 373/4/4 371/4/4 374/4/4
f 361/5/4 369/5/4 375/5/4
f 369/5/4 373/5/4 375/5/4
f 373/5/4 374/5/4 375/5/4
f 372/5/4 362/5/4 376/5/4
f 375/5/4 374/5/4 376/5/4
f 374/5/4 372/5/4 376/5/4
f 377/2/4 378/2/4 381/2/4
f 378/3/4 379/3/4 382/3/4
f 381/2/4 378/2/4 382/2/4
f 379/2/4 380/2/4 383/2/4
f 382/3/4 379/3/4 383/3/4
f 383/2/4 380/2/4 384/2/4
f 387/5/5 386/5/5 385/5/5
f 388/5/5 386/5/5 387/5/5
f 389/5/5 387/5/5 385/5/5
f 389/4/5 388/4/5 387/4/5
f 390/5/5 386/5/5 388/5/5
f 390/4/5 388/4/5 389/4/5
f 391/5/5 389/5/5 385/5/5
f 391/5/5 390/5/5 389/5/5
f 392/5/5 386/5/5 390/5/5
f 392/5/5 390/5/5 391/5/5
f 395/5/5 394/5/5 393/5/5
f 396/5/5 394/5/5 395/5/5
f 397/5/5 395/5/5 393/5/5
f 397/4/5 396/4/5 395/4/5
f 398/5/5 394/5/5 396/5/5
f 398/4/5 396/4/5 397/4/5
f 399/5/5 397/5/5 393/5/5
f 399/5/5 398/5/5 397/5/5
f 400/5/5 394/5/5 398/5/5
f 400/5/5 398/5/5 399/5/5
f 403/5/5 402/5/5 401/5/5
f 404/5/5 402/5/5 403/5/5
f 405/5/5 403/5/5 401/5/5
f 405/4/5 404/4/5 403/4/5
f 406/5/5 402/5/5 404/5/5
f 406/4/5 404/4/5 405/4/5
f 407/5/5 405/5/5 401/5/5
f 407/5/5 406/5/5 405/5/5
f 408/5/5 402/5/5 406/5/5
f 408/5/5 406/5/5 407/5/5
f 411/5/5 410/5/5 409/5/5
f 412/5/5 410/5/5 411/5/5
f 413/5/5 411/5/5 409/5/5
f 413/4/5 412/4/5 411/4/5
f 414/5/5 410/5/5 412/5/5
f 414/4/5 412/4/5 413/4/5
f 415/5/5 413/5/5 409/5/5
f 415/5/5 414/5/5 413/5/5
f 416/5/5 410/5/5 414/5/5
f 416/5/5 414/5/5 415/5/5
f 419/2/5 418/2/5 417/2/5
f 420/2/5 418/2/5 419/2/5
f 422/2/5 418/2/5 420/2/5
f 423/2/5 422/2/5 421/2/5
f 424/2/5 418/2/5 422/2/5
f 424/2/5 422/2/5 423/2/5
f 427/2/5 426/2/5 425/2/5
f 428/2/5 426/2/5 427/2/5
f 430/2/5 426/2/5 428/2/5
f 431/2/5 430/2/5 429/2/5
f 432/2/5 426/2/5 430/2/5
f 432/2/5 430/2/5 431/2/5
f 435/2/5 434/2/5 433/2/5
f 436/2/5 434/2/5 435/2/5
f 437/2/5 435/2/5 433/2/5
f 439/2/5 437/2/5 433/2/5
f 439/2/5 438/2/5 437/2/5
f 440/2/5 438/2/5 439/2/5
f 443/2/5 442/2/5 441/2/5
f 444/2/5 442/2/5 443/2/5
f 446/2/5 442/2/5 444/2/5
f 447/2/5 446/2/5 445/2/5
f 448/2/5 442/2/5 446/2/5
f 448/2/5 446/2/5 447/2/5
f 449/2/6 450/2/6 451/2/6
f 451/2/6 450/2/6 452/2/6
f 453/2/6 454/2/6 455/2/6
f 455/2/6 454/2/6 456/2/6
f 457/2/6 458/2/6 459/2/6
f 459/2/6 458/2/6 460/2/6
f 461/2/6 462/2/6 463/2/6
f 463/2/6 462/2/6 464/2/6
