# MagicaVoxel @ Ephtracy

# group
o 

# material
mtllib level_2.7.mtl
usemtl palette

# normals
vn -1 0 0
vn 1 0 0
vn 0 0 1
vn 0 0 -1
vn 0 -1 0
vn 0 1 0

# texcoords
vt 0.291016 0.5
vt 0.298828 0.5
vt 0.302734 0.5
vt 0.306641 0.5
vt 0.310547 0.5
vt 0.474609 0.5

# verts
v -6.3 0 1.7
v -6.3 0 -1.8
v -6.3 0.1 1.5
v -6.3 0.1 -1.6
v -6.3 0.2 1.6
v -6.3 0.2 1.5
v -6.3 0.2 -1.6
v -6.3 0.2 -1.7
v -6.3 0.7 1.6
v -6.3 0.7 1.5
v -6.3 0.7 -1.6
v -6.3 0.7 -1.7
v -6.3 0.8 1.5
v -6.3 0.8 -1.6
v -6.3 0.9 1.8
v -6.3 0.9 1.7
v -6.3 0.9 -1.8
v -6.3 1 1.8
v -6.3 1 -1.8
v -6.3 1.1 1.8
v -6.3 1.1 -1.8
v -6.3 1.2 1.8
v -6.3 1.2 -1.8
v 0.9 0.9 -0.0999999
v 0.9 0.9 -1.8
v 0.9 1 -0.0999999
v 0.9 1 -1.8
v 0.9 1.1 -0.0999999
v 0.9 1.1 -1.8
v 0.9 1.2 -0.0999999
v 0.9 1.2 -1.8
v 1 0 -0.2
v 1 0 -1.8
v 1 0.1 -0.4
v 1 0.1 -1.6
v 1 0.2 -0.3
v 1 0.2 -0.4
v 1 0.2 -1.6
v 1 0.2 -1.7
v 1 0.7 -0.3
v 1 0.7 -0.4
v 1 0.7 -1.6
v 1 0.7 -1.7
v 1 0.8 -0.4
v 1 0.8 -1.6
v 1 0.9 -0.2
v 1 0.9 -1.8
v 4.6 0.9 1.8
v 4.6 0.9 -0.0999999
v 4.6 1 1.8
v 4.6 1 -0.0999999
v 4.6 1.1 1.8
v 4.6 1.1 -0.0999999
v 4.6 1.2 1.8
v 4.6 1.2 -0.0999999
v 4.7 0 1.7
v 4.7 0 -0.2
v 4.7 0.1 1.5
v 4.7 0.1 1.19209e-007
v 4.7 0.2 1.6
v 4.7 0.2 1.5
v 4.7 0.2 1.19209e-007
v 4.7 0.2 -0.0999999
v 4.7 0.7 1.6
v 4.7 0.7 1.5
v 4.7 0.7 1.19209e-007
v 4.7 0.7 -0.0999999
v 4.7 0.8 1.5
v 4.7 0.8 1.19209e-007
v 4.7 0.9 1.7
v 4.7 0.9 -0.2
v -4.7 0 1.7
v -4.7 0 -0.2
v -4.7 0.1 1.5
v -4.7 0.1 1.19209e-007
v -4.7 0.2 1.6
v -4.7 0.2 1.5
v -4.7 0.2 1.19209e-007
v -4.7 0.2 -0.0999999
v -4.7 0.7 1.6
v -4.7 0.7 1.5
v -4.7 0.7 1.19209e-007
v -4.7 0.7 -0.0999999
v -4.7 0.8 1.5
v -4.7 0.8 1.19209e-007
v -4.7 0.9 1.7
v -4.7 0.9 -0.2
v -4.6 0.9 1.8
v -4.6 0.9 -0.0999999
v -4.6 1 1.8
v -4.6 1 -0.0999999
v -4.6 1.1 1.8
v -4.6 1.1 -0.0999999
v -4.6 1.2 1.8
v -4.6 1.2 -0.0999999
v -1 0 -0.2
v -1 0 -1.8
v -1 0.1 -0.4
v -1 0.1 -1.6
v -1 0.2 -0.3
v -1 0.2 -0.4
v -1 0.2 -1.6
v -1 0.2 -1.7
v -1 0.7 -0.3
v -1 0.7 -0.4
v -1 0.7 -1.6
v -1 0.7 -1.7
v -1 0.8 -0.4
v -1 0.8 -1.6
v -1 0.9 -0.2
v -1 0.9 -1.8
v -0.9 0.9 -0.0999999
v -0.9 0.9 -1.8
v -0.9 1 -0.0999999
v -0.9 1 -1.8
v -0.9 1.1 -0.0999999
v -0.9 1.1 -1.8
v -0.9 1.2 -0.0999999
v -0.9 1.2 -1.8
v 6.3 0 1.7
v 6.3 0 -1.8
v 6.3 0.1 1.5
v 6.3 0.1 -1.6
v 6.3 0.2 1.6
v 6.3 0.2 1.5
v 6.3 0.2 -1.6
v 6.3 0.2 -1.7
v 6.3 0.7 1.6
v 6.3 0.7 1.5
v 6.3 0.7 -1.6
v 6.3 0.7 -1.7
v 6.3 0.8 1.5
v 6.3 0.8 -1.6
v 6.3 0.9 1.8
v 6.3 0.9 1.7
v 6.3 0.9 -1.8
v 6.3 1 1.8
v 6.3 1 -1.8
v 6.3 1.1 1.8
v 6.3 1.1 -1.8
v 6.3 1.2 1.8
v 6.3 1.2 -1.8
v -6.3 0.9 1.8
v -6.3 1 1.8
v -6.3 1.1 1.8
v -6.3 1.2 1.8
v -4.6 0.9 1.8
v -4.6 1 1.8
v -4.6 1.1 1.8
v -4.6 1.2 1.8
v 4.6 0.9 1.8
v 4.6 1 1.8
v 4.6 1.1 1.8
v 4.6 1.2 1.8
v 6.3 0.9 1.8
v 6.3 1 1.8
v 6.3 1.1 1.8
v 6.3 1.2 1.8
v -6.3 0 1.7
v -6.3 0.9 1.7
v -6.2 0.2 1.7
v -6.2 0.7 1.7
v -6.1 0.1 1.7
v -6.1 0.2 1.7
v -6.1 0.7 1.7
v -6.1 0.8 1.7
v -4.9 0.1 1.7
v -4.9 0.2 1.7
v -4.9 0.7 1.7
v -4.9 0.8 1.7
v -4.8 0.2 1.7
v -4.8 0.7 1.7
v -4.7 0 1.7
v -4.7 0.9 1.7
v 4.7 0 1.7
v 4.7 0.9 1.7
v 4.8 0.2 1.7
v 4.8 0.7 1.7
v 4.9 0.1 1.7
v 4.9 0.2 1.7
v 4.9 0.7 1.7
v 4.9 0.8 1.7
v 6.1 0.1 1.7
v 6.1 0.2 1.7
v 6.1 0.7 1.7
v 6.1 0.8 1.7
v 6.2 0.2 1.7
v 6.2 0.7 1.7
v 6.3 0 1.7
v 6.3 0.9 1.7
v -4.6 0.9 -0.0999999
v -4.6 1 -0.0999999
v -4.6 1.1 -0.0999999
v -4.6 1.2 -0.0999999
v -0.9 0.9 -0.0999999
v -0.9 1 -0.0999999
v -0.9 1.1 -0.0999999
v -0.9 1.2 -0.0999999
v 0.9 0.9 -0.0999999
v 0.9 1 -0.0999999
v 0.9 1.1 -0.0999999
v 0.9 1.2 -0.0999999
v 4.6 0.9 -0.0999999
v 4.6 1 -0.0999999
v 4.6 1.1 -0.0999999
v 4.6 1.2 -0.0999999
v -4.7 0 -0.2
v -4.7 0.9 -0.2
v -4.6 0.2 -0.2
v -4.6 0.7 -0.2
v -4.5 0.1 -0.2
v -4.5 0.2 -0.2
v -4.5 0.7 -0.2
v -4.5 0.8 -0.2
v -1.2 0.1 -0.2
v -1.2 0.2 -0.2
v -1.2 0.7 -0.2
v -1.2 0.8 -0.2
v -1.1 0.2 -0.2
v -1.1 0.7 -0.2
v -1 0 -0.2
v -1 0.9 -0.2
v 1 0 -0.2
v 1 0.9 -0.2
v 1.1 0.2 -0.2
v 1.1 0.7 -0.2
v 1.2 0.1 -0.2
v 1.2 0.2 -0.2
v 1.2 0.7 -0.2
v 1.2 0.8 -0.2
v 4.5 0.1 -0.2
v 4.5 0.2 -0.2
v 4.5 0.7 -0.2
v 4.5 0.8 -0.2
v 4.6 0.2 -0.2
v 4.6 0.7 -0.2
v 4.7 0 -0.2
v 4.7 0.9 -0.2
v -6.3 0 -1.8
v -6.3 0.9 -1.8
v -6.3 1 -1.8
v -6.3 1.1 -1.8
v -6.3 1.2 -1.8
v -6.2 0.2 -1.8
v -6.2 0.7 -1.8
v -6.1 0.1 -1.8
v -6.1 0.2 -1.8
v -6.1 0.7 -1.8
v -6.1 0.8 -1.8
v -1.2 0.1 -1.8
v -1.2 0.2 -1.8
v -1.2 0.7 -1.8
v -1.2 0.8 -1.8
v -1.1 0.2 -1.8
v -1.1 0.7 -1.8
v -1 0 -1.8
v -1 0.9 -1.8
v -0.9 0.9 -1.8
v -0.9 1 -1.8
v -0.9 1.1 -1.8
v -0.9 1.2 -1.8
v 0.9 0.9 -1.8
v 0.9 1 -1.8
v 0.9 1.1 -1.8
v 0.9 1.2 -1.8
v 1 0 -1.8
v 1 0.9 -1.8
v 1.1 0.2 -1.8
v 1.1 0.7 -1.8
v 1.2 0.1 -1.8
v 1.2 0.2 -1.8
v 1.2 0.7 -1.8
v 1.2 0.8 -1.8
v 6.1 0.1 -1.8
v 6.1 0.2 -1.8
v 6.1 0.7 -1.8
v 6.1 0.8 -1.8
v 6.2 0.2 -1.8
v 6.2 0.7 -1.8
v 6.3 0 -1.8
v 6.3 0.9 -1.8
v 6.3 1 -1.8
v 6.3 1.1 -1.8
v 6.3 1.2 -1.8
v -6.3 0 1.7
v -4.7 0 1.7
v 4.7 0 1.7
v 6.3 0 1.7
v -6 0 1.6
v -4.8 0 1.6
v 4.8 0 1.6
v 6 0 1.6
v -5.1 0 -0.2
v -4.8 0 -0.2
v -4.7 0 -0.2
v -1 0 -0.2
v 1 0 -0.2
v 4.7 0 -0.2
v 4.8 0 -0.2
v 5.1 0 -0.2
v -5 0 -0.3
v -1.8 0 -0.3
v -1.7 0 -0.3
v -1.1 0 -0.3
v 1.1 0 -0.3
v 1.7 0 -0.3
v 1.8 0 -0.3
v 5 0 -0.3
v -5 0 -1.5
v -1.8 0 -1.5
v -1.7 0 -1.5
v -1.1 0 -1.5
v 1.1 0 -1.5
v 1.7 0 -1.5
v 1.8 0 -1.5
v 5 0 -1.5
v -6 0 -1.6
v -5.1 0 -1.6
v 5.1 0 -1.6
v 6 0 -1.6
v -6.3 0 -1.8
v -1 0 -1.8
v 1 0 -1.8
v 6.3 0 -1.8
v -6.3 0.9 1.8
v -4.6 0.9 1.8
v 4.6 0.9 1.8
v 6.3 0.9 1.8
v -6.3 0.9 1.7
v -4.7 0.9 1.7
v 4.7 0.9 1.7
v 6.3 0.9 1.7
v -4.6 0.9 -0.0999999
v -0.9 0.9 -0.0999999
v 0.9 0.9 -0.0999999
v 4.6 0.9 -0.0999999
v -4.7 0.9 -0.2
v -1 0.9 -0.2
v 1 0.9 -0.2
v 4.7 0.9 -0.2
v -1 0.9 -1.8
v -0.9 0.9 -1.8
v 0.9 0.9 -1.8
v 1 0.9 -1.8
v -6.3 1.2 1.8
v -4.6 1.2 1.8
v 4.6 1.2 1.8
v 6.3 1.2 1.8
v -4.6 1.2 -0.0999999
v -0.9 1.2 -0.0999999
v 0.9 1.2 -0.0999999
v 4.6 1.2 -0.0999999
v -6.3 1.2 -1.8
v -0.9 1.2 -1.8
v 0.9 1.2 -1.8
v 6.3 1.2 -1.8

# faces
f 3/5/1 2/5/1 1/5/1
f 4/5/1 2/5/1 3/5/1
f 5/5/1 3/5/1 1/5/1
f 6/4/1 4/4/1 3/4/1
f 6/5/1 3/5/1 5/5/1
f 7/5/1 2/5/1 4/5/1
f 7/4/1 4/4/1 6/4/1
f 8/5/1 2/5/1 7/5/1
f 9/4/1 6/4/1 5/4/1
f 9/5/1 5/5/1 1/5/1
f 9/4/1 8/4/1 7/4/1
f 9/4/1 7/4/1 6/4/1
f 10/4/1 8/4/1 9/4/1
f 11/4/1 8/4/1 10/4/1
f 12/5/1 2/5/1 8/5/1
f 12/4/1 8/4/1 11/4/1
f 13/4/1 11/4/1 10/4/1
f 13/5/1 10/5/1 9/5/1
f 14/5/1 12/5/1 11/5/1
f 14/4/1 11/4/1 13/4/1
f 16/5/1 9/5/1 1/5/1
f 16/5/1 13/5/1 9/5/1
f 16/5/1 14/5/1 13/5/1
f 17/5/1 2/5/1 12/5/1
f 17/5/1 12/5/1 14/5/1
f 17/5/1 14/5/1 16/5/1
f 18/2/1 16/2/1 15/2/1
f 18/2/1 17/2/1 16/2/1
f 19/2/1 17/2/1 18/2/1
f 20/3/1 19/3/1 18/3/1
f 21/3/1 19/3/1 20/3/1
f 22/2/1 21/2/1 20/2/1
f 23/2/1 21/2/1 22/2/1
f 26/2/1 25/2/1 24/2/1
f 27/2/1 25/2/1 26/2/1
f 28/3/1 27/3/1 26/3/1
f 29/3/1 27/3/1 28/3/1
f 30/2/1 29/2/1 28/2/1
f 31/2/1 29/2/1 30/2/1
f 34/5/1 33/5/1 32/5/1
f 35/5/1 33/5/1 34/5/1
f 36/5/1 34/5/1 32/5/1
f 37/4/1 35/4/1 34/4/1
f 37/5/1 34/5/1 36/5/1
f 38/5/1 33/5/1 35/5/1
f 38/4/1 35/4/1 37/4/1
f 39/5/1 33/5/1 38/5/1
f 40/4/1 37/4/1 36/4/1
f 40/5/1 36/5/1 32/5/1
f 40/4/1 39/4/1 38/4/1
f 40/4/1 38/4/1 37/4/1
f 41/4/1 39/4/1 40/4/1
f 42/4/1 39/4/1 41/4/1
f 43/5/1 33/5/1 39/5/1
f 43/4/1 39/4/1 42/4/1
f 44/4/1 42/4/1 41/4/1
f 44/5/1 41/5/1 40/5/1
f 45/5/1 43/5/1 42/5/1
f 45/4/1 42/4/1 44/4/1
f 46/5/1 40/5/1 32/5/1
f 46/5/1 44/5/1 40/5/1
f 46/5/1 45/5/1 44/5/1
f 47/5/1 33/5/1 43/5/1
f 47/5/1 45/5/1 46/5/1
f 47/5/1 43/5/1 45/5/1
f 50/2/1 49/2/1 48/2/1
f 51/2/1 49/2/1 50/2/1
f 52/3/1 51/3/1 50/3/1
f 53/3/1 51/3/1 52/3/1
f 54/2/1 53/2/1 52/2/1
f 55/2/1 53/2/1 54/2/1
f 58/5/1 57/5/1 56/5/1
f 59/5/1 57/5/1 58/5/1
f 60/5/1 58/5/1 56/5/1
f 61/4/1 59/4/1 58/4/1
f 61/5/1 58/5/1 60/5/1
f 62/5/1 57/5/1 59/5/1
f 62/4/1 59/4/1 61/4/1
f 63/5/1 57/5/1 62/5/1
f 64/4/1 61/4/1 60/4/1
f 64/5/1 60/5/1 56/5/1
f 64/4/1 63/4/1 62/4/1
f 64/4/1 62/4/1 61/4/1
f 65/4/1 63/4/1 64/4/1
f 66/4/1 63/4/1 65/4/1
f 67/5/1 57/5/1 63/5/1
f 67/4/1 63/4/1 66/4/1
f 68/4/1 66/4/1 65/4/1
f 68/5/1 65/5/1 64/5/1
f 69/5/1 67/5/1 66/5/1
f 69/4/1 66/4/1 68/4/1
f 70/5/1 64/5/1 56/5/1
f 70/5/1 68/5/1 64/5/1
f 70/5/1 69/5/1 68/5/1
f 71/5/1 57/5/1 67/5/1
f 71/5/1 69/5/1 70/5/1
f 71/5/1 67/5/1 69/5/1
f 72/5/2 73/5/2 74/5/2
f 74/5/2 73/5/2 75/5/2
f 72/5/2 74/5/2 76/5/2
f 74/4/2 75/4/2 77/4/2
f 76/5/2 74/5/2 77/5/2
f 75/5/2 73/5/2 78/5/2
f 77/4/2 75/4/2 78/4/2
f 78/5/2 73/5/2 79/5/2
f 76/4/2 77/4/2 80/4/2
f 72/5/2 76/5/2 80/5/2
f 78/4/2 79/4/2 80/4/2
f 77/4/2 78/4/2 80/4/2
f 80/4/2 79/4/2 81/4/2
f 81/4/2 79/4/2 82/4/2
f 79/5/2 73/5/2 83/5/2
f 82/4/2 79/4/2 83/4/2
f 81/4/2 82/4/2 84/4/2
f 80/5/2 81/5/2 84/5/2
f 82/5/2 83/5/2 85/5/2
f 84/4/2 82/4/2 85/4/2
f 72/5/2 80/5/2 86/5/2
f 80/5/2 84/5/2 86/5/2
f 84/5/2 85/5/2 86/5/2
f 83/5/2 73/5/2 87/5/2
f 86/5/2 85/5/2 87/5/2
f 85/5/2 83/5/2 87/5/2
f 88/2/2 89/2/2 90/2/2
f 90/2/2 89/2/2 91/2/2
f 90/3/2 91/3/2 92/3/2
f 92/3/2 91/3/2 93/3/2
f 92/2/2 93/2/2 94/2/2
f 94/2/2 93/2/2 95/2/2
f 96/5/2 97/5/2 98/5/2
f 98/5/2 97/5/2 99/5/2
f 96/5/2 98/5/2 100/5/2
f 98/4/2 99/4/2 101/4/2
f 100/5/2 98/5/2 101/5/2
f 99/5/2 97/5/2 102/5/2
f 101/4/2 99/4/2 102/4/2
f 102/5/2 97/5/2 103/5/2
f 100/4/2 101/4/2 104/4/2
f 96/5/2 100/5/2 104/5/2
f 102/4/2 103/4/2 104/4/2
f 101/4/2 102/4/2 104/4/2
f 104/4/2 103/4/2 105/4/2
f 105/4/2 103/4/2 106/4/2
f 103/5/2 97/5/2 107/5/2
f 106/4/2 103/4/2 107/4/2
f 105/4/2 106/4/2 108/4/2
f 104/5/2 105/5/2 108/5/2
f 106/5/2 107/5/2 109/5/2
f 108/4/2 106/4/2 109/4/2
f 96/5/2 104/5/2 110/5/2
f 104/5/2 108/5/2 110/5/2
f 108/5/2 109/5/2 110/5/2
f 107/5/2 97/5/2 111/5/2
f 110/5/2 109/5/2 111/5/2
f 109/5/2 107/5/2 111/5/2
f 112/2/2 113/2/2 114/2/2
f 114/2/2 113/2/2 115/2/2
f 114/3/2 115/3/2 116/3/2
f 116/3/2 115/3/2 117/3/2
f 116/2/2 117/2/2 118/2/2
f 118/2/2 117/2/2 119/2/2
f 120/5/2 121/5/2 122/5/2
f 122/5/2 121/5/2 123/5/2
f 120/5/2 122/5/2 124/5/2
f 122/4/2 123/4/2 125/4/2
f 124/5/2 122/5/2 125/5/2
f 123/5/2 121/5/2 126/5/2
f 125/4/2 123/4/2 126/4/2
f 126/5/2 121/5/2 127/5/2
f 124/4/2 125/4/2 128/4/2
f 120/5/2 124/5/2 128/5/2
f 126/4/2 127/4/2 128/4/2
f 125/4/2 126/4/2 128/4/2
f 128/4/2 127/4/2 129/4/2
f 129/4/2 127/4/2 130/4/2
f 127/5/2 121/5/2 131/5/2
f 130/4/2 127/4/2 131/4/2
f 129/4/2 130/4/2 132/4/2
f 128/5/2 129/5/2 132/5/2
f 130/5/2 131/5/2 133/5/2
f 132/4/2 130/4/2 133/4/2
f 120/5/2 128/5/2 135/5/2
f 128/5/2 132/5/2 135/5/2
f 132/5/2 133/5/2 135/5/2
f 131/5/2 121/5/2 136/5/2
f 133/5/2 131/5/2 136/5/2
f 135/5/2 133/5/2 136/5/2
f 134/2/2 135/2/2 137/2/2
f 135/2/2 136/2/2 137/2/2
f 137/2/2 136/2/2 138/2/2
f 137/3/2 138/3/2 139/3/2
f 139/3/2 138/3/2 140/3/2
f 139/2/2 140/2/2 141/2/2
f 141/2/2 140/2/2 142/2/2
f 147/2/3 144/2/3 143/2/3
f 148/3/3 145/3/3 144/3/3
f 148/2/3 144/2/3 147/2/3
f 149/2/3 146/2/3 145/2/3
f 149/3/3 145/3/3 148/3/3
f 150/2/3 146/2/3 149/2/3
f 155/2/3 152/2/3 151/2/3
f 156/3/3 153/3/3 152/3/3
f 156/2/3 152/2/3 155/2/3
f 157/2/3 154/2/3 153/2/3
f 157/3/3 153/3/3 156/3/3
f 158/2/3 154/2/3 157/2/3
f 161/5/3 160/5/3 159/5/3
f 162/5/3 160/5/3 161/5/3
f 163/5/3 161/5/3 159/5/3
f 164/4/3 162/4/3 161/4/3
f 164/5/3 161/5/3 163/5/3
f 165/5/3 160/5/3 162/5/3
f 165/4/3 162/4/3 164/4/3
f 166/5/3 160/5/3 165/5/3
f 167/4/3 164/4/3 163/4/3
f 167/5/3 163/5/3 159/5/3
f 167/4/3 166/4/3 165/4/3
f 167/4/3 165/4/3 164/4/3
f 168/4/3 166/4/3 167/4/3
f 169/4/3 166/4/3 168/4/3
f 170/5/3 160/5/3 166/5/3
f 170/4/3 166/4/3 169/4/3
f 171/4/3 169/4/3 168/4/3
f 171/5/3 168/5/3 167/5/3
f 172/5/3 170/5/3 169/5/3
f 172/4/3 169/4/3 171/4/3
f 173/5/3 167/5/3 159/5/3
f 173/5/3 171/5/3 167/5/3
f 173/5/3 172/5/3 171/5/3
f 174/5/3 160/5/3 170/5/3
f 174/5/3 172/5/3 173/5/3
f 174/5/3 170/5/3 172/5/3
f 177/5/3 176/5/3 175/5/3
f 178/5/3 176/5/3 177/5/3
f 179/5/3 177/5/3 175/5/3
f 180/4/3 178/4/3 177/4/3
f 180/5/3 177/5/3 179/5/3
f 181/5/3 176/5/3 178/5/3
f 181/4/3 178/4/3 180/4/3
f 182/5/3 176/5/3 181/5/3
f 183/4/3 180/4/3 179/4/3
f 183/5/3 179/5/3 175/5/3
f 183/4/3 182/4/3 181/4/3
f 183/4/3 181/4/3 180/4/3
f 184/4/3 182/4/3 183/4/3
f 185/4/3 182/4/3 184/4/3
f 186/5/3 176/5/3 182/5/3
f 186/4/3 182/4/3 185/4/3
f 187/4/3 185/4/3 184/4/3
f 187/5/3 184/5/3 183/5/3
f 188/5/3 186/5/3 185/5/3
f 188/4/3 185/4/3 187/4/3
f 189/5/3 183/5/3 175/5/3
f 189/5/3 187/5/3 183/5/3
f 189/5/3 188/5/3 187/5/3
f 190/5/3 176/5/3 186/5/3
f 190/5/3 188/5/3 189/5/3
f 190/5/3 186/5/3 188/5/3
f 195/2/3 192/2/3 191/2/3
f 196/3/3 193/3/3 192/3/3
f 196/2/3 192/2/3 195/2/3
f 197/2/3 194/2/3 193/2/3
f 197/3/3 193/3/3 196/3/3
f 198/2/3 194/2/3 197/2/3
f 203/2/3 200/2/3 199/2/3
f 204/3/3 201/3/3 200/3/3
f 204/2/3 200/2/3 203/2/3
f 205/2/3 202/2/3 201/2/3
f 205/3/3 201/3/3 204/3/3
f 206/2/3 202/2/3 205/2/3
f 209/5/3 208/5/3 207/5/3
f 210/5/3 208/5/3 209/5/3
f 211/5/3 209/5/3 207/5/3
f 212/4/3 210/4/3 209/4/3
f 212/5/3 209/5/3 211/5/3
f 213/5/3 208/5/3 210/5/3
f 213/4/3 210/4/3 212/4/3
f 214/5/3 208/5/3 213/5/3
f 215/4/3 212/4/3 211/4/3
f 215/5/3 211/5/3 207/5/3
f 215/4/3 214/4/3 213/4/3
f 215/4/3 213/4/3 212/4/3
f 216/4/3 214/4/3 215/4/3
f 217/4/3 214/4/3 216/4/3
f 218/5/3 208/5/3 214/5/3
f 218/4/3 214/4/3 217/4/3
f 219/4/3 217/4/3 216/4/3
f 219/5/3 216/5/3 215/5/3
f 220/5/3 218/5/3 217/5/3
f 220/4/3 217/4/3 219/4/3
f 221/5/3 215/5/3 207/5/3
f 221/5/3 219/5/3 215/5/3
f 221/5/3 220/5/3 219/5/3
f 222/5/3 208/5/3 218/5/3
f 222/5/3 220/5/3 221/5/3
f 222/5/3 218/5/3 220/5/3
f 225/5/3 224/5/3 223/5/3
f 226/5/3 224/5/3 225/5/3
f 227/5/3 225/5/3 223/5/3
f 228/4/3 226/4/3 225/4/3
f 228/5/3 225/5/3 227/5/3
f 229/5/3 224/5/3 226/5/3
f 229/4/3 226/4/3 228/4/3
f 230/5/3 224/5/3 229/5/3
f 231/4/3 228/4/3 227/4/3
f 231/5/3 227/5/3 223/5/3
f 231/4/3 230/4/3 229/4/3
f 231/4/3 229/4/3 228/4/3
f 232/4/3 230/4/3 231/4/3
f 233/4/3 230/4/3 232/4/3
f 234/5/3 224/5/3 230/5/3
f 234/4/3 230/4/3 233/4/3
f 235/4/3 233/4/3 232/4/3
f 235/5/3 232/5/3 231/5/3
f 236/5/3 234/5/3 233/5/3
f 236/4/3 233/4/3 235/4/3
f 237/5/3 231/5/3 223/5/3
f 237/5/3 235/5/3 231/5/3
f 237/5/3 236/5/3 235/5/3
f 238/5/3 224/5/3 234/5/3
f 238/5/3 236/5/3 237/5/3
f 238/5/3 234/5/3 236/5/3
f 239/5/4 240/5/4 244/5/4
f 244/5/4 240/5/4 245/5/4
f 239/5/4 244/5/4 246/5/4
f 244/4/4 245/4/4 247/4/4
f 246/5/4 244/5/4 247/5/4
f 245/5/4 240/5/4 248/5/4
f 247/4/4 245/4/4 248/4/4
f 248/5/4 240/5/4 249/5/4
f 246/4/4 247/4/4 250/4/4
f 239/5/4 246/5/4 250/5/4
f 248/4/4 249/4/4 250/4/4
f 247/4/4 248/4/4 250/4/4
f 250/4/4 249/4/4 251/4/4
f 251/4/4 249/4/4 252/4/4
f 249/5/4 240/5/4 253/5/4
f 252/4/4 249/4/4 253/4/4
f 251/4/4 252/4/4 254/4/4
f 250/5/4 251/5/4 254/5/4
f 252/5/4 253/5/4 255/5/4
f 254/4/4 252/4/4 255/4/4
f 239/5/4 250/5/4 256/5/4
f 250/5/4 254/5/4 256/5/4
f 254/5/4 255/5/4 256/5/4
f 240/2/4 241/2/4 257/2/4
f 256/5/4 255/5/4 257/5/4
f 253/5/4 240/5/4 257/5/4
f 255/5/4 253/5/4 257/5/4
f 257/2/4 241/2/4 258/2/4
f 241/3/4 242/3/4 259/3/4
f 258/2/4 241/2/4 259/2/4
f 242/2/4 243/2/4 260/2/4
f 259/3/4 242/3/4 260/3/4
f 260/2/4 243/2/4 261/2/4
f 262/2/4 263/2/4 267/2/4
f 266/5/4 267/5/4 268/5/4
f 268/5/4 267/5/4 269/5/4
f 266/5/4 268/5/4 270/5/4
f 268/4/4 269/4/4 271/4/4
f 270/5/4 268/5/4 271/5/4
f 269/5/4 267/5/4 272/5/4
f 271/4/4 269/4/4 272/4/4
f 272/5/4 267/5/4 273/5/4
f 270/4/4 271/4/4 274/4/4
f 266/5/4 270/5/4 274/5/4
f 272/4/4 273/4/4 274/4/4
f 271/4/4 272/4/4 274/4/4
f 274/4/4 273/4/4 275/4/4
f 275/4/4 273/4/4 276/4/4
f 273/5/4 267/5/4 277/5/4
f 276/4/4 273/4/4 277/4/4
f 275/4/4 276/4/4 278/4/4
f 274/5/4 275/5/4 278/5/4
f 276/5/4 277/5/4 279/5/4
f 278/4/4 276/4/4 279/4/4
f 266/5/4 274/5/4 280/5/4
f 274/5/4 278/5/4 280/5/4
f 278/5/4 279/5/4 280/5/4
f 267/2/4 263/2/4 281/2/4
f 280/5/4 279/5/4 281/5/4
f 277/5/4 267/5/4 281/5/4
f 279/5/4 277/5/4 281/5/4
f 263/3/4 264/3/4 282/3/4
f 281/2/4 263/2/4 282/2/4
f 264/2/4 265/2/4 283/2/4
f 282/3/4 264/3/4 283/3/4
f 283/2/4 265/2/4 284/2/4
f 289/5/5 286/5/5 285/5/5
f 290/5/5 286/5/5 289/5/5
f 291/5/5 288/5/5 287/5/5
f 292/5/5 288/5/5 291/5/5
f 293/4/5 290/4/5 289/4/5
f 294/5/5 286/5/5 290/5/5
f 294/4/5 290/4/5 293/4/5
f 295/5/5 286/5/5 294/5/5
f 298/5/5 291/5/5 287/5/5
f 299/4/5 292/4/5 291/4/5
f 299/5/5 291/5/5 298/5/5
f 300/4/5 292/4/5 299/4/5
f 301/5/5 296/5/5 295/5/5
f 301/5/5 294/5/5 293/5/5
f 301/5/5 295/5/5 294/5/5
f 302/5/5 296/5/5 301/5/5
f 303/5/5 296/5/5 302/5/5
f 304/5/5 296/5/5 303/5/5
f 305/5/5 298/5/5 297/5/5
f 305/5/5 300/5/5 299/5/5
f 305/5/5 299/5/5 298/5/5
f 306/5/5 300/5/5 305/5/5
f 307/5/5 300/5/5 306/5/5
f 308/5/5 300/5/5 307/5/5
f 309/5/5 301/5/5 293/5/5
f 309/4/5 302/4/5 301/4/5
f 310/5/5 303/5/5 302/5/5
f 310/4/5 302/4/5 309/4/5
f 311/4/5 304/4/5 303/4/5
f 311/5/5 303/5/5 310/5/5
f 312/5/5 296/5/5 304/5/5
f 312/4/5 304/4/5 311/4/5
f 313/5/5 305/5/5 297/5/5
f 313/4/5 306/4/5 305/4/5
f 314/5/5 307/5/5 306/5/5
f 314/4/5 306/4/5 313/4/5
f 315/4/5 308/4/5 307/4/5
f 315/5/5 307/5/5 314/5/5
f 316/5/5 300/5/5 308/5/5
f 316/4/5 308/4/5 315/4/5
f 317/4/5 293/4/5 289/4/5
f 317/5/5 289/5/5 285/5/5
f 318/5/5 311/5/5 310/5/5
f 318/4/5 293/4/5 317/4/5
f 318/5/5 310/5/5 309/5/5
f 318/5/5 309/5/5 293/5/5
f 318/5/5 312/5/5 311/5/5
f 319/5/5 300/5/5 316/5/5
f 319/5/5 316/5/5 315/5/5
f 319/4/5 292/4/5 300/4/5
f 319/5/5 314/5/5 313/5/5
f 319/5/5 315/5/5 314/5/5
f 320/5/5 288/5/5 292/5/5
f 320/4/5 292/4/5 319/4/5
f 321/5/5 318/5/5 317/5/5
f 321/5/5 317/5/5 285/5/5
f 322/5/5 312/5/5 318/5/5
f 322/5/5 318/5/5 321/5/5
f 322/5/5 296/5/5 312/5/5
f 323/5/5 319/5/5 313/5/5
f 323/5/5 320/5/5 319/5/5
f 323/5/5 313/5/5 297/5/5
f 324/5/5 288/5/5 320/5/5
f 324/5/5 320/5/5 323/5/5
f 329/2/5 326/2/5 325/2/5
f 330/2/5 326/2/5 329/2/5
f 331/2/5 328/2/5 327/2/5
f 332/2/5 328/2/5 331/2/5
f 333/2/5 326/2/5 330/2/5
f 336/2/5 331/2/5 327/2/5
f 337/2/5 334/2/5 333/2/5
f 337/2/5 333/2/5 330/2/5
f 338/2/5 334/2/5 337/2/5
f 339/2/5 336/2/5 335/2/5
f 340/2/5 331/2/5 336/2/5
f 340/2/5 336/2/5 339/2/5
f 341/2/5 334/2/5 338/2/5
f 342/2/5 334/2/5 341/2/5
f 343/2/5 339/2/5 335/2/5
f 344/2/5 339/2/5 343/2/5
f 345/2/6 346/2/6 349/2/6
f 347/2/6 348/2/6 352/2/6
f 349/2/6 350/2/6 353/2/6
f 345/2/6 349/2/6 353/2/6
f 353/2/6 350/2/6 354/2/6
f 351/2/6 352/2/6 355/2/6
f 352/2/6 348/2/6 356/2/6
f 355/2/6 352/2/6 356/2/6
