# MagicaVoxel @ Ephtracy

# group
o 

# material
mtllib level_1.3.mtl
usemtl palette

# normals
vn -1 0 0
vn 1 0 0
vn 0 0 1
vn 0 0 -1
vn 0 -1 0
vn 0 1 0

# texcoords
vt 0.291016 0.5
vt 0.298828 0.5
vt 0.302734 0.5
vt 0.306641 0.5
vt 0.310547 0.5
vt 0.474609 0.5

# verts
v -4.4 0.9 4.4
v -4.4 0.9 -2.8
v -4.4 1 4.4
v -4.4 1 -2.8
v -4.4 1.1 4.4
v -4.4 1.1 -2.8
v -4.4 1.2 4.4
v -4.4 1.2 -2.8
v -4.3 0 4.4
v -4.3 0 -2.7
v -4.3 0.1 4.2
v -4.3 0.1 -2.5
v -4.3 0.2 4.3
v -4.3 0.2 4.2
v -4.3 0.2 -2.5
v -4.3 0.2 -2.6
v -4.3 0.7 4.3
v -4.3 0.7 4.2
v -4.3 0.7 -2.5
v -4.3 0.7 -2.6
v -4.3 0.8 4.2
v -4.3 0.8 -2.5
v -4.3 0.9 4.4
v -4.3 0.9 -2.7
v -0.9 0.9 -2.9
v -0.9 0.9 -4.5
v -0.9 1 -2.9
v -0.9 1 -4.5
v -0.9 1.1 -2.9
v -0.9 1.1 -4.5
v -0.9 1.2 -2.9
v -0.9 1.2 -4.5
v -0.8 0 -3
v -0.8 0 -4.4
v -0.8 0.1 -3.2
v -0.8 0.1 -4.2
v -0.8 0.2 -3.1
v -0.8 0.2 -3.2
v -0.8 0.2 -4.2
v -0.8 0.2 -4.3
v -0.8 0.7 -3.1
v -0.8 0.7 -3.2
v -0.8 0.7 -4.2
v -0.8 0.7 -4.3
v -0.8 0.8 -3.2
v -0.8 0.8 -4.2
v -0.8 0.9 -3
v -0.8 0.9 -4.4
v -2.9 0 4.4
v -2.9 0 -2.7
v -2.9 0.1 4.2
v -2.9 0.1 -2.5
v -2.9 0.2 4.3
v -2.9 0.2 4.2
v -2.9 0.2 -2.5
v -2.9 0.2 -2.6
v -2.9 0.7 4.3
v -2.9 0.7 4.2
v -2.9 0.7 -2.5
v -2.9 0.7 -2.6
v -2.9 0.8 4.2
v -2.9 0.8 -2.5
v -2.9 0.9 4.4
v -2.9 0.9 -2.7
v -2.8 0.9 4.4
v -2.8 0.9 -2.8
v -2.8 1 4.4
v -2.8 1 -2.8
v -2.8 1.1 4.4
v -2.8 1.1 -2.8
v -2.8 1.2 4.4
v -2.8 1.2 -2.8
v 4.5 0 -3
v 4.5 0 -4.4
v 4.5 0.1 -3.2
v 4.5 0.1 -4.2
v 4.5 0.2 -3.1
v 4.5 0.2 -3.2
v 4.5 0.2 -4.2
v 4.5 0.2 -4.3
v 4.5 0.7 -3.1
v 4.5 0.7 -3.2
v 4.5 0.7 -4.2
v 4.5 0.7 -4.3
v 4.5 0.8 -3.2
v 4.5 0.8 -4.2
v 4.5 0.9 -2.9
v 4.5 0.9 -3
v 4.5 0.9 -4.4
v 4.5 0.9 -4.5
v 4.5 1 -2.9
v 4.5 1 -4.5
v 4.5 1.1 -2.9
v 4.5 1.1 -4.5
v 4.5 1.2 -2.9
v 4.5 1.2 -4.5
v -4.4 0.9 4.4
v -4.4 1 4.4
v -4.4 1.1 4.4
v -4.4 1.2 4.4
v -4.3 0 4.4
v -4.3 0.9 4.4
v -4.2 0.2 4.4
v -4.2 0.7 4.4
v -4.1 0.1 4.4
v -4.1 0.2 4.4
v -4.1 0.7 4.4
v -4.1 0.8 4.4
v -3.1 0.1 4.4
v -3.1 0.2 4.4
v -3.1 0.7 4.4
v -3.1 0.8 4.4
v -3 0.2 4.4
v -3 0.7 4.4
v -2.9 0 4.4
v -2.9 0.9 4.4
v -2.8 0.9 4.4
v -2.8 1 4.4
v -2.8 1.1 4.4
v -2.8 1.2 4.4
v -0.9 0.9 -2.9
v -0.9 1 -2.9
v -0.9 1.1 -2.9
v -0.9 1.2 -2.9
v 4.5 0.9 -2.9
v 4.5 1 -2.9
v 4.5 1.1 -2.9
v 4.5 1.2 -2.9
v -0.8 0 -3
v -0.8 0.9 -3
v -0.7 0.2 -3
v -0.7 0.7 -3
v -0.6 0.1 -3
v -0.6 0.2 -3
v -0.6 0.7 -3
v -0.6 0.8 -3
v 4.3 0.1 -3
v 4.3 0.2 -3
v 4.3 0.7 -3
v 4.3 0.8 -3
v 4.4 0.2 -3
v 4.4 0.7 -3
v 4.5 0 -3
v 4.5 0.9 -3
v -4.3 0 -2.7
v -4.3 0.9 -2.7
v -4.2 0.2 -2.7
v -4.2 0.7 -2.7
v -4.1 0.1 -2.7
v -4.1 0.2 -2.7
v -4.1 0.7 -2.7
v -4.1 0.8 -2.7
v -3.1 0.1 -2.7
v -3.1 0.2 -2.7
v -3.1 0.7 -2.7
v -3.1 0.8 -2.7
v -3 0.2 -2.7
v -3 0.7 -2.7
v -2.9 0 -2.7
v -2.9 0.9 -2.7
v -4.4 0.9 -2.8
v -4.4 1 -2.8
v -4.4 1.1 -2.8
v -4.4 1.2 -2.8
v -2.8 0.9 -2.8
v -2.8 1 -2.8
v -2.8 1.1 -2.8
v -2.8 1.2 -2.8
v -0.8 0 -4.4
v -0.8 0.9 -4.4
v -0.7 0.2 -4.4
v -0.7 0.7 -4.4
v -0.6 0.1 -4.4
v -0.6 0.2 -4.4
v -0.6 0.7 -4.4
v -0.6 0.8 -4.4
v 4.3 0.1 -4.4
v 4.3 0.2 -4.4
v 4.3 0.7 -4.4
v 4.3 0.8 -4.4
v 4.4 0.2 -4.4
v 4.4 0.7 -4.4
v 4.5 0 -4.4
v 4.5 0.9 -4.4
v -0.9 0.9 -4.5
v -0.9 1 -4.5
v -0.9 1.1 -4.5
v -0.9 1.2 -4.5
v 4.5 0.9 -4.5
v 4.5 1 -4.5
v 4.5 1.1 -4.5
v 4.5 1.2 -4.5
v -4.3 0 4.4
v -2.9 0 4.4
v -4.2 0 4.3
v -3 0 4.3
v -4.2 0 -2.6
v -3 0 -2.6
v -4.3 0 -2.7
v -2.9 0 -2.7
v -0.8 0 -3
v 4.5 0 -3
v -0.7 0 -3.1
v 0.7 0 -3.1
v 2.5 0 -3.1
v 4.4 0 -3.1
v -0.7 0 -4.3
v 0.7 0 -4.3
v 2.5 0 -4.3
v 4.4 0 -4.3
v -0.8 0 -4.4
v 4.5 0 -4.4
v -4.4 0.9 4.4
v -4.3 0.9 4.4
v -2.9 0.9 4.4
v -2.8 0.9 4.4
v -4.3 0.9 -2.7
v -2.9 0.9 -2.7
v -4.4 0.9 -2.8
v -2.8 0.9 -2.8
v -0.9 0.9 -2.9
v 4.5 0.9 -2.9
v -0.8 0.9 -3
v 4.5 0.9 -3
v -0.8 0.9 -4.4
v 4.5 0.9 -4.4
v -0.9 0.9 -4.5
v 4.5 0.9 -4.5
v -4.4 1.2 4.4
v -2.8 1.2 4.4
v -4.4 1.2 -2.8
v -2.8 1.2 -2.8
v -0.9 1.2 -2.9
v 4.5 1.2 -2.9
v -0.9 1.2 -4.5
v 4.5 1.2 -4.5

# faces
f 3/2/1 2/2/1 1/2/1
f 4/2/1 2/2/1 3/2/1
f 5/3/1 4/3/1 3/3/1
f 6/3/1 4/3/1 5/3/1
f 7/2/1 6/2/1 5/2/1
f 8/2/1 6/2/1 7/2/1
f 11/5/1 10/5/1 9/5/1
f 12/5/1 10/5/1 11/5/1
f 13/5/1 11/5/1 9/5/1
f 14/4/1 12/4/1 11/4/1
f 14/5/1 11/5/1 13/5/1
f 15/5/1 10/5/1 12/5/1
f 15/4/1 12/4/1 14/4/1
f 16/5/1 10/5/1 15/5/1
f 17/4/1 14/4/1 13/4/1
f 17/5/1 13/5/1 9/5/1
f 17/4/1 16/4/1 15/4/1
f 17/4/1 15/4/1 14/4/1
f 18/4/1 16/4/1 17/4/1
f 19/4/1 16/4/1 18/4/1
f 20/5/1 10/5/1 16/5/1
f 20/4/1 16/4/1 19/4/1
f 21/4/1 19/4/1 18/4/1
f 21/5/1 18/5/1 17/5/1
f 22/5/1 20/5/1 19/5/1
f 22/4/1 19/4/1 21/4/1
f 23/5/1 17/5/1 9/5/1
f 23/5/1 21/5/1 17/5/1
f 23/5/1 22/5/1 21/5/1
f 24/5/1 10/5/1 20/5/1
f 24/5/1 22/5/1 23/5/1
f 24/5/1 20/5/1 22/5/1
f 27/2/1 26/2/1 25/2/1
f 28/2/1 26/2/1 27/2/1
f 29/3/1 28/3/1 27/3/1
f 30/3/1 28/3/1 29/3/1
f 31/2/1 30/2/1 29/2/1
f 32/2/1 30/2/1 31/2/1
f 35/5/1 34/5/1 33/5/1
f 36/5/1 34/5/1 35/5/1
f 37/5/1 35/5/1 33/5/1
f 38/4/1 36/4/1 35/4/1
f 38/5/1 35/5/1 37/5/1
f 39/5/1 34/5/1 36/5/1
f 39/4/1 36/4/1 38/4/1
f 40/5/1 34/5/1 39/5/1
f 41/4/1 38/4/1 37/4/1
f 41/5/1 37/5/1 33/5/1
f 41/4/1 40/4/1 39/4/1
f 41/4/1 39/4/1 38/4/1
f 42/4/1 40/4/1 41/4/1
f 43/4/1 40/4/1 42/4/1
f 44/5/1 34/5/1 40/5/1
f 44/4/1 40/4/1 43/4/1
f 45/4/1 43/4/1 42/4/1
f 45/5/1 42/5/1 41/5/1
f 46/5/1 44/5/1 43/5/1
f 46/4/1 43/4/1 45/4/1
f 47/5/1 41/5/1 33/5/1
f 47/5/1 45/5/1 41/5/1
f 47/5/1 46/5/1 45/5/1
f 48/5/1 34/5/1 44/5/1
f 48/5/1 46/5/1 47/5/1
f 48/5/1 44/5/1 46/5/1
f 49/5/2 50/5/2 51/5/2
f 51/5/2 50/5/2 52/5/2
f 49/5/2 51/5/2 53/5/2
f 51/4/2 52/4/2 54/4/2
f 53/5/2 51/5/2 54/5/2
f 52/5/2 50/5/2 55/5/2
f 54/4/2 52/4/2 55/4/2
f 55/5/2 50/5/2 56/5/2
f 53/4/2 54/4/2 57/4/2
f 49/5/2 53/5/2 57/5/2
f 55/4/2 56/4/2 57/4/2
f 54/4/2 55/4/2 57/4/2
f 57/4/2 56/4/2 58/4/2
f 58/4/2 56/4/2 59/4/2
f 56/5/2 50/5/2 60/5/2
f 59/4/2 56/4/2 60/4/2
f 58/4/2 59/4/2 61/4/2
f 57/5/2 58/5/2 61/5/2
f 59/5/2 60/5/2 62/5/2
f 61/4/2 59/4/2 62/4/2
f 49/5/2 57/5/2 63/5/2
f 57/5/2 61/5/2 63/5/2
f 61/5/2 62/5/2 63/5/2
f 60/5/2 50/5/2 64/5/2
f 63/5/2 62/5/2 64/5/2
f 62/5/2 60/5/2 64/5/2
f 65/2/2 66/2/2 67/2/2
f 67/2/2 66/2/2 68/2/2
f 67/3/2 68/3/2 69/3/2
f 69/3/2 68/3/2 70/3/2
f 69/2/2 70/2/2 71/2/2
f 71/2/2 70/2/2 72/2/2
f 73/5/2 74/5/2 75/5/2
f 75/5/2 74/5/2 76/5/2
f 73/5/2 75/5/2 77/5/2
f 75/4/2 76/4/2 78/4/2
f 77/5/2 75/5/2 78/5/2
f 76/5/2 74/5/2 79/5/2
f 78/4/2 76/4/2 79/4/2
f 79/5/2 74/5/2 80/5/2
f 77/4/2 78/4/2 81/4/2
f 73/5/2 77/5/2 81/5/2
f 79/4/2 80/4/2 81/4/2
f 78/4/2 79/4/2 81/4/2
f 81/4/2 80/4/2 82/4/2
f 82/4/2 80/4/2 83/4/2
f 80/5/2 74/5/2 84/5/2
f 83/4/2 80/4/2 84/4/2
f 82/4/2 83/4/2 85/4/2
f 81/5/2 82/5/2 85/5/2
f 83/5/2 84/5/2 86/5/2
f 85/4/2 83/4/2 86/4/2
f 73/5/2 81/5/2 88/5/2
f 81/5/2 85/5/2 88/5/2
f 85/5/2 86/5/2 88/5/2
f 84/5/2 74/5/2 89/5/2
f 86/5/2 84/5/2 89/5/2
f 88/5/2 86/5/2 89/5/2
f 87/2/2 88/2/2 91/2/2
f 89/2/2 90/2/2 91/2/2
f 88/2/2 89/2/2 91/2/2
f 91/2/2 90/2/2 92/2/2
f 91/3/2 92/3/2 93/3/2
f 93/3/2 92/3/2 94/3/2
f 93/2/2 94/2/2 95/2/2
f 95/2/2 94/2/2 96/2/2
f 102/2/3 98/2/3 97/2/3
f 103/5/3 102/5/3 101/5/3
f 104/5/3 102/5/3 103/5/3
f 105/5/3 103/5/3 101/5/3
f 106/4/3 104/4/3 103/4/3
f 106/5/3 103/5/3 105/5/3
f 107/5/3 102/5/3 104/5/3
f 107/4/3 104/4/3 106/4/3
f 108/5/3 102/5/3 107/5/3
f 109/4/3 106/4/3 105/4/3
f 109/5/3 105/5/3 101/5/3
f 109/4/3 108/4/3 107/4/3
f 109/4/3 107/4/3 106/4/3
f 110/4/3 108/4/3 109/4/3
f 111/4/3 108/4/3 110/4/3
f 112/5/3 102/5/3 108/5/3
f 112/4/3 108/4/3 111/4/3
f 113/4/3 111/4/3 110/4/3
f 113/5/3 110/5/3 109/5/3
f 114/5/3 112/5/3 111/5/3
f 114/4/3 111/4/3 113/4/3
f 115/5/3 109/5/3 101/5/3
f 115/5/3 113/5/3 109/5/3
f 115/5/3 114/5/3 113/5/3
f 116/2/3 98/2/3 102/2/3
f 116/5/3 114/5/3 115/5/3
f 116/5/3 102/5/3 112/5/3
f 116/5/3 112/5/3 114/5/3
f 117/2/3 98/2/3 116/2/3
f 118/3/3 99/3/3 98/3/3
f 118/2/3 98/2/3 117/2/3
f 119/2/3 100/2/3 99/2/3
f 119/3/3 99/3/3 118/3/3
f 120/2/3 100/2/3 119/2/3
f 125/2/3 122/2/3 121/2/3
f 126/3/3 123/3/3 122/3/3
f 126/2/3 122/2/3 125/2/3
f 127/2/3 124/2/3 123/2/3
f 127/3/3 123/3/3 126/3/3
f 128/2/3 124/2/3 127/2/3
f 131/5/3 130/5/3 129/5/3
f 132/5/3 130/5/3 131/5/3
f 133/5/3 131/5/3 129/5/3
f 134/4/3 132/4/3 131/4/3
f 134/5/3 131/5/3 133/5/3
f 135/5/3 130/5/3 132/5/3
f 135/4/3 132/4/3 134/4/3
f 136/5/3 130/5/3 135/5/3
f 137/4/3 134/4/3 133/4/3
f 137/5/3 133/5/3 129/5/3
f 137/4/3 136/4/3 135/4/3
f 137/4/3 135/4/3 134/4/3
f 138/4/3 136/4/3 137/4/3
f 139/4/3 136/4/3 138/4/3
f 140/5/3 130/5/3 136/5/3
f 140/4/3 136/4/3 139/4/3
f 141/4/3 139/4/3 138/4/3
f 141/5/3 138/5/3 137/5/3
f 142/5/3 140/5/3 139/5/3
f 142/4/3 139/4/3 141/4/3
f 143/5/3 137/5/3 129/5/3
f 143/5/3 141/5/3 137/5/3
f 143/5/3 142/5/3 141/5/3
f 144/5/3 130/5/3 140/5/3
f 144/5/3 142/5/3 143/5/3
f 144/5/3 140/5/3 142/5/3
f 145/5/4 146/5/4 147/5/4
f 147/5/4 146/5/4 148/5/4
f 145/5/4 147/5/4 149/5/4
f 147/4/4 148/4/4 150/4/4
f 149/5/4 147/5/4 150/5/4
f 148/5/4 146/5/4 151/5/4
f 150/4/4 148/4/4 151/4/4
f 151/5/4 146/5/4 152/5/4
f 149/4/4 150/4/4 153/4/4
f 145/5/4 149/5/4 153/5/4
f 151/4/4 152/4/4 153/4/4
f 150/4/4 151/4/4 153/4/4
f 153/4/4 152/4/4 154/4/4
f 154/4/4 152/4/4 155/4/4
f 152/5/4 146/5/4 156/5/4
f 155/4/4 152/4/4 156/4/4
f 154/4/4 155/4/4 157/4/4
f 153/5/4 154/5/4 157/5/4
f 155/5/4 156/5/4 158/5/4
f 157/4/4 155/4/4 158/4/4
f 145/5/4 153/5/4 159/5/4
f 153/5/4 157/5/4 159/5/4
f 157/5/4 158/5/4 159/5/4
f 156/5/4 146/5/4 160/5/4
f 159/5/4 158/5/4 160/5/4
f 158/5/4 156/5/4 160/5/4
f 161/2/4 162/2/4 165/2/4
f 162/3/4 163/3/4 166/3/4
f 165/2/4 162/2/4 166/2/4
f 163/2/4 164/2/4 167/2/4
f 166/3/4 163/3/4 167/3/4
f 167/2/4 164/2/4 168/2/4
f 169/5/4 170/5/4 171/5/4
f 171/5/4 170/5/4 172/5/4
f 169/5/4 171/5/4 173/5/4
f 171/4/4 172/4/4 174/4/4
f 173/5/4 171/5/4 174/5/4
f 172/5/4 170/5/4 175/5/4
f 174/4/4 172/4/4 175/4/4
f 175/5/4 170/5/4 176/5/4
f 173/4/4 174/4/4 177/4/4
f 169/5/4 173/5/4 177/5/4
f 175/4/4 176/4/4 177/4/4
f 174/4/4 175/4/4 177/4/4
f 177/4/4 176/4/4 178/4/4
f 178/4/4 176/4/4 179/4/4
f 176/5/4 170/5/4 180/5/4
f 179/4/4 176/4/4 180/4/4
f 178/4/4 179/4/4 181/4/4
f 177/5/4 178/5/4 181/5/4
f 179/5/4 180/5/4 182/5/4
f 181/4/4 179/4/4 182/4/4
f 169/5/4 177/5/4 183/5/4
f 177/5/4 181/5/4 183/5/4
f 181/5/4 182/5/4 183/5/4
f 180/5/4 170/5/4 184/5/4
f 183/5/4 182/5/4 184/5/4
f 182/5/4 180/5/4 184/5/4
f 185/2/4 186/2/4 189/2/4
f 186/3/4 187/3/4 190/3/4
f 189/2/4 186/2/4 190/2/4
f 187/2/4 188/2/4 191/2/4
f 190/3/4 187/3/4 191/3/4
f 191/2/4 188/2/4 192/2/4
f 195/5/5 194/5/5 193/5/5
f 196/5/5 194/5/5 195/5/5
f 197/5/5 195/5/5 193/5/5
f 197/4/5 196/4/5 195/4/5
f 198/5/5 194/5/5 196/5/5
f 198/4/5 196/4/5 197/4/5
f 199/5/5 197/5/5 193/5/5
f 199/5/5 198/5/5 197/5/5
f 200/5/5 194/5/5 198/5/5
f 200/5/5 198/5/5 199/5/5
f 203/5/5 202/5/5 201/5/5
f 204/5/5 202/5/5 203/5/5
f 205/5/5 202/5/5 204/5/5
f 206/5/5 202/5/5 205/5/5
f 207/5/5 203/5/5 201/5/5
f 207/4/5 204/4/5 203/4/5
f 208/2/5 205/2/5 204/2/5
f 208/4/5 204/4/5 207/4/5
f 209/4/5 206/4/5 205/4/5
f 209/2/5 205/2/5 208/2/5
f 210/5/5 202/5/5 206/5/5
f 210/4/5 206/4/5 209/4/5
f 211/5/5 209/5/5 208/5/5
f 211/5/5 208/5/5 207/5/5
f 211/5/5 210/5/5 209/5/5
f 211/5/5 207/5/5 201/5/5
f 212/5/5 202/5/5 210/5/5
f 212/5/5 210/5/5 211/5/5
f 217/2/5 214/2/5 213/2/5
f 218/2/5 216/2/5 215/2/5
f 219/2/5 217/2/5 213/2/5
f 219/2/5 218/2/5 217/2/5
f 220/2/5 216/2/5 218/2/5
f 220/2/5 218/2/5 219/2/5
f 223/2/5 222/2/5 221/2/5
f 224/2/5 222/2/5 223/2/5
f 225/2/5 223/2/5 221/2/5
f 227/2/5 225/2/5 221/2/5
f 227/2/5 226/2/5 225/2/5
f 228/2/5 226/2/5 227/2/5
f 229/2/6 230/2/6 231/2/6
f 231/2/6 230/2/6 232/2/6
f 233/2/6 234/2/6 235/2/6
f 235/2/6 234/2/6 236/2/6
