# MagicaVoxel @ Ephtracy

# group
o 

# material
mtllib level_1.4.mtl
usemtl palette

# normals
vn -1 0 0
vn 1 0 0
vn 0 0 1
vn 0 0 -1
vn 0 -1 0
vn 0 1 0

# texcoords
vt 0.291016 0.5
vt 0.298828 0.5
vt 0.302734 0.5
vt 0.306641 0.5
vt 0.310547 0.5
vt 0.474609 0.5

# verts
v -5.3 0 0.7
v -5.3 0 -0.7
v -5.3 0.1 0.5
v -5.3 0.1 -0.5
v -5.3 0.2 0.6
v -5.3 0.2 0.5
v -5.3 0.2 -0.5
v -5.3 0.2 -0.6
v -5.3 0.7 0.6
v -5.3 0.7 0.5
v -5.3 0.7 -0.5
v -5.3 0.7 -0.6
v -5.3 0.8 0.5
v -5.3 0.8 -0.5
v -5.3 0.9 0.8
v -5.3 0.9 0.7
v -5.3 0.9 -0.7
v -5.3 0.9 -0.8
v -5.3 1 0.8
v -5.3 1 -0.8
v -5.3 1.1 0.8
v -5.3 1.1 -0.8
v -5.3 1.2 0.8
v -5.3 1.2 -0.8
v -1.7 0.9 4.4
v -1.7 0.9 2.8
v -1.7 0.9 -0.8
v -1.7 0.9 -2.7
v -1.7 1 4.4
v -1.7 1 2.8
v -1.7 1 -0.8
v -1.7 1 -2.7
v -1.7 1.1 4.4
v -1.7 1.1 2.8
v -1.7 1.1 -0.8
v -1.7 1.1 -2.7
v -1.7 1.2 4.4
v -1.7 1.2 2.8
v -1.7 1.2 -0.8
v -1.7 1.2 -2.7
v -1.6 0 4.3
v -1.6 0 2.9
v -1.6 0 -0.7
v -1.6 0 -2.6
v -1.6 0.1 4.1
v -1.6 0.1 3.1
v -1.6 0.1 -0.9
v -1.6 0.1 -2.4
v -1.6 0.2 4.2
v -1.6 0.2 4.1
v -1.6 0.2 3.1
v -1.6 0.2 3
v -1.6 0.2 -0.8
v -1.6 0.2 -0.9
v -1.6 0.2 -2.4
v -1.6 0.2 -2.5
v -1.6 0.7 4.2
v -1.6 0.7 4.1
v -1.6 0.7 3.1
v -1.6 0.7 3
v -1.6 0.7 -0.8
v -1.6 0.7 -0.9
v -1.6 0.7 -2.4
v -1.6 0.7 -2.5
v -1.6 0.8 4.1
v -1.6 0.8 3.1
v -1.6 0.8 -0.9
v -1.6 0.8 -2.4
v -1.6 0.9 4.3
v -1.6 0.9 2.9
v -1.6 0.9 -0.7
v -1.6 0.9 -2.6
v 3.8 0.9 2.8
v 3.8 0.9 -4.5
v 3.8 1 2.8
v 3.8 1 -4.5
v 3.8 1.1 2.8
v 3.8 1.1 -4.5
v 3.8 1.2 2.8
v 3.8 1.2 -4.5
v 3.9 0 2.9
v 3.9 0 -4.5
v 3.9 0.1 2.7
v 3.9 0.1 -4.3
v 3.9 0.2 2.8
v 3.9 0.2 2.7
v 3.9 0.2 -4.3
v 3.9 0.2 -4.4
v 3.9 0.7 2.8
v 3.9 0.7 2.7
v 3.9 0.7 -4.3
v 3.9 0.7 -4.4
v 3.9 0.8 2.7
v 3.9 0.8 -4.3
v 3.9 0.9 2.9
v 3.9 0.9 -4.5
v 0 0 0.7
v 0 0 -2.6
v 0 0.1 0.5
v 0 0.1 -2.4
v 0 0.2 0.6
v 0 0.2 0.5
v 0 0.2 -2.4
v 0 0.2 -2.5
v 0 0.7 0.6
v 0 0.7 0.5
v 0 0.7 -2.4
v 0 0.7 -2.5
v 0 0.8 0.5
v 0 0.8 -2.4
v 0 0.9 0.7
v 0 0.9 -2.6
v 0.0999999 0.9 0.8
v 0.0999999 0.9 -2.7
v 0.0999999 1 0.8
v 0.0999999 1 -2.7
v 0.0999999 1.1 0.8
v 0.0999999 1.1 -2.7
v 0.0999999 1.2 0.8
v 0.0999999 1.2 -2.7
v 5.3 0 4.3
v 5.3 0 -4.5
v 5.3 0.1 4.1
v 5.3 0.1 -4.3
v 5.3 0.2 4.2
v 5.3 0.2 4.1
v 5.3 0.2 -4.3
v 5.3 0.2 -4.4
v 5.3 0.7 4.2
v 5.3 0.7 4.1
v 5.3 0.7 -4.3
v 5.3 0.7 -4.4
v 5.3 0.8 4.1
v 5.3 0.8 -4.3
v 5.3 0.9 4.3
v 5.3 0.9 -4.5
v 5.4 0.9 4.4
v 5.4 0.9 -4.5
v 5.4 1 4.4
v 5.4 1 -4.5
v 5.4 1.1 4.4
v 5.4 1.1 -4.5
v 5.4 1.2 4.4
v 5.4 1.2 -4.5
v -1.7 0.9 4.4
v -1.7 1 4.4
v -1.7 1.1 4.4
v -1.7 1.2 4.4
v 5.4 0.9 4.4
v 5.4 1 4.4
v 5.4 1.1 4.4
v 5.4 1.2 4.4
v -1.6 0 4.3
v -1.6 0.9 4.3
v -1.5 0.2 4.3
v -1.5 0.7 4.3
v -1.4 0.1 4.3
v -1.4 0.2 4.3
v -1.4 0.7 4.3
v -1.4 0.8 4.3
v 5.1 0.1 4.3
v 5.1 0.2 4.3
v 5.1 0.7 4.3
v 5.1 0.8 4.3
v 5.2 0.2 4.3
v 5.2 0.7 4.3
v 5.3 0 4.3
v 5.3 0.9 4.3
v -5.3 0.9 0.8
v -5.3 1 0.8
v -5.3 1.1 0.8
v -5.3 1.2 0.8
v 0.0999999 0.9 0.8
v 0.0999999 1 0.8
v 0.0999999 1.1 0.8
v 0.0999999 1.2 0.8
v -5.3 0 0.7
v -5.3 0.9 0.7
v -5.2 0.2 0.7
v -5.2 0.7 0.7
v -5.1 0.1 0.7
v -5.1 0.2 0.7
v -5.1 0.7 0.7
v -5.1 0.8 0.7
v -0.2 0.1 0.7
v -0.2 0.2 0.7
v -0.2 0.7 0.7
v -0.2 0.8 0.7
v -0.0999999 0.2 0.7
v -0.0999999 0.7 0.7
v 0 0 0.7
v 0 0.9 0.7
v -1.6 0 2.9
v -1.6 0.9 2.9
v -1.5 0.2 2.9
v -1.5 0.7 2.9
v -1.4 0.1 2.9
v -1.4 0.2 2.9
v -1.4 0.7 2.9
v -1.4 0.8 2.9
v 3.7 0.1 2.9
v 3.7 0.2 2.9
v 3.7 0.7 2.9
v 3.7 0.8 2.9
v 3.8 0.2 2.9
v 3.8 0.7 2.9
v 3.9 0 2.9
v 3.9 0.9 2.9
v -1.7 0.9 2.8
v -1.7 1 2.8
v -1.7 1.1 2.8
v -1.7 1.2 2.8
v 3.8 0.9 2.8
v 3.8 1 2.8
v 3.8 1.1 2.8
v 3.8 1.2 2.8
v -5.3 0 -0.7
v -5.3 0.9 -0.7
v -5.2 0.2 -0.7
v -5.2 0.7 -0.7
v -5.1 0.1 -0.7
v -5.1 0.2 -0.7
v -5.1 0.7 -0.7
v -5.1 0.8 -0.7
v -1.8 0.1 -0.7
v -1.8 0.2 -0.7
v -1.8 0.7 -0.7
v -1.8 0.8 -0.7
v -1.7 0.2 -0.7
v -1.7 0.7 -0.7
v -1.6 0 -0.7
v -1.6 0.9 -0.7
v -5.3 0.9 -0.8
v -5.3 1 -0.8
v -5.3 1.1 -0.8
v -5.3 1.2 -0.8
v -1.7 0.9 -0.8
v -1.7 1 -0.8
v -1.7 1.1 -0.8
v -1.7 1.2 -0.8
v -1.6 0 -2.6
v -1.6 0.9 -2.6
v -1.5 0.2 -2.6
v -1.5 0.7 -2.6
v -1.4 0.1 -2.6
v -1.4 0.2 -2.6
v -1.4 0.7 -2.6
v -1.4 0.8 -2.6
v -0.2 0.1 -2.6
v -0.2 0.2 -2.6
v -0.2 0.7 -2.6
v -0.2 0.8 -2.6
v -0.0999999 0.2 -2.6
v -0.0999999 0.7 -2.6
v 0 0 -2.6
v 0 0.9 -2.6
v -1.7 0.9 -2.7
v -1.7 1 -2.7
v -1.7 1.1 -2.7
v -1.7 1.2 -2.7
v 0.0999999 0.9 -2.7
v 0.0999999 1 -2.7
v 0.0999999 1.1 -2.7
v 0.0999999 1.2 -2.7
v 3.8 0.9 -4.5
v 3.8 1 -4.5
v 3.8 1.1 -4.5
v 3.8 1.2 -4.5
v 3.9 0 -4.5
v 3.9 0.9 -4.5
v 4 0.2 -4.5
v 4 0.7 -4.5
v 4.1 0.1 -4.5
v 4.1 0.2 -4.5
v 4.1 0.7 -4.5
v 4.1 0.8 -4.5
v 5.1 0.1 -4.5
v 5.1 0.2 -4.5
v 5.1 0.7 -4.5
v 5.1 0.8 -4.5
v 5.2 0.2 -4.5
v 5.2 0.7 -4.5
v 5.3 0 -4.5
v 5.3 0.9 -4.5
v 5.4 0.9 -4.5
v 5.4 1 -4.5
v 5.4 1.1 -4.5
v 5.4 1.2 -4.5
v -1.6 0 4.3
v 5.3 0 4.3
v -1.5 0 4.2
v -0.0999999 0 4.2
v 1.7 0 4.2
v 2.5 0 4.2
v 2.7 0 4.2
v 3.8 0 4.2
v 4 0 4.2
v 5.2 0 4.2
v -1.5 0 3
v -0.0999999 0 3
v 1.7 0 3
v 2.5 0 3
v 2.7 0 3
v 3.8 0 3
v -1.6 0 2.9
v 3.9 0 2.9
v 4 0 2.5
v 5.2 0 2.5
v 4 0 0.8
v 5.2 0 0.8
v -5.3 0 0.7
v 0 0 0.7
v -5.2 0 0.6
v -3.3 0 0.6
v -1.5 0 0.6
v -0.0999999 0 0.6
v -5.2 0 -0.6
v -3.3 0 -0.6
v -1.5 0 -0.6
v -0.0999999 0 -0.6
v -5.3 0 -0.7
v -1.6 0 -0.7
v -1.6 0 -2.6
v 0 0 -2.6
v 4 0 -4.4
v 5.2 0 -4.4
v 3.9 0 -4.5
v 5.3 0 -4.5
v -1.7 0.9 4.4
v 5.4 0.9 4.4
v -1.6 0.9 4.3
v 5.3 0.9 4.3
v -1.6 0.9 2.9
v 3.9 0.9 2.9
v -1.7 0.9 2.8
v 3.8 0.9 2.8
v -5.3 0.9 0.8
v 0.0999999 0.9 0.8
v -5.3 0.9 0.7
v 0 0.9 0.7
v -5.3 0.9 -0.7
v -1.6 0.9 -0.7
v -5.3 0.9 -0.8
v -1.7 0.9 -0.8
v -1.6 0.9 -2.6
v 0 0.9 -2.6
v -1.7 0.9 -2.7
v 0.0999999 0.9 -2.7
v 3.8 0.9 -4.5
v 3.9 0.9 -4.5
v 5.3 0.9 -4.5
v 5.4 0.9 -4.5
v -1.7 1.2 4.4
v 5.4 1.2 4.4
v -1.7 1.2 2.8
v 3.8 1.2 2.8
v -5.3 1.2 0.8
v 0.0999999 1.2 0.8
v -5.3 1.2 -0.8
v -1.7 1.2 -0.8
v -1.7 1.2 -2.7
v 0.0999999 1.2 -2.7
v 3.8 1.2 -4.5
v 5.4 1.2 -4.5

# faces
f 3/5/1 2/5/1 1/5/1
f 4/5/1 2/5/1 3/5/1
f 5/5/1 3/5/1 1/5/1
f 6/4/1 4/4/1 3/4/1
f 6/5/1 3/5/1 5/5/1
f 7/5/1 2/5/1 4/5/1
f 7/4/1 4/4/1 6/4/1
f 8/5/1 2/5/1 7/5/1
f 9/4/1 6/4/1 5/4/1
f 9/5/1 5/5/1 1/5/1
f 9/4/1 8/4/1 7/4/1
f 9/4/1 7/4/1 6/4/1
f 10/4/1 8/4/1 9/4/1
f 11/4/1 8/4/1 10/4/1
f 12/5/1 2/5/1 8/5/1
f 12/4/1 8/4/1 11/4/1
f 13/4/1 11/4/1 10/4/1
f 13/5/1 10/5/1 9/5/1
f 14/5/1 12/5/1 11/5/1
f 14/4/1 11/4/1 13/4/1
f 16/5/1 9/5/1 1/5/1
f 16/5/1 13/5/1 9/5/1
f 16/5/1 14/5/1 13/5/1
f 17/5/1 2/5/1 12/5/1
f 17/5/1 12/5/1 14/5/1
f 17/5/1 14/5/1 16/5/1
f 19/2/1 16/2/1 15/2/1
f 19/2/1 18/2/1 17/2/1
f 19/2/1 17/2/1 16/2/1
f 20/2/1 18/2/1 19/2/1
f 21/3/1 20/3/1 19/3/1
f 22/3/1 20/3/1 21/3/1
f 23/2/1 22/2/1 21/2/1
f 24/2/1 22/2/1 23/2/1
f 29/2/1 26/2/1 25/2/1
f 30/2/1 26/2/1 29/2/1
f 31/2/1 28/2/1 27/2/1
f 32/2/1 28/2/1 31/2/1
f 33/3/1 30/3/1 29/3/1
f 34/3/1 30/3/1 33/3/1
f 35/3/1 32/3/1 31/3/1
f 36/3/1 32/3/1 35/3/1
f 37/2/1 34/2/1 33/2/1
f 38/2/1 34/2/1 37/2/1
f 39/2/1 36/2/1 35/2/1
f 40/2/1 36/2/1 39/2/1
f 45/5/1 42/5/1 41/5/1
f 46/5/1 42/5/1 45/5/1
f 47/5/1 44/5/1 43/5/1
f 48/5/1 44/5/1 47/5/1
f 49/5/1 45/5/1 41/5/1
f 50/4/1 46/4/1 45/4/1
f 50/5/1 45/5/1 49/5/1
f 51/5/1 42/5/1 46/5/1
f 51/4/1 46/4/1 50/4/1
f 52/5/1 42/5/1 51/5/1
f 53/5/1 47/5/1 43/5/1
f 54/4/1 48/4/1 47/4/1
f 54/5/1 47/5/1 53/5/1
f 55/5/1 44/5/1 48/5/1
f 55/4/1 48/4/1 54/4/1
f 56/5/1 44/5/1 55/5/1
f 57/4/1 50/4/1 49/4/1
f 57/5/1 49/5/1 41/5/1
f 57/4/1 51/4/1 50/4/1
f 57/4/1 52/4/1 51/4/1
f 58/4/1 52/4/1 57/4/1
f 59/4/1 52/4/1 58/4/1
f 60/5/1 42/5/1 52/5/1
f 60/4/1 52/4/1 59/4/1
f 61/4/1 54/4/1 53/4/1
f 61/4/1 56/4/1 55/4/1
f 61/5/1 53/5/1 43/5/1
f 61/4/1 55/4/1 54/4/1
f 62/4/1 56/4/1 61/4/1
f 63/4/1 56/4/1 62/4/1
f 64/5/1 44/5/1 56/5/1
f 64/4/1 56/4/1 63/4/1
f 65/4/1 59/4/1 58/4/1
f 65/5/1 58/5/1 57/5/1
f 66/5/1 60/5/1 59/5/1
f 66/4/1 59/4/1 65/4/1
f 67/4/1 63/4/1 62/4/1
f 67/5/1 62/5/1 61/5/1
f 68/5/1 64/5/1 63/5/1
f 68/4/1 63/4/1 67/4/1
f 69/5/1 65/5/1 57/5/1
f 69/5/1 57/5/1 41/5/1
f 69/5/1 66/5/1 65/5/1
f 70/5/1 60/5/1 66/5/1
f 70/5/1 66/5/1 69/5/1
f 70/5/1 42/5/1 60/5/1
f 71/5/1 61/5/1 43/5/1
f 71/5/1 67/5/1 61/5/1
f 71/5/1 68/5/1 67/5/1
f 72/5/1 64/5/1 68/5/1
f 72/5/1 68/5/1 71/5/1
f 72/5/1 44/5/1 64/5/1
f 75/2/1 74/2/1 73/2/1
f 76/2/1 74/2/1 75/2/1
f 77/3/1 76/3/1 75/3/1
f 78/3/1 76/3/1 77/3/1
f 79/2/1 78/2/1 77/2/1
f 80/2/1 78/2/1 79/2/1
f 83/5/1 82/5/1 81/5/1
f 84/5/1 82/5/1 83/5/1
f 85/5/1 83/5/1 81/5/1
f 86/4/1 84/4/1 83/4/1
f 86/5/1 83/5/1 85/5/1
f 87/5/1 82/5/1 84/5/1
f 87/4/1 84/4/1 86/4/1
f 88/5/1 82/5/1 87/5/1
f 89/4/1 86/4/1 85/4/1
f 89/5/1 85/5/1 81/5/1
f 89/4/1 88/4/1 87/4/1
f 89/4/1 87/4/1 86/4/1
f 90/4/1 88/4/1 89/4/1
f 91/4/1 88/4/1 90/4/1
f 92/5/1 82/5/1 88/5/1
f 92/4/1 88/4/1 91/4/1
f 93/4/1 91/4/1 90/4/1
f 93/5/1 90/5/1 89/5/1
f 94/5/1 92/5/1 91/5/1
f 94/4/1 91/4/1 93/4/1
f 95/5/1 89/5/1 81/5/1
f 95/5/1 93/5/1 89/5/1
f 95/5/1 94/5/1 93/5/1
f 96/5/1 82/5/1 92/5/1
f 96/5/1 94/5/1 95/5/1
f 96/5/1 92/5/1 94/5/1
f 97/5/2 98/5/2 99/5/2
f 99/5/2 98/5/2 100/5/2
f 97/5/2 99/5/2 101/5/2
f 99/4/2 100/4/2 102/4/2
f 101/5/2 99/5/2 102/5/2
f 100/5/2 98/5/2 103/5/2
f 102/4/2 100/4/2 103/4/2
f 103/5/2 98/5/2 104/5/2
f 101/4/2 102/4/2 105/4/2
f 97/5/2 101/5/2 105/5/2
f 103/4/2 104/4/2 105/4/2
f 102/4/2 103/4/2 105/4/2
f 105/4/2 104/4/2 106/4/2
f 106/4/2 104/4/2 107/4/2
f 104/5/2 98/5/2 108/5/2
f 107/4/2 104/4/2 108/4/2
f 106/4/2 107/4/2 109/4/2
f 105/5/2 106/5/2 109/5/2
f 107/5/2 108/5/2 110/5/2
f 109/4/2 107/4/2 110/4/2
f 97/5/2 105/5/2 111/5/2
f 105/5/2 109/5/2 111/5/2
f 109/5/2 110/5/2 111/5/2
f 108/5/2 98/5/2 112/5/2
f 111/5/2 110/5/2 112/5/2
f 110/5/2 108/5/2 112/5/2
f 113/2/2 114/2/2 115/2/2
f 115/2/2 114/2/2 116/2/2
f 115/3/2 116/3/2 117/3/2
f 117/3/2 116/3/2 118/3/2
f 117/2/2 118/2/2 119/2/2
f 119/2/2 118/2/2 120/2/2
f 121/5/2 122/5/2 123/5/2
f 123/5/2 122/5/2 124/5/2
f 121/5/2 123/5/2 125/5/2
f 123/4/2 124/4/2 126/4/2
f 125/5/2 123/5/2 126/5/2
f 124/5/2 122/5/2 127/5/2
f 126/4/2 124/4/2 127/4/2
f 127/5/2 122/5/2 128/5/2
f 125/4/2 126/4/2 129/4/2
f 121/5/2 125/5/2 129/5/2
f 127/4/2 128/4/2 129/4/2
f 126/4/2 127/4/2 129/4/2
f 129/4/2 128/4/2 130/4/2
f 130/4/2 128/4/2 131/4/2
f 128/5/2 122/5/2 132/5/2
f 131/4/2 128/4/2 132/4/2
f 130/4/2 131/4/2 133/4/2
f 129/5/2 130/5/2 133/5/2
f 131/5/2 132/5/2 134/5/2
f 133/4/2 131/4/2 134/4/2
f 121/5/2 129/5/2 135/5/2
f 129/5/2 133/5/2 135/5/2
f 133/5/2 134/5/2 135/5/2
f 132/5/2 122/5/2 136/5/2
f 135/5/2 134/5/2 136/5/2
f 134/5/2 132/5/2 136/5/2
f 137/2/2 138/2/2 139/2/2
f 139/2/2 138/2/2 140/2/2
f 139/3/2 140/3/2 141/3/2
f 141/3/2 140/3/2 142/3/2
f 141/2/2 142/2/2 143/2/2
f 143/2/2 142/2/2 144/2/2
f 149/2/3 146/2/3 145/2/3
f 150/3/3 147/3/3 146/3/3
f 150/2/3 146/2/3 149/2/3
f 151/2/3 148/2/3 147/2/3
f 151/3/3 147/3/3 150/3/3
f 152/2/3 148/2/3 151/2/3
f 155/5/3 154/5/3 153/5/3
f 156/5/3 154/5/3 155/5/3
f 157/5/3 155/5/3 153/5/3
f 158/4/3 156/4/3 155/4/3
f 158/5/3 155/5/3 157/5/3
f 159/5/3 154/5/3 156/5/3
f 159/4/3 156/4/3 158/4/3
f 160/5/3 154/5/3 159/5/3
f 161/4/3 158/4/3 157/4/3
f 161/5/3 157/5/3 153/5/3
f 161/4/3 160/4/3 159/4/3
f 161/4/3 159/4/3 158/4/3
f 162/4/3 160/4/3 161/4/3
f 163/4/3 160/4/3 162/4/3
f 164/5/3 154/5/3 160/5/3
f 164/4/3 160/4/3 163/4/3
f 165/4/3 163/4/3 162/4/3
f 165/5/3 162/5/3 161/5/3
f 166/5/3 164/5/3 163/5/3
f 166/4/3 163/4/3 165/4/3
f 167/5/3 161/5/3 153/5/3
f 167/5/3 165/5/3 161/5/3
f 167/5/3 166/5/3 165/5/3
f 168/5/3 154/5/3 164/5/3
f 168/5/3 166/5/3 167/5/3
f 168/5/3 164/5/3 166/5/3
f 173/2/3 170/2/3 169/2/3
f 174/3/3 171/3/3 170/3/3
f 174/2/3 170/2/3 173/2/3
f 175/2/3 172/2/3 171/2/3
f 175/3/3 171/3/3 174/3/3
f 176/2/3 172/2/3 175/2/3
f 179/5/3 178/5/3 177/5/3
f 180/5/3 178/5/3 179/5/3
f 181/5/3 179/5/3 177/5/3
f 182/4/3 180/4/3 179/4/3
f 182/5/3 179/5/3 181/5/3
f 183/5/3 178/5/3 180/5/3
f 183/4/3 180/4/3 182/4/3
f 184/5/3 178/5/3 183/5/3
f 185/4/3 182/4/3 181/4/3
f 185/5/3 181/5/3 177/5/3
f 185/4/3 184/4/3 183/4/3
f 185/4/3 183/4/3 182/4/3
f 186/4/3 184/4/3 185/4/3
f 187/4/3 184/4/3 186/4/3
f 188/5/3 178/5/3 184/5/3
f 188/4/3 184/4/3 187/4/3
f 189/4/3 187/4/3 186/4/3
f 189/5/3 186/5/3 185/5/3
f 190/5/3 188/5/3 187/5/3
f 190/4/3 187/4/3 189/4/3
f 191/5/3 185/5/3 177/5/3
f 191/5/3 189/5/3 185/5/3
f 191/5/3 190/5/3 189/5/3
f 192/5/3 178/5/3 188/5/3
f 192/5/3 190/5/3 191/5/3
f 192/5/3 188/5/3 190/5/3
f 193/5/4 194/5/4 195/5/4
f 195/5/4 194/5/4 196/5/4
f 193/5/4 195/5/4 197/5/4
f 195/4/4 196/4/4 198/4/4
f 197/5/4 195/5/4 198/5/4
f 196/5/4 194/5/4 199/5/4
f 198/4/4 196/4/4 199/4/4
f 199/5/4 194/5/4 200/5/4
f 197/4/4 198/4/4 201/4/4
f 193/5/4 197/5/4 201/5/4
f 199/4/4 200/4/4 201/4/4
f 198/4/4 199/4/4 201/4/4
f 201/4/4 200/4/4 202/4/4
f 202/4/4 200/4/4 203/4/4
f 200/5/4 194/5/4 204/5/4
f 203/4/4 200/4/4 204/4/4
f 202/4/4 203/4/4 205/4/4
f 201/5/4 202/5/4 205/5/4
f 203/5/4 204/5/4 206/5/4
f 205/4/4 203/4/4 206/4/4
f 193/5/4 201/5/4 207/5/4
f 201/5/4 205/5/4 207/5/4
f 205/5/4 206/5/4 207/5/4
f 204/5/4 194/5/4 208/5/4
f 207/5/4 206/5/4 208/5/4
f 206/5/4 204/5/4 208/5/4
f 209/2/4 210/2/4 213/2/4
f 210/3/4 211/3/4 214/3/4
f 213/2/4 210/2/4 214/2/4
f 211/2/4 212/2/4 215/2/4
f 214/3/4 211/3/4 215/3/4
f 215/2/4 212/2/4 216/2/4
f 217/5/4 218/5/4 219/5/4
f 219/5/4 218/5/4 220/5/4
f 217/5/4 219/5/4 221/5/4
f 219/4/4 220/4/4 222/4/4
f 221/5/4 219/5/4 222/5/4
f 220/5/4 218/5/4 223/5/4
f 222/4/4 220/4/4 223/4/4
f 223/5/4 218/5/4 224/5/4
f 221/4/4 222/4/4 225/4/4
f 217/5/4 221/5/4 225/5/4
f 223/4/4 224/4/4 225/4/4
f 222/4/4 223/4/4 225/4/4
f 225/4/4 224/4/4 226/4/4
f 226/4/4 224/4/4 227/4/4
f 224/5/4 218/5/4 228/5/4
f 227/4/4 224/4/4 228/4/4
f 226/4/4 227/4/4 229/4/4
f 225/5/4 226/5/4 229/5/4
f 227/5/4 228/5/4 230/5/4
f 229/4/4 227/4/4 230/4/4
f 217/5/4 225/5/4 231/5/4
f 225/5/4 229/5/4 231/5/4
f 229/5/4 230/5/4 231/5/4
f 228/5/4 218/5/4 232/5/4
f 231/5/4 230/5/4 232/5/4
f 230/5/4 228/5/4 232/5/4
f 233/2/4 234/2/4 237/2/4
f 234/3/4 235/3/4 238/3/4
f 237/2/4 234/2/4 238/2/4
f 235/2/4 236/2/4 239/2/4
f 238/3/4 235/3/4 239/3/4
f 239/2/4 236/2/4 240/2/4
f 241/5/4 242/5/4 243/5/4
f 243/5/4 242/5/4 244/5/4
f 241/5/4 243/5/4 245/5/4
f 243/4/4 244/4/4 246/4/4
f 245/5/4 243/5/4 246/5/4
f 244/5/4 242/5/4 247/5/4
f 246/4/4 244/4/4 247/4/4
f 247/5/4 242/5/4 248/5/4
f 245/4/4 246/4/4 249/4/4
f 241/5/4 245/5/4 249/5/4
f 247/4/4 248/4/4 249/4/4
f 246/4/4 247/4/4 249/4/4
f 249/4/4 248/4/4 250/4/4
f 250/4/4 248/4/4 251/4/4
f 248/5/4 242/5/4 252/5/4
f 251/4/4 248/4/4 252/4/4
f 250/4/4 251/4/4 253/4/4
f 249/5/4 250/5/4 253/5/4
f 251/5/4 252/5/4 254/5/4
f 253/4/4 251/4/4 254/4/4
f 241/5/4 249/5/4 255/5/4
f 249/5/4 253/5/4 255/5/4
f 253/5/4 254/5/4 255/5/4
f 252/5/4 242/5/4 256/5/4
f 255/5/4 254/5/4 256/5/4
f 254/5/4 252/5/4 256/5/4
f 257/2/4 258/2/4 261/2/4
f 258/3/4 259/3/4 262/3/4
f 261/2/4 258/2/4 262/2/4
f 259/2/4 260/2/4 263/2/4
f 262/3/4 259/3/4 263/3/4
f 263/2/4 260/2/4 264/2/4
f 265/2/4 266/2/4 270/2/4
f 269/5/4 270/5/4 271/5/4
f 271/5/4 270/5/4 272/5/4
f 269/5/4 271/5/4 273/5/4
f 271/4/4 272/4/4 274/4/4
f 273/5/4 271/5/4 274/5/4
f 272/5/4 270/5/4 275/5/4
f 274/4/4 272/4/4 275/4/4
f 275/5/4 270/5/4 276/5/4
f 273/4/4 274/4/4 277/4/4
f 269/5/4 273/5/4 277/5/4
f 275/4/4 276/4/4 277/4/4
f 274/4/4 275/4/4 277/4/4
f 277/4/4 276/4/4 278/4/4
f 278/4/4 276/4/4 279/4/4
f 276/5/4 270/5/4 280/5/4
f 279/4/4 276/4/4 280/4/4
f 278/4/4 279/4/4 281/4/4
f 277/5/4 278/5/4 281/5/4
f 279/5/4 280/5/4 282/5/4
f 281/4/4 279/4/4 282/4/4
f 269/5/4 277/5/4 283/5/4
f 277/5/4 281/5/4 283/5/4
f 281/5/4 282/5/4 283/5/4
f 270/2/4 266/2/4 284/2/4
f 283/5/4 282/5/4 284/5/4
f 280/5/4 270/5/4 284/5/4
f 282/5/4 280/5/4 284/5/4
f 284/2/4 266/2/4 285/2/4
f 266/3/4 267/3/4 286/3/4
f 285/2/4 266/2/4 286/2/4
f 267/2/4 268/2/4 287/2/4
f 286/3/4 267/3/4 287/3/4
f 287/2/4 268/2/4 288/2/4
f 291/5/5 290/5/5 289/5/5
f 292/5/5 290/5/5 291/5/5
f 293/5/5 290/5/5 292/5/5
f 294/5/5 290/5/5 293/5/5
f 295/5/5 290/5/5 294/5/5
f 296/5/5 290/5/5 295/5/5
f 297/5/5 290/5/5 296/5/5
f 298/5/5 290/5/5 297/5/5
f 299/5/5 291/5/5 289/5/5
f 299/4/5 292/4/5 291/4/5
f 300/2/5 293/2/5 292/2/5
f 300/4/5 292/4/5 299/4/5
f 301/4/5 294/4/5 293/4/5
f 301/2/5 293/2/5 300/2/5
f 302/2/5 295/2/5 294/2/5
f 302/4/5 294/4/5 301/4/5
f 303/4/5 296/4/5 295/4/5
f 303/2/5 295/2/5 302/2/5
f 304/5/5 297/5/5 296/5/5
f 304/4/5 296/4/5 303/4/5
f 305/5/5 299/5/5 289/5/5
f 305/5/5 300/5/5 299/5/5
f 305/5/5 304/5/5 303/5/5
f 305/5/5 303/5/5 302/5/5
f 305/5/5 302/5/5 301/5/5
f 305/5/5 301/5/5 300/5/5
f 306/5/5 297/5/5 304/5/5
f 306/5/5 304/5/5 305/5/5
f 307/4/5 298/4/5 297/4/5
f 307/5/5 297/5/5 306/5/5
f 308/5/5 290/5/5 298/5/5
f 308/4/5 298/4/5 307/4/5
f 309/5/5 307/5/5 306/5/5
f 309/2/5 308/2/5 307/2/5
f 310/5/5 290/5/5 308/5/5
f 310/2/5 308/2/5 309/2/5
f 313/5/5 312/5/5 311/5/5
f 314/5/5 312/5/5 313/5/5
f 315/5/5 312/5/5 314/5/5
f 316/5/5 312/5/5 315/5/5
f 317/5/5 313/5/5 311/5/5
f 317/4/5 314/4/5 313/4/5
f 318/2/5 315/2/5 314/2/5
f 318/4/5 314/4/5 317/4/5
f 319/4/5 316/4/5 315/4/5
f 319/2/5 315/2/5 318/2/5
f 320/5/5 312/5/5 316/5/5
f 320/4/5 316/4/5 319/4/5
f 321/5/5 319/5/5 318/5/5
f 321/5/5 318/5/5 317/5/5
f 321/5/5 320/5/5 319/5/5
f 321/5/5 317/5/5 311/5/5
f 322/5/5 320/5/5 321/5/5
f 323/5/5 320/5/5 322/5/5
f 324/5/5 312/5/5 320/5/5
f 324/5/5 320/5/5 323/5/5
f 325/5/5 309/5/5 306/5/5
f 325/4/5 310/4/5 309/4/5
f 326/5/5 290/5/5 310/5/5
f 326/4/5 310/4/5 325/4/5
f 327/5/5 325/5/5 306/5/5
f 327/5/5 326/5/5 325/5/5
f 328/5/5 290/5/5 326/5/5
f 328/5/5 326/5/5 327/5/5
f 331/2/5 330/2/5 329/2/5
f 332/2/5 330/2/5 331/2/5
f 333/2/5 331/2/5 329/2/5
f 335/2/5 333/2/5 329/2/5
f 335/2/5 334/2/5 333/2/5
f 336/2/5 334/2/5 335/2/5
f 339/2/5 338/2/5 337/2/5
f 340/2/5 338/2/5 339/2/5
f 343/2/5 342/2/5 341/2/5
f 344/2/5 342/2/5 343/2/5
f 345/2/5 342/2/5 344/2/5
f 346/2/5 338/2/5 340/2/5
f 347/2/5 345/2/5 344/2/5
f 347/2/5 346/2/5 345/2/5
f 348/2/5 338/2/5 346/2/5
f 348/2/5 346/2/5 347/2/5
f 349/2/5 334/2/5 336/2/5
f 350/2/5 334/2/5 349/2/5
f 351/2/5 330/2/5 332/2/5
f 352/2/5 330/2/5 351/2/5
f 353/2/6 354/2/6 355/2/6
f 355/2/6 354/2/6 356/2/6
f 357/2/6 358/2/6 359/2/6
f 359/2/6 358/2/6 360/2/6
f 360/2/6 358/2/6 361/2/6
f 361/2/6 358/2/6 362/2/6
f 356/2/6 354/2/6 363/2/6
f 363/2/6 354/2/6 364/2/6
