# MagicaVoxel @ Ephtracy

# group
o 

# material
mtllib level_2.3.mtl
usemtl palette

# normals
vn -1 0 0
vn 1 0 0
vn 0 0 1
vn 0 0 -1
vn 0 -1 0
vn 0 1 0

# texcoords
vt 0.291016 0.5
vt 0.298828 0.5
vt 0.302734 0.5
vt 0.306641 0.5
vt 0.310547 0.5
vt 0.474609 0.5

# verts
v -4.4 0.9 5.4
v -4.4 0.9 0
v -4.4 1 5.4
v -4.4 1 0
v -4.4 1.1 5.4
v -4.4 1.1 0
v -4.4 1.2 5.4
v -4.4 1.2 0
v -4.3 0 5.3
v -4.3 0 0.0999999
v -4.3 0.1 5.1
v -4.3 0.1 0.3
v -4.3 0.2 5.2
v -4.3 0.2 5.1
v -4.3 0.2 0.3
v -4.3 0.2 0.2
v -4.3 0.7 5.2
v -4.3 0.7 5.1
v -4.3 0.7 0.3
v -4.3 0.7 0.2
v -4.3 0.8 5.1
v -4.3 0.8 0.3
v -4.3 0.9 5.3
v -4.3 0.9 0.0999999
v -2.7 0.9 -0.0999999
v -2.7 0.9 -1.7
v -2.7 1 -0.0999999
v -2.7 1 -1.7
v -2.7 1.1 -0.0999999
v -2.7 1.1 -1.7
v -2.7 1.2 -0.0999999
v -2.7 1.2 -1.7
v -2.6 0 -0.2
v -2.6 0 -1.6
v -2.6 0.1 -0.4
v -2.6 0.1 -1.4
v -2.6 0.2 -0.3
v -2.6 0.2 -0.4
v -2.6 0.2 -1.4
v -2.6 0.2 -1.5
v -2.6 0.7 -0.3
v -2.6 0.7 -0.4
v -2.6 0.7 -1.4
v -2.6 0.7 -1.5
v -2.6 0.8 -0.4
v -2.6 0.8 -1.4
v -2.6 0.9 -0.2
v -2.6 0.9 -1.6
v -0.9 0.9 -1.9
v -0.9 0.9 -3.5
v -0.9 1 -1.9
v -0.9 1 -3.5
v -0.9 1.1 -1.9
v -0.9 1.1 -3.5
v -0.9 1.2 -1.9
v -0.9 1.2 -3.5
v -0.8 0 -2
v -0.8 0 -3.4
v -0.8 0.1 -2.2
v -0.8 0.1 -3.2
v -0.8 0.2 -2.1
v -0.8 0.2 -2.2
v -0.8 0.2 -3.2
v -0.8 0.2 -3.3
v -0.8 0.7 -2.1
v -0.8 0.7 -2.2
v -0.8 0.7 -3.2
v -0.8 0.7 -3.3
v -0.8 0.8 -2.2
v -0.8 0.8 -3.2
v -0.8 0.9 -2
v -0.8 0.9 -3.4
v 2.8 0.9 5.4
v 2.8 0.9 -5.4
v 2.8 1 5.4
v 2.8 1 -5.4
v 2.8 1.1 5.4
v 2.8 1.1 -5.4
v 2.8 1.2 5.4
v 2.8 1.2 -5.4
v 2.9 0 5.3
v 2.9 0 -5.4
v 2.9 0.1 5.1
v 2.9 0.1 -5.2
v 2.9 0.2 5.2
v 2.9 0.2 5.1
v 2.9 0.2 -5.2
v 2.9 0.2 -5.3
v 2.9 0.7 5.2
v 2.9 0.7 5.1
v 2.9 0.7 -5.2
v 2.9 0.7 -5.3
v 2.9 0.8 5.1
v 2.9 0.8 -5.2
v 2.9 0.9 5.3
v 2.9 0.9 -5.4
v -2.9 0 5.3
v -2.9 0 0.0999999
v -2.9 0.1 5.1
v -2.9 0.1 0.3
v -2.9 0.2 5.2
v -2.9 0.2 5.1
v -2.9 0.2 0.3
v -2.9 0.2 0.2
v -2.9 0.7 5.2
v -2.9 0.7 5.1
v -2.9 0.7 0.3
v -2.9 0.7 0.2
v -2.9 0.8 5.1
v -2.9 0.8 0.3
v -2.9 0.9 5.3
v -2.9 0.9 0.0999999
v -2.8 0.9 5.4
v -2.8 0.9 0
v -2.8 1 5.4
v -2.8 1 0
v -2.8 1.1 5.4
v -2.8 1.1 0
v -2.8 1.2 5.4
v -2.8 1.2 0
v -1 0 -0.2
v -1 0 -1.6
v -1 0.1 -0.4
v -1 0.1 -1.4
v -1 0.2 -0.3
v -1 0.2 -0.4
v -1 0.2 -1.4
v -1 0.2 -1.5
v -1 0.7 -0.3
v -1 0.7 -0.4
v -1 0.7 -1.4
v -1 0.7 -1.5
v -1 0.8 -0.4
v -1 0.8 -1.4
v -1 0.9 -0.2
v -1 0.9 -1.6
v -0.9 0.9 -0.0999999
v -0.9 0.9 -1.7
v -0.9 1 -0.0999999
v -0.9 1 -1.7
v -0.9 1.1 -0.0999999
v -0.9 1.1 -1.7
v -0.9 1.2 -0.0999999
v -0.9 1.2 -1.7
v 0.8 0 -2
v 0.8 0 -3.4
v 0.8 0.1 -2.2
v 0.8 0.1 -3.2
v 0.8 0.2 -2.1
v 0.8 0.2 -2.2
v 0.8 0.2 -3.2
v 0.8 0.2 -3.3
v 0.8 0.7 -2.1
v 0.8 0.7 -2.2
v 0.8 0.7 -3.2
v 0.8 0.7 -3.3
v 0.8 0.8 -2.2
v 0.8 0.8 -3.2
v 0.8 0.9 -2
v 0.8 0.9 -3.4
v 0.9 0.9 -1.9
v 0.9 0.9 -3.5
v 0.9 1 -1.9
v 0.9 1 -3.5
v 0.9 1.1 -1.9
v 0.9 1.1 -3.5
v 0.9 1.2 -1.9
v 0.9 1.2 -3.5
v 4.3 0 5.3
v 4.3 0 -5.4
v 4.3 0.1 5.1
v 4.3 0.1 -5.2
v 4.3 0.2 5.2
v 4.3 0.2 5.1
v 4.3 0.2 -5.2
v 4.3 0.2 -5.3
v 4.3 0.7 5.2
v 4.3 0.7 5.1
v 4.3 0.7 -5.2
v 4.3 0.7 -5.3
v 4.3 0.8 5.1
v 4.3 0.8 -5.2
v 4.3 0.9 5.3
v 4.3 0.9 -5.4
v 4.4 0.9 5.4
v 4.4 0.9 -5.4
v 4.4 1 5.4
v 4.4 1 -5.4
v 4.4 1.1 5.4
v 4.4 1.1 -5.4
v 4.4 1.2 5.4
v 4.4 1.2 -5.4
v -4.4 0.9 5.4
v -4.4 1 5.4
v -4.4 1.1 5.4
v -4.4 1.2 5.4
v -2.8 0.9 5.4
v -2.8 1 5.4
v -2.8 1.1 5.4
v -2.8 1.2 5.4
v 2.8 0.9 5.4
v 2.8 1 5.4
v 2.8 1.1 5.4
v 2.8 1.2 5.4
v 4.4 0.9 5.4
v 4.4 1 5.4
v 4.4 1.1 5.4
v 4.4 1.2 5.4
v -4.3 0 5.3
v -4.3 0.9 5.3
v -4.2 0.2 5.3
v -4.2 0.7 5.3
v -4.1 0.1 5.3
v -4.1 0.2 5.3
v -4.1 0.7 5.3
v -4.1 0.8 5.3
v -3.1 0.1 5.3
v -3.1 0.2 5.3
v -3.1 0.7 5.3
v -3.1 0.8 5.3
v -3 0.2 5.3
v -3 0.7 5.3
v -2.9 0 5.3
v -2.9 0.9 5.3
v 2.9 0 5.3
v 2.9 0.9 5.3
v 3 0.2 5.3
v 3 0.7 5.3
v 3.1 0.1 5.3
v 3.1 0.2 5.3
v 3.1 0.7 5.3
v 3.1 0.8 5.3
v 4.1 0.1 5.3
v 4.1 0.2 5.3
v 4.1 0.7 5.3
v 4.1 0.8 5.3
v 4.2 0.2 5.3
v 4.2 0.7 5.3
v 4.3 0 5.3
v 4.3 0.9 5.3
v -2.7 0.9 -0.0999999
v -2.7 1 -0.0999999
v -2.7 1.1 -0.0999999
v -2.7 1.2 -0.0999999
v -0.9 0.9 -0.0999999
v -0.9 1 -0.0999999
v -0.9 1.1 -0.0999999
v -0.9 1.2 -0.0999999
v -2.6 0 -0.2
v -2.6 0.9 -0.2
v -2.5 0.2 -0.2
v -2.5 0.7 -0.2
v -2.4 0.1 -0.2
v -2.4 0.2 -0.2
v -2.4 0.7 -0.2
v -2.4 0.8 -0.2
v -1.2 0.1 -0.2
v -1.2 0.2 -0.2
v -1.2 0.7 -0.2
v -1.2 0.8 -0.2
v -1.1 0.2 -0.2
v -1.1 0.7 -0.2
v -1 0 -0.2
v -1 0.9 -0.2
v -0.9 0.9 -1.9
v -0.9 1 -1.9
v -0.9 1.1 -1.9
v -0.9 1.2 -1.9
v 0.9 0.9 -1.9
v 0.9 1 -1.9
v 0.9 1.1 -1.9
v 0.9 1.2 -1.9
v -0.8 0 -2
v -0.8 0.9 -2
v -0.7 0.2 -2
v -0.7 0.7 -2
v -0.6 0.1 -2
v -0.6 0.2 -2
v -0.6 0.7 -2
v -0.6 0.8 -2
v 0.6 0.1 -2
v 0.6 0.2 -2
v 0.6 0.7 -2
v 0.6 0.8 -2
v 0.7 0.2 -2
v 0.7 0.7 -2
v 0.8 0 -2
v 0.8 0.9 -2
v -4.3 0 0.0999999
v -4.3 0.9 0.0999999
v -4.2 0.2 0.0999999
v -4.2 0.7 0.0999999
v -4.1 0.1 0.0999999
v -4.1 0.2 0.0999999
v -4.1 0.7 0.0999999
v -4.1 0.8 0.0999999
v -3.1 0.1 0.0999999
v -3.1 0.2 0.0999999
v -3.1 0.7 0.0999999
v -3.1 0.8 0.0999999
v -3 0.2 0.0999999
v -3 0.7 0.0999999
v -2.9 0 0.0999999
v -2.9 0.9 0.0999999
v -4.4 0.9 0
v -4.4 1 0
v -4.4 1.1 0
v -4.4 1.2 0
v -2.8 0.9 0
v -2.8 1 0
v -2.8 1.1 0
v -2.8 1.2 0
v -2.6 0 -1.6
v -2.6 0.9 -1.6
v -2.5 0.2 -1.6
v -2.5 0.7 -1.6
v -2.4 0.1 -1.6
v -2.4 0.2 -1.6
v -2.4 0.7 -1.6
v -2.4 0.8 -1.6
v -1.2 0.1 -1.6
v -1.2 0.2 -1.6
v -1.2 0.7 -1.6
v -1.2 0.8 -1.6
v -1.1 0.2 -1.6
v -1.1 0.7 -1.6
v -1 0 -1.6
v -1 0.9 -1.6
v -2.7 0.9 -1.7
v -2.7 1 -1.7
v -2.7 1.1 -1.7
v -2.7 1.2 -1.7
v -0.9 0.9 -1.7
v -0.9 1 -1.7
v -0.9 1.1 -1.7
v -0.9 1.2 -1.7
v -0.8 0 -3.4
v -0.8 0.9 -3.4
v -0.7 0.2 -3.4
v -0.7 0.7 -3.4
v -0.6 0.1 -3.4
v -0.6 0.2 -3.4
v -0.6 0.7 -3.4
v -0.6 0.8 -3.4
v 0.6 0.1 -3.4
v 0.6 0.2 -3.4
v 0.6 0.7 -3.4
v 0.6 0.8 -3.4
v 0.7 0.2 -3.4
v 0.7 0.7 -3.4
v 0.8 0 -3.4
v 0.8 0.9 -3.4
v -0.9 0.9 -3.5
v -0.9 1 -3.5
v -0.9 1.1 -3.5
v -0.9 1.2 -3.5
v 0.9 0.9 -3.5
v 0.9 1 -3.5
v 0.9 1.1 -3.5
v 0.9 1.2 -3.5
v 2.8 0.9 -5.4
v 2.8 1 -5.4
v 2.8 1.1 -5.4
v 2.8 1.2 -5.4
v 2.9 0 -5.4
v 2.9 0.9 -5.4
v 3 0.2 -5.4
v 3 0.7 -5.4
v 3.1 0.1 -5.4
v 3.1 0.2 -5.4
v 3.1 0.7 -5.4
v 3.1 0.8 -5.4
v 4.1 0.1 -5.4
v 4.1 0.2 -5.4
v 4.1 0.7 -5.4
v 4.1 0.8 -5.4
v 4.2 0.2 -5.4
v 4.2 0.7 -5.4
v 4.3 0 -5.4
v 4.3 0.9 -5.4
v 4.4 0.9 -5.4
v 4.4 1 -5.4
v 4.4 1.1 -5.4
v 4.4 1.2 -5.4
v -4.3 0 5.3
v -2.9 0 5.3
v 2.9 0 5.3
v 4.3 0 5.3
v -4.2 0 5.2
v -3 0 5.2
v 3 0 5.2
v 4.2 0 5.2
v -4.2 0 3.8
v -3 0 3.8
v -4.2 0 2
v -3 0 2
v 3 0 0.7
v 4.2 0 0.7
v 3 0 0.6
v 4.2 0 0.6
v -4.2 0 0.2
v -3 0 0.2
v -4.3 0 0.0999999
v -2.9 0 0.0999999
v -2.6 0 -0.2
v -1 0 -0.2
v -2.5 0 -0.3
v -1.1 0 -0.3
v -2.5 0 -1.5
v -1.1 0 -1.5
v -2.6 0 -1.6
v -1 0 -1.6
v 3 0 -1.9
v 4.2 0 -1.9
v -0.8 0 -2
v 0.8 0 -2
v 3 0 -2
v 4.2 0 -2
v -0.7 0 -2.1
v 0.7 0 -2.1
v -0.7 0 -3.3
v 0.7 0 -3.3
v -0.8 0 -3.4
v 0.8 0 -3.4
v 3 0 -5.2
v 4.2 0 -5.2
v 2.9 0 -5.4
v 4.3 0 -5.4
v -4.4 0.9 5.4
v -2.8 0.9 5.4
v 2.8 0.9 5.4
v 4.4 0.9 5.4
v -4.3 0.9 5.3
v -2.9 0.9 5.3
v 2.9 0.9 5.3
v 4.3 0.9 5.3
v -4.3 0.9 0.0999999
v -2.9 0.9 0.0999999
v -4.4 0.9 0
v -2.8 0.9 0
v -2.7 0.9 -0.0999999
v -0.9 0.9 -0.0999999
v -2.6 0.9 -0.2
v -1 0.9 -0.2
v -2.6 0.9 -1.6
v -1 0.9 -1.6
v -2.7 0.9 -1.7
v -0.9 0.9 -1.7
v -0.9 0.9 -1.9
v 0.9 0.9 -1.9
v -0.8 0.9 -2
v 0.8 0.9 -2
v -0.8 0.9 -3.4
v 0.8 0.9 -3.4
v -0.9 0.9 -3.5
v 0.9 0.9 -3.5
v 2.8 0.9 -5.4
v 2.9 0.9 -5.4
v 4.3 0.9 -5.4
v 4.4 0.9 -5.4
v -4.4 1.2 5.4
v -2.8 1.2 5.4
v 2.8 1.2 5.4
v 4.4 1.2 5.4
v -4.4 1.2 0
v -2.8 1.2 0
v -2.7 1.2 -0.0999999
v -0.9 1.2 -0.0999999
v -2.7 1.2 -1.7
v -0.9 1.2 -1.7
v -0.9 1.2 -1.9
v 0.9 1.2 -1.9
v -0.9 1.2 -3.5
v 0.9 1.2 -3.5
v 2.8 1.2 -5.4
v 4.4 1.2 -5.4

# faces
f 3/2/1 2/2/1 1/2/1
f 4/2/1 2/2/1 3/2/1
f 5/3/1 4/3/1 3/3/1
f 6/3/1 4/3/1 5/3/1
f 7/2/1 6/2/1 5/2/1
f 8/2/1 6/2/1 7/2/1
f 11/5/1 10/5/1 9/5/1
f 12/5/1 10/5/1 11/5/1
f 13/5/1 11/5/1 9/5/1
f 14/4/1 12/4/1 11/4/1
f 14/5/1 11/5/1 13/5/1
f 15/5/1 10/5/1 12/5/1
f 15/4/1 12/4/1 14/4/1
f 16/5/1 10/5/1 15/5/1
f 17/4/1 14/4/1 13/4/1
f 17/5/1 13/5/1 9/5/1
f 17/4/1 16/4/1 15/4/1
f 17/4/1 15/4/1 14/4/1
f 18/4/1 16/4/1 17/4/1
f 19/4/1 16/4/1 18/4/1
f 20/5/1 10/5/1 16/5/1
f 20/4/1 16/4/1 19/4/1
f 21/4/1 19/4/1 18/4/1
f 21/5/1 18/5/1 17/5/1
f 22/5/1 20/5/1 19/5/1
f 22/4/1 19/4/1 21/4/1
f 23/5/1 17/5/1 9/5/1
f 23/5/1 21/5/1 17/5/1
f 23/5/1 22/5/1 21/5/1
f 24/5/1 10/5/1 20/5/1
f 24/5/1 22/5/1 23/5/1
f 24/5/1 20/5/1 22/5/1
f 27/2/1 26/2/1 25/2/1
f 28/2/1 26/2/1 27/2/1
f 29/3/1 28/3/1 27/3/1
f 30/3/1 28/3/1 29/3/1
f 31/2/1 30/2/1 29/2/1
f 32/2/1 30/2/1 31/2/1
f 35/5/1 34/5/1 33/5/1
f 36/5/1 34/5/1 35/5/1
f 37/5/1 35/5/1 33/5/1
f 38/4/1 36/4/1 35/4/1
f 38/5/1 35/5/1 37/5/1
f 39/5/1 34/5/1 36/5/1
f 39/4/1 36/4/1 38/4/1
f 40/5/1 34/5/1 39/5/1
f 41/4/1 38/4/1 37/4/1
f 41/5/1 37/5/1 33/5/1
f 41/4/1 40/4/1 39/4/1
f 41/4/1 39/4/1 38/4/1
f 42/4/1 40/4/1 41/4/1
f 43/4/1 40/4/1 42/4/1
f 44/5/1 34/5/1 40/5/1
f 44/4/1 40/4/1 43/4/1
f 45/4/1 43/4/1 42/4/1
f 45/5/1 42/5/1 41/5/1
f 46/5/1 44/5/1 43/5/1
f 46/4/1 43/4/1 45/4/1
f 47/5/1 41/5/1 33/5/1
f 47/5/1 45/5/1 41/5/1
f 47/5/1 46/5/1 45/5/1
f 48/5/1 34/5/1 44/5/1
f 48/5/1 46/5/1 47/5/1
f 48/5/1 44/5/1 46/5/1
f 51/2/1 50/2/1 49/2/1
f 52/2/1 50/2/1 51/2/1
f 53/3/1 52/3/1 51/3/1
f 54/3/1 52/3/1 53/3/1
f 55/2/1 54/2/1 53/2/1
f 56/2/1 54/2/1 55/2/1
f 59/5/1 58/5/1 57/5/1
f 60/5/1 58/5/1 59/5/1
f 61/5/1 59/5/1 57/5/1
f 62/4/1 60/4/1 59/4/1
f 62/5/1 59/5/1 61/5/1
f 63/5/1 58/5/1 60/5/1
f 63/4/1 60/4/1 62/4/1
f 64/5/1 58/5/1 63/5/1
f 65/4/1 62/4/1 61/4/1
f 65/5/1 61/5/1 57/5/1
f 65/4/1 64/4/1 63/4/1
f 65/4/1 63/4/1 62/4/1
f 66/4/1 64/4/1 65/4/1
f 67/4/1 64/4/1 66/4/1
f 68/5/1 58/5/1 64/5/1
f 68/4/1 64/4/1 67/4/1
f 69/4/1 67/4/1 66/4/1
f 69/5/1 66/5/1 65/5/1
f 70/5/1 68/5/1 67/5/1
f 70/4/1 67/4/1 69/4/1
f 71/5/1 65/5/1 57/5/1
f 71/5/1 69/5/1 65/5/1
f 71/5/1 70/5/1 69/5/1
f 72/5/1 58/5/1 68/5/1
f 72/5/1 70/5/1 71/5/1
f 72/5/1 68/5/1 70/5/1
f 75/2/1 74/2/1 73/2/1
f 76/2/1 74/2/1 75/2/1
f 77/3/1 76/3/1 75/3/1
f 78/3/1 76/3/1 77/3/1
f 79/2/1 78/2/1 77/2/1
f 80/2/1 78/2/1 79/2/1
f 83/5/1 82/5/1 81/5/1
f 84/5/1 82/5/1 83/5/1
f 85/5/1 83/5/1 81/5/1
f 86/4/1 84/4/1 83/4/1
f 86/5/1 83/5/1 85/5/1
f 87/5/1 82/5/1 84/5/1
f 87/4/1 84/4/1 86/4/1
f 88/5/1 82/5/1 87/5/1
f 89/4/1 86/4/1 85/4/1
f 89/5/1 85/5/1 81/5/1
f 89/4/1 88/4/1 87/4/1
f 89/4/1 87/4/1 86/4/1
f 90/4/1 88/4/1 89/4/1
f 91/4/1 88/4/1 90/4/1
f 92/5/1 82/5/1 88/5/1
f 92/4/1 88/4/1 91/4/1
f 93/4/1 91/4/1 90/4/1
f 93/5/1 90/5/1 89/5/1
f 94/5/1 92/5/1 91/5/1
f 94/4/1 91/4/1 93/4/1
f 95/5/1 89/5/1 81/5/1
f 95/5/1 93/5/1 89/5/1
f 95/5/1 94/5/1 93/5/1
f 96/5/1 82/5/1 92/5/1
f 96/5/1 94/5/1 95/5/1
f 96/5/1 92/5/1 94/5/1
f 97/5/2 98/5/2 99/5/2
f 99/5/2 98/5/2 100/5/2
f 97/5/2 99/5/2 101/5/2
f 99/4/2 100/4/2 102/4/2
f 101/5/2 99/5/2 102/5/2
f 100/5/2 98/5/2 103/5/2
f 102/4/2 100/4/2 103/4/2
f 103/5/2 98/5/2 104/5/2
f 101/4/2 102/4/2 105/4/2
f 97/5/2 101/5/2 105/5/2
f 103/4/2 104/4/2 105/4/2
f 102/4/2 103/4/2 105/4/2
f 105/4/2 104/4/2 106/4/2
f 106/4/2 104/4/2 107/4/2
f 104/5/2 98/5/2 108/5/2
f 107/4/2 104/4/2 108/4/2
f 106/4/2 107/4/2 109/4/2
f 105/5/2 106/5/2 109/5/2
f 107/5/2 108/5/2 110/5/2
f 109/4/2 107/4/2 110/4/2
f 97/5/2 105/5/2 111/5/2
f 105/5/2 109/5/2 111/5/2
f 109/5/2 110/5/2 111/5/2
f 108/5/2 98/5/2 112/5/2
f 111/5/2 110/5/2 112/5/2
f 110/5/2 108/5/2 112/5/2
f 113/2/2 114/2/2 115/2/2
f 115/2/2 114/2/2 116/2/2
f 115/3/2 116/3/2 117/3/2
f 117/3/2 116/3/2 118/3/2
f 117/2/2 118/2/2 119/2/2
f 119/2/2 118/2/2 120/2/2
f 121/5/2 122/5/2 123/5/2
f 123/5/2 122/5/2 124/5/2
f 121/5/2 123/5/2 125/5/2
f 123/4/2 124/4/2 126/4/2
f 125/5/2 123/5/2 126/5/2
f 124/5/2 122/5/2 127/5/2
f 126/4/2 124/4/2 127/4/2
f 127/5/2 122/5/2 128/5/2
f 125/4/2 126/4/2 129/4/2
f 121/5/2 125/5/2 129/5/2
f 127/4/2 128/4/2 129/4/2
f 126/4/2 127/4/2 129/4/2
f 129/4/2 128/4/2 130/4/2
f 130/4/2 128/4/2 131/4/2
f 128/5/2 122/5/2 132/5/2
f 131/4/2 128/4/2 132/4/2
f 130/4/2 131/4/2 133/4/2
f 129/5/2 130/5/2 133/5/2
f 131/5/2 132/5/2 134/5/2
f 133/4/2 131/4/2 134/4/2
f 121/5/2 129/5/2 135/5/2
f 129/5/2 133/5/2 135/5/2
f 133/5/2 134/5/2 135/5/2
f 132/5/2 122/5/2 136/5/2
f 135/5/2 134/5/2 136/5/2
f 134/5/2 132/5/2 136/5/2
f 137/2/2 138/2/2 139/2/2
f 139/2/2 138/2/2 140/2/2
f 139/3/2 140/3/2 141/3/2
f 141/3/2 140/3/2 142/3/2
f 141/2/2 142/2/2 143/2/2
f 143/2/2 142/2/2 144/2/2
f 145/5/2 146/5/2 147/5/2
f 147/5/2 146/5/2 148/5/2
f 145/5/2 147/5/2 149/5/2
f 147/4/2 148/4/2 150/4/2
f 149/5/2 147/5/2 150/5/2
f 148/5/2 146/5/2 151/5/2
f 150/4/2 148/4/2 151/4/2
f 151/5/2 146/5/2 152/5/2
f 149/4/2 150/4/2 153/4/2
f 145/5/2 149/5/2 153/5/2
f 151/4/2 152/4/2 153/4/2
f 150/4/2 151/4/2 153/4/2
f 153/4/2 152/4/2 154/4/2
f 154/4/2 152/4/2 155/4/2
f 152/5/2 146/5/2 156/5/2
f 155/4/2 152/4/2 156/4/2
f 154/4/2 155/4/2 157/4/2
f 153/5/2 154/5/2 157/5/2
f 155/5/2 156/5/2 158/5/2
f 157/4/2 155/4/2 158/4/2
f 145/5/2 153/5/2 159/5/2
f 153/5/2 157/5/2 159/5/2
f 157/5/2 158/5/2 159/5/2
f 156/5/2 146/5/2 160/5/2
f 159/5/2 158/5/2 160/5/2
f 158/5/2 156/5/2 160/5/2
f 161/2/2 162/2/2 163/2/2
f 163/2/2 162/2/2 164/2/2
f 163/3/2 164/3/2 165/3/2
f 165/3/2 164/3/2 166/3/2
f 165/2/2 166/2/2 167/2/2
f 167/2/2 166/2/2 168/2/2
f 169/5/2 170/5/2 171/5/2
f 171/5/2 170/5/2 172/5/2
f 169/5/2 171/5/2 173/5/2
f 171/4/2 172/4/2 174/4/2
f 173/5/2 171/5/2 174/5/2
f 172/5/2 170/5/2 175/5/2
f 174/4/2 172/4/2 175/4/2
f 175/5/2 170/5/2 176/5/2
f 173/4/2 174/4/2 177/4/2
f 169/5/2 173/5/2 177/5/2
f 175/4/2 176/4/2 177/4/2
f 174/4/2 175/4/2 177/4/2
f 177/4/2 176/4/2 178/4/2
f 178/4/2 176/4/2 179/4/2
f 176/5/2 170/5/2 180/5/2
f 179/4/2 176/4/2 180/4/2
f 178/4/2 179/4/2 181/4/2
f 177/5/2 178/5/2 181/5/2
f 179/5/2 180/5/2 182/5/2
f 181/4/2 179/4/2 182/4/2
f 169/5/2 177/5/2 183/5/2
f 177/5/2 181/5/2 183/5/2
f 181/5/2 182/5/2 183/5/2
f 180/5/2 170/5/2 184/5/2
f 183/5/2 182/5/2 184/5/2
f 182/5/2 180/5/2 184/5/2
f 185/2/2 186/2/2 187/2/2
f 187/2/2 186/2/2 188/2/2
f 187/3/2 188/3/2 189/3/2
f 189/3/2 188/3/2 190/3/2
f 189/2/2 190/2/2 191/2/2
f 191/2/2 190/2/2 192/2/2
f 197/2/3 194/2/3 193/2/3
f 198/3/3 195/3/3 194/3/3
f 198/2/3 194/2/3 197/2/3
f 199/2/3 196/2/3 195/2/3
f 199/3/3 195/3/3 198/3/3
f 200/2/3 196/2/3 199/2/3
f 205/2/3 202/2/3 201/2/3
f 206/3/3 203/3/3 202/3/3
f 206/2/3 202/2/3 205/2/3
f 207/2/3 204/2/3 203/2/3
f 207/3/3 203/3/3 206/3/3
f 208/2/3 204/2/3 207/2/3
f 211/5/3 210/5/3 209/5/3
f 212/5/3 210/5/3 211/5/3
f 213/5/3 211/5/3 209/5/3
f 214/4/3 212/4/3 211/4/3
f 214/5/3 211/5/3 213/5/3
f 215/5/3 210/5/3 212/5/3
f 215/4/3 212/4/3 214/4/3
f 216/5/3 210/5/3 215/5/3
f 217/4/3 214/4/3 213/4/3
f 217/5/3 213/5/3 209/5/3
f 217/4/3 216/4/3 215/4/3
f 217/4/3 215/4/3 214/4/3
f 218/4/3 216/4/3 217/4/3
f 219/4/3 216/4/3 218/4/3
f 220/5/3 210/5/3 216/5/3
f 220/4/3 216/4/3 219/4/3
f 221/4/3 219/4/3 218/4/3
f 221/5/3 218/5/3 217/5/3
f 222/5/3 220/5/3 219/5/3
f 222/4/3 219/4/3 221/4/3
f 223/5/3 217/5/3 209/5/3
f 223/5/3 221/5/3 217/5/3
f 223/5/3 222/5/3 221/5/3
f 224/5/3 210/5/3 220/5/3
f 224/5/3 222/5/3 223/5/3
f 224/5/3 220/5/3 222/5/3
f 227/5/3 226/5/3 225/5/3
f 228/5/3 226/5/3 227/5/3
f 229/5/3 227/5/3 225/5/3
f 230/4/3 228/4/3 227/4/3
f 230/5/3 227/5/3 229/5/3
f 231/5/3 226/5/3 228/5/3
f 231/4/3 228/4/3 230/4/3
f 232/5/3 226/5/3 231/5/3
f 233/4/3 230/4/3 229/4/3
f 233/5/3 229/5/3 225/5/3
f 233/4/3 232/4/3 231/4/3
f 233/4/3 231/4/3 230/4/3
f 234/4/3 232/4/3 233/4/3
f 235/4/3 232/4/3 234/4/3
f 236/5/3 226/5/3 232/5/3
f 236/4/3 232/4/3 235/4/3
f 237/4/3 235/4/3 234/4/3
f 237/5/3 234/5/3 233/5/3
f 238/5/3 236/5/3 235/5/3
f 238/4/3 235/4/3 237/4/3
f 239/5/3 233/5/3 225/5/3
f 239/5/3 237/5/3 233/5/3
f 239/5/3 238/5/3 237/5/3
f 240/5/3 226/5/3 236/5/3
f 240/5/3 238/5/3 239/5/3
f 240/5/3 236/5/3 238/5/3
f 245/2/3 242/2/3 241/2/3
f 246/3/3 243/3/3 242/3/3
f 246/2/3 242/2/3 245/2/3
f 247/2/3 244/2/3 243/2/3
f 247/3/3 243/3/3 246/3/3
f 248/2/3 244/2/3 247/2/3
f 251/5/3 250/5/3 249/5/3
f 252/5/3 250/5/3 251/5/3
f 253/5/3 251/5/3 249/5/3
f 254/4/3 252/4/3 251/4/3
f 254/5/3 251/5/3 253/5/3
f 255/5/3 250/5/3 252/5/3
f 255/4/3 252/4/3 254/4/3
f 256/5/3 250/5/3 255/5/3
f 257/4/3 254/4/3 253/4/3
f 257/5/3 253/5/3 249/5/3
f 257/4/3 256/4/3 255/4/3
f 257/4/3 255/4/3 254/4/3
f 258/4/3 256/4/3 257/4/3
f 259/4/3 256/4/3 258/4/3
f 260/5/3 250/5/3 256/5/3
f 260/4/3 256/4/3 259/4/3
f 261/4/3 259/4/3 258/4/3
f 261/5/3 258/5/3 257/5/3
f 262/5/3 260/5/3 259/5/3
f 262/4/3 259/4/3 261/4/3
f 263/5/3 257/5/3 249/5/3
f 263/5/3 261/5/3 257/5/3
f 263/5/3 262/5/3 261/5/3
f 264/5/3 250/5/3 260/5/3
f 264/5/3 262/5/3 263/5/3
f 264/5/3 260/5/3 262/5/3
f 269/2/3 266/2/3 265/2/3
f 270/3/3 267/3/3 266/3/3
f 270/2/3 266/2/3 269/2/3
f 271/2/3 268/2/3 267/2/3
f 271/3/3 267/3/3 270/3/3
f 272/2/3 268/2/3 271/2/3
f 275/5/3 274/5/3 273/5/3
f 276/5/3 274/5/3 275/5/3
f 277/5/3 275/5/3 273/5/3
f 278/4/3 276/4/3 275/4/3
f 278/5/3 275/5/3 277/5/3
f 279/5/3 274/5/3 276/5/3
f 279/4/3 276/4/3 278/4/3
f 280/5/3 274/5/3 279/5/3
f 281/4/3 278/4/3 277/4/3
f 281/5/3 277/5/3 273/5/3
f 281/4/3 280/4/3 279/4/3
f 281/4/3 279/4/3 278/4/3
f 282/4/3 280/4/3 281/4/3
f 283/4/3 280/4/3 282/4/3
f 284/5/3 274/5/3 280/5/3
f 284/4/3 280/4/3 283/4/3
f 285/4/3 283/4/3 282/4/3
f 285/5/3 282/5/3 281/5/3
f 286/5/3 284/5/3 283/5/3
f 286/4/3 283/4/3 285/4/3
f 287/5/3 281/5/3 273/5/3
f 287/5/3 285/5/3 281/5/3
f 287/5/3 286/5/3 285/5/3
f 288/5/3 274/5/3 284/5/3
f 288/5/3 286/5/3 287/5/3
f 288/5/3 284/5/3 286/5/3
f 289/5/4 290/5/4 291/5/4
f 291/5/4 290/5/4 292/5/4
f 289/5/4 291/5/4 293/5/4
f 291/4/4 292/4/4 294/4/4
f 293/5/4 291/5/4 294/5/4
f 292/5/4 290/5/4 295/5/4
f 294/4/4 292/4/4 295/4/4
f 295/5/4 290/5/4 296/5/4
f 293/4/4 294/4/4 297/4/4
f 289/5/4 293/5/4 297/5/4
f 295/4/4 296/4/4 297/4/4
f 294/4/4 295/4/4 297/4/4
f 297/4/4 296/4/4 298/4/4
f 298/4/4 296/4/4 299/4/4
f 296/5/4 290/5/4 300/5/4
f 299/4/4 296/4/4 300/4/4
f 298/4/4 299/4/4 301/4/4
f 297/5/4 298/5/4 301/5/4
f 299/5/4 300/5/4 302/5/4
f 301/4/4 299/4/4 302/4/4
f 289/5/4 297/5/4 303/5/4
f 297/5/4 301/5/4 303/5/4
f 301/5/4 302/5/4 303/5/4
f 300/5/4 290/5/4 304/5/4
f 303/5/4 302/5/4 304/5/4
f 302/5/4 300/5/4 304/5/4
f 305/2/4 306/2/4 309/2/4
f 306/3/4 307/3/4 310/3/4
f 309/2/4 306/2/4 310/2/4
f 307/2/4 308/2/4 311/2/4
f 310/3/4 307/3/4 311/3/4
f 311/2/4 308/2/4 312/2/4
f 313/5/4 314/5/4 315/5/4
f 315/5/4 314/5/4 316/5/4
f 313/5/4 315/5/4 317/5/4
f 315/4/4 316/4/4 318/4/4
f 317/5/4 315/5/4 318/5/4
f 316/5/4 314/5/4 319/5/4
f 318/4/4 316/4/4 319/4/4
f 319/5/4 314/5/4 320/5/4
f 317/4/4 318/4/4 321/4/4
f 313/5/4 317/5/4 321/5/4
f 319/4/4 320/4/4 321/4/4
f 318/4/4 319/4/4 321/4/4
f 321/4/4 320/4/4 322/4/4
f 322/4/4 320/4/4 323/4/4
f 320/5/4 314/5/4 324/5/4
f 323/4/4 320/4/4 324/4/4
f 322/4/4 323/4/4 325/4/4
f 321/5/4 322/5/4 325/5/4
f 323/5/4 324/5/4 326/5/4
f 325/4/4 323/4/4 326/4/4
f 313/5/4 321/5/4 327/5/4
f 321/5/4 325/5/4 327/5/4
f 325/5/4 326/5/4 327/5/4
f 324/5/4 314/5/4 328/5/4
f 327/5/4 326/5/4 328/5/4
f 326/5/4 324/5/4 328/5/4
f 329/2/4 330/2/4 333/2/4
f 330/3/4 331/3/4 334/3/4
f 333/2/4 330/2/4 334/2/4
f 331/2/4 332/2/4 335/2/4
f 334/3/4 331/3/4 335/3/4
f 335/2/4 332/2/4 336/2/4
f 337/5/4 338/5/4 339/5/4
f 339/5/4 338/5/4 340/5/4
f 337/5/4 339/5/4 341/5/4
f 339/4/4 340/4/4 342/4/4
f 341/5/4 339/5/4 342/5/4
f 340/5/4 338/5/4 343/5/4
f 342/4/4 340/4/4 343/4/4
f 343/5/4 338/5/4 344/5/4
f 341/4/4 342/4/4 345/4/4
f 337/5/4 341/5/4 345/5/4
f 343/4/4 344/4/4 345/4/4
f 342/4/4 343/4/4 345/4/4
f 345/4/4 344/4/4 346/4/4
f 346/4/4 344/4/4 347/4/4
f 344/5/4 338/5/4 348/5/4
f 347/4/4 344/4/4 348/4/4
f 346/4/4 347/4/4 349/4/4
f 345/5/4 346/5/4 349/5/4
f 347/5/4 348/5/4 350/5/4
f 349/4/4 347/4/4 350/4/4
f 337/5/4 345/5/4 351/5/4
f 345/5/4 349/5/4 351/5/4
f 349/5/4 350/5/4 351/5/4
f 348/5/4 338/5/4 352/5/4
f 351/5/4 350/5/4 352/5/4
f 350/5/4 348/5/4 352/5/4
f 353/2/4 354/2/4 357/2/4
f 354/3/4 355/3/4 358/3/4
f 357/2/4 354/2/4 358/2/4
f 355/2/4 356/2/4 359/2/4
f 358/3/4 355/3/4 359/3/4
f 359/2/4 356/2/4 360/2/4
f 361/2/4 362/2/4 366/2/4
f 365/5/4 366/5/4 367/5/4
f 367/5/4 366/5/4 368/5/4
f 365/5/4 367/5/4 369/5/4
f 367/4/4 368/4/4 370/4/4
f 369/5/4 367/5/4 370/5/4
f 368/5/4 366/5/4 371/5/4
f 370/4/4 368/4/4 371/4/4
f 371/5/4 366/5/4 372/5/4
f 369/4/4 370/4/4 373/4/4
f 365/5/4 369/5/4 373/5/4
f 371/4/4 372/4/4 373/4/4
f 370/4/4 371/4/4 373/4/4
f 373/4/4 372/4/4 374/4/4
f 374/4/4 372/4/4 375/4/4
f 372/5/4 366/5/4 376/5/4
f 375/4/4 372/4/4 376/4/4
f 374/4/4 375/4/4 377/4/4
f 373/5/4 374/5/4 377/5/4
f 375/5/4 376/5/4 378/5/4
f 377/4/4 375/4/4 378/4/4
f 365/5/4 373/5/4 379/5/4
f 373/5/4 377/5/4 379/5/4
f 377/5/4 378/5/4 379/5/4
f 366/2/4 362/2/4 380/2/4
f 379/5/4 378/5/4 380/5/4
f 376/5/4 366/5/4 380/5/4
f 378/5/4 376/5/4 380/5/4
f 380/2/4 362/2/4 381/2/4
f 362/3/4 363/3/4 382/3/4
f 381/2/4 362/2/4 382/2/4
f 363/2/4 364/2/4 383/2/4
f 382/3/4 363/3/4 383/3/4
f 383/2/4 364/2/4 384/2/4
f 389/5/5 386/5/5 385/5/5
f 390/5/5 386/5/5 389/5/5
f 391/5/5 388/5/5 387/5/5
f 392/5/5 388/5/5 391/5/5
f 393/5/5 389/5/5 385/5/5
f 393/4/5 390/4/5 389/4/5
f 394/5/5 386/5/5 390/5/5
f 394/4/5 390/4/5 393/4/5
f 395/5/5 393/5/5 385/5/5
f 395/2/5 394/2/5 393/2/5
f 396/5/5 386/5/5 394/5/5
f 396/2/5 394/2/5 395/2/5
f 397/4/5 392/4/5 391/4/5
f 397/5/5 391/5/5 387/5/5
f 398/5/5 388/5/5 392/5/5
f 398/4/5 392/4/5 397/4/5
f 399/5/5 397/5/5 387/5/5
f 399/5/5 398/5/5 397/5/5
f 400/5/5 388/5/5 398/5/5
f 400/5/5 398/5/5 399/5/5
f 401/5/5 395/5/5 385/5/5
f 401/4/5 396/4/5 395/4/5
f 402/5/5 386/5/5 396/5/5
f 402/4/5 396/4/5 401/4/5
f 403/5/5 401/5/5 385/5/5
f 403/5/5 402/5/5 401/5/5
f 404/5/5 386/5/5 402/5/5
f 404/5/5 402/5/5 403/5/5
f 407/5/5 406/5/5 405/5/5
f 408/5/5 406/5/5 407/5/5
f 409/5/5 407/5/5 405/5/5
f 409/4/5 408/4/5 407/4/5
f 410/5/5 406/5/5 408/5/5
f 410/4/5 408/4/5 409/4/5
f 411/5/5 409/5/5 405/5/5
f 411/5/5 410/5/5 409/5/5
f 412/5/5 406/5/5 410/5/5
f 412/5/5 410/5/5 411/5/5
f 413/5/5 399/5/5 387/5/5
f 413/4/5 400/4/5 399/4/5
f 414/5/5 388/5/5 400/5/5
f 414/4/5 400/4/5 413/4/5
f 417/5/5 413/5/5 387/5/5
f 417/5/5 414/5/5 413/5/5
f 418/5/5 388/5/5 414/5/5
f 418/5/5 414/5/5 417/5/5
f 419/5/5 416/5/5 415/5/5
f 420/5/5 416/5/5 419/5/5
f 421/5/5 419/5/5 415/5/5
f 421/4/5 420/4/5 419/4/5
f 422/5/5 416/5/5 420/5/5
f 422/4/5 420/4/5 421/4/5
f 423/5/5 421/5/5 415/5/5
f 423/5/5 422/5/5 421/5/5
f 424/5/5 416/5/5 422/5/5
f 424/5/5 422/5/5 423/5/5
f 425/5/5 417/5/5 387/5/5
f 425/4/5 418/4/5 417/4/5
f 426/5/5 388/5/5 418/5/5
f 426/4/5 418/4/5 425/4/5
f 427/5/5 425/5/5 387/5/5
f 427/5/5 426/5/5 425/5/5
f 428/5/5 388/5/5 426/5/5
f 428/5/5 426/5/5 427/5/5
f 433/2/5 430/2/5 429/2/5
f 434/2/5 430/2/5 433/2/5
f 435/2/5 432/2/5 431/2/5
f 436/2/5 432/2/5 435/2/5
f 437/2/5 433/2/5 429/2/5
f 438/2/5 430/2/5 434/2/5
f 439/2/5 437/2/5 429/2/5
f 439/2/5 438/2/5 437/2/5
f 440/2/5 430/2/5 438/2/5
f 440/2/5 438/2/5 439/2/5
f 443/2/5 442/2/5 441/2/5
f 444/2/5 442/2/5 443/2/5
f 445/2/5 443/2/5 441/2/5
f 446/2/5 442/2/5 444/2/5
f 447/2/5 445/2/5 441/2/5
f 447/2/5 446/2/5 445/2/5
f 448/2/5 442/2/5 446/2/5
f 448/2/5 446/2/5 447/2/5
f 451/2/5 450/2/5 449/2/5
f 452/2/5 450/2/5 451/2/5
f 453/2/5 451/2/5 449/2/5
f 454/2/5 450/2/5 452/2/5
f 455/2/5 453/2/5 449/2/5
f 455/2/5 454/2/5 453/2/5
f 456/2/5 450/2/5 454/2/5
f 456/2/5 454/2/5 455/2/5
f 457/2/5 435/2/5 431/2/5
f 458/2/5 435/2/5 457/2/5
f 459/2/5 432/2/5 436/2/5
f 460/2/5 432/2/5 459/2/5
f 461/2/6 462/2/6 465/2/6
f 465/2/6 462/2/6 466/2/6
f 467/2/6 468/2/6 469/2/6
f 469/2/6 468/2/6 470/2/6
f 471/2/6 472/2/6 473/2/6
f 473/2/6 472/2/6 474/2/6
f 463/2/6 464/2/6 475/2/6
f 475/2/6 464/2/6 476/2/6
